<?xml version="1.0" encoding="utf-8"?>
<svg xmlns="http://www.w3.org/2000/svg" version="1.1" viewBox="0 0 1920 1792">
	<title>A plan of a bedroom, showing a fireplace along one wall across from a day bed. In front of the fireplace is the silhouette of a fallen body, labelled “position in which body was found.”</title>
	<path d="m1027.5 1752.5c-3.6747-3.6747-4.5488-3.7875-6.8341-0.8823-2.1105 2.6832-4.6075 2.7905-8.5797 0.3689-2.9818-1.8178-3.6952-1.833-104.3-2.2291-91.161-0.3587-101.63-0.2583-104.64 1.0036-4.1833 1.7543-8.6524 1.0479-10.171-1.6078-0.6125-1.0711-1.1136-4.7267-1.1136-8.1237v-6.1764l-18.529-0.4609c-10.191-0.2536-38.977-0.383-63.969-0.2878-65.391 0.2493-139.16 0.3416-150.44 0.1883-5.3381-0.072-13.875-0.02-18.97 0.1172-5.0955 0.137-18 0.2278-28.676 0.2018-23.756-0.058-158.62-0.097-172.06-0.049-5.3382 0.019-13.081-0.025-17.206-0.098-51.953-0.9125-234.98-2.2195-272.64-1.947-16.061 0.1162-18.212-0.036-19.191-1.3618-1.516-2.0518-1.5024-18.801 0.01705-20.879 0.61598-0.8424 1.9064-1.5313 2.8676-1.531 42.942 0.015 135.9 1.2075 141.81 1.819 5.9984 0.6206 8.2686 0.5717 8.7384-0.1883 0.98067-1.5867 1.8474-9.1941 1.2587-11.049-0.38996-1.2286-0.69817-83.288-0.42829-114.03 0.0149-1.6985-0.19854-45.573-0.47432-97.498s-0.43897-95.8-0.36265-97.498c0.0763-1.6985 0.12384-3.8823 0.10562-4.8529-0.0183-0.9706-0.24097-61.771-0.49498-135.11-0.49361-142.53-0.28744-136.17-4.53-139.69-3.2188-2.6713 0.22836-8.8716 4.9323-8.8716 1.5881 0 3.7933-1.6284 7.6636-5.6588 2.9886-3.1124 5.4339-6.2697 5.4339-7.0164 0-0.7466 1.6875-2.5319 3.7499-3.9675 5.2339-3.6429 12.602-10.912 18.546-18.298 2.7732-3.4459 7.3786-7.9667 10.234-10.046 2.8557-2.0795 6.9184-6.0644 9.0284-8.8553s5.4493-6.0948 7.4208-7.3421c1.9715-1.2473 12.369-10.921 23.106-21.497 10.737-10.576 25.306-24.897 32.375-31.826 7.0696-6.9286 13.238-13.281 13.707-14.117 1.3442-2.3949 12.592-13.749 15.37-15.516 1.381-0.8781 3.1429-2.6977 3.9153-4.0436 2.1306-3.7124 6.5748-6.4281 9.3708-5.7264 2.5084 0.62964 7.585 6.1466 7.585 8.2432 0 0.70445-2.0448 3.0956-4.544 5.3135-2.4992 2.2179-14.761 14.157-27.249 26.532-12.488 12.375-26.821 26.578-31.852 31.562-5.0311 4.9844-15.777 15.705-23.879 23.823-8.1026 8.1183-19.294 19.128-24.87 24.466-41.032 39.282-45.771 44.922-43.89 52.236 0.66991 2.6039 1.2756 79.525 1.013 128.64-0.0893 16.709-0.17818 37.484-0.16978 39.705 5e-3 1.4558 0.0461 13.942 0.0903 27.748 0.0771 24.087 0.15388 25.179 1.9013 27.039 1.7473 1.8599 1.7645 2.1045 0.42561 6.0481-0.86496 2.5476-1.6353 9.2066-2.0266 17.519-0.64596 13.72-0.686 16.229-0.41824 26.203 0.50212 18.704-0.58115 295.25-1.1735 299.59-0.39557 2.8937-0.60546 5.6583-0.46642 6.1436s0.32643 3.2646 0.41644 6.1763l0.16365 5.2941 10.986 1.1473c7.9757 0.8329 12.558 0.9015 16.721 0.2501 3.1544-0.4934 10.103-0.8602 15.441-0.815 15.37 0.1301 16.161-0.4069 1.7647-1.1988-18.481-1.0167-19.839-1.0332-23.884-0.2926-3.0728 0.5627-3.9487 0.3493-6.0749-1.4795-2.3142-1.9906-2.5383-2.7816-3.2727-11.548-0.49282-5.8828-0.45072-14.462 0.11229-22.884 0.49539-7.41 0.92097-13.87 0.94574-14.355 0.0248-0.4853-0.23899-13.786-0.58614-29.558-0.71046-32.277-0.71523-29.305 0.087-54.264 0.50281-15.643 0.68564-155.99 0.21897-168.09-0.0946-2.4513 0.51443-5.3209 1.5918-7.4999 1.6311-3.2987 2.0622-3.5736 6.5979-4.2078 5.0928-0.712 16.534-1.5619 20.294-1.5076 1.2132 0.018 5.1077-0.01 8.6544-0.059 3.5467-0.05 6.9216 0.3007 7.4999 0.7795 0.65688 0.544 2.541 0.5844 5.0218 0.1078 2.5447-0.489 5.0532-0.4192 6.9854 0.194 1.9814 0.6287 5.3085 0.7031 9.7057 0.2169 3.68-0.407 10.463-0.6179 15.073-0.4689 4.6102 0.149 11.757 0.2117 15.882 0.1393 20.177-0.3543 49.061-0.2623 57.352 0.1826 5.8897 0.3162 9.6712 0.1608 10.381-0.4264 0.77846-0.6442 2.5652-0.6327 5.904 0.038 3.4194 0.6867 9.4045 0.6986 20.942 0.041 8.8849-0.5059 17.941-0.6323 20.125-0.2807 2.1838 0.3515 10.72 0.7777 18.97 0.9472 19.209 0.3947 18.653 0.397 41.029-0.1723 22.704-0.5777 14.27-0.5207 80.293-0.5419 66.62-0.021 61.86-0.03 113.82 0.217 23.536 0.112 48.551-0.035 55.587-0.3277l12.794-0.5313 4.6323 3.0596c5.1779 3.4199 5.8638 5.6495 2.898 9.42-1.3087 1.6637-1.7133 3.4792-1.6487 7.3983 0.17882 10.853 0.14829 21.375-0.0859 29.615-0.13351 4.6967-9e-3 8.9182 0.2774 9.3812 0.28609 0.4628 0.71897 29.903 0.96195 65.422 0.24299 35.519 0.59742 64.848 0.78761 65.176 0.1902 0.3279 0.0286 10.522-0.35908 22.655-0.47886 14.985-0.39302 24.322 0.26766 29.117 0.53492 3.8823 0.93497 8.3491 0.88903 9.9263-0.046 1.5772-0.088 3.8602-0.0933 5.0734-5e-3 1.2132-0.0434 3.4963-0.0844 5.0735-0.041 1.5771-0.06 4.7368-0.0422 7.0214 0.0178 2.2847-0.33788 6.4538-0.79056 9.2647-0.48696 3.0236-0.52865 11.236-0.1021 20.11 0.8304 17.277 0.57859 18.088-5.615 18.088-2.1348 0-3.2322 0.3171-2.7308 0.7891 0.46102 0.434 12.024 0.9554 25.696 1.1586 18.941 0.2815 25.194 0.6487 26.271 1.5425 1.9926 1.6538 2.6735 0.5374 1.4596-2.3932-0.56702-1.3688-1.1168-5.7034-1.2217-9.6323-0.15904-5.9559 0.0887-7.4537 1.4901-9.0098 1.9552-2.171 4.4775-2.3597 7.5837-0.5677 5.1565 2.9749 6.9008 3.2321 21.612 3.1859 8.2528-0.026 16.523 0.3089 18.379 0.7441 2.0603 0.4832 10.649 0.4073 22.058-0.195 16.215-0.8559 24.929-0.9469 40.743-0.4253 3.192 0.1054 17.338 0 22.279-0.162 1.0919-0.036 3.0772-0.041 4.4117-0.01 18.628 0.4298 59.309 0.3952 60.622-0.052 0.94922-0.323 3.133-0.1934 4.8528 0.2882 4.9794 1.3941 9.3998 0.987 12.388-1.1408 3.1798-2.2643 8.2539-2.5567 10.425-0.6007 2.4634 2.2197 6.0532 2.6705 9.687 1.2165 2.5887-1.0358 3.7338-1.1102 5.0733-0.3295 1.978 1.1528 5.1901 1.2878 34.376 1.445 11.647 0.063 24.84 0.4309 29.317 0.818 4.4775 0.3872 10.036 0.3713 12.353-0.035 5.101-0.8954 36.341-1.077 79.211-0.4607 17.47 0.2512 35.925 0.2235 41.011-0.062 9.1093-0.5107 9.286-0.5622 11.853-3.4621 1.4334-1.6191 3.1484-2.9437 3.8112-2.9437 3.7113 0 10.995 7.009 12.177 11.718 0.4511 1.7975-0.048 2.7741-2.6037 5.1002-3.4638 3.1521-3.8512 4.4523-1.8266 6.1326 1.0675 0.8859 5.7965 0.8972 23.602 0.056 12.247-0.5783 30.606-1.001 40.797-0.9391 16.609 0.1008 25.499 0.125 32.867 0.089 1.3346-0.01 7.1911 0.2076 13.014 0.4755s12.772 0.4075 15.441 0.3101c9.7793-0.3568 13.848-0.2073 21.981 0.8079 9.4421 1.1786 10.177 0.8379 9.3592-4.339-1.9507-12.351-2.2978-16.795-1.5291-19.579 0.4858-1.7593 0.5515-6.1605 0.1563-10.477-0.3969-4.336-0.3228-9.1696 0.1776-11.578 0.5415-2.6071 0.5508-4.7262 0.026-5.7352-0.4756-0.9129-0.8428-14.863-0.8553-32.482-0.012-16.985-0.087-37.114-0.1667-44.73-0.093-8.8873 0.2125-14.517 0.853-15.713 0.5726-1.0701 0.7395-3.0412 0.3915-4.6256-1.6657-7.5837-2.559-30.835-1.9916-51.84 0.5354-19.823 1.7237-83.067 1.6496-87.793-0.2354-15.008-1.169-66.768-1.3846-76.763-0.1569-7.2793-0.5286-15.22-0.8258-17.647-0.7694-6.2803-0.806-23.811-0.062-29.662 0.5914-4.6507 0.4815-5.095-1.7801-7.1921-3.0353-2.8145-2.5142-5.6006 1.552-8.2953 3.1778-2.1059 4.2104-2.3061 11.12-2.1569 3.9451 0.086 5.1145 0.516 7.2793 2.6809 3.4918 3.4917 3.3544 6.3258-0.4475 9.2255l-3.0266 2.3085 0.3276 85.809c0.1801 47.195 0.4336 97.721 0.5634 112.28 0.1299 14.559 0.1023 48.506-0.061 75.44-0.2877 47.4 0.1335 62.227 1.8627 65.56 0.5592 1.0777 0.3599 2.9905-0.6184 5.9359-0.7939 2.3903-1.228 4.6946-0.9646 5.1209 0.6933 1.1218 0.7508 8.8973 0.1463 19.79-0.2901 5.2286-0.1141 12.08 0.3915 15.245 0.6497 4.0669 0.6268 9.2518-0.079 17.719-0.6913 8.301-0.715 12.251-0.078 12.889 0.5975 0.5975 8.428 0.8551 22.373 0.7358 26.28-0.2249 25.162-0.2581 27.152 0.8064 1.067 0.571 3.8841 0.5825 8.1149 0.034 3.5643-0.4628 7.1754-0.8537 8.0246-0.8687 0.9467-0.017 1.5441-0.7099 1.5441-1.7919 0-1.4936 0.5882-1.7647 3.8289-1.7647 3.2803 0 3.9807 0.3331 4.8883 2.3251 1.0189 2.2363 1.2682 2.3063 6.5167 1.8304 3.0015-0.2722 5.5995-0.9215 5.7732-1.4429 0.1738-0.5213 1.0771-0.9479 2.0072-0.9479s1.6911-0.3971 1.6911-0.8824 0.5956-0.8823 1.3236-0.8823c0.7279 0 1.3235 0.397 1.3235 0.8823s0.9926 0.8824 2.2058 0.8824 2.2058-0.4211 2.2058-0.9357c0-0.5413 1.3916-0.8202 3.3025-0.6617 2.5962 0.2153 3.5501 0.7928 4.4599 2.7003 0.785 1.6458 1.8347 2.4264 3.2629 2.4264 2.8181 0 3.6014-1.4841 1.1877-2.2502l-1.93-0.6125 2.1378-1.1844c2.5303-1.4018 13.167-1.674 13.167-0.337 0 0.5006 1.4143 0.8148 3.143 0.6984 1.9832-0.1336 3.4348 0.2605 3.9337 1.0679 0.6299 1.019 1.0139 1.0565 1.8865 0.184 1.5801-1.5801 4.0009-1.3547 8.2525 0.7687 3.4193 1.7076 4.3128 1.7867 10.643 0.9408 3.8007-0.5079 7.2432-0.7176 7.6501-0.4661 1.3937 0.8613 14.281 1.0499 15.81 0.2314 0.8404-0.4497 2.4423-0.823 3.56-0.8294 1.7139-0.01 28.302 0.8865 33.796 1.1394 8.1567 0.3756 14.438-0.3632 16.219-1.9074 1.9836-1.7204 5.2527-1.5823 6.4686 0.2732 1.055 1.6098 35.582 2.1992 64.223 1.0964 8.0072-0.3084 16.941-0.4904 19.853-0.4046 2.9117 0.086 9.6616 0.1035 15 0.04 38.745-0.4652 53.236-0.4069 54.248 0.2185 0.6411 0.3963 7.9547 0.8369 16.252 0.9791l15.087 0.2587 0.1765-20.349c0.097-11.192 0.3948-20.567 0.6617-20.834 0.9411-0.9412 0.4693-11.303-0.822-18.051-1.3542-7.0764-1.9584-22.778-0.94-24.425 0.3193-0.5167 0.1184-4.101-0.4466-7.9651-0.864-5.9087-0.8139-7.6518 0.3152-10.965 1.3928-4.0879 0.999-11.239-1.2336-22.397-0.6967-3.4819-0.6534-5.468 0.173-7.9411 1.7629-5.2756 1.7782-11.562 0.031-12.498-1.2221-0.654-1.4564-2.1447-1.3713-8.7215 0.088-6.8076 0.3848-8.2891 2.0919-10.446 1.7796-2.2489 1.926-3.1188 1.3885-8.2491-1.2648-12.07-1.4544-35.752-0.3521-43.973 1.1287-8.4187 0.8462-10.097-2.0019-11.894-0.9686-0.611-2.3662-0.088-5.1468 1.9263-2.0994 1.5208-4.7682 2.7651-5.9307 2.7651-4.7518 0-8.2055-6.9108-6.9697-13.946 0.315-1.7927 0.6836-9.0167 0.8193-16.053 0.1624-8.4262 0.6488-13.61 1.4244-15.184 0.9433-1.9139 0.969-3.1437 0.1292-6.1763-0.641-2.3148-1.0123-9.6167-0.9552-18.786 0.1641-26.333 0.142-33.661-0.2156-71.469-0.3189-33.722-0.4951-37.333-1.9567-40.113-1.5534-2.9538-1.5534-3.2097-1e-4 -7.7794 1.6011-4.7103 5.4337-9.0188 8.0226-9.0188 2.4867 0 4.7254 1.8316 6.5069 5.3235 1.8204 3.5684 4.2598 4.5596 5.8988 2.397 2.1982-2.9004 3.0193-8.6774 1.9514-13.73-0.8538-4.0396-1.985-62.774-1.5411-80.019 0.1091-4.2376-0.1061-13.284-0.5983-25.147-0.2517-6.0661-0.6365-17.382-0.8551-25.147-0.2186-7.7646-0.5252-16.301-0.6811-18.97-0.3375-5.7772 0.6719-32.47 1.6519-43.676 0.9783-11.188 0.7023-16.334-0.9657-18.003-1.0596-1.0607-3.1944-1.408-8.6558-1.408-11.266 0-21.864 1.0679-26.22 2.6416-2.1838 0.7892-5.0848 1.2179-6.4466 0.9528-1.4728-0.2867-3.2948 0.055-4.4969 0.8422-1.84 1.2056-2.2234 1.165-4.2807-0.4533-2.3939-1.883-6.3631-2.3714-7.2754-0.8951-0.6779 1.0968-8.9803 1.1738-9.6504 0.089-0.2696-0.436-4.3628-0.8405-9.0961-0.8986-4.7333-0.058-9.5986-0.1552-10.812-0.2155-1.2132-0.06-3.397-0.033-4.8528 0.061-1.4559 0.093-4.533-0.1-6.8381-0.43-3.0796-0.4408-4.1911-0.3083-4.1911 0.5 0 0.7241-0.6785 0.9021-1.9853 0.5209-1.0919-0.3185-23.426-0.7448-49.632-0.9473s-57.97-0.5941-70.587-0.8701c-18.149-0.3971-98.647-0.5152-120.88-0.1773-8.4516 0.1284-58.292-1.1435-66.354-1.6934l-8.1193-0.5538-0.7028 2.5282c-0.3867 1.3905-0.6914 8.7983-0.6773 16.462l0.026 13.934 2.8334 2.648c1.5584 1.4565 3.0815 3.6364 3.3847 4.8443 0.3031 1.2081 2.1924 3.3438 4.1984 4.7464 4.6128 3.2253 9.5167 7.9884 19.529 18.969 4.3676 4.7897 14.691 15.508 22.941 23.819 8.2498 8.3108 18.862 19.066 23.581 23.902 18.275 18.721 27.638 27.782 28.697 27.772 0.6066-0.01 1.1029 0.7578 1.1029 1.6969 0 1.6262 3.1452 4.3044 9.3507 7.9624 3.9287 2.3158 11.206 12.987 10.574 15.506-0.4109 1.6373-1.3188 2.0742-5.3586 2.5789-7.633 0.9537-12.661-1.8171-23.676-13.048-16.688-17.015-31.429-32.776-33.972-36.324-1.3913-1.9412-7.047-8.0955-12.568-13.676-10.136-10.245-18.999-20.278-24.613-27.862-1.6825-2.2728-5.653-6.2421-8.8234-8.8209-5.63-4.5792-17.87-16.243-20.137-19.19-0.7204-0.9362-2.4006-1.4786-4.5802-1.4786-1.8935 0-3.7383-0.4786-4.0997-1.0634-0.3615-0.5849-0.604-13.329-0.5389-28.32 0.1004-23.102 0.3289-27.578 1.4987-29.363 2.0556-3.1374 5.1358-3.5525 8.9351-1.2044 2.9946 1.8508 3.6917 1.93 9.9536 1.1316 3.7034-0.4723 20.035-0.7532 36.292-0.6243 16.257 0.1289 35.117 0.2354 41.911 0.2366 6.794 0 18.399 0.051 25.79 0.1103 8.8693 0.072 14.485-0.2709 16.52-1.0068 2.6058-0.9423 3.8148-0.8843 7.8094 0.3749 4.3568 1.3734 5.0482 1.3802 8.8439 0.087 2.7902-0.9507 5.7544-1.2498 9.1944-0.9277 5.9715 0.5591 29.488 1.6058 33.311 1.4825 13.849-0.4464 70.401-0.3289 70.695 0.1468 0.2102 0.3395 1.7477-0.1883 3.4167-1.173 1.6689-0.9847 3.4852-1.5118 4.0361-1.1712 1.6922 1.0458 10.858 1.2272 12.049 0.2383 0.7824-0.6493 1.8598-0.6537 3.5504-0.015 2.2083 0.8347 17.587 2.2875 21.839 2.063 0.9705-0.051 5.1396-0.3098 9.2645-0.5746 8.6455-0.555 13.636-0.7026 16.764-0.496 7.1119 0.4698 16.579 0.4933 48.087 0.1194 21.678-0.2573 26.392-0.082 30.847 1.1467 6.243 1.7219 13.144 1.8887 14.379 0.3475 0.5558-0.6939 0.6391-4.0473 0.2244-9.0439-0.3625-4.3676-0.3315-8.8156 0.069-9.8844 0.4195-1.1197 0.2997-3.9856-0.2826-6.7623-0.8058-3.8412-0.766-5.5611 0.1961-8.4762 0.9754-2.9555 0.9987-4.2334 0.1213-6.6597-0.7901-2.1851-0.8536-4.3926-0.2332-8.1095 0.4917-2.9451 0.6528-15.566 0.3807-29.813-0.4898-25.645-0.6484-30.54-1.6574-51.176-0.4775-9.7666-0.3065-13.784 0.817-19.187 0.9383-4.5124 1.1532-7.539 0.6324-8.9087-0.718-1.8886-0.5744-19.469 0.3148-38.521 0.3754-8.0419-0.2208-9.7057-3.4776-9.7057-1.4677 0-2.2764 0.75977-2.9912 2.8103-2.1944 6.2947-6.6582 7.7843-11.392 3.8014-3.3176-2.7915-4.3784-7.1582-3.5349-14.55 0.3601-3.1556 1.0526-16.814 1.5388-30.351 0.6756-18.804 0.636-25.052-0.1672-26.47-0.7496-1.3237-1.1093-11.101-1.2533-34.062-0.1111-17.713-0.4683-49.279-0.7939-70.146-0.3255-20.867-0.5229-45.886-0.4387-55.598 0.1218-14.033-0.1289-18.458-1.2215-21.554-1.0725-3.0398-1.1661-4.5292-0.4255-6.7732 0.752-2.2785 0.6637-3.4292-0.4248-5.5339-2.4799-4.7957-1.8258-7.2248 3.2582-12.099 7.4539-7.1468 10.651-7.6656 13.937-2.2617 1.411 2.3201 2.2521 2.8501 4.1723 2.6289 2.2441-0.25858 2.3963-0.54284 2.2746-4.2476-0.072-2.1838-0.3295-13.103-0.5727-24.264-0.2432-11.162-0.7317-22.376-1.0854-24.92-0.4481-3.2228-0.3113-5.0263 0.4506-5.9443 0.6798-0.81914 0.8571-2.2405 0.4683-3.7558-0.6108-2.3807-1.6922-20.113-1.5477-25.379 0.9845-35.865 0.9743-36.861-0.3956-38.952-1.1734-1.7908-1.2006-2.4896-0.192-4.9247 0.8169-1.9721 1.0577-5.5368 0.7896-11.686-0.2122-4.8664-0.3027-14.208-0.2012-20.76 0.6898-44.505 0.9893-53.629 1.8298-55.748 0.6684-1.685 0.6601-3.2101-0.029-5.294-1.4248-4.3096-1.775-57.445-0.5369-81.455 1.4306-27.743 1.431-27.725-0.6383-29.284-1.4176-1.0685-3.612-1.2019-11.886-0.72263-10.145 0.58768-14.492 0.69268-20.294 0.49028-11.807-0.41188-52.202 0.85594-53.755 1.6871-1.2815 0.68583-2.3447 0.70597-3.5387 0.067-2.2721-1.2161-9.1777-1.1598-13.414 0.10936-2.6394 0.7908-4.1703 0.77304-6.7498-0.0783-2.3004-0.75921-11.956-1.1849-31.1-1.3712-15.27-0.14859-32.366-0.53792-37.992-0.86519-5.6453-0.3284-14.541-0.18031-19.853 0.33048-21.218 2.0404-26.305 2.1112-100.06 1.3917-19.169-0.18697-36.838-0.38406-39.264-0.43796-2.4264-0.0539-9.9704-0.0993-16.764-0.10078-11.319-3e-3 -19.319-0.22745-42.793-1.2032-7.2769-0.30248-19.758-0.3915-39.264-0.28007-20.03 0.11443-32.847-0.27754-35.892-1.0977-2.4445-0.65825-4.3408-0.67468-6.1239-0.0531-1.7589 0.61316-7.2908 0.60876-17.342-0.0138-16.557-1.0256-34.679-1.0741-35.61-0.0953-0.9192 0.96616-1.027 17.15-0.363 54.468 0.3281 18.441 0.6962 39.952 0.8179 47.802 0.13 8.394 0.6067 14.754 1.1571 15.441 0.5148 0.6421 1.23 2.1601 1.5895 3.3733 0.3595 1.2132 1.2503 2.8859 1.9797 3.7171 2.2173 2.5268 0.7215 4.5346-2.9361 3.9411-1.724-0.27976-4.079-0.14956-5.2334 0.28933-1.284 0.48818-4.086 0.4506-7.2172-0.0968-2.8152-0.49213-8.692-0.84995-13.06-0.79517-23.13 0.2901-32.311 0.31702-41.15 0.12066l-4.9745-0.11052-6.0501 7.0606c-3.3274 3.8834-7.7012 8.2464-9.7193 9.6957-3.448 2.4761-4.1668 2.635-11.916 2.6328-4.5358-8.9e-4 -12.019-0.21762-16.629-0.48081-11.469-0.65472-10.841-0.6383-20.735-0.54203-4.8528 0.0472-11.007 0.075-13.676 0.0618-25.337-0.12601-33.037-0.12978-44.117-0.0216-7.0366 0.0686-46.742 0.34489-88.234 0.61383-41.492 0.26893-76.631 0.79769-78.087 1.175-1.4558 0.37731-6.022 0.34952-10.147-0.0618-4.1249-0.41128-32.713-0.90574-63.528-1.0988-30.816-0.19305-57.074-0.68515-58.353-1.0936-2.2263-0.71128-8.9725-7.6722-10.993-11.343-0.53052-0.96377-2.6021-2.8618-4.6035-4.2177-3.3275-2.2544-4.3834-2.4766-12.339-2.5965-5.3882-0.0812-9.7458 0.30211-11.447 1.0069-2.0114 0.83316-3.5292 0.89812-5.6667 0.24256-3.9379-1.2077-29.584-0.76543-32.756 0.5649-3.2667 1.37-3.2076 1.3846-6.7807-1.6707-3.7134-3.1753-3.3667 3.8333-3.1824-64.345l0.0942-34.852-2.7925-0.27089c-4.8323-0.46876-4.3895-4.0297 0.58666-4.718 2.1823-0.30186 2.213-0.42669 2.8744-11.677 0.48236-8.2047 0.3836-11.715-0.35457-12.605-0.83678-1.0083-4.0922-1.1461-17.874-0.75683-9.2681 0.26177-18.638 0.49247-20.822 0.51266-7.7187 0.0713-108.77-0.0925-126.62-0.2053-36.579-0.23121-86.615 0.49056-87.579 1.2633-0.75075 0.60217-2.8657 0.54442-6.5407-0.1786-2.9871-0.58768-9.2377-1.0116-13.89-0.94206-4.6525 0.0695-25.334 0.14545-45.958 0.16869-38.697 0.0436-97.804 0.52474-134.12 1.0917-32.972 0.51485-50.569 0.50455-65.973-0.0386-10.881-0.38367-14.681-0.23661-15.698 0.60749-1.1913 0.98871-1.2813 11.027-0.80174 89.43 0.29712 48.574 0.57767 89.705 0.62347 91.404s-0.3254 10.328-0.82488 19.177c-1.0832 19.19-0.9224 20.652 2.2358 20.324 3.4479-0.35753 3.5982 2.4715 0.23367 4.3984-2.1077 1.2071-2.81 2.3387-3.2443 5.2279-0.30491 2.028-0.28373 4.1252 0.0471 4.6604 0.67518 1.0925 0.647 38.889-0.0612 82.092-0.61691 37.633-0.61712 34.667 4e-3 70.146 0.34494 19.677 1.0318 34.559 1.8931 41.018 1.2543 9.4048 1.2432 10.377-0.15362 13.474-1.2356 2.74-1.3291 3.9128-0.52187 6.543 0.70911 2.3105 0.71677 3.703 0.0274 4.991-0.62967 1.1766-0.85503 8.2846-0.66013 20.821 0.16278 10.469 0.28442 21.019 0.27033 23.446-0.0141 2.4264-0.0491 18.11-0.0779 34.852-0.0288 16.742-0.0768 38.963-0.10663 49.379-0.032 11.164 0.30084 19.367 0.81085 19.981 0.56572 0.68166 0.55867 2.9831-0.0204 6.6492-0.48706 3.0837-0.99262 10.903-1.1235 17.376l-0.23788 11.77 2.4153 1.7594c3.5461 2.5831 3.25 5.9907-0.83195 9.5747-3.1428 2.7594-3.4336 2.8337-9.0363 2.3106-10.098-0.94304-13.32-5.7976-8.1577-12.293 2.131-2.6814 2.6945-4.4192 3.2071-9.8896 0.84096-8.9742 7e-3 -13.525-2.706-14.761-2.7042-1.2321-2.6705-2.1995 0.15409-4.4213l2.2724-1.7875-0.56295-21.721c-0.30936-11.947-0.46423-25.494-0.34389-30.104 0.12034-4.6102 0.0689-10.963-0.1143-14.117-0.1832-3.1544-0.29885-10.698-0.25698-16.764 0.0418-6.0661 0.13293-18.573 0.20239-27.794 0.0694-9.2204 0.0924-20.933 0.051-26.029s-0.0386-22.367 6e-3 -38.382c0.0447-16.014-0.0355-36.997-0.17821-46.628-0.14274-9.6308-0.0354-17.649 0.23859-17.818 0.27396-0.1693 0.36308-5.5908 0.19804-12.048-0.42417-16.595-0.49565-24.409-0.39791-43.504 0.10674-20.857 0.12561-22.939 0.37856-41.775l0.20538-15.305-4.3944-3.206 2.4178-2.2407c1.603-1.4856 2.4604-3.2213 2.5441-5.1505 0.23133-5.3294-0.20137-15.168-1.0398-23.645-0.48831-4.9366-0.50873-9.7443-0.0497-11.696 0.49998-2.1253 0.46024-3.5108-0.11082-3.8637-0.54648-0.33775-0.65969-2.4656-0.29313-5.5099 0.32845-2.7278 0.7602-23.423 0.95945-45.988 0.42867-48.55 0.45129-44.189-0.30772-59.359-0.33444-6.6848-0.33237-13.183 4e-3 -14.44 0.78305-2.9213 0.8633-8.2767 0.83777-55.905-0.0116-21.596-0.38492-40.248-0.82965-41.45-0.47661-1.2884-0.48895-3.3435-0.0301-5.0055 0.69945-2.5332 0.83305-7.3173 0.58761-21.042-0.0434-2.4264 0.20517-6.9925 0.55233-10.147 0.34717-3.1544 0.61075-6.7278 0.58575-7.941s-0.01-4.9852 0.0339-8.3822c0.0436-3.397 0.0641-7.566 0.0453-9.2645-0.0187-1.6985 6e-3 -5.669 0.055-8.8234 0.35037-22.584-0.32047-77.14-0.98492-80.097-0.67605-3.0089-0.49382-4.2693 1.0735-7.4246 3.1716-6.385 8.7611-5.1954 12.209 2.5982 1.5081 3.4093 1.6818 4.9555 1.1068 9.8519-0.37489 3.1944-0.7956 28.638-0.93469 56.542-0.13907 27.904-0.34834 59.343-0.46504 69.865-0.16135 14.548 0.0596 19.458 0.92232 20.498 1.2834 1.5464 6.8345 1.4992 102.42-0.8717 12.86-0.31899 24.375-0.55585 25.588-0.52633 1.2132 0.0295 9.5513 0.0475 18.529 0.04 8.9778-8e-3 20.095 0.0128 24.705 0.0453 17.594 0.12375 86.933-0.20859 106.76-0.51171 11.404-0.17432 23.514-0.29891 26.911-0.27687 3.397 0.0221 12.529 0.0911 20.294 0.15349 7.7646 0.0624 18.684-0.0128 24.264-0.16708 5.5808-0.15428 36.749 0.0216 69.264 0.39079 32.514 0.36921 67.653 0.5766 78.087 0.46085 10.434-0.11573 20.956-0.10715 23.382 0.0191 4.1262 0.21467 16.662 0.17465 27.794-0.0887 2.6691-0.0632 17.757 0.0996 33.529 0.36166 15.772 0.26208 38.602 0.41001 50.734 0.32875 23.173-0.15519 34.386-0.14701 56.911 0.0415 16.647 0.13934 27.813 0.17751 46.323 0.15837 7.7646-8e-3 17.691-0.0167 22.058-0.0193 4.3676-3e-3 13.897-9e-3 21.176-0.0135 11.723-8e-3 37.884 0.0837 47.646 0.16662 3.6161 0.0307 92.817-0.90854 94.41-0.99412 5.5091-0.29599 28.7 0.43986 30.546 0.96921 1.3338 0.38254 5.1315 0.28003 8.4392-0.22781 5.4974-0.844 10.2-1.1097 14.838-0.83825 0.9706 0.0568 4.544-0.0837 7.941-0.31223 6.8694-0.46216 8.9657-0.45315 22.941 0.0988 7.5845 0.29951 49.744 1.0627 65.293 1.182 12.972 0.0995 73.039-0.75957 75.44-1.0789 1.6985-0.22593 8.7338 0.15673 15.634 0.85033 8.8186 0.88644 13.537 1.0013 15.882 0.38652 2.6479-0.69413 17.521-1.2574 29.806-1.1289 0.9706 0.0101 48.617 0.22624 105.88 0.4802 57.264 0.25395 111.86 0.82966 121.32 1.2793 21.434 1.0186 10.918 0.86611 96.616 1.4007 44.672 0.27869 76.503 0.83692 81.616 1.4313 6.4169 0.746 9.1512 0.72309 11.662-0.0977 2.6337-0.86088 3.5535-0.84525 4.6675 0.0793 1.6075 1.334 15.206 1.4583 16.513 0.15085 0.4836-0.48362 0.881-33.046 0.9776-80.117 0.1687-82.218 0.1626-82.073 3.5902-84.362 1.4561-0.97225 13.734-0.79647 17.504 0.2506 5.2276 1.4518 7.0963 7.569 4.6043 15.072-1.2348 3.7176-1.3758 6.7149-0.8996 19.131 0.3105 8.0977 0.6156 16.311 0.6778 18.252 0.062 1.9411-0.2145 18.022-0.6149 35.735s-0.667 33.396-0.5925 34.852c0.074 1.4559 0.1276 18.572 0.1179 38.035-0.015 30.648 0.1628 35.538 1.3279 36.504 1.7381 1.4425 1.7066 3.5212-0.092 6.0894-1.2894 1.8407-1.3698 4.8859-0.7796 29.534 0.3619 15.115 0.5864 32.246 0.4989 38.07-0.2979 19.834-0.3115 21.178-0.2534 25.147 0.032 2.1838 0.01 7.7425-0.053 12.353-0.061 4.6102-0.093 20.691-0.071 35.735s0.01 35.095-0.033 44.558c-0.041 9.4631-0.01 21.375 0.078 26.47 0.451 27.64 0.2951 46.139-0.5609 66.564-1.063 25.361-0.7185 31.375 1.7971 31.375 0.8834 0 2.6661-1.3897 3.9616-3.0882 1.4909-1.9546 3.1019-3.0882 4.3889-3.0882 2.8733 0 6.9894 3.7589 9.2661 8.4619 1.8312 3.7828 1.8633 4.1925 0.5678 7.2587-0.9815 2.323-1.3651 6.1431-1.3454 13.397 0.015 5.5808-0.3084 16.301-0.7189 23.823-1.0442 19.134-0.8496 23.175 1.2835 26.645 1.6192 2.6343 1.6785 3.2381 0.6181 6.3019-0.8637 2.495-1.2077 10.521-1.305 30.441-0.7618 155.97-0.8202 146.68 0.9539 152.07 1.9847 6.0271 1.4428 9.9575-1.6528 11.986-3.1183 2.0432-7.608 1.7852-12.155-0.69847-3.4434-1.881-4.068-1.982-5.1851-0.83822-1.0566 1.0818-1.1262 2.8578-0.4144 10.565 0.4708 5.0955 0.8587 9.6616 0.8623 10.147 0 0.48528-0.2722 14.581-0.613 31.323-0.757 37.2-0.767 32.004 0.1058 54.705 0.8517 22.153 0.8237 18.595 0.4195 53.381-0.2403 20.689-0.024 28.799 0.8871 33.291 1.0336 5.0937 1.0256 6.2741-0.056 8.2991-1.8599 3.4813-1.4856 59.002 0.4119 61.107 1.0982 1.2182 1.106 1.7309 0.055 3.6248-1.796 3.2358-1.6078 8.2594 0.3765 10.055 2.6721 2.4181 3.1046 6.6574 0.9169 8.9862-1.4921 1.5882-1.6641 2.3138-0.8912 3.7581 1.2506 2.3368 1.2279 5.4353-0.04 5.4353-0.6486 0-0.8215 1.0868-0.4938 3.1054 0.2771 1.708-0.027 4.9837-0.6766 7.2793-0.9219 3.2598-1.1763 14.802-1.1617 52.702 0.011 26.691-0.2493 56.743-0.5768 66.782-0.575 17.623-0.535 18.286 1.1564 19.191 2.7069 1.4487 5.2402 1.115 6.2796-0.8271 0.7417-1.386 1.8474-1.7647 5.152-1.7647 3.6064 0 4.5922 0.4097 6.9 2.8676 1.4809 1.5772 2.9519 3.604 3.269 4.5041 0.7185 2.0394-1.2476 8.9845-2.1364 7.5465-1.5353-2.4842-2.3643 0.8062-2.9583 11.74-0.3503 6.4482-0.5962 17.878-0.5465 25.4 0.049 7.5219 0.037 15.066-0.029 16.764-0.1528 3.9577-0.1632 5.4647-0.082 11.912 0.036 2.9118 0.1199 21.772 0.1855 41.911 0.1493 45.918 0.3231 52.43 1.5299 57.352 0.5356 2.1838 1.2333 5.0273 1.5503 6.319 0.4673 1.9033 0.1393 2.635-1.7299 3.8598-3.8481 2.5212-9.5632 2.7139-12.657 0.4267-1.4531-1.0743-3.3858-1.8093-4.2947-1.6332-1.548 0.2999-1.6394 1.27-1.4429 15.306 0.1154 8.2421 0.4186 19.75 0.6739 25.574 0.2552 5.8234 0.4639 11.581 0.4639 12.794-1e-4 1.2132-0.037 10.345-0.082 20.294-0.066 14.432 0.8248 30.79 1.9559 35.927 0.084 0.3797-0.3085 1.8064-0.8714 3.1705-1.4017 3.3971-0.5016 26.231 1.2359 31.348 1.8299 5.39 1.8112 5.9241-0.6092 17.347-0.6515 3.0748-0.6581 6.3965-0.021 10.962 0.6792 4.8712 0.6467 7.0199-0.127 8.3822-1.0446 1.8392-1.8115 21.455-1.5722 40.214 0.065 5.0955-0.3534 11.348-0.9298 13.894-0.8186 3.6167-0.8098 5.4247 0.041 8.2619 1.296 4.3258 0.1674 8.0199-2.8524 9.3352-1.6198 0.7057-27.087 0.7905-58.836 0.196-6.506-0.1218-47.743-0.154-52.058-0.041-1.2132 0.032-6.9704 0.2174-12.794 0.4122-30.083 1.0067-185.29 0.3948-290.73-1.1461-30.816-0.4504-81.446-1.0365-112.51-1.3024-31.066-0.2661-62.544-0.6855-69.952-0.9323-15.164-0.5051-15.793-0.2456-13.1 5.4016 2.1331 4.4732 1.8216 6.3007-1.4189 8.323-2.2297 1.3915-3.6527 1.6566-6.3969 1.1915-1.9412-0.3289-49.375-0.7481-105.41-0.9315l-101.88-0.3334-2.0804 2.6583c-2.9093 3.7173-6.2692 3.5767-10.276-0.43zm-17.826-13.576c1.7492-1.4517 1.999-9.1376 0.3409-10.487-0.7271-0.5917-29.97-0.9633-85.807-1.0903-46.587-0.1061-91.057-0.2906-98.822-0.4101-16.078-0.2474-20.691 0.1583-21.351 1.8781-0.25495 0.6644-0.20298 2.9455 0.11548 5.0691l0.579 3.861 5.4753 0.5309c3.0114 0.292 34.46 0.7714 69.886 1.0653 35.426 0.2939 64.477 0.5956 64.558 0.6706 0.0812 0.075 14.42 0.1305 31.864 0.1236 25.408-0.011 32.004-0.2511 33.161-1.211zm231.94-2.8902c0.3977-2.3724 0.327-5.0682-0.1672-6.3679l-0.8569-2.2539-100.16-0.01c-97.639-0.01-100.18 0.037-101.06 1.6776-0.9439 1.7636-1.2558 9.9732-0.411 10.818 0.2693 0.2693 45.822 0.4347 101.23 0.3675l100.74-0.122 0.6899-4.1139zm-246.16-18.386h15.002l-0.4258-4.4311c-0.2342-2.4371-0.5824-4.5713-0.774-4.7426-0.1915-0.1713-29.73-0.5742-65.641-0.8954-67.485-0.6036-106.13-1.0643-126.45-1.5071-9.5073-0.2073-11.911-0.012-12.604 1.0278-1.0744 1.6105-0.1907 8.0539 1.2319 8.9825 0.5838 0.381 4.0393 0.6581 7.679 0.6159 18.54-0.2156 161.05 1.1178 161.44 1.5104 0.2512 0.2512 1.601 0.2278 2.9996-0.052 1.3985-0.2797 9.2936-0.5086 17.544-0.5086zm244.59-0.306c1.4677-0.5632 2.5711-5.2019 1.8087-7.6039-0.5592-1.7621-1.1852-1.7734-99.86-1.7883-54.614-0.01-99.622-0.2154-100.02-0.4605-1.669-1.0315-3.5977 2.4822-3.3352 6.076l0.266 3.6415 29.558 0.4412c36.878 0.5504 169.97 0.313 171.58-0.306zm-652.9-5.8704c-0.29992-0.4853-1.094-0.8823-1.7647-0.8823-0.67065 0-1.4648 0.397-1.7647 0.8823-0.3105 0.5024 0.44937 0.8823 1.7647 0.8823s2.0752-0.3799 1.7647-0.8823zm83.381 0.4932c0-0.9313-1.6933-1.3225-2.197-0.5076-0.30481 0.4932 0.0648 0.8967 0.82137 0.8967s1.3756-0.175 1.3756-0.3891zm22.941-0.9344c0-0.84-0.84533-1.3235-2.3139-1.3235-1.9567 0-2.1444 0.2043-1.2155 1.3235 0.60413 0.728 1.6454 1.3235 2.3139 1.3235s1.2155-0.5955 1.2155-1.3235zm-344.55-0.4411c0.29992-0.4853-0.0971-0.8824-0.88234-0.8824-0.78521 0-1.1823 0.3971-0.88233 0.8824 0.29992 0.4852 0.69697 0.8823 0.88233 0.8823s0.58242-0.3971 0.88234-0.8823zm130.59 0c0.34256-0.5543-1.6258-0.8824-5.294-0.8824-3.6682 0-5.6366 0.3281-5.294 0.8824 0.29992 0.4852 2.6822 0.8823 5.294 0.8823s4.9941-0.3971 5.294-0.8823zm13.235 0c1.2668-0.5444 0.31863-0.7759-3.3608-0.8203-3.2065-0.039-4.9213 0.2683-4.5802 0.8203 0.65451 1.0589 5.4766 1.0589 7.941 0zm223.23 0c0.32926-0.5328-0.78627-0.8578-2.8155-0.8203-2.6838 0.049-3.0054 0.2147-1.5962 0.8203 2.4251 1.0421 3.7676 1.0421 4.4117 0zm22.941 0c0.32516-0.5262-0.74348-0.8824-2.647-0.8824-1.9035 0-2.9722 0.3562-2.647 0.8824 0.29993 0.4852 1.4911 0.8823 2.647 0.8823 1.1559 0 2.3471-0.3971 2.647-0.8823zm-472.73-0.5331c-0.29319-0.2932-1.0542-0.3246-1.6912-0.07-0.70387 0.2816-0.4948 0.4907 0.53308 0.5331 0.93012 0.038 1.4513-0.1703 1.1581-0.4635zm97.968-0.073c-0.84359-0.2208-2.4318-0.2289-3.5294-0.018-1.0976 0.211-0.40734 0.3917 1.5338 0.4015 1.9411 0.01 2.8391-0.1629 1.9955-0.3837zm12.353 0c-0.84359-0.2208-2.4318-0.2289-3.5294-0.018-1.0976 0.211-0.40734 0.3917 1.5338 0.4015 1.9412 0.01 2.8391-0.1629 1.9956-0.3837zm39.271 0.027c-0.59737-0.2418-1.7885-0.2564-2.647-0.033-0.85848 0.2238-0.36972 0.4215 1.0861 0.4395 1.4558 0.018 2.1582-0.1651 1.5609-0.4067zm48.052 0.046c-0.29319-0.2932-1.0542-0.3246-1.6912-0.07-0.70387 0.2816-0.4948 0.4907 0.53308 0.5331 0.93013 0.038 1.4513-0.1703 1.1581-0.4635zm243.32-10.878c7.2793 0.072 16.809 0.187 21.176 0.2561l7.941 0.1259-0.1159-3.9705c-0.0638-2.1838-0.43692-13.897-0.82929-26.029-0.69965-21.634-0.99088-78.678-0.45498-89.116 0.1495-2.9118-0.0349-10.257-0.40972-16.323-0.37484-6.0661-0.60486-16.588-0.51116-23.382 0.19406-14.07 0.19278-17.107-9e-3 -20.514-0.0789-1.3345-0.10952-11.162-0.0681-21.838 0.0414-10.676 0.0319-29.735-0.0211-42.352-0.053-12.618 0.14418-28.176 0.4382-34.575 0.38781-8.4398 0.2486-11.868-0.50707-12.488-1.2846-1.0534-8.4522-1.1265-80.893-0.8246l-57.793 0.2408-2.9374 2.0951c-3.013 2.149-3.4594 2.1119-8.0918-0.6717-4.1961-2.5214-13.273-2.6515-160.14-2.2957-82.499 0.2-153.37 0.4128-157.5 0.473-4.1249 0.06-16.276-0.1438-27.003-0.4534l-19.503-0.5626-0.49313 7.1945c-0.30721 4.4821-0.10941 8.2419 0.52465 9.9723 0.9943 2.7136 1.3928 25.645 0.73066 42.042-0.16657 4.125 0.0983 10.069 0.58855 13.209 0.62133 3.9796 0.60571 6.2433-0.0515 7.4713-1.6265 3.0392-2.5881 34.18-1.977 64.024 0.32296 15.772 0.54133 29.669 0.48528 30.882-0.11841 2.5626-0.97937 102.03-0.94975 109.73 0.0109 2.8449 0.22792 5.5091 0.48215 5.9205 0.38729 0.6266 63.25 0.4864 71.43-0.1593 1.4558-0.115 13.485-0.079 26.732 0.079 17.355 0.207 24.369 0 25.102-0.7302 1.4842-1.4842 3.934-1.2475 6.656 0.643 2.2238 1.5444 3.3144 1.6014 15.626 0.8167 16.197-1.0325 15.221-1.0273 18.97-0.1018 1.6985 0.4192 8.2498 0.7341 14.559 0.6996 9.2182-0.05 12.049-0.3711 14.418-1.6329 3.0807-1.641 9.0501-1.3595 11.399 0.5375 0.66962 0.5408 2.5985 0.6342 4.8529 0.2348 2.0578-0.3646 4.9326-0.6379 6.3885-0.6074 1.4559 0.03 10.191 0.286 19.411 0.5679 18.168 0.5553 63.106 1.0295 68.822 0.7261 5.1594-0.2739 58.771 0.4297 59.117 0.7758 0.16185 0.1616 25.242 0.1785 55.734 0.038 30.492-0.1409 61.396-0.1975 68.675-0.1258zm-153.7-122.71c-4.2332-1.7051-5.1214-4.7292-5.1701-17.601-0.0249-6.5717-0.37078-13.414-0.76874-15.205-0.68148-3.0671-0.55049-3.3621 2.251-5.0701 4.1816-2.5493 10.432-2.4316 14.683 0.2766 7.099 4.5224 12.556 11.506 12.556 16.069 0 1.107 0.41454 3.1031 0.9212 4.4358 1.2306 3.2368-0.37099 10.669-2.8731 13.332-1.0368 1.1036-2.7586 2.0066-3.8262 2.0066s-3.6292 0.5955-5.6923 1.3235c-4.132 1.4578-9.0944 1.6356-12.081 0.4327zm11.799-11.14c1.659-2.532 1.2906-10.88-0.65276-14.793-1.4146-2.8478-4.3009-4.3028-6.203-3.1271-1.6482 1.0188-1.6489 19.177-7.3e-4 20.196 1.8196 1.1246 5.409-0.067 6.8564-2.2761zm-168.92 9.3518c-3.0509-1.2258-3.7146-4.1584-2.6531-11.723 1.088-7.7537 0.74167-8.5272-4.9505-11.054-4.2486-1.8862-10.251-8.1752-10.251-10.741 0-2.2238 3.5068-3.9263 6.5262-3.1685 1.2346 0.3099 3.1498 1.537 4.2562 2.7269 3.443 3.7032 7.9942 6.6394 10.291 6.6394 1.5114 0 3.4853-1.389 6.296-4.4302 4.3398-4.6959 7.9966-6.3815 11.241-5.1815 1.5176 0.5615 1.9771 1.4297 1.9771 3.7357 0 2.4413-0.72553 3.6453-3.8721 6.4253-2.1297 1.8817-5.1726 4.2153-6.7622 5.1859-4.3938 2.6828-4.9484 4.1019-3.5203 9.0072 1.8739 6.4363 1.5514 9.0947-1.3887 11.447-2.7296 2.1842-4.05 2.3919-7.1898 1.1305zm69.175-1.7966c-2.1118-1.6611-2.3248-2.3886-2.3248-7.941 0-5.7966-0.10521-6.1123-2.0372-6.1123-5.5303 0-6.8919-5.514-1.4885-6.0279 5.2259-0.497 5.5795-1.2675 4.8903-10.656-0.45791-6.2382-1.0428-8.8966-2.3123-10.511-0.93465-1.1883-1.6994-2.8953-1.6994-3.7936 0-2.046 5.369-5.6111 10.459-6.9452 3.4989-0.917 4.2746-0.795 8.6952 1.3679 5.8274 2.8511 8.4868 7.4013 7.6036 13.01-0.43936 2.7903-0.15443 3.7565 1.6913 5.7352 4.7572 5.1001 6.8286 9.5743 6.9516 15.015 0.21321 9.4319-3.4106 16.041-9.763 17.806-1.7261 0.4795-6.559 0.8741-10.74 0.8767-6.3589 0-7.9815-0.294-9.9263-1.8238zm20.234-9.1668c2.3133-3.5306 2.5853-8.5344 0.63793-11.737-3.094-5.0876-8.6106-8.0926-11.146-6.071-1.4276 1.1384-3.3301 12.682-2.5979 15.763 0.7231 3.0426 2.7997 4.2164 7.4595 4.2164 3.5132 0 4.4619-0.365 5.646-2.1722zm-9.7648-30.094c0-0.9236-0.69484-1.813-1.5441-1.9765-1.5528-0.2991-2.2354 2.3759-0.93748 3.6739 1.0424 1.0424 2.4816 0.058 2.4816-1.6974zm40.146 40.09c-10.035-1.1549-11.555-2.8524-10.437-11.654 0.37955-2.9889 0.45196-8.6408 0.16092-12.56l-0.52917-7.1253 3.3981-2.801c2.827-2.3302 4.1428-2.7987 7.8293-2.788 5.5949 0.017 8.773 1.5647 9.0715 4.4192 0.36588 3.4982-1.0804 4.7366-6.1249 5.2444-3.5191 0.3541-4.7461 0.8517-4.9678 2.0144-0.22471 1.1784 0.30136 1.5441 2.2209 1.5441 3.361 0 6.4374 2.2777 6.4374 4.7661 0 2.0364-2.4406 4.9396-4.1525 4.9396-0.50897 0-1.376 0.5429-1.9267 1.2064-0.76345 0.92-0.67032 1.4811 0.39212 2.3629 1.6439 1.3643 12.534 1.6394 19.932 0.5036 4.7283-0.7259 5.0534-0.6536 6.417 1.4274 1.6885 2.577 1.172 4.4536-1.7533 6.3703-2.5204 1.6514-18.637 2.9731-25.968 2.1296zm-202.5-0.3164c-0.48529-0.1619-1.9735-0.535-3.3071-0.8291-1.4755-0.3254-3.2863-1.8366-4.6254-3.8601-2.1833-3.2992-2.1904-3.3741-0.89426-9.4688 2.2178-10.429 2.6693-22.344 0.99738-26.324-3.3659-8.013-0.7774-12.263 8.0294-13.184 3.7966-0.3968 6.5647-0.1739 9.2291 0.7435 12.928 4.4508 17.686 9.9887 18.774 21.85 1.1052 12.053-1.8605 20.234-9.3928 25.91-5.495 4.1409-14.479 6.6062-18.81 5.1615zm13.555-11.581c7.4139-5.1929 6.9358-22.838-0.80844-29.834-3.6812-3.3257-7.2619-4.07-9.8514-2.0478-1.1985 0.936-1.3237 2.3954-0.82716 9.6399 0.32183 4.6954 0.32547 9.46 8e-3 10.588-0.77918 2.7695-0.89771 11.759-0.16472 12.492 1.19 1.19 9.6138 0.5836 11.644-0.8381zm19.494 8.4128c-0.80464-1.5035-0.31772-3.626 2.6821-11.691 4.8916-13.151 7.0315-17.344 9.9299-19.458 2.4258-1.7691 2.4271-1.7691 4.8528-0.01 3.5009 2.5427 6.2969 8.7482 6.9183 15.355 0.32423 3.4472 1.2057 6.6785 2.2145 8.1175 5.3424 7.6212-2.4698 12.718-10.537 6.8738-2.0098-1.4558-3.9803-2.647-4.379-2.647-0.39869 0-1.8661 1.1912-3.2609 2.647-3.0612 3.1952-6.9445 3.5688-8.4209 0.8101zm15.921-13.163c0-0.9804-0.58822-1.7647-1.3235-1.7647s-1.3235 0.7843-1.3235 1.7647 0.58823 1.7647 1.3235 1.7647 1.3235-0.7843 1.3235-1.7647zm1489.1-82.287c0.7979-0.6167 0.8355-1.3029 0.1423-2.5983-0.7432-1.3887-1.7519-21.572-1.7549-35.113-3e-4 -1.2132-0.058-11.14-0.1293-22.058-0.071-10.919-0.1131-21.838-0.094-24.264 0.098-12.288 0.09-53.718-0.013-65.689l-0.1176-13.631-3.399-0.7121c-2.2796-0.4777-4.1627-0.346-5.7186 0.3996l-2.3197 1.1119-0.1765 33.525c-0.4849 92.128-0.1919 127.96 1.0566 129.19 0.9191 0.9065 7.9525 1.6284 10.116 1.0383 0.7279-0.1985 1.8115-0.7381 2.4079-1.199zm19.724 0.092c0.7423-1.387 0.8852-10.659 0.5277-34.241-0.2863-18.881-0.1464-33.869 0.3362-36.017 0.5596-2.4906 0.4113-8.4003-0.4592-18.3-0.9104-10.354-1.0203-15.317-0.3766-17.006 0.4998-1.3119 0.8788-5.9587 0.8422-10.326-0.037-4.3676 0.058-15.882 0.2101-25.588s-0.037-18.3-0.4201-19.098c-0.7957-1.6577-5.1975-3.4016-8.586-3.4016h-2.2948l-0.2197 35.514c-0.1209 19.533-0.2606 36.308-0.3106 37.279-0.05 0.9705-0.018 15.264 0.07 31.764s0.1446 36.714 0.1253 44.92c-0.019 8.2063 0.171 15.254 0.4229 15.662 0.2519 0.4077 2.4058 0.7411 4.7865 0.7411 3.5299 0 4.5165-0.351 5.3467-1.9022zm-23.287-631.84c0.3925-0.6066 0.7779-11.426 0.8563-24.044 0.078-12.617 0.1936-24.132 0.256-25.588 0.063-1.4559-0.104-17.934-0.3696-36.617s-0.6435-62.043-0.8398-96.354c-0.1963-34.311-0.6139-62.8-0.928-63.308-0.3141-0.50821-2.3077-0.92403-4.4301-0.92403-3.2075 0-3.9765 0.33515-4.5548 1.9853-0.3828 1.0919-0.5174 16.676-0.2992 34.632 0.4493 36.974 0.5101 92.197 0.1087 98.822-0.147 2.4264-0.015 12.154 0.2937 21.617 0.5502 16.877 0.5679 19.688 0.2239 35.735-0.094 4.3676-0.093 12.706 0 18.529 0.095 5.8234 0.034 15.551-0.1364 21.617-0.1697 6.0661 0.045 11.696 0.4772 12.512 1.1973 2.2593 8.1109 3.2846 9.3402 1.3851zm24.335-91.101c-0.1108-49.984-0.1352-102.59-0.054-116.91 0.2369-41.815 0.6862-38.823-5.8296-38.823-6.6449 0-6.9758 0.62913-6.3622 12.1 0.2799 5.2346 0.4157 12.694 0.3018 16.576-0.2371 8.0757-0.1325 43.748 0.1631 55.587 0.31 12.423 0.4554 23.496 0.3592 27.352-0.6791 27.199-0.8168 42.033-0.4533 48.823 0.4085 7.633 0.5922 8.2935 2.5088 9.0221 2.6305 1.0001 2.6255 3.0005-0.015 6.1388-2.1979 2.6121-3.7601 11.136-2.7732 15.131 0.2798 1.1327 0.6091 13.896 0.7319 28.363 0.186 21.921 0.4379 26.443 1.512 27.141 0.7088 0.46062 3.274 0.73429 5.7005 0.60813l4.4117-0.22936-0.2016-90.881zm-733.83-370.55c57.846-0.19997 75.563-0.51222 77.204-1.3606 2.9658-1.5332 6.1005-4.5091 6.1005-5.7916 0-0.59072-0.8934-1.2422-1.9853-1.4477-1.8202-0.34259-256.28-0.0713-265.36 0.28295-2.1838 0.0852-15.684 0.035-29.999-0.11137-14.316-0.14645-34.764-0.19762-45.44-0.1137-10.676 0.0839-28.11 0.14271-38.741 0.13065-10.632-0.012-19.538 0.18611-19.792 0.44033-0.25422 0.25424 0.81234 1.7773 2.3701 3.3845 2.6672 2.7518 3.3894 2.9885 12.383 4.058 5.2528 0.62467 10.304 0.90695 11.225 0.62728 0.92078-0.27967 4.0564-0.49987 6.9682-0.48935 2.9117 0.0105 50.086 0.15234 104.83 0.31515 54.746 0.16282 99.799 0.55736 100.12 0.87675 0.3194 0.3194 1.5853 0.32816 2.8132 0.0195 1.2278-0.30869 36.016-0.67805 77.307-0.82079zm-249.78-19.802c19.411 7e-4 36.286 0.0206 37.499 0.0442 1.2132 0.0237 22.654-0.19352 47.646-0.48252 51.752-0.59845 67.094-0.61233 67.985-0.0615 1.0952 0.67687 76.77 0.64642 112.45-0.0453 18.926-0.36686 35.999-0.65021 37.94-0.62968 14.388 0.15217 51.4 0.34629 60.44 0.31699 6.0661-0.0197 18.367 0.0466 27.336 0.14725l16.307 0.18299-0.4182-29.999c-0.23-16.5-0.346-34.169-0.2578-39.264 0.5545-32.025 0.582-45.862 0.092-46.352-0.3071-0.30709-80.697-0.74019-178.64-0.96244-97.947-0.22225-179.87-0.41762-182.06-0.43415-16.111-0.12192-36.255 0.34477-38.823 0.89948-1.6985 0.36684-4.2793 0.33086-5.7352-0.0799-1.4559-0.41082-11.382-0.69543-22.058-0.63246-10.676 0.063-36.485 0.0106-57.352-0.11635-20.867-0.12696-43.882-0.21749-51.144-0.20121l-13.203 0.0297-0.69519 2.5279c-0.79334 2.8848-0.68687 111.91 0.11033 112.99 0.28688 0.3892 10.448 0.7632 22.58 0.83112 48.306 0.27047 64.769 0.53685 72.793 1.1778 4.6102 0.3683 9.1763 0.5431 10.147 0.38844 0.97058-0.15466 17.647-0.28062 37.058-0.27991zm9.2645-39.35c-1.2132-0.69354-3.6462-1.275-5.4066-1.2922-4.3768-0.0428-5.4349-1.7121-5.7867-9.1284-0.16544-3.4891-0.69255-7.4949-1.1713-8.9018-0.47875-1.407-0.88472-3.7893-0.90219-5.294l-0.0318-2.7359-2.0724 2.5339c-1.1398 1.3936-2.315 3.9745-2.6115 5.7352-2.0617 12.243-2.5409 13.583-5.4064 15.117-3.6391 1.9476-6.0665-0.46995-7.3239-7.2941-0.57834-3.1388-1.0576-7.2493-1.065-9.1345-0.0272-6.886-2.8974-7.472-3.8236-0.78061-2.0581 14.869-2.5079 16.83-4.2971 18.735-2.3187 2.4682-6.8725 2.6652-8.9346 0.38665-1.909-2.1094-1.858-2.567 0.69949-6.28 2.3632-3.4309 4.0167-13.278 4.0167-23.921 0-8.8426 1.6129-15.584 4.2189-17.634 1.2075-0.94982 2.5592-1.7269 3.0038-1.7269 1.5157 0 6.8884 6.6088 7.8903 9.7057 0.54951 1.6985 1.315 3.4905 1.7012 3.9822s1.1795 2.7903 1.7631 5.1079c0.93607 3.7174 1.1884 4.0278 2.1418 2.6353 1.3617-1.9888 4.492-11.96 5.1602-16.436 0.27806-1.8631 0.97045-3.9476 1.5386-4.6323 1.5791-1.9027 5.0237-1.5063 6.4351 0.74049 1.9494 3.1034 6.499 23.429 6.6336 29.635 0.0671 3.0753 0.52773 6.351 1.0245 7.2793 1.0376 1.9386 3.4882 2.2781 3.4882 0.4833 0-0.66248 0.7941-2.214 1.7647-3.4479 1.298-1.6502 1.7712-3.6066 1.7896-7.3983 0.0309-6.3628 2.945-12.694 6.4052-13.915 3.2399-1.1434 6.6199 0.55551 7.2758 3.6572 0.63202 2.9888 5.4788 13.405 7.1135 15.288 2.096 2.4142 4.1818 12.287 3.0982 14.666-0.85225 1.8704-4.0865 3.8255-6.3283 3.8255-1.6379 0-4.3542-3.5778-4.3542-5.7352 0-1.9394-0.37905-2.2058-3.1378-2.2058-2.8757 0-3.2862 0.33546-4.9141 4.0156-1.114 2.5182-2.5975 4.3279-3.9784 4.8529-2.7743 1.0548-2.9468 1.0399-5.6165-0.48629zm143.82 0.42928c-0.7279-0.47696-3.0204-0.6229-5.0944-0.32432-3.1399 0.45203-4.3554 0.15616-7.263-1.768-4.062-2.6881-4.9993-5.339-3.4972-9.8906 0.7325-2.2194 0.8874-5.8548 0.484-11.352-0.7355-10.019-0.025-12.126 4.7318-14.03 5.2259-2.091 13.682-1.9332 15.912 0.29712 1.8522 1.8522 1.648 3.2783-0.9975 6.9624-1.0097 1.4063-2.233 1.9804-3.9705 1.8636-4.0363-0.27145-4.717-0.0642-4.717 1.436 0 1.0043 0.4505 1.2325 1.5441 0.78223 3.5552-1.4636 4.7801-1.4575 6.426 0.0319 1.8185 1.6457 2.2662 5.2692 0.9148 7.4043-0.4366 0.68982-2.515 1.4839-4.6188 1.7647-3.3524 0.4474-3.859 0.80637-4.1012 2.9061-0.2323 2.0151 0.1181 2.4728 2.2059 2.8817 1.3651 0.2673 4.1643 0.87379 6.2204 1.3478 2.8671 0.66093 4.6794 0.54225 7.7765-0.50925 5.2144-1.7704 7.5249-1.3808 9.1615 1.5446 1.941 3.4695 0.4571 7.0383-3.4897 8.3925-3.7342 1.2813-15.797 1.4582-17.628 0.2585zm63.528-0.55653c-2.626-1.1749-4.2256-1.2358-10.688-0.40664-14.776 1.8958-23.79 0.76056-24.897-3.1355-0.2538-0.89355-0.5899-8.1271-0.7468-16.075l-0.2855-14.45 2.376-1.7874c2.2034-1.6576 2.5298-1.6865 4.4969-0.39762 3.526 2.3104 4.5465 6.0041 3.3455 12.109-1.1427 5.808-0.082 11.832 2.4477 13.902 1.6424 1.3443 8.6447 1.4259 15.388 0.17929 7.3187-1.3529 15.186-1.5785 16.678-0.47825 2.0607 1.5197 3.503 4.8419 2.9113 6.7062-0.6752 2.1273-4.6059 5.2954-6.5127 5.2492-0.7838-0.019-2.8148-0.65629-4.5133-1.4162zm-144.87-0.22994c-0.80143-0.28883-2.3822-1.7163-3.5129-3.1722-1.1306-1.4559-2.6523-3.3533-3.3816-4.2166-0.72925-0.86326-2.3792-3.4441-3.6667-5.7352-3.3695-5.9963-4.6264-5.4745-5.159 2.142-0.50047 7.1548-2.2728 10.016-6.205 10.016-4.1222 0-4.3422-1.052-3.7606-17.979 0.52182-15.185 0.60582-15.736 2.599-17.042 1.15-0.75348 2.9402-1.1286 4.0531-0.84931 3.2186 0.80782 11.8 9.0379 13.28 12.736 0.74425 1.86 1.9826 3.9042 2.752 4.5428 1.6079 1.3344 1.5954 1.3972 1.5647-7.8784-0.0229-6.9812 1.4165-9.7057 5.1282-9.7057 4.2626 0 5.1566 2.4735 4.943 13.676-0.14674 7.6919 0.13279 10.361 1.3471 12.863 1.4598 3.008 1.4576 3.2709-0.0459 5.5632-2.6092 3.9773-6.8766 6.1421-9.9351 5.0398zm31.143-1.7493c-2.0515-2.0515-2.1008-2.6658-1.0318-12.872 0.41655-3.9767 0.39855-7.9281-0.0415-9.0851-0.66864-1.7587-1.1951-1.9694-3.7324-1.4934-7.1961 1.35-14.332-3.3331-12.202-8.0079l0.98857-2.1697h15.849c9.6143 0 16.063-0.3471 16.394-0.88234 1.0312-1.6686 5.5742-0.96938 7.0087 1.0787 1.8426 2.6307 1.7301 4.4064-0.4552 7.1846-1.61 2.0469-2.4573 2.3248-7.0864 2.3248-7.0209 0-7.3502 0.91891-5.157 14.392 1.058 6.4991 1.0229 6.9908-0.6173 8.631-2.7187 2.7187-7.6504 3.1661-9.9167 0.8998zm479.33 1389.1c0.7279-0.728 1.749-1.3235 2.2689-1.3235 0.52 0 0.9454 0.5955 0.9454 1.3235 0 0.8332-0.8404 1.3235-2.2689 1.3235-2.0167 0-2.1218-0.1471-0.9454-1.3235zm4.5378-302.02c-4.5516-2.1422-5.8538-3.7896-5.8462-7.3957 0-1.61 0.055-7.7659 0.1137-13.68 0.074-7.4012-0.3483-12.571-1.3556-16.588-0.8049-3.2093-1.2257-6.7823-0.9351-7.94 0.2905-1.1577 2.3009-3.5574 4.4673-5.3326 3.5517-2.9104 4.2866-3.1689 7.4768-2.63 1.9458 0.3288 4.8353 1.4721 6.4211 2.5408 2.5462 1.7158 2.987 2.6243 3.7705 7.7698 0.8502 5.584 1.0759 5.9754 5.417 9.3927 3.8387 3.0219 4.6948 4.2539 5.6115 8.0756 1.314 5.4772 0.5468 13.184-1.8028 18.111-3.5692 7.4841-15.446 11.39-23.338 7.676zm12.781-9.875c2.232-1.1946 3.7686-6.2836 3.0514-10.106-1.442-7.6865-11.35-13.331-13.195-7.5167-0.2976 0.9376 0.079 4.1258 0.8371 7.0848s1.3783 6.0115 1.3783 6.7833c0 3.5608 4.3987 5.644 7.9285 3.755zm-8.8108-29.639c0-0.7684-0.4715-1.2399-1.0478-1.0478-1.636 0.5453-1.9074 2.4448-0.3492 2.4448 0.7683 0 1.397-0.6287 1.397-1.397zm170.29 40.178c-2.1838-0.2991-5.0384-1.0604-6.3434-1.6918-2.0104-0.9726-2.9345-0.9234-6.0486 0.3227-6.6019 2.6415-9.6825-0.4992-7.7129-7.8631 0.8544-3.1945 0.7822-5.585-0.3886-12.875-1.5242-9.4903-1.2513-11.579 1.8813-14.401 1.8266-1.6454 10.598-3.9826 15.083-4.019 3.0109-0.025 10.197 7.0304 10.999 10.798 1.5607 7.3314 1.4604 11.654-0.3516 15.152-0.9885 1.9081-1.7041 3.5317-1.5901 3.6081 0.114 0.077 1.8947-0.037 3.9572-0.253l3.7499-0.3921v-5.2307c0-6.4822 2.7044-12.248 7.9812-17.015 3.583-3.237 3.8877-3.3371 9.1416-3.0026 7.0034 0.4459 11.515 3.577 12.954 8.9904 0.5335 2.007 1.33 4.3386 1.7699 5.1813 3.4387 6.5878-3.7561 20.068-11.504 21.553-5.6349 1.0805-10.747 0.5471-13.375-1.3956-3.1661-2.3409-4.799-2.2998-9.2257 0.2321-4.6142 2.639-6.1528 2.9615-10.978 2.3006zm34.99-13.031c2.3841-3.1361 0.8437-10.098-2.8283-12.782-2.0775-1.5186-2.2932-1.5206-4.7903-0.046-4.8275 2.8518-6.2434 10.254-2.5376 13.268 2.8795 2.3418 8.2169 2.11 10.156-0.441zm-36.049-2.9856c2.0175-2.0175 1.2636-7.2382-1.4159-9.8053-3.4989-3.3521-6.1268-3.1175-7.7172 0.6889-1.3269 3.1756-1.7148 8.5626-0.6903 9.587 1.0108 1.0109 8.7108 0.6419 9.8234-0.4706zm117.27 15.384c-0.845-0.9337-2.1448-4.0425-2.8884-6.9083-0.7436-2.8659-1.8804-5.7433-2.526-6.3942-0.9786-0.9867-1.3352-0.2682-2.1431 4.3181-0.533 3.026-1.6359 6.2387-2.451 7.1394-3.3278 3.6771-8.5678 0.8821-9.6576-5.1514-0.3337-1.8469-1.134-4.3506-1.7786-5.5638-1.0877-2.0471-1.1745-1.8127-1.2074 3.2595-0.028 4.4189-0.4287 5.9229-2.0899 7.8541-1.6536 1.9225-2.5207 2.2717-4.4429 1.7893-3.5723-0.8967-4.2987-3.8567-2.7514-11.212 0.7194-3.4196 1.3079-7.7996 1.3079-9.733 0-1.9336 0.5798-4.6366 1.2883-6.0069 0.7086-1.3702 1.0436-2.7361 0.7443-3.0353-0.2992-0.2992 0.174-2.1363 1.0515-4.0824 1.0605-2.3516 2.1653-3.5384 3.2942-3.5384 2.659 0 6.6544 4.6155 7.3321 8.47 0.3328 1.8929 1.1802 4.3578 1.8832 5.4777l1.2781 2.0361 1.7047-2.1672c1.4372-1.8272 2.3098-5.5888 2.5491-10.989 0.1024-2.3127 4.0868-5.3015 6.462-4.8475 4.6463 0.8882 6.276 3.9617 6.8234 12.869 0.3971 6.4618 0.9846 9.0533 2.8746 12.681 3.3171 6.3665 3.9452 10.908 1.7795 12.868-2.7063 2.4492-6.6393 2.8536-8.4366 0.8677zm-160.18-2.2497c-1.0552-1.1231-1.9185-2.9618-1.9185-4.0859 0-1.8584-0.2917-1.9965-3.2147-1.5221-1.7681 0.2868-4.0512 1.2819-5.0734 2.211-2.968 2.6974-5.8327 3.865-8.0919 3.298-3.4115-0.8563-4.1159-3.2572-3.0995-10.565 0.6266-4.5054 0.6136-8.1167-0.042-11.842l-0.9441-5.3597-1.8448 1.7187c-2.1282 1.9827-1.6981 1.8975-10.336 2.0461l-6.6175 0.1139 0.2452 7.4998c0.1349 4.125 0.4478 8.7751 0.6954 10.334 0.8749 5.508-6.1693 8.7019-10.232 4.6392-1.5835-1.5834-1.7469-2.6332-1.4076-9.0439 0.2111-3.9889 0.6638-7.9505 1.0061-8.8035 0.3656-0.9111 0.028-2.4581-0.8186-3.7499-1.2824-1.9573-2.0499-2.1991-6.9793-2.1991-6.1659 0-7.656-0.8998-7.656-4.6231 0-1.7785 1.088-3.5798 3.75-6.2083l3.7499-3.7029 6.5751 0.081c4.0854 0.05 6.7025 0.4634 6.9116 1.0909 0.4199 1.2595 3.0577 1.3179 4.2809 0.095 1.3186-1.3185 15.125-0.037 16.713 1.5519 0.6896 0.6896 1.2539 2.0196 1.2539 2.9555 0 2.0062 2.2321 2.2908 2.966 0.3781 0.7034-1.8328 4.3979-1.6589 6.1618 0.2901 1.1204 1.2381 1.4602 3.3791 1.4602 9.2015 0 8.4629 0.9617 10.361 5.2491 10.361 4.2728 0 6.0927-4.6788 4.4251-11.377-1.2216-4.9067 0.3386-10.902 2.9689-11.409 4.5733-0.8807 9.4154 2.6579 9.4154 6.8805 0 1.4429-0.8832 4.4412-1.9625 6.6628l-1.9624 4.0393 2.3118 4.1459c2.0117 3.6078 2.224 4.7117 1.6357 8.5048-0.4819 3.1067-1.3567 4.9442-3.0456 6.3969-2.9737 2.5579-4.1228 2.5572-6.529 0zm-93.535-0.5375c-2.9514-0.7437-4.4573-4.0314-3.6227-7.9091 0.3774-1.7531 1.146-5.5697 1.7083-8.4814 1.6676-8.6365 3.3703-14.62 4.767-16.752 1.8506-2.8245 5.3669-3.518 8.008-1.5796 2.1326 1.5653 6.6398 10.287 6.6398 12.848 0 0.7449 1.1908 3.8717 2.6463 6.9483 1.4556 3.0766 2.6467 6.0902 2.6471 6.6968 3e-4 0.6066 0.5538 1.1029 1.2298 1.1029 1.9275 0 2.2424 2.0847 0.6179 4.0909-1.8604 2.2974-7.4378 4.1884-10.263 3.4794-1.3068-0.328-2.3606-1.3955-2.6958-2.7309-0.675-2.6894-0.8463-2.6951-4.2462-0.1422-3.4788 2.6123-4.8855 3.0718-7.4368 2.4288zm191.61-0.4128c-4.9112-2.2407-8.3192-10.398-6.3681-15.243 0.5536-1.3747 1.3265-3.2935 1.7175-4.2641 0.3911-0.9706 1.1876-3.3529 1.7699-5.294 1.3967-4.656 2.1012-5.4349 6.7927-7.5101 5.2765-2.3342 8.51-2.176 14.326 0.7003 4.6295 2.2896 4.9363 2.6575 6.7814 8.1333 2.6587 7.8905 2.5902 12.433-0.261 17.299-1.269 2.1652-3.527 4.5676-5.0178 5.3385-3.8134 1.972-16.113 2.4956-19.74 0.8404zm14.756-8.9417c3.2328-1.6717 3.4462-4.8487 0.6749-10.041-2.4154-4.525-4.0531-4.5669-8.6226-0.22-3.9112 3.7206-4.6124 6.893-2.0224 9.1492 3.1131 2.7121 6.2079 3.0571 9.9701 1.1116zm-1621.7-228c-1.8137-1.8136-2.229-4.1895-1.3221-7.5635 0.45176-1.6807 1.2029-1.7706 14.767-1.7646 16.443 0.01 17.788-0.4005 18.486-5.6022 0.53555-3.9928-0.63546-11.29-2.0937-13.047-0.75999-0.9158-4.2847-1.197-15.003-1.197-12.833 0-14.158-0.1482-15.774-1.7646-2.4027-2.4027-2.2621-5.8098 0.30931-7.4946 1.7051-1.1173 3.1307-1.2094 8.015-0.5176 3.2676 0.4627 6.4723 0.6374 7.1216 0.3882 0.64933-0.2491 1.9886-0.02 2.9762 0.508 0.9876 0.5286 5.5554 1.0211 10.151 1.0945 6.4728 0.1034 8.8596-0.1971 10.595-1.3342 2.7578-1.807 8.7665-1.9234 10.199-0.1976 0.57978 0.6986 0.92618 2.3861 0.7698 3.7499-0.22497 1.962-1.1595 2.914-4.4754 4.5587l-4.1911 2.0789 0.013 6.3033c0.016 7.7258 1.2876 10.608 4.8603 11.014 3.6316 0.413 4.8324 1.6472 4.8324 4.9667 0 4.1927-2.5888 6.1968-6.8182 5.2782-7.3478-1.5958-27.859-0.6291-39.226 1.8489-1.7017 0.3709-2.8822 0-4.1911-1.3058zm313.64-91.302c-5.7877-1.6173-8.8358-5.0889-10.188-11.603-1.6859-8.1211-0.0325-14.533 5.1565-19.996 5.6414-5.9396 6.6308-6.2129 15.599-4.3073 9.6399 2.0484 13.756 5.0462 14.794 10.773 1.6478 9.0976-2.852 20.94-9.2115 24.244-3.5772 1.8582-11.184 2.2774-16.149 0.8899zm14.675-11.95c0.98078-1.2113 1.6181-3.4221 1.6181-5.6133 0-2.9785-0.57523-4.204-3.2672-6.9609-1.797-1.8403-4.0391-3.346-4.9826-3.346-2.1341 0-9.0965 5.6043-9.8288 7.9116-0.89072 2.8065 1.1768 8.8456 3.3457 9.7728 1.0664 0.4559 4.0895 0.695 6.7178 0.5315 3.6772-0.2289 5.1519-0.7582 6.397-2.2957zm-91.91 11.432c-0.72793-0.4705-3.7292-0.8615-6.6695-0.8689-6.7903-0.017-8.7634-1.3346-8.4546-5.6453 0.44991-6.2812 0.46153-10.007 0.0751-24.086l-0.3919-14.277 2.5301-2.644c3.769-3.9385 6.694-4.8412 13.371-4.1261 7.1271 0.7633 11.862 4.0227 16.1 11.084 3.8638 6.4376 4.6054 9.526 4.6113 19.202 4e-3 6.4498-0.36945 8.9307-1.7516 11.64-3.649 7.1525-14.776 12.723-19.42 9.7217zm9.9414-12.132c2.2845-2.535 2.7205-6.2436 1.5164-12.898-1.3799-7.6261-6.22-14.933-11.296-17.054-3.085-1.289-3.2458-1.2602-5.119 0.9176-1.604 1.8648-1.8694 3.0469-1.5553 6.9287 0.20826 2.574 0.61274 8.4521 0.89882 13.062 0.28608 4.6102 0.92079 8.8785 1.4105 9.4851 1.4504 1.7967 12.437 1.454 14.145-0.4412zm130.76 12.139c-2.4452-0.3579-5.7616-1.331-7.3697-2.1626-4.1811-2.1622-10.639-3.982-12.118-3.4147-0.69428 0.2664-1.64 1.1901-2.1015 2.0525-1.2787 2.3893-5.6597 3.6459-7.6429 2.1922-1.4063-1.0308-1.6262-2.5944-1.6962-12.061-0.0442-5.9822-0.38578-12.369-0.75904-14.192-0.85964-4.1993 1.012-7.3232 5.5145-9.2045 7.969-3.3297 20.224 2.8664 23.139 11.699 0.86708 2.6273 0.70511 3.6521-1.2533 7.9297l-2.249 4.9126 3.2543 1.3597c3.4933 1.4596 10.077 0.8309 15.734-1.5027 5.7875-2.3873 9.8145 1.347 7.4939 6.9494-1.6741 4.0417-11.394 6.6942-19.946 5.4429zm-13.22-18.202c0.78683-0.7868 1.3088-2.0632 1.1598-2.8365-0.37686-1.957-5.9856-5.567-8.1645-5.255-2.1265 0.3044-2.7788 3.581-1.4228 7.1475 0.73957 1.9452 1.4538 2.3746 3.9498 2.3746 1.6758 0 3.6908-0.6437 4.4776-1.4306zm240.4 17.606c-2.7773-3.3421-3.7091-6.1455-2.6811-8.0663 1.2565-2.3478 1.2594-13.573 4e-3 -16.328-0.76518-1.6795-0.64684-2.7521 0.56428-5.115 2.5133-4.9033 5.2394-5.66 8.387-2.3282 1.7495 1.852 1.8356 2.5834 1.2824 10.891-0.74814 11.234-0.3247 11.83 8.4134 11.83 3.3454 0 7.8765-0.609 10.069-1.3535 3.6355-1.2343 4.1822-1.2253 6.2072 0.1015 1.6232 1.0636 2.2206 2.2312 2.2206 4.3402 0 4.6516-2.3691 5.5703-15.553 6.0313-6.2469 0.2185-12.756 0.6711-14.464 1.0057-2.4339 0.4769-3.3969 0.2587-4.4498-1.0083zm40.791 0.063c-1.6828-1.1788-1.9121-2.1631-1.9121-8.2078 0-3.7776-0.43004-10.064-0.95565-13.969-0.81797-6.078-0.75114-7.4965 0.46383-9.846 1.2069-2.3339 1.9116-2.742 4.7056-2.7254 1.8074 0.011 4.2329 0.7477 5.3902 1.6376 1.7596 1.3529 2.0078 2.1082 1.516 4.6127-2.4941 12.702-2.5792 20.082-0.23375 20.292 0.56394 0.05 4.8317 0.091 9.4839 0.091 6.8563 0 9.1478-0.3516 12.097-1.8563 4.5845-2.3388 7.2597-2.346 10.207-0.027 3.757 2.9552 2.5944 6.9274-2.9692 10.144-0.72793 0.4208-9.0989 0.8616-18.602 0.9794-14.27 0.1767-17.612-0.02-19.191-1.1253zm-376.02-1.1866c-6.8616-3.6296-8.414-7.9891-6.582-18.483 0.65801-3.7692 1.912-8.1204 2.7867-9.6692 1.879-3.3273 8.9823-7.1938 13.216-7.1938 3.6443 0 9.7932 2.344 12.504 4.7665 7.3148 6.5374 7.9602 20.969 1.214 27.149-5.1467 4.7147-17.304 6.5171-23.139 3.4305zm15.615-8.9425c2.4723-0.9391 3.4611-5.7523 2.0562-10.009-1.1815-3.5799-4.6569-6.6888-7.4773-6.6888-2.5104 0-6.4698 4.1889-7.5633 8.0016-1.2384 4.3182-1.1129 5.0657 1.2468 7.4253 2.2286 2.2287 7.666 2.8174 11.738 1.271zm184.09 9.8529c-10.888-2.7636-14.825-9.9363-11.519-20.987 1.3139-4.3915 8.3596-12.315 11.695-13.152 5.7511-1.4434 15.447 1.5183 19.504 5.9576 6.2651 6.8561 7.302 13.649 3.0846 20.207-4.5649 7.0982-6.4639 8.2811-13.636 8.4936-3.4876 0.1034-7.5958-0.1305-9.1294-0.5197zm10.694-8.5054c3.0627-1.4534 4.8879-4.4106 4.8879-7.9195 0-1.5277-1.3058-3.176-4.5431-5.735-3.7912-2.9967-4.9758-3.4961-7.1576-3.0169-3.8309 0.8414-6.6346 3.691-7.2571 7.3759-0.74881 4.4321 0.59806 7.4441 4.1006 9.1698 3.7072 1.8267 6.3155 1.8596 9.9694 0.1257zm67.71 7.3658c-0.58234-0.5823-1.0588-2.7121-1.0588-4.7329v-3.6742l-4.0903-0.5606c-5.3881-0.7384-10.179 0.7581-11.884 3.7126-1.8366 3.1816-5.7294 5.2005-7.6856 3.986-3.1527-1.9574-3.8292-5.0793-2.7912-12.88 0.80135-6.0217 0.72981-8.4857-0.40427-13.922-1.7205-8.2472-1.724-10.417-0.0235-14.487 1.2849-3.0751 1.5459-3.231 4.9836-2.9753 4.9049 0.3646 5.8153 1.9891 4.3404 7.7439-1.1318 4.4158-0.7026 17.086 0.64891 19.159 0.67527 1.0356 15.202 2.3028 17.276 1.507 1.7186-0.6594 1.8299-5.6276 0.35467-15.831-0.96042-6.6425-0.90702-7.4218 0.6967-10.168 2.1629-3.7036 7.5692-5.4405 9.8462-3.1636 1.2127 1.2127 1.2503 1.9567 0.28413 5.6217-2.0595 7.8125-2.7358 20.245-1.3495 24.813 2.0038 6.6025 1.3703 11.179-2.1272 15.366-1.4799 1.7719-5.4545 2.0469-7.016 0.4853zm20.487-1.1192c-0.5798-2.3101 1.1408-10.717 2.588-12.645 0.47341-0.6307 2.1427-4.9983 3.7095-9.7057 3.0695-9.2221 5.1217-11.541 9.2891-10.495 2.7944 0.7013 7.8672 8.945 7.8672 12.785 0 1.5523 1.2292 5.4241 2.7316 8.6039 2.9839 6.3155 2.9414 8.8614-0.1968 11.785-2.1276 1.9821-5.2418 1.303-7.8582-1.7136-2.0686-2.3852-4.2879-2.117-7.8784 0.9519-4.0874 3.4938-9.4273 3.7194-10.252 0.4332zm15.513-12.273c0-1.8256-2.367-3.5809-2.8724-2.13-0.21835 0.6268-0.21448 1.636 9e-3 2.2426 0.55011 1.4959 2.8638 1.405 2.8638-0.1126zm-152.42 10.623c-0.66742-1.4648-0.65837-4.0168 0.0312-8.8036 0.84209-5.8452 0.77248-7.1572-0.52395-9.8759-0.82228-1.7244-2.1283-3.3781-2.9022-3.6751-0.77393-0.297-4.0808-0.035-7.3485 0.5811-6.8729 1.2968-9.3972 0.5063-10.337-3.237-1.2348-4.92 3.7862-8.1707 10.207-6.608 3.3107 0.8056 23.428 1.3408 33.954 0.9032 5.5062-0.229 5.848 5.319 0.52021 8.4443-2.5311 1.4847-3.3692 1.5669-6.7534 0.6618-2.125-0.5684-4.9051-1.0334-6.178-1.0334h-2.3143l0.43544 10.573c0.50326 12.22-0.16743 14.133-4.9545 14.133-2.1798 0-3.1291-0.5104-3.8364-2.0628zm-392.42-8.6724c-4.6644-1.9196-14.508-4.2645-17.902-4.2645-2.8436 0-8.7648-3.1887-9.9162-5.3401-0.70016-1.3083-0.69919-2.6135 4e-3 -4.7427 1.0399-3.1508 2.8142-4.0722 13.697-7.1125 2.9117-0.8135 5.7309-1.7441 6.265-2.0682 3.8018-2.3068 8.068-5.4304 9.0764-6.6455 2.7878-3.359 8.0989-0.8976 8.2329 3.8155 0.0683 2.4037-0.54266 3.5362-3.0795 5.708-3.2863 2.8133-3.5678 3.4903-3.3937 8.1609 0.12616 3.3845 2.1088 5.5776 5.0423 5.5776 2.7536 0 4.4582 3.7768 3.0748 6.8131-1.1729 2.5743-5.0023 2.6082-11.101 0.098zm-6.6175-11.792c0-2.0167-2.322-2.5268-5.5034-1.209-2.8221 1.1689-2.8227 1.1706-0.6459 1.7772 3.8574 1.0749 6.1493 0.8632 6.1493-0.5682zm-20.593-84.66c-1.7998-1.7998-1.8619-6.4771-0.1167-8.7843 1.3879-1.8349 4.0904-2.0321 18.379-1.3414 8.0773 0.39035 9.6485-0.68602 8.9677-6.1433-2.0198-16.19-2.4017-23.06-1.352-24.324 1.2567-1.5143 4.6462-1.7472 7.0104-0.48193 1.9159 1.0254 5.6352 9.812 5.5505 13.113-0.71027 27.705-0.77591 27.797-20.052 28.08-6.3087 0.0925-12.697 0.43367-14.196 0.75828-1.9625 0.42502-3.1356 0.17991-4.1911-0.87554zm1188.7-56.348c-1.2906-0.57352-3.1955-1.8111-4.2331-2.7501-1.8068-1.6351-2.0543-1.6452-5.8465-0.23973l-3.9599 1.4677-3.3843-3.0576c-3.7613-3.3981-4.9814-3.6886-7.1706-1.7073-0.8206 0.74258-2.7593 1.7137-4.3085 2.1579-2.3304 0.66837-3.1267 0.49746-4.6148-0.9906-0.9891-0.98911-1.5972-2.4565-1.3513-3.261 0.2459-0.80434 0.8495-2.6536 1.3415-4.1095 1.2716-3.7629 2.7863-12.769 2.7863-16.566 0-4.3257 4.3575-9.4627 8.0269-9.4627 1.973 0 3.1458 0.82234 5.1822 3.6335 1.4477 1.9984 2.8492 5.0756 3.1146 6.8381 0.2653 1.7625 0.9123 4.3958 1.4377 5.8516 2.9829 8.2651 3.6796 9.848 4.9598 11.268 1.3396 1.486 1.5218 1.4536 3.7299-0.66175 2.5659-2.4584 5.4399-2.874 6.9865-1.0105 1.2864 1.5501 8.4297 3.573 10.208 2.8908 1.6835-0.64605 1.7296-3.262 0.1254-7.1015-1.3094-3.1341-4.7987-4.9439-9.5312-4.9439-3.0649 0-6.8869-3.4848-6.8869-6.2793 0-2.9746 4.1672-9.4311 7.0491-10.921 1.4129-0.73063 4.1464-1.3284 6.0744-1.3284 6.687 0 11.294 6.5185 7.5396 10.667-1.2894 1.4248-1.1381 1.799 1.995 4.9321 7.1681 7.1681 7.2432 14.88 0.2111 21.679l-4.3343 4.1911-6.3999-0.0715c-3.5199-0.0397-7.4557-0.54096-8.7463-1.1145zm203.59-1.5969c-2.3109-1.5307-4.3575-3.2182-4.5479-3.7499-0.1904-0.53178 0.1954-3.5465 0.8575-6.6992 0.7657-3.6459 0.9208-6.477 0.4262-7.7779-0.4278-1.1251-0.7777-4.7375-0.7777-8.0277 0-6.9237 0.9883-8.3106 7.269-10.201 3.6923-1.1112 4.2167-1.0367 9.5685 1.36 3.1142 1.3946 6.0969 2.5468 6.6283 2.5604 1.518 0.0388 3.6866 2.8625 4.4035 5.7337 0.36 1.4414 1.4315 3.9378 2.3811 5.5474 4.0694 6.897-0.041 17.701-8.3317 21.902-6.2697 3.1771-12.44 2.9534-17.877-0.64808zm14.638-9.2652c1.1659-1.0551 1.6136-2.7229 1.6136-6.0113 0-3.8279-0.3856-4.9106-2.4265-6.8141-3.1836-2.9694-6.4116-4.5916-7.2896-3.6634-0.638 0.67458-1.3214 10.032-1.0027 13.73 0.1333 1.546 3.9707 4.1201 6.2376 4.184 0.6898 0.0194 1.9802-0.62178 2.8676-1.425zm-506.87 9.2805c-4.3727-2.2124-4.961-4.1298-3.5528-11.577 1.1886-6.286 0.7266-13.402-1.3887-21.39-0.5141-1.9411-0.9441-5.3848-0.9557-7.6526-0.018-3.3837 0.4354-4.5796 2.5234-6.6677 6.3763-6.3762 18.682-5.4219 23.079 1.7898 0.9472 1.5536 1.7238 3.7208 1.7256 4.8158 0 1.0951 1.0175 2.8729 2.257 3.9506 6.2235 5.4113 10.855 17.961 8.7332 23.667-0.6214 1.6711-1.3626 4.1012-1.6473 5.4003-0.755 3.4456-8.3187 7.5178-16.036 8.6332-8.2358 1.1904-10.804 1.0215-14.738-0.96916zm20.321-10.052c2.531-1.7728 3.9456-6.8708 2.7668-9.9715-2.3493-6.1789-9.908-12.065-14.09-10.971-1.5222 0.39807-1.6804 1.3298-1.6682 9.822 0.01 5.1603 0.3087 9.8463 0.6695 10.413 0.5853 0.9201 3.1094 1.4821 8.6058 1.9159 0.9839 0.0777 2.6559-0.46613 3.7156-1.2084zm-11.946-31.473c-0.8235-0.82351-1.2941-0.82351-2.1176 0s-0.5883 1.0588 1.0588 1.0588 1.8823-0.23529 1.0588-1.0588zm42.326 41.897c-3.1324-0.59672-8.4338-6.4404-9.7115-10.705-1.2083-4.033-0.6776-12.356 0.9931-15.574 1.7175-3.3085 9.0017-9.9315 12.136-11.034 2.7614-0.97153 3.5549-0.88102 6.803 0.77605 2.0223 1.0317 4.2034 1.8758 4.8468 1.8758 1.7708 0 6.7455 6.9547 7.8144 10.925 1.8712 6.9488-1.0332 16.03-6.4294 20.103-4.9783 3.7574-9.9918 4.8649-16.452 3.6343zm9.9574-9.6219c4.1505-1.5927 4.8318-11 1.0945-15.113-4.7193-5.1941-13.001 0.61348-11.591 8.1285 0.6363 3.3915 2.2679 5.114 6.1244 6.4659 1.4559 0.51026 2.7138 0.9591 2.7955 0.99748 0.081 0.0379 0.7911-0.17699 1.5767-0.47849zm26.99 9.2252c-6.3901-1.1474-7.1243-2.4666-7.057-12.68 0.032-4.8348 0.016-11.028-0.036-13.763-0.1271-6.6922 2.131-9.428 8.3774-10.149 6.7048-0.77442 11.402 0.88249 15.946 5.625 2.882 3.0078 3.9079 4.7878 3.9115 6.7869 0 1.4904 0.4131 4.1794 0.912 5.9758 2.5751 9.2719-10.713 20.241-22.053 18.205zm10.01-10.911c4.8442-4.8442 0.6383-18.166-5.3735-17.021-1.3393 0.2552-1.6699 1.5425-2.1148 8.2346-0.4335 6.5209-0.2857 8.1284 0.8304 9.0351 1.8528 1.5052 5.0223 1.3867 6.6579-0.24891zm245.35 9.925c-2.5041-2.154-2.5323-2.2776-1.4828-6.4874 1.84-7.3809 2.351-20.937 1.0493-27.836-1.0939-5.7973-1.0555-6.4833 0.5294-9.4415l1.7089-3.19 11.028-1.0871c6.0656-0.59788 12.535-1.3382 14.376-1.6452 6.5102-1.0853 9.173 4.9804 4.2548 9.6922-2.3852 2.2852-2.7579 2.3731-5.9746 1.4094-2.3275-0.69734-5.4072-0.78959-9.577-0.28689-6.8417 0.82477-7.8565 1.9888-5.2293 5.9983 1.3611 2.0773 1.8527 2.2256 5.6894 1.7166 3.5466-0.47047 4.4897-0.26708 6.0648 1.3079 2.5173 2.5173 2.3499 3.9471-0.7694 6.5719-2.3503 1.9777-2.9868 2.1193-5.9033 1.314-2.7784-0.7671-3.4425-0.66546-4.4244 0.67746-1.5436 2.111-1.4632 7.6214 0.1682 11.526 1.7977 4.3027 1.6693 5.9851-0.6618 8.6679-2.9556 3.4016-7.6167 3.8712-10.847 1.0927zm37.538 1.0802c-0.7279-0.45705-2.4187-1.2192-3.7572-1.6937-3.665-1.2992-7.7152-8.2414-7.7045-13.206 0.01-4.3411 2.9588-11.56 6.0285-14.755 1.011-1.0522 4.6447-2.7989 8.0748-3.8814 7.5996-2.3985 11.752-1.5999 15.246 2.9322 1.2136 1.5743 3.0279 3.7961 4.0319 4.9373l1.8254 2.075 0.4591-2.075c0.2525-1.1412 0.568-3.221 0.7011-4.6219 0.1355-1.4266 1.072-3.0947 2.1288-3.7922 1.6975-1.1203 2.1398-1.0278 4.4068 0.92219 2.4359 2.0953 2.5113 2.4057 2.2618 9.3178-0.2558 7.0843-0.2316 7.1746 2.6279 9.7864 4.0478 3.6971 6.8322 3.4656 10.772-0.89583 3.6329-4.0212 3.888-5.7618 1.4978-10.221-1.8973-3.5402-1.3018-6.9184 1.6984-9.6336 2.3024-2.0836 6.1936-0.71143 7.9923 2.8184 1.18 2.3159 1.2337 3.7255 0.3706 9.7262-1.2027 8.3625-3.973 14.517-7.7427 17.201-3.7485 2.6692-17.846 4.7112-20.504 2.9699-1.7818-1.1675-4.8275-9.1441-4.8275-12.643 0-2.5162-0.8917-4.6269-1.9547-4.6269-0.5085 0-0.6418 0.96333-0.314 2.2693 0.3904 1.5556-0.041 3.2902-1.3707 5.5146-3.0949 5.1768-5.2885 7.2221-10.673 9.9513-5.1159 2.5928-8.8704 3.1336-11.275 1.6238zm12.918-12.786c2.8035-2.8035 2.3086-5.9322-1.4935-9.4408-2.8412-2.6219-5.1727-2.9763-9.5473-1.4513-5.1507 1.7956-5.6082 5.9779-1.1723 10.716 3.1386 3.3523 8.9532 3.4361 12.213 0.17621zm-267.91 12.226c-2.5268-0.90307-3.5293-3.2818-3.5293-8.3741 0-5.0932-0.033-5.1569-6.3079-12.278-6.5461-7.4286-7.4275-9.7966-5.1976-13.963 1.1905-2.2246 4.8178-3.2331 7.8249-2.1756 1.7849 0.62771 2.4998 1.7898 3.4704 5.6414 2.158 8.5631 6.8515 11.386 9.5339 5.7331 0.806-1.6985 1.778-3.0882 2.1601-3.0882 0.382 0 1.5145-1.3897 2.5167-3.0882 1.5107-2.5605 2.3315-3.0882 4.8033-3.0882 3.779 0 6.322 2.5523 5.4314 5.4514-0.346 1.1267-2.8975 4.4308-5.6698 7.3425-6.6351 6.9686-7.3698 8.4708-6.6615 13.62 0.5424 3.9444 0.4075 4.3454-2.2014 6.5407-2.7875 2.3455-3.7148 2.6048-6.1732 1.7262zm99.008-0.49058c-0.5017-0.6066-1.7206-4.4372-2.7087-8.5124-2.761-11.387-3.8843-11.616-7.2018-1.4666-2.4593 7.5237-5.0649 10.418-9.0339 10.034-3.505-0.33909-4.7869-2.6816-5.4818-10.016-0.3018-3.1866-1.1871-6.2006-2.2465-7.6493-0.9615-1.3148-1.7482-2.6521-1.7482-2.9717s-1.1912-1.9376-2.6471-3.5958c-1.9106-2.176-2.6524-3.9267-2.6666-6.2928-0.011-1.8873-0.7516-4.2139-1.7451-5.4839-2.2217-2.8403-2.3006-8.0648-0.1511-10.01 4.0143-3.6328 9.8204-0.60447 11.236 5.8605 0.3404 1.5544 2.1545 6.3182 4.0315 10.586 1.877 4.268 3.4127 8.3709 3.4127 9.1175 0 2.7662 2.2261 0.50567 2.7887-2.832 2.2265-13.209 6.0205-17.707 10.322-12.238 0.9729 1.2368 3.242 5.8029 5.0426 10.147 1.8006 4.344 3.7373 7.8982 4.304 7.8982 1.5744 0 7.5805-19.148 7.5596-24.102-0.035-8.4398 4.0014-11.846 8.4065-7.0924 1.8857 2.0346 2.1638 3.1619 2.1638 8.7713 0 3.5401-0.3298 6.6404-0.7329 6.8895-1.1922 0.73684-6.8481 15.054-9.3336 23.627-1.8978 6.5456-5.4728 10.435-9.591 10.435-1.687 0-3.4778-0.49631-3.9795-1.1029zm242.49-2.8874c-3.7288-3.002-7.9725-9.6099-7.9725-12.414 0-1.5141-4.1468-3.2975-6.0073-2.5835-1.0403 0.39917-1.1753 1.6287-0.6943 6.3237 0.7084 6.9138-0.5772 9.1348-5.2873 9.1348-3.5481 0-4.5034-2.1577-2.9083-6.5687 0.8654-2.3933 0.8779-4.2601 0.058-8.708-1.7315-9.3972-1.4149-13.42 1.2189-15.492 1.2845-1.0103 2.9053-1.551 3.75-1.2511 3.0113 1.0694 9.0785 6.6802 10.735 9.9278 1.4117 2.7674 6.6336 7.092 8.5632 7.092 0.2774 0 0.2453-1.9536-0.071-4.3413-0.7023-5.2939 1.2399-10.86 4.2716-12.241 1.7179-0.78268 2.3738-0.60878 3.9226 1.04 2.2063 2.3484 2.3818 5.7975 0.4821 9.4712-1.2794 2.4741-1.24 3.1103 0.5514 8.8986 2.3616 7.6303 2.4163 10.092 0.272 12.237-3.1501 3.1501-6.5211 2.9874-10.884-0.52526zm-1374.2-33.649c-0.29454-1.3789-0.22007-4.2939 0.16548-6.4777 0.81809-4.6337-0.44588-4.4448 18.278-2.7314 12.753 1.1669 15.02 0.92339 15.702-1.687 0.51226-1.9589-0.41917-8.6677-2.1065-15.173-0.73157-2.8204-0.81077-5.0824-0.24717-7.0587 0.7391-2.5917 1.2112-2.9368 4.337-3.1692 3.1468-0.23402 3.6873 0.0383 5.2546 2.647 3.2814 5.462 3.9289 8.7591 3.6375 18.524-0.44823 15.019-1.678 16.042-19.515 16.233-6.794 0.0729-15.192 0.41782-18.662 0.7665l-6.3091 0.63397zm1062.6-34.406c-1.7464-1.867-4.0444-5.7867-5.1067-8.7104-1.6986-4.6754-1.8132-5.8672-0.9502-9.8909 0.5396-2.5162 2.5041-6.9313 4.3655-9.8112 2.9332-4.5382 4.0318-5.4786 8.2401-7.0531 3.9699-1.4853 5.7104-1.6816 9.5414-1.076 4.0972 0.64768 5.1453 1.2703 8.3435 4.957 4.9966 5.7597 6.9731 12.126 5.6873 18.32-1.5172 7.3087-3.7005 10.084-10.277 13.067-3.448 1.5634-7.969 2.8146-11.221 3.1056-5.4188 0.48485-5.4631 0.46992-8.6222-2.9071zm19.702-10.045c2.1993-2.7161 2.0688-8.7952-0.2421-11.276-1.9585-2.1022-7.1855-4.5739-9.6726-4.5739-0.8548 0-3.0236 1.6264-4.8194 3.6142-3.7039 4.0997-3.6923 5.5815 0.091 11.574l2.2543 3.571 5.4142-0.49095c4.1252-0.37406 5.7858-0.94985 6.9751-2.4186zm148.14 10.841c-1.0142-0.84925-3.9369-4.6809-6.4947-8.5147-2.5578-3.8338-5.5439-7.555-6.6358-8.2692l-1.9853-1.2986v7.9119c0 6.5444-0.2789 8.1643-1.6135 9.3722-2.1051 1.905-4.7658 1.8521-7.2307-0.14383-1.897-1.5361-1.9381-1.85-0.9705-7.4067 0.7653-4.3941 0.7589-7.271-0.026-11.852-1.6353-9.541-1.4729-14.365 0.533-15.832 0.9373-0.68537 2.8447-1.2461 4.2388-1.2461 2.845 0 4.2008 1.3449 17.586 17.444 1.3032 1.5675 2.5912 2.85 2.8622 2.85s0.2262-1.4889-0.099-3.3088c-0.3258-1.8198-0.5287-5.4598-0.4508-8.0887 0.1672-5.6515 2.5343-8.8963 6.4898-8.8963 3.5558 0 5.5311 4.772 4.1862 10.113-0.6767 2.6872-0.6755 4.7456 0 7.1931 0.5236 1.8857 0.9542 6.2661 0.9569 9.7342 0.01 6.116-0.089 6.3879-3.114 9.044-3.5467 3.1141-5.5889 3.4103-8.2354 1.1943zm-380.9-1.3714c-1.8976-1.6323-2.3318-2.7194-2.2021-5.5146 0.38593-8.323 0.37667-13.09-0.0503-25.709-0.49941-14.771-0.19985-16.062 4.3704-18.841 3.5779-2.1758 7.3628-2.1832 13.632-0.0263 5.6701 1.9508 9.3094 4.4168 12.112 8.2072 2.1106 2.8547 4.3023 10.664 4.401 15.682 0.06 3.0657 0.0715 3.0744 1.5756 1.1995 0.8331-1.0387 2.1951-3.1302 3.0266-4.6476 0.83151-1.5174 2.2212-2.9931 3.0882-3.2793 0.86698-0.28618 2.8274-1.0734 4.3566-1.7494 3.5415-1.5655 8.6348-1.5732 11.642-0.0176 1.2881 0.66628 3.8178 1.8448 5.6216 2.6188 3.82 1.6393 7.7496 8.327 7.7496 13.189 0 14.584-17.572 25.787-29.49 18.802-4.2432-2.4867-7.5679-7.8589-7.5679-12.228 0-1.6931-0.24706-4.3137-0.54899-5.8235l-0.54908-2.7452-2.7597 3.4834c-3.247 4.0983-7.4982 7.4188-12.645 9.8766-2.1586 1.0308-4.4544 3.0349-5.4929 4.795-1.5614 2.6463-4.7286 4.7615-7.1299 4.7615-0.4267 0-1.8393-0.91489-3.1394-2.0331zm56.174-9.4986c5.2968-3.7716 5.2068-7.8271-0.3181-14.329l-2.8563-3.3616-3.2352 1.3575c-5.1353 2.1547-8.6646 8.3944-7.4608 13.191 0.60184 2.3981 5.0824 4.9192 8.7951 4.949 1.381 0.011 3.6648-0.80162 5.0753-1.8059zm-39.226-9.9448c3.6162-2.486 4.3299-3.4451 4.5582-6.1258 0.42105-4.9404-1.824-10.481-5.1822-12.79-3.6759-2.5271-6.8452-3.3501-8.0935-2.1018-1.2403 1.2403-0.90669 21.295 0.38011 22.845 1.5013 1.809 3.7714 1.3113 8.3374-1.8277zm496.85 20.524c-1.3171-0.76712-1.5441-2.2761-1.5441-10.263 0-6.2194-0.4853-10.903-1.4452-13.948-1.7731-5.6249-1.1186-9.953 1.9396-12.826 1.7495-1.6436 2.5571-1.8946 3.7363-1.1612 2.4126 1.5003 5.562 6.6518 4.731 7.7384-0.4098 0.53588-0.2419 5.1327 0.3739 10.237 1.7189 14.249 1.6058 17.007-0.7897 19.258-2.2031 2.0697-4.5503 2.3933-7.0018 0.96546zm30.021-0.57727c-6.403-2.3922-11.734-7.3401-13.439-12.473-2.0137-6.0627-1.1713-8.7332 6.4117-20.324 2.0335-3.1083 3.6973-5.9373 3.6973-6.2866 0-0.34939 1.2812-0.89149 2.8471-1.2047 2.1155-0.42309 3.4668-0.1113 5.2583 1.2132 1.3262 0.98045 2.8623 1.7826 3.4136 1.7826 0.5514 0 2.1556 0.82114 3.5651 1.8248 3.476 2.4752 3.5796 6.9529 0.2219 9.5941-1.92 1.5102-3.0854 1.7424-6.4832 1.2917-3.8755-0.51411-4.3215-0.35854-6.9198 2.4139-3.7057 3.9542-3.6789 7.045 0.086 9.9167 4.9922 3.8078 7.3191 4.2924 11.038 2.2992 4.0313-2.1606 4.8441-2.1775 6.6888-0.13905 2.1918 2.4219 1.7877 5.6836-1.0397 8.3924-3.3199 3.1807-9.5376 3.869-15.346 1.6988zm-460.78-0.61442c-1.9163-0.59254-4.2444-2.0957-5.1737-3.3404-1.4732-1.9732-1.555-2.6709-0.6386-5.4477 0.5781-1.7516 1.5165-3.2304 2.0856-3.2862 2.6439-0.25969 4.72 0.44745 7.0365 2.3967 2.6595 2.2378 3.3934 2.4121 6.5712 1.5605 5.1149-1.3707 0.079-8.271-7.4121-10.157-2.5048-0.6307-4.4764-1.7937-5.3807-3.1739-1.2712-1.9401-1.289-2.5721-0.1628-5.7763 0.9979-2.839 2.1022-4.0241 5.2352-5.6184 6.2928-3.2023 14.635-2.5204 16.715 1.3664 1.2171 2.2742-0.2546 5.6614-3.1279 7.1992l-2.1002 1.124 2.8724 1.9519c4.217 2.8655 5.1806 5.2982 4.8764 12.312-0.2538 5.8559-0.3945 6.2067-3.2634 8.136-2.4209 1.6281-4.1193 1.9984-8.8234 1.9237-3.2038-0.0509-7.3931-0.57732-9.3093-1.1698zm29.583 0.0232c-0.715-0.86159-0.8509-3.6174-0.4458-9.044 0.4448-5.9584 0.2292-9.2078-0.9117-13.736-0.8218-3.262-1.2672-6.6463-0.9896-7.5208 0.5832-1.8375 7.2448-6.401 9.3438-6.401 4.4354 0 5.912 5.1862 3.1399 11.028-1.2342 2.6008-1.2417 3.6641-0.072 10.274 1.8129 10.252 1.7075 12.452-0.7057 14.719-2.3598 2.217-7.757 2.6087-9.3582 0.67927zm36.12-0.0674c-1.1681-1.4075-1.1455-1.6802 1.4798-17.891 0.3-1.8523-0.047-3.6559-0.9757-5.0734-1.6678-2.5454-5.7488-2.9176-12.422-1.1328-3.4569 0.92459-4.1817 0.87294-5.4425-0.38789-2.0968-2.0968-1.7256-6.9288 0.6819-8.8783 1.6906-1.3689 3.0703-1.5232 9.7053-1.0853 4.254 0.28078 11.233 0.12638 15.508-0.3431 17.436-1.9146 19.442-1.9598 20.929-0.47235 1.963 1.963 1.7479 4.9158-0.6133 8.4196-2.4918 3.6976-4.5245 4.1601-7.7623 1.7663-2.6581-1.9652-8.6032-2.527-10.169-0.96098-0.5212 0.52122-0.7938 4.995-0.6584 10.809 0.2893 12.429-0.9876 15.945-5.9422 16.361-2.0674 0.17346-3.5617-0.2177-4.3194-1.1306zm38.399-0.42326c-1.1414-1.2613-1.4163-2.5161-1.0145-4.6323 0.8714-4.5891 0.6059-14.871-0.4997-19.357-0.7959-3.229-0.7639-4.6988 0.1505-6.9065 3.5865-8.6586 13.094-5.5389 10.79 3.5403-0.4402 1.7345-0.5632 3.9259-0.2732 4.8697 0.2899 0.94385 0.5259 5.751 0.5243 10.682 0 8.2712-0.1689 9.1434-2.1421 11.25-2.5487 2.7208-5.3852 2.9291-7.5351 0.55357zm245.17 1.0546c-1.5696-1.0481-2.7229-3.8287-3.9284-9.4716-0.6221-2.9117-2.0573-7.0776-3.1893-9.2575-1.132-2.1799-2.0583-4.3381-2.0583-4.796s-0.7593-1.6522-1.6872-2.654c-1.7211-1.8581-6.2539-14.561-6.2539-17.526 0-0.90004 1.1607-2.797 2.5792-4.2156 2.1016-2.1017 3.3291-2.5791 6.6305-2.5791 3.6239 0 4.2358 0.30256 5.7998 2.8676 2.2655 3.7157 2.2617 6.4998-0.01 7.0938-1.1509 0.30098-1.7492 1.1806-1.72 2.5293 0.07 3.2271 6.6831 18.832 7.9809 18.832 0.6432 0 1.4858-1.5724 1.8914-3.5294 0.4024-1.9411 1.558-5.2386 2.5681-7.3276 1.65-3.4124 2.1174-3.7709 4.602-3.5294 2.3777 0.23117 3.1641 1.0112 5.6083 5.5629 1.5635 2.9117 2.8665 6.4852 2.8957 7.941 0.05 2.5196 0.1152 2.5645 1.3483 0.93428 0.7124-0.942 1.2954-2.7048 1.2954-3.9174 0-2.1169 0.7576-6.8023 2.9415-18.193 1.6238-8.4692 6.2886-11.534 11.417-7.4999 1.2339 0.97058 2.827 1.7647 3.5403 1.7647s1.7857 0.58899 2.3831 1.3089c0.8964 1.08 0.7225 1.4493-0.9948 2.1122-3.9368 1.5196-7.8164 7.0461-7.8164 11.134 0 2.4108-1.8912 9.2299-4.0386 14.562-0.684 1.6985-1.812 5.5922-2.5065 8.6527-1.4295 6.2993-2.3473 7.7505-5.2531 8.306-4.8433 0.92586-8.4956-3.4612-8.4956-10.205 0-3.6016-1.8772-5.6564-3.4435-3.7692-0.5668 0.68298-1.4029 3.5296-1.858 6.3257-0.5117 3.1442-1.5684 5.8727-2.7696 7.1513-1.8972 2.0195-5.509 2.6937-7.4583 1.3921zm38.477-0.64016c-0.6743-0.8125-0.8766-2.4149-0.5289-4.1911 0.8723-4.4583 0.5062-19.151-0.5342-21.435-1.2215-2.6809-0.2734-6.2204 2.3757-8.8696 2.4059-2.4059 4.63-2.6945 7.0619-0.91621 1.4237 1.041 1.6673 2.4528 1.7128 9.9263l0.053 8.7126h10.588v-7.4999c0-12.801 1.7096-15.906 6.5257-11.853 2.9696 2.4987 3.6428 6.3128 3.9106 22.156 0.1335 7.8966-0.072 9.2795-1.7081 11.47-2.676 3.5843-7.139 3.5085-9.1679-0.15579-0.8061-1.4558-2.4701-3.0018-3.6978-3.4355-2.641-0.93293-6.8917-0.0579-6.8917 1.4188 0 1.8058-4.6615 5.9872-6.6745 5.9872-1.063 0-2.4241-0.59194-3.0245-1.3154zm102.57-1.0232c-1.9975-1.9976-2.1777-2.7361-1.7688-7.2467 0.4792-5.2851-0.9765-15.11-2.7222-18.371-1.6383-3.0612-1.2085-6.3573 1.1345-8.7004 2.5953-2.5952 4.0299-2.7064 6.7278-0.52178 1.7971 1.4553 2.0921 2.6706 2.5697 10.59 0.2974 4.9289 1.0036 9.4095 1.5729 9.9788 0.7381 0.73816 2.2369 0.80073 5.2484 0.21909 4.1694-0.80529 4.2181-0.8543 4.4841-4.5145 0.1548-2.1306-0.3131-4.8257-1.1029-6.3531-1.8879-3.6507-1.7263-7.68 0.3928-9.7991 2.9509-2.9508 6.1764-1.6881 6.1764 2.418 0 1.1358 0.8802 3.2557 1.956 4.7108 1.18 1.5959 2.1963 4.6451 2.5614 7.6847 0.333 2.7715 1.0686 6.6272 1.6347 8.5684 2.0852 7.1496 2.0849 7.5122-0.01 9.7373-3.0277 3.2228-7.4811 3.7685-10.166 1.2456-1.1862-1.1143-2.1566-2.5523-2.1566-3.1956 0-0.74076-1.0941-1.1697-2.9834-1.1697-2.351 0-3.4644 0.63049-5.2521 2.9743-3.0777 4.0351-5.5016 4.5449-8.3007 1.7458zm-318.44 0.57983c-2.8283-1.1412-3.0213-1.8463-3.0728-11.226-0.026-4.7478-0.4035-11.292-0.8387-14.542-1.1791-8.8042-0.1845-10.071 7.0626-8.994 4.3049 0.6396 4.2188 0.56819 16.229 13.47 3.3082 3.5538 6.2081 6.2684 6.4441 6.0325 0.2359-0.23595-0.05-3.8573-0.6368-8.0474-1.0448-7.4682-1.0253-7.6616 0.989-9.8056 1.1302-1.203 2.7089-2.1872 3.5085-2.1872 3.0194 0 9.7786 2.8929 10.676 4.5691 1.4952 2.7938 0.3059 4.5118-2.8069 4.0549-2.4123-0.35405-2.6384-0.19894-2.1065 1.4454 0.3277 1.0131 0.8987 6.0111 1.2688 11.107 0.671 9.2363 0.6659 9.272-1.677 11.718-1.3539 1.4133-3.7031 2.6728-5.542 2.9712-3.4864 0.56575-3.3586 0.66859-12.675-10.195-5.1968-6.0597-8.9064-9.1862-10.056-8.4756-1.297 0.80152-1.0984 4.0226 0.4285 6.9501 2.0985 4.0237 1.6988 8.0744-1.0068 10.203-2.5274 1.988-3.3187 2.1098-6.1877 0.95228zm81.111-4e-3c-2.6794-1.1041-3.234-4.1146-1.6072-8.7229 1.2375-3.5053 1.233-4.5239-0.048-10.843-1.4745-7.2768-1.1728-10.7 1.172-13.302 1.6807-1.865 6.6664-2.0404 8.1225-0.28582 0.6209 0.74814 1.1716 5.3091 1.3583 11.25 0.1726 5.4953 0.5853 11.611 0.9168 13.589 0.5082 3.0317 0.2767 3.9637-1.4706 5.9226-2.3673 2.6538-5.5926 3.5675-8.4444 2.3924zm-363.48-13.341c-2.0254-0.36489-5.0033-1.3366-6.6175-2.1593-3.7618-1.9173-11.984-10.622-17.223-18.234l-4.0876-5.9386-0.4019-9.0611c-0.4769-10.752 1.305-17.881 6.4984-26 2.945-4.6037 11.784-15.172 15.622-18.679 0.86751-0.79265 3.0513-3.016 4.8528-4.9408 6.5023-6.9474 14.565-14.2 18.67-16.794 4.2874-2.7095 10.472-7.6658 15.377-12.324 3.9904-3.7887 10.636-8.2515 13.273-8.9134 1.2528-0.31444 2.2778-0.83198 2.2778-1.1501 0-0.31811 1.5882-1.56 3.5294-2.7596 1.9412-1.1997 3.5294-2.4745 3.5294-2.8329 0-0.35841 3.772-4.5815 8.3822-9.3847 4.6102-4.8032 8.3822-9.125 8.3822-9.604s1.3915-2.6142 3.0924-4.745c2.7364-3.4283 3.032-4.2891 2.5684-7.4805-0.3916-2.6949-0.066-4.4606 1.2874-6.9862 2.553-4.7633 3.1993-10.358 1.8475-15.993-1.093-4.5563-1.0538-4.8529 0.9203-6.9542 2.3654-2.5178 4.9223-2.7911 7.7277-0.82617 4.4391 3.1093 6.7501 12.4 5.9144 23.778-0.6485 8.8283-1.7828 11.399-5.4351 12.315-3.3608 0.8435-4.4264 1.8638-6.3813 6.1098-0.92 1.9984-3.0201 5.023-4.6666 6.7216-1.6466 1.6985-4.2454 4.8749-5.7749 7.0587-3.784 5.4024-15.817 16.78-24.482 23.148-0.48528 0.35664-2.0735 1.5737-3.5294 2.7045-1.4558 1.1308-4.1362 2.9561-5.9564 4.0562-1.8203 1.1-3.8895 2.8283-4.5986 3.8406-0.70896 1.0122-3.0721 2.8657-5.2514 4.1187-5.4501 3.1338-16.372 12.172-19.528 16.16-1.4334 1.8112-3.4003 3.5201-4.3708 3.7974s-2.8347 1.7733-4.1425 3.3244c-6.5537 7.7728-8.6514 10.583-8.6514 11.59 0 0.60681-0.7941 1.8219-1.7647 2.7003-0.97057 0.87836-1.7647 2.1476-1.7647 2.8206s-1.2407 3.8773-2.7572 7.1208c-3.7714 8.0666-4.916 17.204-2.7464 21.925 2.7973 6.0871 6.7168 10.704 11.645 13.717 4.5702 2.794 5.2639 2.9489 13.474 3.0084 9.2783 0.0672 10.604 0.60848 10.604 4.3291 0 3.4913-3.4214 6.6374-7.2183 6.6374-1.7385 0-4.3493 0.32441-5.802 0.72093-1.4527 0.39651-4.2983 0.42239-6.3237 0.0575zm205.74-68.619c-1.4559-0.91205-4.4338-3.5117-6.6175-5.777l-3.9706-4.1187 0.1581-12.072c0.1473-11.243 0.2903-12.18 2.0831-13.631 1.0586-0.85728 2.9727-1.5728 4.2535-1.59 1.2808-0.0172 3.2472-0.54093 4.3698-1.1638 1.9913-1.1049 1.9482-1.1605-1.7647-2.2752-9.7292-2.9209-10.69-4.5646-7.3158-12.508 3.9302-9.2514 5.8633-17.461 6.3589-27.006 0.3702-7.1298 0.1758-9.6307-0.9296-11.96-0.9381-1.9769-1.4114-5.5401-1.4394-10.838-0.023-4.3409-0.086-9.4807-0.1391-11.422-0.054-1.9411 0.198-6.9426 0.5587-11.114 0.5304-6.1339 0.3603-8.497-0.8892-12.353-2.1349-6.5876-4.0392-10.556-6.3095-13.15-1.0619-1.2132-2.7104-3.1815-3.6631-4.374-1.6984-2.1258-1.799-2.1406-5.1495-0.75925-7.512 3.0972-16.154 4.1677-31.652 3.9208-8.2499-0.13146-18.455-0.77621-22.677-1.4328-6.8275-1.0616-8.3553-1.0301-13.802 0.28459-3.3687 0.81309-8.226 1.4784-10.794 1.4784s-6.8785 0.56365-9.5794 1.2526c-2.701 0.6889-7.2931 1.7138-10.205 2.2775-8.5622 1.6577-13.01 2.8652-16.764 4.5517-1.9412 0.87187-4.5418 1.5939-5.7793 1.6046-1.2375 0.0107-2.6272 0.38455-3.0882 0.83087s-3.022 1.399-5.6911 2.1171c-6.5387 1.7591-16.859 5.6368-17.977 6.7542-0.4979 0.49789-1.7192 0.91105-2.7141 0.91811-0.99484 7e-3 -3.5955 0.64274-5.7793 1.4126-10.292 3.6282-10.354 3.6342-53.823 5.2155-6.0661 0.22067-12.816 0.56008-15 0.75426-2.1838 0.19417-7.3446 0.65843-11.468 1.0317-5.1478 0.46594-8.7151 1.3258-11.381 2.7434-2.1358 1.1356-4.4908 2.0648-5.2334 2.0648s-3.9917 0.8508-7.2204 1.8907c-7.3674 2.3728-10.98 1.8169-15.271-2.3499-1.7387-1.6886-3.5323-3.0701-3.9858-3.0701-0.45353 0-1.491 1.0171-2.3055 2.2602-2.2838 3.4855-14.314 10.975-17.629 10.975-1.5392 0-3.1757-0.34825-3.6367-0.77388s-2.9177-1.4485-5.4593-2.273c-5.7766-1.874-8.1728-4.7351-8.1728-9.7582 0-3.8063 1.9088-9.5753 3.492-10.554 0.47945-0.29631 1.2857-2.076 1.7916-3.955 0.72721-2.7007 1.7696-3.9142 4.9768-5.7937 3.8786-2.273 4.034-2.518 3.5378-5.5759-0.45098-2.779-0.13131-3.6052 2.438-6.3012 1.6263-1.7065 3.9715-5.6836 5.2115-8.838 2.9576-7.5237 5.2732-8.9016 15.066-8.9654 3.939-0.0257 8.9486-0.42824 11.132-0.89461 2.1838-0.46636 12.11-1.0478 22.058-1.292 10.335-0.25373 20.735-0.98414 24.264-1.704 3.397-0.69296 7.6653-1.2603 9.4851-1.2607 3.6585-8e-4 4.6799-2.0936 1.5124-3.099-0.98804-0.31357-2.9725-2.6542-4.41-5.2013-1.4375-2.5471-4.7404-6.9827-7.3397-9.8568-2.5993-2.8741-5.5551-6.8525-6.5684-8.8408-1.0133-1.9883-2.7969-4.2406-3.9636-5.0051-1.1667-0.76447-2.6553-2.7111-3.308-4.3259-0.65264-1.6148-2.8973-4.9144-4.9882-7.3325-2.0909-2.4181-3.8031-4.9989-3.8049-5.7352-4e-3 -1.9496-2.8835-6.3609-6.3998-9.8069-1.6848-1.6512-3.7654-4.3918-4.6235-6.0903-0.85807-1.6985-3.8898-5.3397-6.7371-8.0915-2.8474-2.7518-5.177-5.6829-5.177-6.5134 0-0.83052 0.80735-2.8164 1.7941-4.413 2.0399-3.3006 2.5604-2.8835-6.0227-4.8252-5.3372-1.2074-12.904-0.54156-16.985 1.4946-3.5594 1.7756-8.4702 0.86964-11.653-2.1499-2.6932-2.555-2.9207-4.0878-1.3731-9.2533 0.85845-2.8652 1.7156-3.798 4.6323-5.0408 1.9684-0.83871 5.7301-1.8068 8.3593-2.1512 2.6292-0.34444 6.1668-1.2056 7.8614-1.9136 1.6946-0.70804 5.8962-1.722 9.337-2.2532 7.0848-1.0938 11.109-2.8341 11.109-4.8044 0-2.4215 4.1276-5.6724 7.202-5.6724 2.1195 0 3.7452-0.85411 6.2138-3.2646 2.5809-2.5202 4.0556-3.2646 6.4667-3.2646 3.9259 0 6.0221 2.1618 10.635 10.968 2.7423 5.235 3.9057 6.643 5.658 6.8474 5.0409 0.58797 10.189 4.8016 13.288 10.875 0.92769 1.8184 2.0788 3.5485 2.5581 3.8447 0.92778 0.5734 2.6735 4.2303 4.4335 9.2869 2.373 6.8181 2.4984 6.9923 16.779 23.297 6.6842 7.6316 15.882 19.474 15.882 20.448 0 0.27232 1.1912 2.2264 2.647 4.3424 1.4559 2.116 2.647 4.2235 2.647 4.6832 0 1.9 2.6599 3.1061 4.6624 2.114 5.2192-2.5857 13.882-6.3561 14.604-6.3561 0.44603 0 1.2766-0.56093 1.8456-1.2465 0.56893-0.68557 4.0246-2.6665 7.6792-4.4021 3.6546-1.7356 7.3075-3.9552 8.1175-4.9325 0.85243-1.0284 3.2954-2.1101 5.7998-2.5681 2.6147-0.47813 4.7097-1.4292 5.294-2.4033 0.53179-0.88662 2.1633-3.7698 3.6256-6.407 2.2677-4.0897 3.4876-5.2115 8.2948-7.6271 3.0998-1.5577 8.7526-3.5439 12.562-4.4139l6.9256-1.5818v-3.3825c0-2.6518 0.6945-4.1512 3.2153-6.9414 3.7424-4.1425 8.9857-8.0762 14.014-10.514 1.9542-0.94744 4.535-2.7702 5.7352-4.0505 2.8422-3.0321 12.213-9.6965 14.756-10.495 1.0923-0.34285 2.3487-1.2913 2.7918-2.1077 0.443-0.8164 2.3287-2.2103 4.1901-3.0975 1.8615-0.88725 4.9728-2.4197 6.9139-3.4055 1.9412-0.98579 6.7058-3.3649 10.588-5.2868 3.8823-1.922 7.7535-3.8637 8.6028-4.3149 10.072-5.3516 15.563-5.6606 26.25-1.477 3.7583 1.4714 5.8443 2.7629 8.9334 5.5312 3.0335 2.7183 8.8916 11.625 9.9794 15.172 0.3304 1.0772 1.7856 3.0625 3.2339 4.4117 1.4483 1.3492 4.304 4.6369 6.3459 7.3059 2.042 2.6691 5.1255 6.2425 6.8521 7.941 1.7267 1.6985 5.0274 5.8676 7.3351 9.2646 4.0138 5.9086 9.7968 11.029 12.456 11.029 3.8545 0 8.5918-4.5653 6.7002-6.4569-0.5252-0.52512-0.9548-1.922-0.9548-3.1041 0-2.0219 0.223-2.1188 3.7596-1.634 3.1874 0.4369 4.3488 0.11951 7.6326-2.0859 3.1584-2.1212 4.7849-2.597 8.8138-2.5784 8.9048 0.041 22.093 1.6691 24.781 3.0592 7.7613 4.0135 13.662 13.094 15.15 23.316 1.1531 7.919-1.1441 20.424-5.171 28.15-1.5996 3.0688-2.9083 6.0636-2.9083 6.6553 0 1.619-6.8511 7.9132-12.489 11.473-5.575 3.5209-16.262 6.734-22.398 6.734-5.7158 0-11.849-1.659-15.127-4.0919-1.5448-1.1464-3.3836-2.0844-4.0863-2.0844-1.9508 0-5.3368 5.0479-8.0393 11.985-2.1265 5.4588-2.3666 7.0228-1.8965 12.353 1.4802 16.779 1.5169 28.125 0.1183 36.49-1.0271 6.1423-1.2179 10.082-0.6878 14.203 0.4036 3.1365 0.4956 9.6732 0.2046 14.526-0.291 4.8528-0.1325 11.309 0.3524 14.347 0.685 4.2919 0.5997 6.4557-0.3823 9.7057-0.8783 2.9066-1.2729 8.7877-1.2934 19.279-0.033 16.725-0.2752 17.547-5.4623 18.52-4.1017 0.76947-5.2661 3.3273-3.9301 8.6329 1.8723 7.4356 1.3441 11.283-2.1676 15.791-3.6489 4.6835-5.5954 6.1038-10.508 7.6672-1.9411 0.61772-4.7673 1.8691-6.2804 2.7808-3.3951 2.0456-3.6782 2.0454-6.9546-7e-3zm-21.617-249.86c0-1.7371-1.6753-4.0922-3.9899-5.6088-2.2278-1.4597-2.4667-1.4198-7.9315 1.3264-8.6954 4.3694-8.2567 5.2228 2.6846 5.2228 5.9495 0 9.2368-0.33466 9.2368-0.94034z" style="stroke-width:.88234"/>
</svg>
