<?xml version="1.0" encoding="utf-8"?>
<svg xmlns="http://www.w3.org/2000/svg" version="1.1" viewBox="0 0 1920 1792">
	<title>A plan of a bedroom. In the center of the room is a knee-hole desk and a chair labelled “arm chair in which Chester was shot.” The bed is against one wall, and on the opposite wall are doors leading to a closet and a bathroom.</title>
	<path d="m217.87 1727.8c-2.053-0.3936-4.2761-1.6021-5.443-2.9586-1.9099-2.2204-1.9593-2.7474-1.5556-16.613 0.35885-12.325 0.38862-18.802 0.14368-31.262-0.0261-1.3312 0.2187-10.207 0.54414-19.725 0.53492-15.644 0.43398-17.72-1.0517-21.63-1.3946-3.6703-1.4872-4.8542-0.61162-7.8195 0.56747-1.9219 0.79653-4.165 0.50903-4.9846-0.28751-0.8197-0.24289-5.7518 0.0992-10.96 0.34204-5.2086 0.38677-17.787 0.0994-27.952-0.59731-21.128-0.59594-20.663-0.0981-33.004 0.28135-6.974 0.067-9.7254-0.87397-11.215-0.87494-1.3852-1.0473-2.9601-0.57807-5.2806 0.92592-4.5787 1.4851-66.116 0.83378-91.758-0.0922-3.6305-0.16918-18.086-0.17103-32.124-2e-3 -14.038-0.0487-26.909-0.1041-28.604s-0.0514-4.8626 9e-3 -7.0409c0.19813-7.1584 0.13346-14.103-0.47535-51.046-0.33105-20.088-0.58666-54.743-0.56802-77.01 0.0392-46.779 1.1794-41.255-10.694-51.806-4.1879-3.7215-8.2724-7.7706-9.0768-8.9982-0.97325-1.4853-2.1061-2.1401-3.387-1.9579-1.5851 0.2257-1.9405 0.8804-2.0147 3.7112-0.1025 3.9117-1.9744 5.804-5.7416 5.804-1.3282 0-3.483 0.4061-4.7886 0.9025-3.5235 1.3396-5.6618 0.3312-5.6618-2.6701 0-1.391 0.39605-2.7739 0.88011-3.073 2.0028-1.2378 0.55588-4.0316-5.0606-9.7711-3.2674-3.339-7.3269-7.1358-9.0211-8.4374-4.2687-3.2792-12.71-11.586-18.482-18.188-5.5111-6.3028-15.958-16.633-18.815-18.606-1.055-0.7283-6.4613-6.041-12.014-11.806-5.5526-5.7649-11.462-11.706-13.131-13.202-1.6695-1.4961-4.4418-4.2877-6.1608-6.2038-1.7189-1.916-4.0712-4.2923-5.2272-5.2807-1.156-0.9882-4.1677-3.8607-6.6925-6.383-4.1515-4.1474-4.8774-4.5395-7.5895-4.0993-4.5001 0.7302-6.4023-1.7073-5.2689-6.7515 0.46824-2.084 1.3732-4.1064 2.0109-4.4943 0.63778-0.388 2.713-1.6068 4.6116-2.7087 1.8986-1.1018 3.6266-2.5335 3.8399-3.1817 0.21801-0.6623-4.1853-5.5989-10.053-11.27-5.7424-5.5505-11.948-11.555-13.789-13.343-5.9716-5.7988-6.1756-6.6319-5.973-24.393 0.10672-9.3587-0.1957-16.874-0.73621-18.296-1.3201-3.4722-3.3596-3.9119-5.8229-1.2553-1.9134 2.0635-2.3648 2.1694-5.6703 1.3303-4.575-1.1612-9.0387-5.1731-8.256-7.4203 0.31096-0.89279 1.8686-2.8113 3.4613-4.2635l2.896-2.6403-0.80031-15.842c-0.44017-8.7131-0.75005-30.892-0.68862-49.286 0.08093-24.231-0.19052-34.579-0.98539-37.562-0.85725-3.2179-0.86773-4.8132-0.04793-7.2972 0.57703-1.7484 0.788-3.8557 0.46881-4.6828-0.31922-0.82714-0.488-5.6624-0.37509-10.745 0.21272-9.5756 0.03375-18.535-0.64165-32.124-0.4818-9.6934-0.46813-0.048-0.11916-84.05 0.16188-38.967 0.12975-71.37-0.07139-72.007-0.25999-0.82313-1.3175-0.99704-3.6581-0.6016-2.115 0.35734-4.4339 0.0793-6.4845-0.77749-2.6564-1.1099-3.1921-1.7737-3.1921-3.9551 0-1.756 0.73491-3.1994 2.2261-4.3724 1.9167-1.5077 3.2316-1.7006 9.4612-1.3878 3.9793 0.19979 9.2307 0.60532 11.67 0.90118 3.2025 0.38844 4.7038 0.20608 5.4033-0.65634 1.3344-1.6453 1.7541-13.48 0.85718-24.174-0.6117-7.2942-0.50635-9.3567 0.58444-11.441 0.73187-1.3987 8.0975-9.0102 16.368-16.914 8.2706-7.9041 15.038-15.002 15.038-15.773 0-2.844-2.5346-4.4673-6.2064-3.9748-4.4176 0.59253-6.371-0.87968-5.7142-4.3065 0.26355-1.375 0.7112-3.6997 0.99476-5.1659 0.43335-2.2406 1.3809-3.06 5.9407-5.1369 4.248-1.9349 6.8887-4.0778 12.17-9.8758 3.7097-4.0726 11.172-11.761 16.583-17.086 5.4111-5.3247 13.267-13.201 17.458-17.503 4.1909-4.3018 10.095-10.243 13.121-13.203 3.0254-2.9596 5.5007-5.8546 5.5007-6.4333 0-0.57871 2.0793-2.446 4.6206-4.1496 2.5413-1.7036 8.7791-7.7187 13.862-13.367 5.0826-5.6482 10.132-10.856 11.221-11.573 1.0891-0.71675 1.9802-2.1842 1.9802-3.2609 0-1.9466 2.9809-4.0006 5.8058-4.0006 2.19 0 6.5157 2.5995 6.5157 3.9156 0 1.5692 4.2385 6.6458 5.5487 6.6458 0.54543 0 5.7579-4.882 11.583-10.849l10.592-10.849-0.27209-34.697c-0.14964-19.083-0.29462-37.271-0.32216-40.418-0.0276-3.1464 4e-3 -21.365 0.0717-40.485 0.19196-54.779 0.30255-99.537 0.25659-103.85-0.16412-15.416-0.33888-59.599-0.28892-73.049 0.0333-8.9551 0.1022-26.975 0.15319-40.045 0.051-13.07 0.0618-24.951 0.024-26.403s-0.24583-17.294-0.46227-35.204c-0.21646-17.91-0.66139-35.077-0.98873-38.147-0.50886-4.7736-0.30025-6.2129 1.4384-9.925 2.355-5.028 3.454-5.4865 11.889-4.9588 5.7402 0.3591 5.9638 0.462 7.3372 3.3779 0.89426 1.8986 2.1529 3.1122 3.4137 3.2916 3.3312 0.47383 4.9439 4.1399 5.6369 12.814 0.40904 5.1194 0.31066 8.3342-0.27671 9.042-0.50129 0.604-0.7512 1.8103-0.55538 2.6807 0.19583 0.87036-0.31051 2.9686-1.1252 4.6629-1.2108 2.518-1.3521 4.2507-0.77391 9.4905 0.75742 6.864 0.5485 12.619-1.0116 27.866-0.73787 7.2112-0.72776 12.135 0.0402 19.584 0.56741 5.5036 0.73912 12.212 0.38418 15.01-0.35296 2.7826-0.65555 13.88-0.67243 24.661-0.037 23.637-0.52749 22.552 10.195 22.551 13.331-2e-3 50.036-1.1705 50.758-1.6166 0.39141-0.2419 16.115-0.39206 34.941-0.33367 18.826 0.0583 37.002 0.0856 40.391 0.0604 5.7559-0.0428 17.359-0.0113 28.604 0.0775 2.6623 0.021 46.03-0.2201 96.372-0.53589 113.49-0.71188 233.67-1.4588 235.43-1.4631 0.72609-2e-3 40.529 7e-3 88.451 0.0197 47.922 0.0127 106.14-0.23941 129.38-0.5601 52.124-0.7194 43.978-0.67032 83.61-0.50368 83.169 0.34973 121.56 0.0805 125.94-0.88293 3.568-0.78618 5.6287-0.72195 10.121 0.3155 4.3864 1.013 10.241 1.2288 26.324 0.97054 11.375-0.18267 21.079-0.30888 21.563-0.28047 13.681 0.8031 50.047-0.27723 55.447-1.6472 1.4522-0.36841 4.2245-0.34857 6.1608 0.0441 3.3557 0.68054 17.378 0.77616 65.568 0.44713 11.86-0.081 29.088-0.0172 38.285 0.14176 9.1971 0.15893 26.623 0.25206 38.725 0.20694 12.102-0.0452 39.825 0.0901 61.608 0.30041 21.783 0.21036 40.595 0.37589 41.805 0.36784 1.2102-8e-3 12.894-0.13427 25.963-0.2805 13.07-0.14623 27.201 0.0837 31.402 0.51088 5.1486 0.5235 8.4485 0.4682 10.121-0.1696 3.436-1.3102 81.915-1.0271 145.95 0.52645 23.457 0.56909 27.444 0.48096 28.364-0.62693 0.8273-0.99684 0.8603-4.4665 0.1453-15.305-0.5085-7.7086-1.1064-23.719-1.3287-35.578-0.2222-11.859-0.6222-32.256-0.8889-45.326-0.2666-13.07-0.4662-24.753-0.4433-25.963 0.023-1.2102 0.097-6.1608 0.1657-11.001 0.115-8.1549 0.3178-9.108 2.7637-12.982 2.605-4.1257 2.7005-4.1805 7.284-4.1805 4.0288 0 4.9964 0.36 7.2997 2.7158 2.482 2.5388 2.6888 3.2704 3.1696 11.221 0.2829 4.6781 0.308 11.872 0.055 15.987-0.2523 4.1145-0.6365 14.61-0.8537 23.323-0.7471 29.967-1.3393 44.017-2.0776 49.286-0.7636 5.4504-1.4498 24.259-1.1399 31.244 0.097 2.1783 0.3267 14.06 0.5114 26.403 0.1902 12.718 0.7502 23.745 1.2924 25.449 1.0457 3.2849 0.5598 6.4406-1.4754 9.5831-1.102 1.7014-1.1519 2.9757-0.3104 7.921 0.5515 3.2414 0.9816 7.0816 0.9555 8.5337-0.026 1.4522 0.164 19.868 0.4223 40.925 0.7212 58.786 0.7863 127.48 0.1262 133.19-0.4071 3.5231-0.159 6.8633 0.7915 10.653 1.1325 4.5159 1.2148 6.7418 0.452 12.226-0.5678 4.0828-0.6206 7.317-0.135 8.2691 0.4435 0.86949 0.622 10.551 0.4021 21.806-0.2175 11.133-0.3843 32.322-0.3707 47.086 0.038 41.47 0.02 44.344-0.4559 74.369-0.2459 15.49-0.372 29.946-0.2802 32.124 0.092 2.1783 0.3162 23.367 0.4988 47.086 0.1827 23.719 0.5509 52.829 0.8183 64.688 0.5902 26.179 0.5815 26.79-0.4207 29.426-0.4759 1.2518-0.4865 6.3279-0.026 12.523 0.6355 8.5511 0.6056 18.175-0.1268 40.782-0.024 0.72609-0.041 10.429-0.04 21.563 0 11.133 0 21.233-0.01 22.443s0.223 7.3489 0.5118 13.642c0.2886 6.2928 0.5253 25.428 0.5257 42.523l7e-4 31.082 3.5317 3.4966c4.6658 4.6193 4.5942 6.7995-0.284 8.6541-3.4955 1.3291-22.49 1.1797-25.228-0.19829-3.2351-1.6285-3.4949-5.626-0.4412-6.787 1.2738-0.48433 3.2319-0.88055 4.3513-0.88055 1.1193 0 2.4939-0.55271 3.0545-1.2282 1.4891-1.7943 1.8924-31.37 0.4354-31.929-0.5914-0.22689-2.9082 0.20964-5.1485 0.97023-5.3145 1.8044-5.4839 1.7843-8.0142-0.94585-2.4874-2.6839-2.713-4.8075-0.8181-7.6995 0.7712-1.1772 1.081-2.7205 0.7297-3.636-0.5038-1.313-0.9299-0.97226-2.4403 1.9512-5.1984 10.062-8.7122 13.037-12.808 10.845-1.4958-0.80055-2.311-0.74545-3.8225 0.25831-3.8855 2.5802-6.569 5.6928-10.058 11.666-4.5562 7.8013-5.7617 8.8394-13.317 11.467-7.0065 2.4366-9.9633 2.1718-11.419-1.0223-0.84-1.8436-0.6835-2.3134 1.1761-3.532 1.1798-0.77309 3.7407-1.6195 5.6907-1.8811 4.053-0.54365 7.3925-3.8573 13.553-13.448 2.3837-3.7111 5.2163-6.7513 8.0634-8.6546 2.7831-1.8604 4.6257-3.8187 5.0359-5.3522 0.8216-3.0726 3.178-5.2023 7.4359-6.7209 4.8885-1.7434 8.7855-1.5691 10.84 0.48512l1.7603 1.7602v-9.7624c0-8.4298-0.2403-10.068-1.7603-12-2.2836-2.9031-2.2069-5.9984 0.2565-10.361 1.6518-2.9255 2.5092-3.5647 5.0736-3.7821 2.376-0.20148 3.5705 0.2541 5.1921 1.9802 1.1584 1.233 2.5828 2.2419 3.1652 2.2419 2.6557 0 2.9565-2.2319 2.081-15.443-0.4796-7.2383-1.0174-18.507-1.1949-25.042-0.6477-23.844-1.5749-106.26-1.2774-113.53 0.1683-4.1145 0.2609-9.6592 0.2058-12.322-0.5459-26.376-0.6437-68.932-0.165-71.729 0.3313-1.9362 0.2518-5.3852-0.1768-7.6644-0.6265-3.3323-0.9052-20.452-0.6203-38.101 0.033-2.0224-0.7177-105.63-1.1952-165.02-0.1063-13.217-0.1544-80.259-0.063-88.451 0.2308-20.812 0.3364-69.786 0.1877-87.131-0.091-10.649 0.1043-27.386 0.4346-37.192l0.6006-17.83-46.957 0.35884c-39.441 0.3014-87.219 0.51193-99.324 0.43767-1.6942-0.0104-28.428 0.0242-59.407 0.0769-30.98 0.0527-59.496 0.0335-63.368-0.0427-7.4078-0.14575-13.503-0.0837-19.362 0.19703-3.3724 0.16159-6.132 0.14695-15.842-0.084-2.4203-0.0576-5.1927-0.0677-6.1608-0.0225s-10.077-0.0768-20.242-0.2711c-14.166-0.27073-19.482-0.063-22.763 0.88963-3.343 0.97062-5.1742 1.0325-8.361 0.28262-2.2443-0.52812-7.2489-0.87104-11.121-0.76203s-22.883 0.12986-42.245 0.0464c-19.362-0.0835-36.392-0.11671-37.845-0.0738-1.4522 0.043-17.789-0.13185-36.305-0.38837-33.161-0.45944-37.456-0.14783-31.088 2.2556 5.1648 1.9495 5.0805 6.552-0.1556 8.4946-2.7876 1.0342-2.7284 0.26478-2.4432 31.745 0.2743 30.259 0.3874 148.81 0.1525 159.74-0.1248 5.8087-0.227 16.898-0.2272 24.643s-0.033 17.844-0.071 22.443c-0.039 4.5986 0.046 10.341 0.189 12.762 0.1429 2.4203 0.19 7.1729 0.1046 10.561-0.085 3.3884 0 14.082 0.1901 23.763s0.072 19.394-0.2619 21.585c-0.8086 5.3003 0.1075 8.2867 3.389 11.048 3.5769 3.0098 3.4306 5.0307-0.5815 8.0273-1.8152 1.3558-3.8524 2.9888-4.5271 3.6289-1.5126 1.435-5.1353 0.65914-7.5833-1.6242-1.6247-1.5153-3.4404-1.6501-22.234-1.6501-11.256 0-20.757-0.17712-21.114-0.3936-0.3568-0.21649-6.9855-0.0315-14.73 0.41115-7.745 0.44261-99.034 1.0346-202.87 1.3154-103.83 0.28085-190.17 0.54622-191.86 0.58969-1.6942 0.0435-7.4369-0.0187-12.762-0.13802-14.781-0.33142-14.287-0.40453-15.582 2.3061-2.2058 4.6166-6.5149 3.3953-10.442-2.9596-1.6496-2.6691-1.7062-3.5055-0.86694-12.82 0.49378-5.4802 0.87909-22.638 0.85622-38.128-0.0532-36.02 0.021-80.712 0.1358-81.85 0.0489-0.48406-0.14513-12.366-0.43098-26.403-0.28584-14.038-0.47998-44.138-0.43142-66.888 0.0486-22.751 0.0596-42.751 0.0245-44.446-0.37254-17.997-0.15179-29.717 0.6631-35.204 0.92166-6.207 0.47769-14.265-1.2943-23.491-0.43851-2.2831-0.10132-3.2462 1.8036-5.151 1.9629-1.9629 2.87-2.261 5.5929-1.8376 1.7875 0.2779 13.745 0.49421 26.573 0.48071s26.293 0.0378 29.924 0.11404c3.6304 0.0762 7.789 0.12567 9.2412 0.1099 13.248-0.1439 223.87-1.2122 261.1-1.3243 26.462-0.0796 48.409-0.44192 48.773-0.80497 0.3633-0.36304 0.3862-0.93455 0.051-1.27-0.3354-0.33546-23.273-0.7466-50.973-0.91366-27.7-0.16704-51.749-0.3356-53.444-0.37456-2.7724-0.0638-38.85-0.17428-78.77-0.24131-22.224-0.0373-48.964 0.19917-102.53 0.90681-17.184 0.227-35.798 0.33374-41.365 0.2372-18.528-0.32131-37.24-0.1785-52.807 0.403-8.4711 0.31646-22.729 0.61811-31.684 0.67036-8.9551 0.0523-19.341 0.58066-23.081 1.1743-3.7393 0.59362-7.2247 0.81603-7.7453 0.49427-0.71-0.4388-90.98-1.2966-115.71-1.0996-1.9362 0.0154-21.541 0.29029-43.565 0.61082-22.025 0.32052-41.827 0.52085-44.006 0.44518-2.1783-0.0757-5.7427-0.1063-7.921-0.068s-7.3269-6e-3 -11.441-0.0988c-8.682-0.1954-13.854-0.10856-36.085 0.60582-14.593 0.46898-73.593 1.484-89.331 1.5369-3.3884 0.0114-8.8769-0.26646-12.197-0.61744-5.3209-0.56254-6.4507-0.40499-9.5375 1.3299-3.3728 1.8956-3.6208 1.9143-6.741 0.50728-2.2765-1.0266-5.1969-1.3979-9.8249-1.2494-3.622 0.11623-18.503-0.11845-33.069-0.52152l-26.484-0.73287-0.57958 6.8564c-0.86111 10.187-0.70152 26.398 0.28543 28.994 1.2162 3.1989 1.0286 19.199-0.3534 30.145-0.27287 2.1612-0.0806 3.9413 0.4619 4.2766 0.52546 0.32474 0.6793 1.5706 0.35399 2.8667-0.31643 1.2608-0.69295 13.198-0.8367 26.527-0.14376 13.329-0.55323 25.486-0.90994 27.014-0.40106 1.7187-0.12067 4.9093 0.73479 8.361 1.0154 4.0973 1.2295 7.5714 0.80493 13.063-0.31813 4.1145-0.42939 10.451-0.24723 14.082 0.4173 8.3172 0.46263 18.886 0.11511 26.843-0.14797 3.3884-0.24913 11.111-0.22477 17.162 0.0244 6.0508-0.0386 26.97-0.13969 46.488l-0.18395 35.486-3.5452 3.2385c-1.9496 1.7811-5.2948 4.6246-7.4336 6.3188-4.6548 3.6872-20.265 18.841-20.265 19.673 0 0.32211 1.9396 1.7791 4.3101 3.2377 6.533 4.0198 6.9446 8.3483 1.082 11.377-3.112 1.6079-30.659 28.566-63.498 62.14-8.9655 9.1662-18.604 18.646-21.419 21.066-6.2398 5.3651-11.126 11.817-11.126 14.692 0 3.9019-1.8123 5.2328-7.2483 5.3234-5.9405 0.099-7.2051-0.7834-8.5015-5.9319-0.99652-3.9575-3.0064-5.8557-5.3275-5.0315-0.70116 0.24898-6.9197 6.1028-13.819 13.009l-12.544 12.556 0.17726 14.376 0.17726 14.376 5.7207-0.27513c11.472-0.55174 14.762 1.6752 11.314 7.6591-1.0811 1.8765-1.5359 3.8357-1.2256 5.2807 0.38914 1.8126 0.78748 169.59 0.42755 180.08-0.04983 1.4522 0.16015 23.829 0.46662 49.726 1.0625 89.785 0.81702 82.057 2.6404 83.112 5.3316 3.0822 5.7307 6.5888 1.0267 9.0213-2.3926 1.2373-3.5713 1.2742-9.5724 0.29959-9.964-1.6182-9.6678-2.1303-9.3714 16.205 0.15299 9.4641 0.65166 16.03 1.3485 17.754 0.60814 1.5054 3.1038 4.652 5.546 6.9924 2.4422 2.3405 4.4403 4.7584 4.4403 5.3732 0 0.6147 0.89111 1.5735 1.9802 2.1305s3.7909 2.7639 6.004 4.9041c4.7438 4.5876 6.3438 4.4162 8.0163-0.8583 2.3543-7.4248 10.159-7.7483 13.609-0.5641 1.2203 2.541 6.3386 8.2802 14.492 16.25 6.933 6.7768 14.995 14.864 17.916 17.972 2.9208 3.1077 7.8848 8.1603 11.031 11.228 3.1464 3.0678 8.4563 8.2482 11.8 11.512s7.025 7.3029 8.181 8.9761c1.156 1.6732 4.7572 5.4693 8.0026 8.4358 3.2454 2.9664 11.163 10.582 17.595 16.923 7.5465 7.44 12.769 11.884 14.725 12.53 2.4909 0.822 3.2002 1.6311 3.9849 4.5452 1.1596 4.3063-0.0163 6.0204-5.3337 7.7753-5.4266 1.7909-4.7578 3.7563 4.212 12.378 4.2458 4.0812 9.8895 9.29 12.542 11.575 2.652 2.2853 6.3252 5.4537 8.1625 7.0409l3.3406 2.8858 0.38638 11.001c0.21251 6.0507 0.35619 17.338 0.31932 25.083-0.0369 7.745-0.0123 17.844 0.0547 22.443s0.0814 9.3512 0.0321 10.561c-0.0492 1.2102-0.21833 17.052-0.37574 35.204-0.15741 18.152-0.48799 46.866-0.73462 63.808-0.24662 16.942-0.17023 38.81 0.16977 48.594 0.34001 9.7849 0.33412 20.478-0.0131 23.763-0.34719 3.2848-0.26788 8.7446 0.17625 12.133 0.44412 3.3884 0.73951 7.1509 0.6564 8.361-0.62362 9.0811-0.43508 9.948 2.3286 10.707 1.4522 0.3986 15.314 0.502 30.804 0.2297 15.49-0.2721 42.817-0.6058 60.728-0.7416 24.864-0.1884 33.145-0.5236 35.02-1.4176 2.0527-0.9787 3.2079-0.9707 7.0409 0.048 3.7926 1.0085 20.469 1.1833 96.463 1.0109 64.551-0.1464 92.744 0.077 94.789 0.7523 1.9659 0.6488 3.4436 0.6757 4.5518 0.083 0.90246-0.4829 4.1893-0.9601 7.304-1.0603 4.52-0.1455 135.45-0.2486 142.08-0.1119 12.415 0.2559 44.15 0.3234 115.29 0.2451 46.954-0.052 92.31 0.1621 100.79 0.4751 13.621 0.5025 15.559 0.4016 16.61-0.8647 1.2968-1.5625 6.7406-1.9347 8.8429-0.6045 1.5018 0.9502 2.7478 11.016 1.8856 15.232-1.0583 5.1746-7.1451 6.103-9.5017 1.4492-1.0267-2.0278-1.515-2.1255-12.762-2.553-6.4317-0.2445-16.645-0.2073-22.695 0.083-6.0508 0.29-14.962 0.1758-19.802-0.2538-10.321-0.9159-12.55-0.5343-13.254 2.2693-0.76111 3.0325-0.72712 29.888 0.0965 76.236 0.39999 22.509 0.70926 42.707 0.68735 44.886-0.12894 12.791-0.13211 88.986 0 100.96 0.14557 13.632 0.066 14.357-1.7846 16.214-1.7529 1.7598-2.2596 1.8478-5.3334 0.9268-1.868-0.5596-4.2605-1.9373-5.3166-3.0614-1.933-2.0577-2.1022-4.0771-1.7484-20.869 0.3234-15.346-0.63841-24.752-3.002-29.359-0.56141-1.0944-0.47914-2.5053 0.24849-4.2619 0.8971-2.1658 0.87032-2.7636-0.15286-3.4113-0.79177-0.5013-0.86209-0.7902-0.19437-0.7988 1.4141-0.019 2.359-6.9563 1.3204-9.6947-0.58087-1.5316-0.49041-2.8744 0.29763-4.4182 0.98574-1.9311 2.5278-23.694 2.275-32.106-0.0437-1.4522-0.0443-9.7692-2e-3 -18.482 0.0429-8.7131 0.0312-17.03-0.0261-18.482-0.0572-1.4522-0.0509-5.0166 0.0141-7.921 0.0649-2.9044 0.0877-7.657 0.0506-10.561-0.0371-2.9044-0.11261-21.561-0.16773-41.458l-0.10022-36.178-32.718-0.1834c-38.865-0.2179-34.329-0.2399-44.6 0.2156-12.527 0.5556-96.538 0.8651-97.392 0.3587-0.40728-0.2414-5.8706-0.1275-12.141 0.2531-6.2702 0.3806-14.932 0.3608-19.248-0.044-4.3162-0.4049-14.83-0.3923-23.364 0.028-18.69 0.9206-34.155 1.1764-58.202 0.963-9.9232-0.088-39.429 0.077-65.568 0.3676-26.139 0.2903-60.2 0.4534-75.689 0.3625-15.49-0.091-29.352-0.1429-30.804-0.1155-6.5469 0.1235-103.02 0.2547-135.59 0.1844-19.874-0.043-36.835 0.1905-37.69 0.5187-1.47 0.564-1.5235 3.2004-0.97865 48.223 0.31699 26.195 0.54608 55.548 0.50909 65.229-0.037 9.6812 0.22997 22.077 0.59326 27.545 0.3633 5.4686 0.3575 10.762-0.0128 11.763-1.1511 3.1116-1.687 72.737-0.57587 74.813 1.5052 2.8126-0.60948 9.3149-3.5056 10.779-3.2343 1.6353-7.8686 2.1803-11.925 1.4023zm-37.485-550.48c1.915-2.0384 1.953-2.2947 0.63804-4.3016-0.76904-1.1737-6.9518-7.6243-13.74-14.334-6.7877-6.7103-12.778-12.666-13.312-13.235-3.5491-3.7801-8.0099-8.2374-18.034-18.02-6.2745-6.1231-18.056-17.888-26.18-26.145-8.1246-8.2564-15.877-15.799-17.228-16.76-1.3507-0.9618-3.5562-3.3366-4.9012-5.2773-1.3449-1.9407-3.4224-4.1688-4.6166-4.9513-1.9771-1.2955-2.3597-1.2993-4.2788-0.041-1.1592 0.7594-2.5524 2.2121-3.0961 3.2281-0.90497 1.6909 2.4613 5.2826 39.799 42.465 22.433 22.34 42.964 42.692 45.623 45.227s7.0137 6.784 9.676 9.4426c2.6623 2.6586 5.4647 4.8423 6.2274 4.8524 0.76272 0.011 2.3031-0.9569 3.4231-2.149zm12.187-12.759c1.0592-1.4326 1.9257-3.3795 1.9257-4.3263 0-1.5448-27.642-30.025-47.585-49.028-3.5978-3.4282-8.9178-8.7748-11.822-11.882-2.9046-3.1067-6.8651-7.0769-8.8011-8.823-1.936-1.7459-5.8963-5.7502-8.8007-8.8983-2.9044-3.1482-5.8747-6.0762-6.6008-6.5068-0.72609-0.4304-4.044-3.9511-7.3731-7.8236s-6.7725-7.3886-7.6521-7.8136c-2.0086-0.9707-8.7378 4.05-8.7378 6.5192 0 0.9064 3.5604 5.0996 7.9704 9.3873 4.3837 4.262 10.622 10.484 13.862 13.828 3.2402 3.3434 9.8518 9.9398 14.692 14.659 4.8406 4.7189 21.252 20.895 36.469 35.946 15.218 15.052 28.312 27.366 29.098 27.366s2.2964-1.1722 3.3555-2.6047zm-146.21-174.44c0.949-0.78761 1.5594-15.096 1.4396-33.746-0.34299-53.382-1.283-126.65-1.6322-127.22-0.25314-0.40957-0.37615-16.509-0.27337-35.776 0.32039-60.059 0.31311-118.59-0.01489-119.74-0.4834-1.6926-10.173-1.4603-11.616 0.27856-0.90375 1.089-1.2016 12.418-1.4175 53.907-0.15029 28.89-0.2503 54.112-0.22225 56.048 0.02805 1.9362 0.22276 15.006 0.43269 29.044 0.5237 35.019 0.4642 63.71-0.13884 66.952-0.27664 1.4872-0.07441 5.7853 0.44941 9.5514 0.52382 3.7661 0.90621 13.441 0.84975 21.499-0.05646 8.0584-0.02019 19.696 0.08059 25.862 0.10434 6.3832-0.2671 13.015-0.86265 15.402-0.84929 3.4041-0.81493 4.7272 0.18278 7.0394 0.89056 2.0638 1.0586 4.4857 0.61063 8.8011-0.34136 3.2884-0.25572 6.6327 0.1913 7.4703 0.44513 0.83408 0.70209 4.2005 0.57101 7.4809l-0.23833 5.9644 3.0804 1.5604c3.0704 1.5553 6.3742 1.4087 8.5277-0.37863zm20.389 1.1157c0.95489-0.60508 1.157-4.6861 1.0125-20.449-0.09925-10.831-0.29873-34.941-0.44329-53.577s-0.58292-52.301-0.97413-74.809c-0.66402-38.205-0.80769-99.778-0.345-147.86l0.19903-20.683-4.9063-0.7972c-3.5288-0.57337-5.2595-0.50404-6.1644 0.24693-1.0833 0.89904-1.2005 17.946-0.84375 122.69 0.45883 134.71 0.4441 175.9-0.06307 176.4-0.18675 0.18676 0.02055 1.9422 0.46067 3.9011 0.51139 2.276 0.45905 5.443-0.14503 8.7742-0.51988 2.867-0.70507 5.6013-0.41152 6.0763 0.65524 1.0602 10.974 1.1262 12.624 0.081zm1696.5-105.5c-0.038-9.5488-0.3055-11.936-1.472-13.102-0.7844-0.78447-2.0511-1.1866-2.8148-0.89353-1.1683 0.44836-1.3883 2.392-1.3883 12.266 0 12.349 0.5209 14.151 3.9502 13.659 1.6749-0.24001 1.768-0.88434 1.7249-11.929zm-1660.4-282.57c1.7583-1.8504 15.87-16.174 31.36-31.831 15.49-15.656 28.639-29.588 29.221-30.96s1.6428-2.4937 2.3579-2.4937c1.8395 0 13.113-9.993 16.043-14.22 1.3475-1.9444 4.1544-4.708 6.2377-6.1413 3.7126-2.5544 4.7164-4.9797 3.1076-7.5086-1.1179-1.7572-7.4219-6.4543-8.6623-6.4543-0.64866 0-4.0596 3.0532-7.58 6.7848-3.5203 3.7316-18.084 18.577-32.364 32.99-14.28 14.413-27.382 27.697-29.116 29.52-1.734 1.8229-7.9718 7.8026-13.862 13.288-5.89 5.4856-10.709 10.423-10.709 10.971 0 1.4452 8.0691 9.4188 9.5316 9.4188 0.68022 0 2.6754-1.514 4.4336-3.3644zm2.1141-33.891c27.869-27.988 67.107-68.281 69.276-71.137 0.97671-1.2865 1.7758-2.5795 1.7758-2.8733 0-0.86339-5.5932-4.0219-7.1286-4.0255-1.1596-3e-3 -12.461 9.88-17.514 15.316-5.7502 6.1851-12.959 12.928-14.263 13.342-0.8684 0.27563-1.5789 0.86033-1.5789 1.2993 0 1.3394-9.817 12.21-19.838 21.966-5.2203 5.0826-10.714 10.435-12.209 11.895-1.4947 1.4594-4.6007 4.6278-6.9022 7.0409-2.3015 2.413-5.0173 5.1794-6.035 6.1476-4.7156 4.4859-13.983 15.038-13.983 15.921 0 1.7322 4.2523 5.6421 6.1361 5.6421 1.2032 0 8.7458-6.9559 22.265-20.533zm985.49-57.701c2.6623 0.13043 7.613 0.20024 11.001 0.15512 3.3884-0.0451 32.656-0.29114 65.039-0.54673 47.361-0.37381 59.024-0.6916 59.625-1.6245 0.4104-0.63788 0.5245-3.3381 0.2534-6.0004-1.2592-12.371-1.9115-189.94-1.0157-276.51l0.3341-32.281-52.877-0.19411c-49.242-0.18076-253.54-0.30048-274.22-0.16069-78.445 0.53025-103.21 0.46073-109.37-0.30702-2.3059-0.28761-4.8802-0.21947-5.7207 0.15142-0.84052 0.37088-9.0532 0.71452-18.25 0.76363-9.1972 0.0491-17.35 0.39746-18.118 0.77409-1.2309 0.60396-1.3661 3.4072-1.1452 23.749 0.13772 12.685 0.38076 25.242 0.54008 27.905 0.15931 2.6623-0.20717 9.3873-0.81441 14.944-0.70433 6.4456-0.818 11.225-0.31394 13.202 0.43458 1.7038 0.68242 19.655 0.55076 39.891-0.21811 33.521-0.10625 36.965 1.2581 38.725 2.4005 3.0971 2.5035 4.4097 0.56297 7.1778-1.2755 1.8195-1.8865 4.2089-2.0254 7.921-0.1094 2.9236-0.30371 7.6918-0.43181 10.596-0.12809 2.9044 0.0783 13.828 0.45879 24.275 0.5038 13.834 0.39418 20.938-0.40352 26.149-0.90221 5.8936-0.87544 8.7503 0.15189 16.21 1.2362 8.9763 1.5784 28.377 0.88956 50.421-0.19666 6.2928-0.0665 12.347 0.2893 13.453l0.64685 2.0116 169.13-0.54225c93.023-0.29824 171.31-0.43554 173.97-0.30511zm-68.208-125.95c-0.2992-0.48406-2.4822-0.88011-4.8512-0.88011-4.2276 0-4.3242-0.0611-5.2238-3.3004-1.0382-3.7384-1.2422-25.659-0.2528-27.173 0.3556-0.54415 2.0328-1.8298 3.727-2.8571 4.6934-2.8457 10.015-2.495 16.815 1.1082 7.2666 3.8508 8.8886 6.5415 9.414 15.616 0.4479 7.7371-0.1361 9.0474-4.9243 11.049-1.5942 0.66641-3.1396 1.8922-3.4341 2.724-1.161 3.2784-3.1507 4.5928-6.9533 4.5928-2.0747 0-4.017-0.39605-4.3161-0.88011zm13.058-12.494 2.7839-2.6816-2.7766 0.59825c-3.2238 0.69462-3.8289 0.0374-3.9933-4.3373-0.091-2.4146-0.8312-3.7844-3.1425-5.8138-5.3971-4.7386-8.9721-1.9898-8.9971 6.9178-0.019 6.9289 0.9447 7.9267 7.695 7.9657 5.1191 0.0295 5.9068-0.21798 8.4306-2.649zm-113.95 9.9281-2.0778-1.6855 1.8378-2.055c3.3308-3.7245 4.122-6.9885 2.5854-10.666-0.96328-2.3054-1.1976-4.6374-0.8031-7.9936 0.42844-3.6455 0.11001-6.0813-1.3802-10.559-1.0654-3.2015-2.3023-6.0466-2.7486-6.3224-1.2635-0.78089-0.95439-4.4641 0.47411-5.6497 2.2694-1.8834 7.8799-2.1082 11.573-0.46374 1.8826 0.83821 4.7068 2.0881 6.276 2.7776 1.7268 0.7587 3.0674 2.1073 3.3958 3.416 0.29854 1.1893 0.89587 2.1624 1.3275 2.1624 0.43161 0 0.78471 0.94655 0.78471 2.1034 0 1.3632 1.6807 3.8111 4.7758 6.9562 6.0732 6.171 8.0174 11.98 5.5502 16.583-5.7199 10.671-9.7337 13.082-21.777 13.082-6.2919 0-8.0996-0.31108-9.7938-1.6854zm21.577-7.3214c1.7571-1.7571 3.3923-7.4485 2.7349-9.5195-0.31974-1.0075-1.7756-3.192-3.2352-4.8544-2.1628-2.4633-3.2827-3.0226-6.0522-3.0226-2.459 0-3.6501 0.47052-4.3094 1.7024-1.3392 2.5022-1.1845 16.511 0.18905 17.127 1.8396 0.82583 9.4335-0.19383 10.673-1.433zm-8.7645-24.972c1.7306-0.6641 1.9026-6.1224 0.21343-6.7707-1.45-0.55639-4.4503 4.2476-3.7662 6.0303 0.53168 1.3855 1.4 1.5665 3.5527 0.74037zm46.718 32.973c-1.4522-0.40666-4.4515-0.50314-6.6652-0.21441-3.1915 0.41628-4.3558 0.19413-5.6228-1.0729-1.4112-1.4112-1.5378-2.6586-1.0839-10.674 0.37405-6.6056 0.17189-10.209-0.74272-13.237-2.2451-7.4319-0.95017-8.254 12.23-7.7649 9.369 0.34769 10.767 1.4498 6.6241 5.2236-2.1998 2.0041-3.2897 2.3992-5.5016 1.9948-3.3827-0.61848-5.423 0.50737-4.636 2.5582 0.49031 1.2776 1.3124 1.4174 5.3599 0.91174 5.9305-0.74097 8.3993 0.37954 8.3993 3.8122 0 3.4645-2.7665 5.8515-5.2447 4.5252-1.0289-0.55064-3.3391-0.87924-5.1338-0.73023-2.8443 0.23615-3.2996 0.58851-3.5468 2.7445-0.47288 4.1243 1.0468 5.0074 8.6172 5.0074 4.4538 0 7.7663-0.48307 9.606-1.4009 2.2256-1.1103 3.0752-1.1792 4.0957-0.33229 1.3658 1.1335 1.7072 4.9915 0.59609 6.7387-1.6956 2.6667-10.994 3.6904-17.351 1.9102zm245.46-199.58c0.9331-0.77428 1.1538-1.4548 0.5858-1.8058-0.5013-0.30983-8.342-0.40596-17.424-0.21362-19.975 0.42305-13.733 0.43676-52.157-0.1145-30.708-0.44057-38.725-0.0117-38.725 2.0716 0 0.95315 19.001 1.3048 70.493 1.3048 29.472 0 35.991-0.21757 37.226-1.2425zm11.976 1541.2c-1.6936-0.8583-3.5723-2.5992-4.1748-3.8687-1.245-2.6235-1.4592-10.543-0.6992-25.855 0.7497-15.104 0.7156-11.43 0.699-75.249-0.01-32.19 0.018-59.914 0.056-61.608 0.04-1.6942-0.085-14.368-0.2771-28.164-0.1919-13.796-0.1288-29.14 0.1403-34.098 0.383-7.0553 0.2251-9.2341-0.7264-10.024-0.8658-0.7185-11.246-1.0286-36.054-1.0769l-34.839-0.068-1.7415 2.3907c-2.1103 2.897-5.878 3.1913-8.1874 0.6394-0.8988-0.9932-1.769-3.667-2.0101-6.1767-0.3656-3.8051-0.8763-4.7826-3.6427-6.9737-1.7697-1.4016-3.7299-3.5056-4.3561-4.6756-0.6261-1.1701-2.1966-2.7573-3.4899-3.5272-1.2932-0.7698-5.3232-4.3023-8.9556-7.8499-3.6324-3.5477-8.6165-8.1154-11.076-10.151-2.4592-2.0353-14.608-13.719-26.998-25.963-12.39-12.245-24.575-23.845-27.078-25.779-2.5034-1.9339-5.1158-4.6072-5.8053-5.9407-0.6896-1.3335-1.5657-2.4244-1.947-2.4244s-3.4672-3.2674-6.8576-7.2609c-3.4044-4.01-7.714-8.0667-9.6255-9.0606-1.9938-1.0367-3.9404-2.9023-4.5917-4.4006-2.5264-5.8118-3.4577-7.0614-6.2502-8.3859-1.6054-0.7615-5.0974-3.325-7.7599-5.6968-4.5867-4.0859-4.817-4.4906-4.3858-7.705 0.2502-1.8659 1.144-4.1539 1.9861-5.0845 3.4464-3.8082 4.8723-2.7912 26.317 18.771 11.193 11.254 21.322 21.298 22.51 22.319s9.3491 9.1399 18.138 18.042c8.7887 8.9024 16.512 16.667 17.162 17.255 1.244 1.1244 8.7962 8.5679 22.746 22.418 4.5986 4.5659 12.784 12.932 18.189 18.59 5.4052 5.6589 10.402 10.289 11.103 10.289 0.7012 0 2.4078 0.8911 3.7924 1.9802l2.5176 1.9803 44.467-0.3769c24.457-0.2073 51.3-0.3166 59.652-0.2429 8.3516 0.074 16.198-0.2513 17.437-0.7222 1.4971-0.5692 3.5168-0.5377 6.0254 0.094 2.8621 0.7207 7.4495 0.6032 18.993-0.4862l15.219-1.4363 2.5154 2.41c2.29 2.1938 2.5156 2.9529 2.5156 8.4639 0 8.2894-0.7599 9.4587-6.1464 9.4587-3.3763 0-4.8374-0.4756-6.6652-2.1695l-2.341-2.1695-23.008-0.043c-33.128-0.062-43.153 0.031-43.526 0.4037-0.7729 0.7729-0.1147 40.426 0.8111 48.864 0.709 6.4618 0.7506 11.226 0.1381 15.842-0.5274 3.9751-0.5618 7.4411-0.086 8.7132 0.4668 1.2491 0.4637 4.6661-0.01 8.361-0.8513 6.6729-0.6378 72.817 0.2482 76.877 0.2904 1.3313 0.1931 4.2048-0.2163 6.3856-0.4093 2.1807-0.4536 19.211-0.098 37.845 0.5892 30.908 0.5177 34.01-0.814 35.364-2.2994 2.3387-5.5293 2.684-8.9397 0.9558zm528.39-7.4738c-0.3646-0.5901-0.8048-30.393-0.9782-66.228s-0.4876-68.126-0.6982-71.756c-0.5435-9.3711-0.5415-7.2236-0.049-50.454 0.2471-21.699 0.6969-40.233 0.9997-41.187 1.3832-4.358 2.4115-4.2889-55.794-3.7501-74.378 0.6884-88.139 0.6842-91.356-0.028-1.677-0.3714-3.006-0.2437-3.3559 0.3226-0.3884 0.6283-4.2621 0.7678-11.745 0.4229-6.1945-0.2854-15.868-0.063-21.727 0.4987-5.8087 0.5573-10.957 0.9717-11.441 0.9208-0.4841-0.051-8.2905-0.2368-17.348-0.4131l-16.467-0.3206-2.3252 3.0486c-1.9426 2.5469-2.805 3.0072-5.241 2.7973-2.5195-0.217-3.6735 0.4754-8.4908 5.0944-5.2955 5.0773-12.716 12.483-16.871 16.837-6.236 6.5349-29.736 29.79-47.342 46.849-24.792 24.021-58.148 57.467-61.223 61.388-2.9129 3.714-7.3949 4.0197-9.5997 0.6549-1.9939-3.043-0.3731-6.7646 4.3896-10.079 3.6517-2.5415 26.418-25.503 45.861-46.254 5.8087-6.1995 14.119-14.674 18.468-18.832 4.3487-4.1579 9.1013-8.9313 10.561-10.607 5.9813-6.8667 40.086-40.163 46.22-45.124 7.9749-6.4501 11.454-10.964 12.087-15.68 0.5547-4.1357 3.9355-7.4122 6.8024-6.5926 10.514 3.0057 18.115 3.6493 38.318 3.2447 11.376-0.2279 25.633-0.2817 31.684-0.1197 6.0507 0.162 12.982 0.2599 15.402 0.2175 2.4203-0.042 36.763-0.2099 76.318-0.3722 62.527-0.2565 72.08-0.4674 73.162-1.6152 0.9829-1.0422 1.0944-2.654 0.5298-7.6563-0.8897-7.8846-2.0129-71.365-1.7954-101.48 0.089-12.344 0.149-23.433 0.133-24.643-0.2195-16.601-0.9516-76.241-0.9723-79.21-0.039-5.5652 1.041-91.022 1.2176-96.372 0.1412-4.2756 0.07-4.4089-2.495-4.6942-4.99-0.555-7.7677-5.1403-4.8695-8.0385 1.5476-1.5476 1.465-1.7312-2.4856-5.5316-2.2475-2.162-4.7772-4.1712-5.6215-4.4651s-2.3211-1.8267-3.2816-3.4061c-0.9606-1.5796-2.4072-3.1036-3.2148-3.3869-2.5687-0.9011-38.57-36.364-60.399-59.495-1.474-1.562-28.835-28.356-38.655-37.853-2.5789-2.4942-5.3233-5.2666-6.0987-6.1607-0.7754-0.8942-3.8594-3.7412-6.8533-6.3268-6.9109-5.9684-8.339-8.1202-7.6054-11.46 0.634-2.8864 5.0445-5.6376 7.4703-4.6598 4.8942 1.9728 19.089 14.829 26.39 23.901 1.7531 2.1783 7.4977 8.119 12.766 13.202 5.2681 5.0826 10.998 10.755 12.733 12.606 3.5669 3.8046 21.573 21.584 29.558 29.186 13.696 13.039 28.081 27.515 29.373 29.561 0.7867 1.2452 3.6087 4.1856 6.2711 6.5341 2.6623 2.3485 9.1971 8.6957 14.522 14.105 9.4572 9.6076 12.822 11.861 17.713 11.861 2.4721 0 5.0975 3.6153 4.3456 5.9842-0.2915 0.9183-1.5539 2.1363-2.8055 2.7065-2.2493 1.0249-2.2692 1.1202-1.7348 8.2746 0.6206 8.3081 0.6791 9.6162 0.6194 13.839-0.024 1.6942-0.046 4.0705-0.048 5.2806 0 1.2102-0.1762 5.6666-0.3859 9.9031-0.2381 4.8088 0.058 9.3675 0.7873 12.133 0.8363 3.1699 0.9504 5.9747 0.4014 9.8589-0.4221 2.9858-0.5927 7.031-0.3793 8.9896 0.9755 8.9515 1.1361 50.084 0.2141 54.839-0.5383 2.7766-0.8931 9.603-0.7883 15.17 0.1047 5.5667 0.1168 13.092 0.026 16.722-0.09 3.6304-0.1325 7.987-0.095 9.6812 0.2802 12.507 0.1 47.004-0.3596 68.649-0.3029 14.28-0.5092 26.755-0.4585 27.723 0.08 1.5229 0.014 50.011-0.081 59.848-0.019 1.9363 0.01 7.2829 0.059 11.882 0.051 4.5986 0.058 9.3512 0.015 10.561-0.043 1.2102 0.2003 26.557 0.5407 56.327 0.6587 57.604 0.6401 78.441-0.084 93.292-0.2475 5.0827-0.3428 10.825-0.2116 12.762 0.2568 3.7904 0.2528 6.7921-0.038 28.955-0.1496 11.395 0.099 15.123 1.1795 17.71 1.9048 4.5587 1.7332 5.9039-1.0993 8.6177-2.0241 1.9391-3.2824 2.3649-6.989 2.3649-2.6054 0-4.8013-0.4545-5.1835-1.0727zm-623.37-39.349c-1.2777-0.8087-1.5356-7.2096-0.3666-9.101 0.5656-0.9153 1.433-19.25 1.3347-28.215-0.026-2.3905-0.6811-5.2162-1.4977-6.4626-1.3925-2.1252-1.6968-2.1902-7.5171-1.6056-5.9543 0.5979-6.0855 0.5663-7.1252-1.7157-0.922-2.0236-0.8145-2.5696 0.8303-4.2143 1.7118-1.7119 2.7822-1.8814 11.38-1.8024 6.1259 0.056 12.602-0.518 18.27-1.6199 4.8287-0.9389 9.9037-1.4602 11.278-1.1584 3.274 0.719 4.8146 3.9367 3.3861 7.0718-0.97 2.1291-1.3298 2.2484-5.2019 1.7261-7.487-1.01-11.938-0.5869-13.841 1.3159-1.6234 1.6232-1.7467 2.8025-1.5847 15.158 0.097 7.3686 0.4257 16.488 0.7313 20.264 0.7018 8.6754-0.5442 11.182-5.5478 11.162-1.8041-0.01-3.8415-0.3688-4.5276-0.8031zm353.71-7.5682c-1.1462-1.381-1.2491-3.5252-0.4638-9.6575 0.2479-1.9362 0.5572-8.9517 0.6872-15.59 0.2734-13.962-0.3317-15.558-5.2485-13.844-1.5136 0.5276-3.869 0.8313-5.2343 0.6748-2.0966-0.2402-2.4825-0.6871-2.4825-2.8754 0-1.9951 0.6595-2.9761 2.8676-4.2658 2.4804-1.4486 4.8256-1.6888 17.369-1.7788 9.9818-0.071 14.82 0.2151 15.526 0.9203 0.7789 0.779 1.6413 0.7052 3.6007-0.3081 2.315-1.1971 2.793-1.1905 4.7097 0.065 1.8904 1.2386 2.1332 2.04 2.1332 7.0409 0 3.1037 0.3863 6.659 0.8583 7.9006 0.8 2.1041 1.2477 2.2576 6.5841 2.2576 5.3403 0 5.7621-0.145 6.2662-2.1536 0.2973-1.1844 0.07-3.5817-0.507-5.3273-1.3225-4.0074-0.5736-7.0645 2.1712-8.863 5.3652-3.5154 8.3516 2.0625 6.6736 12.465-0.5739 3.5577-0.9552 9.1909-0.8473 12.518 0.2283 7.0399-0.2169 8.0878-3.4288 8.0695-3.0646-0.018-4.0097-0.695-5.7751-4.141-1.7813-3.4769-4.1604-4.8374-7.8323-4.4793-2.3948 0.2336-2.9285 0.7455-3.7148 3.5637-1.2672 4.5417-3.8218 6.8877-6.4095 5.886-2.5884-1.0019-3.6286-3.9188-2.7642-7.7516 0.8487-3.7628-0.05-21.108-1.1286-21.775-0.4313-0.2666-1.2785-0.075-1.8825 0.4267-0.604 0.5013-3.7961 1.0305-7.0935 1.1759l-5.9952 0.2644-0.1556 13.202c-0.085 7.2609-0.5662 13.914-1.0679 14.784-0.6293 1.0919-0.6294 2.9626-8e-4 6.0318 0.8142 3.9746 0.7322 4.5801-0.7694 5.6782-2.2094 1.6155-5.2524 1.5629-6.6448-0.1149zm-76.109-10.12c-4.8988-1.5265-5.9443-5.1002-3.5241-12.047 0.7106-2.0396 1.0696-4.2882 0.7977-4.9966-0.2719-0.7085-0.051-5.7193 0.4901-11.135 0.7178-7.1805 0.722-10.642 0.016-12.782-1.8334-5.5554 1.3294-7.9608 10.141-7.7118 5.0861 0.1436 10.587 2.2398 11.726 4.4686 0.4332 0.8479 1.031 2.8253 1.3283 4.3942 0.3359 1.773 2.0169 4.2711 4.4416 6.6009 5.1473 4.9456 7.402 11.937 5.8457 18.127-1.7508 6.965-6.461 13.25-9.9776 13.315-0.8789 0.016-2.3893 0.4528-3.3563 0.9704-2.3771 1.2722-14.651 1.8175-17.928 0.7966zm15.401-7.9736c5.8389-1.345 7.921-3.6909 7.921-8.925 0-8.7612-6.5027-14.841-14.082-13.166l-3.0804 0.6806-0.07 7.4435c-0.038 4.0939-0.3523 8.5701-0.6979 9.9471-1.1844 4.7189 1.7896 5.9135 10.009 4.0203zm-5.4482-31.389c-0.3572-1.855-1.9193-1.7381-2.3172 0.1736-0.1661 0.7974 0.3191 1.3666 1.1646 1.3666 0.9065 0 1.3381-0.5768 1.1526-1.5402zm-397.11 38.348c-4.8447-0.6466-6.3959-1.3232-10.491-4.5755-2.4913-1.9787-4.3253-12.217-3.2412-18.094 0.9835-5.3315 3.1261-8.1487 8.1615-10.731 4.2094-2.1586 8.6939-2.3399 11.552-0.4673 1.2259 0.8033 3.6596 1.4606 5.4081 1.4606 6.448 0 10.824 7.9241 9.7214 17.602-0.6394 5.6105-2.3239 8.27-7.4267 11.725-4.8981 3.3167-7.5083 3.9042-13.684 3.0799zm10.896-10.041c0.9857-1.0123 1.863-3.6137 2.2001-6.5241 0.5238-4.5219 0.3792-5.0579-2.1959-8.141-2.1822-2.6128-3.373-3.3005-5.7155-3.3005-4.9749 0-7.4202 1.4517-9.2551 5.4942-2.641 5.8182-2.3059 9.7147 1.0802 12.564 2.4783 2.0854 3.3904 2.3254 7.5332 1.9818 3.0896-0.2562 5.2785-0.971 6.353-2.0743zm-36.525 9.4478c-0.183-0.1831-4.1045-0.395-8.7146-0.471-5.1384-0.084-8.7879-0.5442-9.4311-1.1873-0.66237-0.6624-1.1027-4.5496-1.194-10.542-0.0801-5.2209-0.44921-11.275-0.82132-13.453-0.57348-3.3577-0.38575-4.3289 1.2336-6.3808 2.1079-2.6713 5.3388-3.1775 7.058-1.1059 0.72627 0.8751 1.046 4.1845 0.95677 9.9012-0.0836 5.352 0.32335 9.9131 1.0801 12.107 1.039 3.0127 1.6232 3.5608 4.0509 3.8006 1.5604 0.1541 4.8147-0.1439 7.2318-0.6622 4.8965-1.0502 7.3344-0.296 8.2371 2.5481 0.9969 3.141-0.9176 5.1064-5.3147 5.4562-2.2218 0.1767-4.1895 0.1715-4.3725-0.011zm599.81-1.71c-4.664-2.3679-4.916-2.6811-6.9038-8.5799-2.6172-7.7664-2.5906-10.352 0.1625-15.814 4.0539-8.0434 10.064-10.633 18.351-7.907 2.5696 0.8452 6.0156 1.9827 7.6578 2.5278 4.5343 1.5051 6.1694 4.3991 6.8096 12.053 0.6042 7.2237 0.221 8.5028-4.262 14.222-2.6525 3.3843-5.2995 4.4948-13.014 5.4603-3.2192 0.4029-4.8666 0.036-8.8011-1.9619zm13.257-6.3703c2.0406-1.0922 5.2257-7.0486 5.2257-9.7724 0-1.073-1.4666-4.0804-3.2591-6.6831-3.2169-4.6706-3.3055-4.725-6.8209-4.1834-2.3886 0.3681-4.395 1.4432-6.0919 3.2643-2.3635 2.5369-2.4981 3.0684-2.0445 8.0709 0.4134 4.5595 0.8895 5.7161 3.2041 7.7842 2.8683 2.5627 6.7198 3.1608 9.7866 1.5195zm-664.54 6.767c-4.33-0.8147-5.4724-1.5475-10.83-6.9484l-5.9895-6.0378 0.52138-7.0001c0.79403-10.659 2.8615-14.496 10.781-20.005 7.6749-5.3397 27.502-6.4832 30.483-1.7581 1.277 2.0246-0.24854 6.0269-2.6309 6.9025-1.3453 0.4944-2.7038 0.092-4.8507-1.4351-2.7618-1.965-3.4299-2.0679-9.0428-1.3922-5.7457 0.6918-6.2751 0.9546-10.189 5.0578-3.4873 3.6557-4.2241 5.047-4.7425 8.9544-1.3188 9.9411 2.6568 15.564 12.036 17.024 5.5267 0.8604 6.0067 0.7896 9.8278-1.4498 4.5474-2.6648 7.9042-2.4465 8.8638 0.5768 2.1583 6.8004-9.2393 10.332-24.237 7.5108zm104.78-1.1119c-3.7801-3.1806-4.8595-5.39-3.4583-7.0783 1.1068-1.3336 2.0276-1.3186 10.462 0.1704 5.745 1.0143 10.415-5.2136 6.3707-8.4965-0.8471-0.6877-3.7955-2.4244-6.5518-3.8593-9.3029-4.8431-8.7379-10.699 1.2637-13.097 2.8737-0.6889 8.0305 1.251 9.2853 3.4931 0.5855 1.0463 0.5763 2.2252-0.028 3.551-0.7793 1.7103-0.4621 2.4019 2.2936 5.0009 3.0836 2.9081 3.1981 3.236 3.1981 9.1566 0 7.6239-0.9539 8.6104-11.692 12.09-5.8545 1.8969-7.9951 1.7182-11.143-0.9307zm33.618 1.6704c-2.559-0.488-3.4086-3.853-2.0284-8.0348 0.7829-2.3723 0.8387-5.2684 0.2114-10.977-0.9613-8.7486-0.6837-10.766 1.8703-13.588 2.1548-2.3809 8.5754-2.7188 13.395-0.705 2.4709 1.0324 3.0522 1.7531 3.0522 3.7845 0 3.3818-1.4637 4.6215-5.4567 4.6215-1.9304 0-3.3444 0.4272-3.3444 1.0103 0 0.7232 2.2392 0.8654 7.8784 0.5 7.0094-0.4541 8.1259-0.3158 10.121 1.2537 2.5418 1.9995 3.0136 5.7965 0.8245 6.6365-0.7801 0.2994-2.485-0.086-3.7889-0.8561-2.6983-1.5939-14.407-1.6041-15.997-0.014-1.2748 1.2748 0.5425 7.8423 2.3633 8.5411 2.7078 1.039 12.484 0.5279 15-0.7842 1.3865-0.7232 3.016-1.3173 3.6211-1.3202 1.6995-0.01 4.6205 3.3136 4.6205 5.2549 0 3.4841-3.2017 4.3624-17.199 4.7185-7.2404 0.1842-14.055 0.1651-15.143-0.042zm384.25 0.034c-0.8003-0.2124-2.5196-1.9946-3.8206-3.9606-2.2084-3.3372-2.5775-3.54-5.5609-3.0558-1.9585 0.3178-4.1594 1.5499-5.6853 3.1825-5.4743 5.8574-9.9949 1.2342-6.0288-6.1656 0.9087-1.6956 2.3355-6.0462 3.1707-9.6681 2.368-10.27 3.0952-12.204 5.1213-13.624 5.0658-3.5483 10.426 0.4352 13.026 9.6815 5.8193 20.686 6.1528 22.763 3.8005 23.666-1.4673 0.5631-1.7025 0.5597-4.0234-0.056zm-6.3434-15.694c0.7644-1.9918-0.428-5.7188-1.8296-5.7188-1.3402 0-2.7313 4.6755-1.8266 6.1393 0.832 1.3462 3.0774 1.0879 3.6562-0.4205zm92.067 14.73c-3.4023-0.5652-3.98-2.9985-2.9529-12.44 0.5121-4.7065 0.7246-10.513 0.4725-12.904-0.625-5.9261 0.8603-8.5298 5.3628-9.4012 11.547-2.2347 12.505-2.1042 17.794 2.4229 2.5527 2.185 3.8646 4.1136 4.2707 6.2782 1.1501 6.1305-2.896 13.996-8.4427 16.411-1.9386 0.8443-1.4658 1.0219 3.9761 1.4933 7.4332 0.644 8.3454 1.1275 8.3454 4.4227 0 2.1936-0.458 2.6742-3.3004 3.4636-4.7335 1.3145-10.091 1.1398-14.878-0.4852-3.6165-1.2278-4.4512-1.2502-6.4117-0.1724-1.2395 0.6817-3.1457 1.0912-4.2359 0.9102zm13.512-16.4c5.0619-5.0619 3.4874-11.97-2.7283-11.97-4.6528 0-5.9882 2.3315-5.2553 9.1756 0.5793 5.4087 0.7624 5.7863 2.8055 5.7863 1.3122 0 3.3815-1.1958 5.1781-2.9924zm69.776 15.859c-4.9699-1.7761-8.6088-6.3539-8.828-11.106-0.3645-7.9037 0.8864-11.35 5.7351-15.799 4.4002-4.0378 6.2594-4.9625 11.297-5.6192 3.5679-0.465 4.4971-0.2388 6.7278 1.6383 1.4236 1.1978 3.2056 2.1778 3.96 2.1778 4.5268 0 8.0027 4.6949 7.7919 10.524-0.1112 3.075-4.4124 13.337-6.1985 14.789-5.3082 4.3152-13.917 5.7418-20.486 3.3947zm14.348-8.8119c4.3854-4.028 5.0152-7.664 2.3133-13.355-1.1336-2.3877-2.5503-4.3017-3.1482-4.2533-0.5979 0.048-2.2056 0.1474-3.5726 0.22-3.0736 0.1633-8.9199 5.797-10.334 9.9591-1.3779 4.0532-0.019 7.6316 3.4771 9.153 4.6478 2.023 7.693 1.5569 11.265-1.7238zm15.896 8.1306c-1.5124-1.5124-1.416-2.1142 1.1932-7.4472 1.4777-3.0205 2.5789-7.2624 3.1068-11.969 1.145-10.207 1.4001-11.05 3.8259-12.639 2.9731-1.9481 8.1094-0.303 9.4171 3.0161 2.7968 7.0983 4.6535 10.694 5.5225 10.694 0.8341 0 1.7123-2.3398 3.664-9.762 1.0332-3.9291 8.22-7.1581 11.14-5.0052 0.8396 0.619 2.4956 3.8029 3.6798 7.0752 1.1842 3.2725 2.7668 6.826 3.5169 7.8968 0.75 1.0709 1.3724 2.9481 1.3831 4.1716 0.011 1.2234 0.8232 3.9968 1.8059 6.163 2.1199 4.6737 1.6414 7.7019-1.3352 8.4491-4.6667 1.1712-6.6942-1.029-8.4343-9.1526-1.1999-5.6017-3.5279-10.716-4.8778-10.716-0.6223 0-1.9427 2.8141-2.994 6.3808-3.1044 10.532-4.0126 12.102-7.0036 12.102-1.4619 0-3.6551-0.9028-4.997-2.0571-1.9368-1.666-2.4218-2.8791-2.5511-6.3808-0.088-2.378-0.7851-5.7099-1.5497-7.4041l-1.3901-3.0804-0.8285 2.2003c-0.4557 1.2102-1.1013 4.0586-1.4348 6.3299s-1.5057 5.8358-2.6048 7.921c-1.5723 2.9827-2.5488 3.8467-4.5786 4.0511-1.419 0.1428-3.0732-0.2334-3.6759-0.8361zm-615.21-66.847c-1.0999-0.4088-2.2112-1.2943-2.4696-1.9678-0.2585-0.6735 0.012-7.5148 0.6009-15.203 1.9531-25.496 2.0064-25.307-6.5628-23.251-4.3775 1.0502-5.123 1.0139-7.2045-0.35-1.882-1.2331-2.2147-1.9662-1.756-3.8704 1.0147-4.2132 2.439-4.6102 14.06-3.9192 10.489 0.6239 15.235 0.6906 23.814 0.3346 2.4203-0.1005 5.3907-0.1279 6.6008-0.061 1.2102 0.067 3.2584-0.1493 4.5518-0.4805 3.3784-0.8652 5.1294 2.874 5.1294 10.954 0 5.6381 0.1958 6.3125 2.2175 7.6372 1.5836 1.0375 3.3708 1.3229 6.2516 0.9983 5.4122-0.6101 6.7359-2.0149 5.607-5.9511-1.3419-4.6788-1.0849-11.085 0.5086-12.679 1.545-1.5451 4.5379-1.7859 6.5314-0.5256 1.0995 0.6951 1.2749 3.3822 1.0762 16.489-0.2173 14.332-0.3841 15.782-1.9704 17.117-0.9533 0.8023-2.4784 1.2637-3.3892 1.0256-1.7737-0.4638-3.631-3.7334-3.631-6.392 0-2.0226-1.6757-2.693-6.7307-2.693-5.6054 0-7.6018 1.2554-6.9215 4.3528 1.0052 4.5767-4.58 7.2483-7.7741 3.7189-1.7802-1.9671-1.8635-5.817-0.2262-10.458 1.3462-3.8158 0.9687-14.815-0.5754-16.76-0.6891-0.8678-1.4634-0.7473-3.626 0.5647-2.2802 1.3834-3.892 1.5911-9.4391 1.2163l-6.6893-0.4519-0.5716 2.8576c-0.3143 1.5717-0.5715 10.285-0.5715 19.362 0 12.163-0.2894 16.728-1.1002 17.356-1.9125 1.4799-3.6778 1.7967-5.7402 1.03zm109.94-13.574-2.9247-2.4609-2.7824 1.6812c-2.4991 1.5101-4.2605 1.6522-17.295 1.3943-9.844-0.1947-14.724-0.6185-15.168-1.3175-0.5599-0.8802-1.2082-20.362-0.9813-29.49 0.1149-4.6189 2.0114-5.8113 9.7861-6.153 8.3073-0.3651 11.636 0.7032 11.636 3.7346 0 2.6923-1.1786 3.4612-5.0798 3.3146-3.5269-0.1326-6.3617 1.1404-6.3617 2.8568 0 2.4913 5.7037 2.937 15.944 1.2458 5.3352-0.881 6.3469-0.832 7.5445 0.3656 1.8467 1.8468 0.8389 5.7807-1.7237 6.7287-1.0702 0.3958-3.1203 0.3829-4.5559-0.029-3.5874-1.0289-16.519-0.8104-17.869 0.3019-1.3315 1.0973-1.4521 7.1899-0.189 9.55 0.8016 1.4978 1.9056 1.7024 9.1892 1.7024 4.5694 0 8.5219-0.3943 8.8221-0.8801 0.7562-1.2236 5.1454-1.1034 6.4248 0.176 0.8214 0.8214 1.2908 0.8214 2.1122 0 1.4923-1.4923 4.7791-1.3101 7.4053 0.4107 4.5987 3.0132 12.9 1.2596 15.305-3.233 1.3569-2.5353-1.9839-5.5823-8.0559-7.3475-6.9212-2.0121-12.19-6.036-12.19-9.3103 0-3.0381 2.972-5.7204 8.011-7.2302 4.1281-1.2368 9.4535 0.4301 10.51 3.2899 1.0403 2.8148-0.3301 4.0976-4.3189 4.0426-5.3732-0.074-5.0583 1.05 0.7795 2.7831 2.8516 0.8464 7.0762 2.8078 9.388 4.3583 6.6151 4.4368 7.1669 8.6716 1.9827 15.215-3.7769 4.7669-5.9633 5.6945-14.768 6.2649-7.4254 0.481-7.7377 0.423-10.576-1.9652zm-228.08-0.8664c-5.3899-1.3913-8.7188-3.2513-12.05-6.7326-2.4361-2.5457-2.9472-3.9287-3.8498-10.416-0.96865-6.9627-0.90898-7.8258 0.86189-12.461 1.3258-3.4705 3.3684-6.4053 6.7379-9.6812 5.3018-5.1547 6.2185-5.5464 15.042-6.4285 5.4271-0.5425 6.3232-0.397 9.1002 1.478 2.5263 1.7056 3.0804 2.6276 3.0804 5.1251 0 2.806-0.22962 3.0673-2.9227 3.3257-1.6244 0.1559-3.8585-0.3327-5.0296-1.1001-4.4609-2.9228-9.6058-1.6095-13.322 3.401-3.9191 5.2839-4.8938 9.557-3.8572 16.91 0.70462 4.9977 1.2721 6.3709 3.3097 8.0079 3.5583 2.8587 11.204 2.7605 16.794-0.2157 5.2165-2.7769 6.1795-2.7568 7.2854 0.1518 1.227 3.2273 0.52367 4.529-3.3457 6.1926-5.9612 2.5631-13.416 3.5844-17.835 2.4436zm73.082-0.674c-6.8314-2.7751-8.8336-6.0156-8.8336-14.297 0-9.7568 2.1725-13.774 9.4394-17.457 5.2449-2.6579 7.798-2.8667 12.259-1.0027 1.7378 0.7261 3.8573 1.3201 4.71 1.3201 1.9479 0 7.6838 6.2705 9.3216 10.19 0.679 1.6252 1.2346 4.304 1.2346 5.953 0 3.6974-2.1697 10.041-4.2037 12.29-4.7598 5.2634-15.152 6.5679-23.927 3.0033zm17.32-8.4641c2.8034-4.172 2.6361-8.6446-0.4841-12.94-4.0335-5.5522-4.9519-6.0538-8.9114-4.8675-4.0137 1.2025-8.8375 7.0529-8.8375 10.718 0 3.7314 1.6854 7.5492 3.7825 8.5685 3.3693 1.6375 4.481 1.8572 8.5098 1.6818 3.4021-0.1481 4.2018-0.5738 5.9407-3.1616zm-57.89 8.3822c-0.95395-0.7455-1.1972-2.6272-0.9815-7.592 0.1703-3.9228-0.32045-9.5415-1.2097-13.849-1.3912-6.7388-1.3944-7.4037-0.0466-9.4611 1.5894-2.4257 5.7804-3.0578 7.3785-1.1128 0.49726 0.605 1.1242 3.4764 1.3935 6.3807 1.0535 11.365 1.927 17.649 2.5998 18.702 0.87483 1.3693 10.254 1.4641 14.981 0.1515 2.8415-0.789 3.6489-0.6962 5.0606 0.5814 1.9755 1.7877 2.0991 2.9778 0.5322 5.1206-1.0006 1.3686-2.8942 1.6015-14.794 1.8195-9.1401 0.1675-14.065-0.077-14.914-0.7411zm865.48-420.51c-1.0547-0.5205-2.4016-2.1148-2.9931-3.543-0.9491-2.2911-0.858-2.8141 0.7736-4.4457 1.5575-1.5575 3.4865-1.9721 12.234-2.629 5.7119-0.429 11.34-0.8558 12.508-0.9485 3.1348-0.2488 4.4063-4.6909 3.8272-13.37-0.2584-3.8725-0.8206-7.4883-1.2493-8.035-1.3048-1.6639-5.5463-2.059-13.226-1.2319-10.023 1.0796-13.969 0.3105-15.05-2.9328-0.7067-2.1203-0.508-2.8414 1.2736-4.623 1.9387-1.9388 2.8982-2.1284 11.766-2.3253 14.007-0.3111 29.43 0.8846 31.848 2.4689 1.4564 0.9543 2.011 2.1618 2.011 4.3779 0 3.0316-0.036 3.06-3.8885 3.06-7.3403 0-7.8421 0.9149-4.8341 8.8135 1.0114 2.6556 2.2719 6.1348 2.8013 7.7317 0.6032 1.8196 2.5452 4.0654 5.2021 6.0157 4.5776 3.3602 5.091 4.6188 2.6995 6.6163-3.2835 2.7423-6.625 3.3872-17.644 3.4046-10.059 0.016-17.635 0.6669-23.942 2.0571-1.2102 0.2667-3.0632 0.059-4.1179-0.4614zm-978.47-15.505c-2.6045-0.5841-10.813-7.0864-11.301-8.9518-0.64189-2.4545 1.2798-5.6132 3.7723-6.2006 2.7955-0.6588 4.3363-6.5742 2.8316-10.871-0.96913-2.7675-1.2203-16.008-0.72873-38.414 0.2984-13.601 0.38548-24.504 0.61156-76.57 0.28924-66.614 0.33875-65.13-2.253-67.533-2.8866-2.6766-2.8098-3.9903 0.3905-6.6832 3.625-3.0502 7.1696-3.6779 10.639-1.8838 2.5919 1.3403 12.646 1.4597 121.74 1.445 154.43-0.0211 195.53-0.41655 199.07-1.9173 3.3464-1.4175 6.2456-0.73516 9.3964 2.2114 2.7832 2.6028 3.0882 5.2761 0.8801 7.7159-1.3513 1.4931-1.5581 3.9308-1.6855 19.872-0.1356 16.945-0.278 68.581-0.2056 74.497 0.018 1.4522 0.018 11.114-7e-4 21.472-0.018 10.357 0.1814 19.178 0.4435 19.602 0.5615 0.9085 0.4605 16.465-0.239 36.816-0.2745 7.987-0.511 15.584-0.5254 16.881-0.014 1.2989 1.0209 3.6042 2.3033 5.1283 1.2813 1.5226 2.3297 3.2926 2.3297 3.9332 0 0.6405-1.4258 2.5904-3.1684 4.333-3.4854 3.4854-7.4274 4.2065-10.045 1.8375-1.2964-1.1731-15.176-1.3351-117.12-1.367-63.609-0.02-116.25-0.015-116.97 0.011-0.72609 0.025-19.805-0.079-42.397-0.2327l-41.077-0.2794-0.90461 1.9854c-1.0888 2.3897-3.4544 3.6851-5.7778 3.1639zm321.62-15.671c1.165-1.165 1.379-14.85 0.3772-24.124-0.9249-8.56-0.9458-43.105-0.044-72.169 0.338-10.891 0.5631-27.525 0.5-36.965-0.1915-28.7-0.042-43.286 0.5057-49.286 0.3048-3.3403 0.1501-6.2701-0.3719-7.0409-0.7862-1.161-15.779-1.3495-124.36-1.5629-67.907-0.1336-138.63-0.3443-157.17-0.4684-31.82-0.21298-33.783-0.13483-35.173 1.4009-1.3467 1.4881-1.4593 6.3936-1.324 57.675 0.0813 30.827 0.49124 57.831 0.91088 60.01 0.41965 2.1783 0.50425 8.1191 0.18801 13.202-0.32022 5.1466-0.20393 10.606 0.26244 12.322 0.54068 1.9888 0.49646 8.2263-0.12476 17.602-1.3284 20.049-1.2834 27.718 0.16998 28.925 1.4885 1.2354 33.646 1.4687 193.11 1.4011 78.878-0.033 121.98-0.3574 122.55-0.921zm-148.63-32.106c-2.5222-1.5377-3.3551-1.6588-5.4474-0.7922-1.884 0.7804-4.3125 0.7711-10.24-0.039-6.7673-0.9248-8.2081-0.879-11.162 0.3554-7.4704 3.1213-9.9642 1.3432-8.8364-6.3002 0.4093-2.7743 0.761-9.2027 0.7815-14.285l0.037-9.2412 3.0804-1.5388c3.4952-1.746 7.7229-1.9534 12.542-0.6152 2.8696 0.797 3.3004 1.2586 3.3004 3.5374 0 3.382-3.4038 4.9638-7.2517 3.3699-2.8391-1.176-4.7872-0.099-3.9178 2.1668 0.614 1.6004 7.3274 2.7382 11.87 2.0118 6.4305-1.0282 8.7465 0.8674 7.3673 6.03-0.8867 3.3189-3.6898 3.8827-6.8693 1.3817-3.0595-2.4066-8.5039-2.4374-10.88-0.062-1.7934 1.7934-2.3477 4.8137-1.0327 5.6265 0.6298 0.3893 11.313 0.7518 15.114 0.513 0.7261-0.046 5.1962 0.124 9.9335 0.377 7.7423 0.4134 8.788 0.2853 10.341-1.268 0.9504-0.9505 1.728-2.234 1.728-2.8524 0-2.0647-2.7204-5.0415-6.2555-6.8449-7.363-3.7563-8.7894-7.5377-4.4218-11.722 3.2858-3.1481 8.429-3.3756 12.261-0.5424 3.4263 2.5332 4.0469 4.9219 1.8495 7.1193-1.7022 1.7022-1.6988 1.7332 0.4055 3.6836 3.0696 2.8447 4.0779 7.2927 2.7063 11.938-2.5258 8.5544-10.18 12.152-17.004 7.9927zm-75.205-0.8785c-1.967-1.5931-2.092-4.2702-0.54972-11.769 0.77467-3.7665 0.81683-5.9808 0.15094-7.921-0.50835-1.4811-1.0558-6.8424-1.2164-11.914-0.28929-9.1298-0.27011-9.2315 1.9439-10.301 4.7497-2.2946 19.685 1.7401 23.857 6.445 0.79773 0.8995 2.5184 3.8136 3.8237 6.476 3.3074 6.7453 3.2983 15.044-0.0246 22.279-2.8994 6.3136-4.057 6.8382-16.646 7.5444-8.005 0.449-9.9243 0.307-11.34-0.8395zm19.212-7.201c4.1068-3.5429 5.2497-14.389 2.1847-20.733-1.9317-3.9981-6.4299-6.6274-10.52-6.1491-1.9538 0.2284-2.3076 0.8307-2.9957 5.0997-0.50958 3.162-0.43996 6.5191 0.20093 9.6812 0.5396 2.6623 0.75118 6.2451 0.47024 7.9618-0.58677 3.5852 0.48063 4.8821 4.5019 5.4701 1.4522 0.2123 2.9153 0.4455 3.2513 0.518 0.33612 0.072 1.644-0.7593 2.9065-1.8484zm100.67 8.1096c-3.2019-0.3741-7.0776-1.3297-8.6128-2.1235-2.6524-1.3717-2.905-1.354-5.0785 0.3557-2.8042 2.2058-6.1335 2.3267-7.1334 0.259-0.4097-0.8471-0.6748-7.8207-0.5892-15.497 0.1668-14.948 0.4216-15.777 4.7055-15.315 1.1623 0.1254 2.8692 1.2454 3.7933 2.4889 1.4852 1.9986 1.5619 2.7299 0.6615 6.3059-0.6533 2.5942-0.7223 4.5745-0.1926 5.521 0.7007 1.2522 1.7429 0.5294 6.8714-4.7655 3.3249-3.4329 6.3779-6.8356 6.7843-7.5619 1.3369-2.3889 6.4318-1.4041 6.8285 1.32 0.4635 3.1829-0.9952 5.1918-10.358 14.264-2.0572 1.9935-3.7404 3.8661-3.7404 4.1613s1.3537 1.2659 3.0083 2.1569c2.4534 1.3212 4.1991 1.5266 9.4612 1.1128 3.5491-0.279 7.9435-0.764 9.7654-1.0777 3.8825-0.6683 5.9286 0.6064 5.9286 3.6934 0 4.0587-2.8224 5.6257-9.9013 5.4974-3.5094-0.063-9.0004-0.4218-12.202-0.7959zm-162.15-79.203c-1.3832-0.4145-3.1654-1.313-3.9605-1.9965-2.6385-2.2685-10.685-6.1947-11.351-5.5388-0.36067 0.3551-1.087 1.9043-1.6143 3.4428-0.82554 2.4087-1.3755 2.7971-3.9605 2.7971h-3.0019l-0.599-9.6812c-0.32951-5.3246-0.69713-10.473-0.817-11.441s-0.14733-5.7915-0.0607-10.719c0.11934-6.8139 0.48793-9.2893 1.5399-10.341 2.7523-2.7523 6.8288-0.59944 6.6894 3.5328-0.32168 9.5377-0.20753 19.084 0.2334 19.525 0.57806 0.57814 6.656-5.013 6.656-6.123 0-0.96945 7.3612-11.63 9.9826-14.457 1.2938-1.3954 3.0925-2.3205 4.5116-2.3205 5.1286 0 4.9974 3.4453-0.3568 9.3693-5.8665 6.4909-13.257 16.253-13.257 17.511 0 0.67689 0.69309 1.8411 1.5402 2.587 2.3715 2.0882 10.405 5.9066 13.996 6.653 4.3037 0.8942 5.4792 2.8338 3.5249 5.8164-1.604 2.4482-4.6795 2.8873-9.6948 1.3843zm82.228 0.1654c-0.539-0.1648-1.6437-1.551-2.4548-3.0804-1.1856-2.2354-1.455-5.0928-1.3737-14.566 0.12445-14.495 0.43495-15.004 9.3114-15.267 4.9406-0.14645 6.2008 0.12234 7.7262 1.6477 1.6924 1.6925 1.7191 1.9262 0.3729 3.2723-1.0487 1.0487-2.3451 1.3109-4.6869 0.9478-2.2327-0.34606-3.7835-0.073-4.9975 0.88046-1.7531 1.3767-1.7524 1.3889 0.1798 3.0303 1.6246 1.3802 2.4831 1.508 5.2807 0.78603 6.0692-1.5662 10.351 1.5141 8.3158 5.9819-1.2585 2.762-5.1354 2.8699-8.4839 0.23587-3.342-2.6287-5.2109-1.3382-5.5548 3.8357-0.3731 5.6134 0.9177 6.4121 9.9547 6.1594 5.7088-0.1596 7.6123 0.1022 8.708 1.198 0.7711 0.7712 1.3961 1.869 1.3887 2.4394-0.036 2.7799-1.4205 3.1206-12.023 2.9598-5.8761-0.089-11.125-0.2971-11.664-0.4617zm145.74-1.0841c-1.3014-1.858-1.5346-1.9065-2.9777-0.6194-1.2616 1.1251-3.5676 1.3697-11.876 1.2596-13.222-0.1754-13.734-0.5513-12.078-8.8806 1.0886-5.4767 1.0434-6.0515-0.7692-9.7823-3.3-6.7927-2.2218-11.324 2.9352-12.336 4.7759-0.93697 5.7837 1.3215 5.9751 13.389l0.1654 10.432 7.4809 0.066c4.1146 0.036 8.2731 0.2342 9.2412 0.44 1.6916 0.3596 1.7624-0.1021 1.8169-11.84 0.07-14.901 0.1684-15.048 9.6245-14.167 6.0164 0.56045 8.3611 1.8119 8.3611 4.4626 0 0.58765-1.6549 1.6011-3.6775 2.2521-2.0226 0.65101-3.8586 1.7414-4.0803 2.423-0.3329 1.0246 0.7539 1.1417 6.2702 0.67539 7.0647-0.59724 9.4255 0.31966 9.3951 3.6488-0.028 3.0833-1.1859 3.5159-9.0351 3.3756-6.0088-0.10729-7.9177 0.15543-8.5886 1.1822-0.8694 1.3306-0.3885 5.157 0.8019 6.3814 0.3534 0.3633 5.2146 0.7971 10.803 0.964 5.5883 0.1668 10.618 0.586 11.177 0.9314 1.3563 0.8383 1.2987 4.64-0.084 5.5261-0.6051 0.3877-6.0508 0.7244-12.102 0.7481-6.0508 0.024-12.434 0.3672-14.185 0.7633-2.7641 0.6251-3.3691 0.4546-4.5951-1.2959zm-174.11 0.3767c-2.1954-0.6196-2.5685-2.5251-1.4844-7.5802 0.91549-4.269 0.54048-16.596-0.64917-21.336-0.82061-3.2694 1.8871-5.1342 6.531-4.4977 2.1622 0.29633 4.4662 0.98282 5.1201 1.5256 2.0634 1.7124 1.3688 4.0567-1.4981 5.0562-2.3517 0.81973-2.5675 1.1601-1.7292 2.7264 0.80662 1.5072 1.8283 1.7897 6.4715 1.7897 5.9274 0 7.626 0.9176 7.626 4.1197 0 2.6348-3.431 3.5229-7.9054 2.0462-1.8416-0.60772-3.7867-0.83417-4.3223-0.50316-1.1299 0.69828-1.3325 8.9737-0.23631 9.6511 0.40564 0.2507 3.3938 0.042 6.6403-0.4631 6.6399-1.0337 8.6081-0.2763 7.806 3.0039-0.88187 3.6065-2.0237 4.2436-7.1858 4.0093-2.7048-0.1228-6.898 0.022-9.3183 0.3212-2.4203 0.2994-5.0599 0.3582-5.8658 0.1309zm-39.156-1.6245c-1.2937-0.9459-1.3879-2.4971-0.83311-13.707 0.34412-6.9522 1.0486-13.15 1.5655-13.773 1.589-1.9146 4.9134-1.2643 8.1746 1.5991 1.711 1.5023 3.111 3.1318 3.111 3.6209 0 0.48917 2.0743 3.284 4.6098 6.2105l4.6097 5.3211 0.704-3.8815c0.38725-2.1347 0.47271-5.8802 0.18993-8.3231-0.62928-5.4364 0.0528-7.4439 2.5224-7.4263 4.1334 0.0299 4.4315 0.911 4.2151 12.463-0.23059 12.308-1.185 17.106-3.5526 17.857-3.6744 1.1661-8.7771-2.9551-12.367-9.9881-2.0066-3.9318-4.8937-6.6382-6.2118-5.8236-0.60411 0.37343-0.94401 3.068-0.87122 6.9071 0.066 3.4622 0.0904 6.9418 0.0546 7.7325-0.0819 1.8256-3.9888 2.6251-5.9217 1.2117zm109.51 0.2602c-0.1926-0.5781 0.016-3.1751 0.4629-5.7713 0.4473-2.596 0.5976-4.9359 0.3339-5.1995-0.2636-0.26359-1.3876 0.15692-2.4978 0.9345-1.5891 1.1131-3.2393 1.2941-7.7579 0.85098-3.1566-0.30953-6.4324-0.91927-7.2795-1.355-2.2659-1.1654-1.9805-5.0074 0.44-5.9252 2.7466-1.0414 14.687 0.16176 15.556 1.5675 1.2709 2.0564 1.9583-1.7284 1.3485-7.4236-0.6213-5.8009 0.5864-8.3114 3.9982-8.3114 3.1236 0 4.4006 2.4235 4.4006 8.3519 0 8.0194 0.242 8.3702 5.7734 8.3702 2.5878 0 5.7139-0.4596 6.9467-1.0214 2.0808-0.94806 2.2418-1.449 2.2418-6.978 0-6.7735 1.1982-8.7227 5.3624-8.7227 3.6039 0 4.8972 2.9335 3.587 8.1369-0.5714 2.2688-0.7493 6.9269-0.4347 11.384 0.7021 9.9497 0.096 12.362-3.017 11.999-2.2405-0.2614-3.7722-2.1726-4.9818-6.2163-0.3556-1.1889-1.4206-1.5391-4.6688-1.5353-6.7326 0.01-10.809 1.462-10.809 3.8557 0 3.1421-8.0623 5.8365-9.0048 3.0094zm48.016-1.1133c-4.1811-1.8187-5.7799-4.9532-6.2482-12.25-0.4957-7.7247 0.7917-10.776 6.2134-14.726 4.2997-3.1328 7.4348-3.1329 15.657-7e-4 4.1751 1.5905 5.1932 2.4412 6.8208 5.7004 1.0524 2.107 1.9133 4.8894 1.9133 6.183 0 6.1033-5.5332 12.458-13.089 15.033-4.8095 1.6387-7.6046 1.6538-11.268 0.061zm10.12-6.7146c2.6869-0.9367 6.3157-5.5119 6.3157-7.9628 0-0.6776-1.0044-2.7101-2.232-4.5167-1.9149-2.818-2.7037-3.2846-5.5525-3.2846-4.1398 0-5.8143 1.289-7.1495 5.5038-1.7249 5.4448 0.4903 11.218 4.3042 11.218 0.8613 0 2.8027-0.4311 4.3141-0.9579zm-429.58 118.06c-3.9386-0.7832-6.7543-3.2359-10.957-9.5451-1.7051-2.5594-4.1976-5.2209-5.539-5.9146s-3.8594-3.1541-5.5957-5.4677c-2.9361-3.9125-17.85-18.938-26.955-27.156-2.1783-1.9663-8.9111-8.84-14.962-15.275s-11.978-12.546-13.171-13.581c-1.1932-1.0344-5.6835-5.4453-9.9785-9.8018-4.295-4.3565-9.2469-9.3072-11.004-11.001-1.7574-1.6942-8.0765-7.831-14.042-13.638-5.966-5.8063-12.107-11.153-13.647-11.881-3.831-1.812-7.9334-11.738-7.2522-17.548 0.87453-7.458 5.4287-15.801 12.043-22.062 3.3241-3.1464 7.5842-6.8592 9.4668-8.2508s7.716-7.1209 12.963-12.732c16.535-17.682 86.148-86.676 91.062-90.252 6.8419-4.9784 11.524-5.9755 18.701-3.9828 2.8095 0.78008 8.7487 6.2926 33.657 31.239 16.635 16.66 30.809 30.292 31.498 30.292 1.695 0 7.1932-6.3797 13.204-15.321 2.7289-4.0593 5.5866-7.8991 6.3504-8.533s2.7748-3.348 4.469-6.0313c1.6942-2.6833 4.6013-6.463 6.4604-8.3992 1.859-1.9362 5.0863-6.0802 7.1717-9.2087 3.8517-5.7784 8.0303-9.3344 12.1-10.297 1.2389-0.29311 2.8466-1.0344 3.5727-1.6474 2.684-2.2657 9.4282-5.5673 14.215-6.959 3.9624-1.1519 5.3788-1.2281 7.2215-0.3885 4.1191 1.8768 3.9982 6.5725-0.19123 7.4274-9.1006 1.8571-14.615 4.1167-19.595 8.0297-4.8708 3.8267-12.566 12.199-19.919 21.672-1.5769 2.0315-5.7355 7.0201-9.2412 11.086-3.5057 4.0657-7.5622 9.0911-9.0143 11.168-1.4522 2.0764-4.3235 5.8154-6.3808 8.3088-2.0573 2.4934-3.7405 5.0503-3.7405 5.6821 0 0.63174 2.4125 3.4675 5.3611 6.3018 22.704 21.823 56.267 56.258 59.299 60.841 2.0728 3.1321 2.3848 4.3559 2.013 7.8939-0.24203 2.3029-1.3143 6.4724-2.3828 9.2655-1.6014 4.1861-2.5486 5.3875-5.3915 6.8378-3.3067 1.687-19.267 16.362-26.728 24.575-1.962 2.1599-4.5001 4.7342-5.64 5.7207-1.14 0.9866-2.7242 2.4995-3.5204 3.3621s-6.9732 7.0014-13.727 13.642c-6.7533 6.6403-14.08 14.038-16.282 16.439-3.2603 3.5553-13.232 13.494-38.768 38.638-0.72609 0.7149-3.1024 3.327-5.2807 5.8046-2.1783 2.4775-6.1233 5.9244-8.7668 7.6596-3.9518 2.5941-5.5166 3.1215-8.8011 2.9667-2.1971-0.1036-4.5888-0.2116-5.3149-0.24-0.72609-0.028-2.3103 0.1677-3.5204 0.4359s-3.6941 0.1905-5.5198-0.1725zm14.506-8.4613c3.0847-1.0511 6.4983-3.8052 14.679-11.843 6.3467-6.2361 10.659-11.162 10.659-12.177 0-1.0858 0.80272-1.9049 2.2141-2.2591 3.215-0.8069 97.548-95.169 98.796-98.827 0.82646-2.4214 0.6865-3.2289-0.99168-5.7207-1.573-2.3356-2.7196-3.0057-5.8807-3.4364-3.3072-0.45053-4.6556-0.12489-8.5473 2.0643-2.5413 1.4296-4.6206 2.8868-4.6206 3.2382s-3.3874 3.977-7.5277 8.057c-4.1402 4.0799-12.952 12.935-19.582 19.678-6.6301 6.7431-13.798 13.872-15.929 15.842-2.131 1.97-16.241 15.859-31.356 30.865-15.115 15.006-28.223 28.015-29.13 28.91-6.0204 5.943-10.948 11.362-11.829 13.006-1.6726 3.1252-1.4039 10.107 0.46848 12.176 1.9496 2.1544 3.3054 2.2215 8.5777 0.4251zm-18.506-20.824c-0.5728-0.5728-1.0415-2.212-1.0415-3.6427s-0.99013-3.8994-2.2003-5.486-2.2003-3.2516-2.2003-3.6999c0-0.4484-1.2406-3.2207-2.757-6.1608-1.5163-2.9402-2.5189-5.9662-2.2279-6.7245 0.80895-2.1082 3.7848-1.6467 6.7168 1.0415 2.5642 2.3509 10.59 16.983 10.59 19.307 0 2.9102 3.3706 0.088 17.238-14.43 8.1875-8.5723 17.263-17.772 20.167-20.444 2.9044-2.6718 11.714-11.203 19.576-18.958s14.992-14.772 15.842-15.592 5.2791-5.1773 9.8415-9.6812c24.219-23.909 30.888-30.402 33.395-32.511 2.4073-2.0258 2.7557-2.8724 2.7557-6.6959v-4.377l-21.466-21.688c-13.467-13.606-22.106-21.688-23.185-21.688-0.98527 0-3.3267 1.9059-5.4828 4.463l-3.7632 4.463 1.6015 2.9738c1.5138 2.8109 1.5189 3.0652 0.0929 4.6409-0.82975 0.91681-3.7197 2.1618-6.4222 2.7666-3.4203 0.76544-5.8774 2.0087-8.085 4.091-3.5265 3.3263-7.832 4.5615-10.648 3.0547-2.6956-1.4427-2.2941-3.6745 1.6158-8.9824 1.9078-2.5899 4.3831-6.0198 5.5007-7.6218 3.6455-5.226 4.2979-5.6618 7.6838-5.1324 2.9992 0.46893 3.3484 0.24159 7.3298-4.7729 2.2993-2.8959 4.1805-5.9036 4.1805-6.6838 0-0.78013-2.5978-3.8403-5.773-6.8002-3.1751-2.9599-12.727-12.214-21.226-20.564-14.696-14.438-15.622-15.182-18.898-15.182-7.2361 0-5.0444-1.8898-53.264 45.925-8.6312 8.5588-16.498 16.48-17.482 17.602-0.9841 1.1224-4.5485 4.6783-7.921 7.9019-7.8315 7.4858-23.311 23.396-25.551 26.263-0.9457 1.2102-4.0825 4.1805-6.9706 6.6008-7.3459 6.156-14.645 13.752-14.277 14.857 0.17032 0.511 2.4592 1.7731 5.0863 2.8046 8.4442 3.3156 24.045 11.076 27.219 13.54 1.6942 1.3149 3.676 2.6047 4.4039 2.8662 0.72795 0.2616 3.5726 2.3076 6.3214 4.5469 2.7488 2.2391 5.2806 4.0712 5.6261 4.0712 0.87202 0 9.4152 7.9634 10.492 9.78 0.48406 0.8166 2.9027 3.0097 5.3748 4.8735 7.5724 5.7091 23.651 25.754 22.803 28.427-1.2469 3.9286-6.6239 3.0203-9.3945-1.5869-2.665-4.4317-10.319-13.21-19.286-22.118-9.7194-9.6561-14.42-13.515-24.141-19.816-4.3565-2.824-9.5052-6.2026-11.441-7.5079-5.3048-3.5764-14.658-8-16.221-7.6715-0.90314 0.1898 3.3082 4.8485 12.164 13.456 7.4498 7.2409 16.361 16.099 19.802 19.685 5.1883 5.4056 27.142 27.349 52.88 52.857 2.8919 2.8659 5.4398 5.0289 5.662 4.8067 0.22224-0.2223-0.0646-0.8728-0.63739-1.4456zm-103.26-108.4c1.9594-1.637 30.138-29.617 62.619-62.178 57.857-58 61.382-61.849 59.204-64.667-1.5336-1.9847-7.2734-5.7144-8.7662-5.6964-4.146 0.0501-9.2322 3.85-20.122 15.033-6.3149 6.4852-20.58 20.702-31.699 31.594s-23.819 23.565-28.22 28.164c-4.4015 4.5986-9.7414 9.9585-11.866 11.911-2.125 1.9525-10.968 10.775-19.651 19.606l-15.788 16.056-0.38044 5.2594c-0.49123 6.7913 0.41172 7.8954 6.4568 7.8954 3.9938 0 5.152-0.41982 8.212-2.9764zm1256.8 135.27c0.6353-0.2543 1.3944-0.223 1.6869 0.069 0.2925 0.2925-0.2274 0.5006-1.1551 0.4624-1.0254-0.042-1.2339-0.2509-0.5318-0.5318zm58.252-58.108c-0.7261-0.2654-2.2301-1.3111-3.3423-2.3236s-2.9376-1.8811-4.0565-1.93c-1.1188-0.049-3.1791-0.5199-4.5786-1.0466-1.3994-0.5265-5.0044-1.4407-8.011-2.0314-5.8143-1.1423-7.682-2.5017-8.6241-6.2771-0.4727-1.8945-0.018-2.958 2.3517-5.5001 2.4899-2.6707 4.9943-3.845 16.423-7.7 10.888-3.6729 13.939-4.3901 15.842-3.7249 3.6462 1.2746 3.5484 4.5583-0.2453 8.2353-1.7153 1.6625-3.1186 3.7568-3.1186 4.654 0 2.2981 2.0736 6.0113 4.757 8.5181 3.2161 3.0046 3.0805 6.6504-0.3127 8.4051-2.6491 1.3699-4.7305 1.5817-7.0846 0.7212zm-5.2807-15.66c0-2.4095-1.3672-2.7772-3.7098-0.9975-1.1491 0.8729-1.2647 1.3917-0.4841 2.1723 1.8686 1.8686 4.1939 1.2172 4.1939-1.1748zm-19.996-55.87c-2.1653-0.90959-3.3487-4.2156-2.484-6.9398 0.8966-2.8249 6.1017-4.0792 16.891-4.0704l9.8127 9e-3 -0.2607-7.9289c-0.1434-4.3609-0.6977-9.0439-1.2317-10.407-1.387-3.5388-1.222-4.701 0.9551-6.7292 2.8174-2.6249 7.7596-2.3999 10.462 0.4764 1.9441 2.0691 2.1149 2.9096 1.9224 9.4612-0.6323 21.527-0.9478 23.725-3.5628 24.822-0.8286 0.34773-6.2592 0.729-12.068 0.84737-5.8088 0.11829-12.344 0.45493-14.522 0.74801-2.1782 0.29307-4.8397 0.16352-5.9144-0.28789zm-401.17-28.541c-1.1913-1.8181-1.314-4.4272-0.8589-18.262 0.2921-8.8776 0.7451-17 1.0068-18.049 0.7227-2.8979-2.359-4.231-6.5427-2.8302-4.3792 1.4663-6.2971 1.2271-7.8416-0.9778-0.9679-1.382-1.5839-1.6093-2.4385-0.9-1.8652 1.548-2.1564 5.2097-1.1731 14.748 0.8151 7.9047 0.7514 9.2836-0.5184 11.221-1.9112 2.9169-4.4867 2.7934-7.3974-0.35469-1.852-2.0031-3.4296-2.693-7.2112-3.1533-4.4228-0.53828-5.0033-0.40186-6.7249 1.5803-1.3782 1.5868-2.4938 2.053-4.1536 1.7356-3.9561-0.75619-4.4601-2.307-4.7614-14.649-0.318-13.019 0.4335-15.767 4.4384-16.232 1.9351-0.22452 2.579 0.19371 3.3269 2.1608 0.5101 1.3416 0.682 3.8918 0.382 5.6674-0.3433 2.0323-0.059 4.3916 0.7667 6.3685 1.06 2.537 2.0094 3.328 4.9423 4.1178 6.8032 1.8319 7.813 0.58017 7.8053-9.675 0-3.1464 0.028-6.2242 0.067-6.8397 0.04-0.61546 1.058-1.5684 2.2636-2.1177 1.7533-0.79888 2.8633-0.6959 5.5473 0.51442 3.2249 1.4542 3.5325 1.4433 7.9058-0.28049 3.7371-1.473 5.3014-1.6509 8.7544-0.99531 2.6547 0.50412 7.6932 0.44762 13.671-0.15314 8.6785-0.8721 9.6134-0.81903 11.221 0.63623 2.1096 1.909 2.2217 3.7762 0.3842 6.3995-1.502 2.1445-6.3278 2.6666-10.386 1.1236-3.6345-1.3818-4.3959 0.54602-3.719 9.4165 0.3231 4.2339 0.5423 8.6881 0.4871 9.8982-0.055 1.2102-0.047 5.839 0.018 10.286 0.1035 7.0863-0.1064 8.3104-1.6972 9.9012-2.4682 2.4683-5.8364 2.332-7.5649-0.30602zm153.6-4.0468c-2.2434-2.0955-2.6956-3.0588-2.1691-4.6206 0.3658-1.0852 0.763-7.9976 0.8827-15.361 0.2545-15.666-0.2182-17.141-4.8756-15.212-2.6837 1.1116-2.9993 1.0542-4.5186-0.82193-2.0331-2.5109-2.0525-3.7755-0.093-6.0748 1.395-1.6369 2.9141-1.864 16.109-2.4079 12.734-0.52481 14.747-0.42227 15.983 0.8141 0.7781 0.77793 1.5962 1.9166 1.8183 2.5303 0.3181 0.87967 0.8471 0.84869 2.4988-0.14619 5.0976-3.0705 7.3839-3.7609 12.868-3.8857 5.5086-0.12533 5.9194 9e-3 7.2155 2.2798 2.6485 4.6497-1.1995 6.6143-9.012 4.601-4.424-1.1401-9.8715 5.7488-8.8458 11.186 0.7887 4.1807 2.5255 5.766 7.4815 6.829 3.5172 0.75425 4.8488 0.67989 6.9099-0.38584 3.3873-1.7518 5.5756-1.6655 7.3446 0.2892 2.4912 2.7528 1.769 4.4799-2.669 6.3823-7.2606 3.1122-10.674 3.1209-16.773 0.0422-8.81-4.4473-11.985-10.258-9.9728-18.25 0.565-2.2439 0.8678-4.2393 0.6729-4.4343-0.1949-0.19494-2.9427-0.59609-6.1061-0.89146-5.3173-0.49656-5.8304-0.3898-6.7957 1.4138-1.0743 2.0073-0.7604 22.422 0.476 30.965 0.4994 3.4509 0.304 4.3611-1.2757 5.9407-2.4974 2.4974-3.7948 2.3556-7.1537-0.78215zm-213.21 0.22654c-1.8959-0.43117-4.1686-4.6055-4.1686-7.6565 0-1.8571-0.4172-2.2469-2.4203-2.261-1.3312-0.01-4.4005-0.52947-6.8208-1.1558-3.5869-0.92825-4.8487-1.805-6.824-4.7416-2.8151-4.1852-3.0958-6.2491-1.5902-11.688 2.0285-7.3276 4.2605-10.234 9.7508-12.698 5.7202-2.5671 9.5049-2.8467 13.133-0.97032 3.1143 1.6104 4.7977 5.8188 3.2011 8.0023-1.0503 1.4363-1.3227 1.4365-5.0753 0-3.5823-1.3681-4.2692-1.3874-7.112-0.19961-3.7942 1.5853-5.6389 4.1943-6.4183 9.0776-0.5272 3.303-0.356 3.8044 1.7758 5.2012 1.8648 1.2219 3.02 1.3781 5.5132 0.74519 4.3256-1.0979 5.7603-3.5874 3.1066-5.3905-1.0891-0.74009-1.9802-2.2238-1.9802-3.2972 0-3.776 8.0948-5.4458 10.974-2.2638 1.4409 1.5921 1.4738 2.2993 0.4111 8.8426-0.8319 5.1229-0.91 8.3077-0.2791 11.387 1.2869 6.282-0.8626 10.044-5.1777 9.0627zm-68.888-9.5601c-0.9853-0.22733-2.8774-1.288-4.2047-2.3572-2.1243-1.711-2.5137-2.8391-3.2534-9.4246-0.462-4.1145-0.7028-12.8-0.535-19.302 0.284-11.001 0.4422-11.932 2.282-13.422 5.2631-4.2618 11.594 0.90537 8.6305 7.0439-0.8371 1.7339-1.0202 5.6523-0.6927 14.828 0.2447 6.8595 0.735 12.76 1.0896 13.113 0.3545 0.35257 3.5249 0.82589 7.0452 1.0518 4.666 0.2995 7.3232 0.0255 9.8042-1.0112 4.2716-1.7848 6.211-1.7943 7.9663-0.0387 1.8053 1.8053 1.7717 5.9999-0.061 7.5204-0.8464 0.7025-3.6672 1.2241-6.8209 1.2616-2.9576 0.0352-8.5458 0.30821-12.418 0.60701-3.8725 0.29871-7.8471 0.35715-8.8325 0.12982zm187.49-2.356c-5.968-2.6361-6.5763-3.0924-7.5551-5.667-1.0265-2.6997-0.3395-5.2344 1.7169-6.3349 1.1191-0.59892 2.6143-0.1336 5.6586 1.7612 4.5324 2.821 8.2269 3.2391 11.889 1.3452 3.7351-1.9315 5.1961-4.1604 5.6731-8.6547 0.4986-4.6978 0.6124-4.5544-6.819-8.596-9.165-4.9845-9.8506-5.4663-11.322-7.9575-2.193-3.7125-1.7658-6.0501 1.7036-9.3222 2.7373-2.5816 3.7314-2.9637 7.701-2.9594 5.3955 9e-3 10.568 1.3038 11.982 3.0064 0.573 0.69036 0.7642 2.2135 0.4399 3.5053-0.6802 2.7103-3.4158 3.0367-7.5466 0.90061-5.1718-2.6744-7.2689 0.84218-2.2971 3.8521 1.5732 0.95245 3.8504 2.0268 5.0606 2.3876 1.2101 0.36067 3.2862 1.4207 4.6134 2.3554 2.2175 1.5618 2.5725 1.5881 4.3764 0.32467 2.9561-2.0706 5.6361-1.6961 7.4813 1.0452 2.201 3.27 4.6515 8.7724 4.6515 10.445 0 0.74994 0.4951 1.1996 1.1002 0.99919 0.605-0.20049 1.4337-2.8226 1.8414-5.827 0.8058-5.938 3.2114-8.7168 6.6116-7.6376 2.1158 0.67153 4.5286 5.5428 4.5286 9.1428 0 5.9382 3.2485 4.2464 6.7262-3.503 1.6568-3.692 2.9265-5.3394 4.4001-5.7092 5.3223-1.3358 6.0181 1.942 2.2053 10.39-1.3806 3.0592-3.4194 7.9384-4.5305 10.843-1.1112 2.9044-2.7401 6.048-3.62 6.9859-1.4504 1.5463-1.8206 1.5873-3.9692 0.44005-1.4404-0.76904-3.0563-2.9162-4.1209-5.4758-0.9631-2.3158-2.1879-4.0681-2.7215-3.894-0.5337 0.174-1.7624 2.4655-2.7306 5.092-2.3218 6.2993-2.8223 6.9732-5.1791 6.9732-3.1496 0-5.4671-3.4238-7.1488-10.561-0.8554-3.6305-2.0394-7.5536-2.631-8.7181-1.0563-2.0789-1.0874-2.0555-1.7156 1.2934-1.3439 7.1633-7.1144 14.414-14.038 17.637-5.489 2.5558-6.8184 2.5658-12.416 0.0933zm-152.93 0.19653c-1.2475-0.74334-1.532-2.0121-1.4297-6.3753 0.07-2.996-0.281-8.3186-0.7804-11.828-1.3087-9.1939-0.1945-12.542 4.1741-12.542 1.6479 0 2.6808 0.63544 3.3226 2.0441 1.1657 2.5581 2.3374 26.191 1.368 27.59-1.0626 1.5329-4.8777 2.1699-6.6546 1.111zm224.34-1.2753c-1.1132-1.1132-1.2576-3.4077-0.8722-13.862 0.5459-14.804 1.2509-17.368 4.7758-17.368 1.3649 0 2.6795 0.32027 2.9214 0.71165 0.242 0.39139 0.6444 4.8688 0.8942 9.9496 0.25 5.0809 0.7079 10.823 1.0178 12.761 0.4798 3.001 0.2131 3.9392-1.8006 6.3324-2.5786 3.0644-4.8617 3.55-6.9364 1.4752zm103.74-0.23077c-2.1784-0.46663-4.8406-2.7521-4.8406-4.1558 0-0.57603-0.7276-1.7058-1.6168-2.5106-2.5734-2.3289-6.9715-1.0225-8.447 2.5089-0.7993 1.9129-2.0052 3.0488-3.6845 3.4703-3.8703 0.97138-5.6045-1.8098-5.6538-9.0668-0.022-3.2138-0.2406-8.7018-0.4862-12.196-0.5273-7.5004 0.42-9.9356 3.8573-9.9162 4.4202 0.0247 4.9817 1.03 5.0067 8.9614l0.023 7.3072 3.1301 0.26298c1.7215 0.14469 4.2303-0.15534 5.5751-0.6666l2.4451-0.92957-0.6071-6.4795c-0.5658-6.0364-0.4746-6.5724 1.3327-7.8383 1.5002-1.0508 2.5192-1.1569 4.4948-0.46822 1.4052 0.48987 2.7415 1.1926 2.9695 1.5616 0.228 0.36894 0.6388 5.7393 0.9127 11.934 0.2739 6.1947 0.8451 11.883 1.2693 12.641 1.5337 2.7408-2.1304 6.34-5.6802 5.5795zm169.86-36.447c-4.0073-1.4409-4.8406-2.4178-4.8406-5.6743 0-2.4236 0.5384-3.3141 2.8603-4.7309 2.5007-1.5258 3.8566-1.6789 10.781-1.2174 4.9663 0.33101 8.8473 0.16537 10.404-0.44419 2.4332-0.95255 2.4713-1.0744 1.8875-6.0306-0.3277-2.7821-1.3463-7.9225-2.2633-11.423-2.0914-7.9826-2.0835-9.2681 0.069-11.216 1.2715-1.1507 2.4962-1.4194 4.5746-1.0037 5.8225 1.1645 9.1831 5.388 5.1305 6.4478-2.694 0.70447-2.099 2.7623 1.262 4.365l3.0221 1.4412-0.3477 10.844c-0.3442 10.728-1.4144 15.046-4.1502 16.744-0.6085 0.37766-5.859 0.97288-11.668 1.3227s-11.353 0.83602-12.322 1.0805c-0.9682 0.24441-2.9484 0.0167-4.4006-0.50492zm-726.28-28.014c-3.1746-1.2774-3.6626-6.3244-2.4426-25.264 0.7748-12.028 0.3579-12.958-4.8433-10.804-4.9459 2.0487-9.926-1.4165-7.8192-5.4406 1.1825-2.2585 3.9356-2.8503 13.539-2.91 4.8406-0.0301 12.014-0.39618 15.941-0.81351 6.6601-0.70779 7.2662-0.63237 9.0211 1.1226 1.7918 1.7917 2.6196 6.1376 1.2213 6.4109-0.3631 0.0709-4.101 0.20009-8.3064 0.28693-9.5218 0.19662-10.718 0.98195-9.9997 6.5632 0.2849 2.2122 0.1485 7.1748-0.3029 11.028-0.7255 6.1934-0.6234 7.3922 0.8803 10.34 1.9722 3.8658 1.516 7.127-1.2701 9.0784-2.0925 1.4657-2.8411 1.5192-5.618 0.40184zm379.96-6.1431c-1.5033-1.5033-1.7602-2.9337-1.7602-9.7998 0-4.4218 0.4662-10.57 1.0359-13.662 1.2436-6.7496 0.4458-8.2874-3.5224-6.7896-3.3564 1.2669-5.9063 0.12489-7.0506-3.1578-0.8184-2.3476-0.7015-2.9983 0.8101-4.5098 1.5592-1.5592 2.9228-1.7656 11.628-1.7594 13.552 0.01 17.751 0.0323 21.082 0.11405 1.5732 0.0385 6.3363-0.38109 10.585-0.93261 7.259-0.94234 7.9631-0.88722 11.686 0.91476 2.2916 1.1093 4.5174 2.9934 5.2811 4.4702 1.9764 3.822-0.3425 11.255-4.6082 14.772-1.7187 1.4167-2.8574 3.0083-2.5307 3.537 0.8606 1.3925 6.026 1.1795 8.023-0.33093 3.574-2.7033 8.3092-1.192 8.3092 2.652 0 2.9747-2.8511 4.8146-9.053 5.8423-5.0059 0.82952-6.4799 0.72205-11.622-0.84741-5.3442-1.6312-6.172-1.679-8.9536-0.51678-3.4698 1.4498-6.1382 0.95137-6.846-1.2787-0.2638-0.83136 0.1042-4.8326 0.8178-8.8917 0.7137-4.0591 1.0605-8.3251 0.7706-9.4799-0.5051-2.0126-0.8049-2.0892-7.2206-1.8446-8.8286 0.33656-9.2325 1.0127-8.5657 14.337 0.2665 5.3247 0.7302 10.56 1.0306 11.634 0.4042 1.4447-0.1477 2.6464-2.1218 4.6206-3.1195 3.1195-4.7827 3.3291-7.204 0.90782zm39.537-25.161c4.167-3.5063 3.4268-6.526-1.9291-7.8703-3.5764-0.89762-4.8585 0.64739-4.5998 5.5429 0.1211 2.2912 0.2686 4.2648 0.3279 4.3858 0.4748 0.96945 3.9889-0.1971 6.201-2.0585zm-172.43 17.147c-1.6942-0.45735-4.8626-1.0243-7.0409-1.26-5.3872-0.58273-8.1305-3.6008-7.4165-8.1596 0.784-5.0059 0.7702-17.554-0.026-24.142-0.6543-5.4096-0.5376-6.1939 1.326-8.9137 1.8224-2.6596 2.5731-3.0276 6.9406-3.4025 9.7585-0.83754 15.018 1.2318 15.018 5.9085 0 2.8621-1.3453 3.5381-7.0409 3.5381h-4.8406v7.0409l6.1607 0.57075c3.3885 0.31391 7.6951 0.24596 9.5703-0.15098 2.9551-0.62554 3.6882-0.44304 5.5007 1.3695 2.4392 2.4392 2.507 2.9929 0.8514 6.9553-1.6502 3.9495-4.3693 4.7559-7.7095 2.2864-1.4232-1.0522-4.5846-2.5061-7.0255-3.231-4.0974-1.2168-4.5693-1.1991-6.1494 0.23091-1.4243 1.289-1.6684 2.5172-1.4551 7.3203l0.2564 5.7714 8.4677-0.19012c4.6572-0.10456 10.012-0.53708 11.899-0.96116 4.8685-1.0939 7.3564 0.19746 7.3564 3.8183 0 1.561-0.495 3.2457-1.1001 3.7438-0.6051 0.49814-4.6646 1.1014-9.0211 1.3407-4.3566 0.23924-8.7131 0.64037-9.6812 0.89141-0.9682 0.25104-3.1464 0.0822-4.8406-0.37511zm55.007 0.0932c-1.4522-0.36952-6.2048-0.7313-10.561-0.80397-11.769-0.19631-11.982-0.51575-12.224-18.316-0.085-6.3118 0.1445-7.4803 1.7967-9.1311 4.034-4.0307 9.8425-1.2999 8.6091 4.0476-0.9314 4.0384-0.58 12.783 0.5692 14.168 0.7199 0.86733 3.0836 1.2339 7.9571 1.2339 5.7597 0 7.2311 0.29792 8.6934 1.7602 0.9681 0.96812 1.7602 2.2796 1.7602 2.9144 0 0.98835-3.2432 5.2004-3.7748 4.9024-0.1021-0.0573-1.3739-0.40647-2.826-0.77598zm-479.66-1.0644c-3.6556-1.2813-5.7207-3.2656-5.7207-5.4968 0-3.8013 4.0148-5.2344 7.4291-2.652 0.9397 0.7107 2.3558 1.2922 3.147 1.2922 1.5968 0 5.2659-3.5211 5.2659-5.0535 0-1.7929-4.3301-4.4173-8.2607-5.0067-3.9238-0.58841-4.28-0.98272-6.1018-6.7537-0.24528-0.777 0.52525-2.4592 1.7133-3.7405 1.9515-2.1045 2.7718-2.3285 8.5285-2.3285 7.8234 0 10.281 1.3672 10.281 5.7187 0 1.6382-0.40899 3.2313-0.9088 3.5402-0.57577 0.35581-0.25312 1.6226 0.88011 3.4562 2.4062 3.8933 2.2099 7.2801-0.66061 11.396-4.0485 5.8043-9.4889 7.7682-15.593 5.6288zm90.224-0.67171c-0.5403-1.0096-0.9461-4.2993-0.9017-7.3106 0.044-3.0113-0.1729-7.5691-0.4826-10.129-0.7363-6.0853-0.062-8.4532 2.7717-9.7447 4.9713-2.2651 6.7659 0.58328 6.299 9.9976l-0.2183 4.4006 4.6305 0.26637c5.6073 0.32256 6.1934-0.57866 4.7042-7.2334-1.3404-5.9893-0.7084-7.5548 3.0501-7.5548 3.7602 0 5.0004 2.1415 5.3518 9.2412 0.1437 2.9044 0.513 7.7006 0.8205 10.658 0.6954 6.6891-0.4622 9.3712-3.8745 8.977-1.7264-0.19945-2.7947-1.1604-3.9744-3.5748-2.7953-5.7205-9.8671-5.4521-10.429 0.39584-0.2549 2.6533-0.5614 2.9297-3.522 3.1759-2.5515 0.21222-3.4523-0.12157-4.2253-1.5658zm43.061 0.9016c-4.026-1.2216-5.9179-2.6083-7.8715-5.7694-1.6183-2.6183-1.8216-3.8289-1.2957-7.7121 0.7814-5.7698 2.1498-8.4673 6.0177-11.863 5.4626-4.7961 11.222-5.5627 18.61-2.4772 3.9163 1.6355 7.7283 9.0803 7.5985 14.84-0.1205 5.3518-2.1194 7.8302-9.2116 11.421-4.7738 2.4172-9.3322 2.931-13.848 1.5609zm10.13-7.452c7.3018-3.0509 6.1627-13.137-1.7068-15.112-5.1299-1.2875-8.0009 2.0313-8.9975 10.401-0.4513 3.7903-0.3072 4.2397 1.6051 5.0048 3.029 1.212 5.7025 1.1257 9.0992-0.29349zm353.41 7.6514c-3.3948-0.33961-7.8952-1.9055-7.9666-2.772-0.025-0.30431-0.1863-6.2518-0.3584-13.217-0.3043-12.32-0.2568-12.719 1.7559-14.732 1.7947-1.7947 2.6287-1.9974 6.2991-1.5306 8.1265 1.0335 10.922 3.7524 7.4383 7.2356-2.2108 2.2109-1.6155 2.7678 2.9584 2.7678 4.3446 0 6.158 2.4176 4.5309 6.0409-0.8608 1.9169-1.2957 2.0379-5.5364 1.5395-5.9021-0.69367-9.1212 0.46799-9.1212 3.2915 0 3.5453 1.9568 4.3848 8.6773 3.7226 7.1029-0.6999 10.685 0.46722 10.685 3.4813 0 1.0732-0.495 2.3416-1.1001 2.8188-1.2016 0.94754-13.332 1.8463-18.262 1.3531zm-560.61-1.9828c-0.95579-0.95581-1.9965-2.837-2.3128-4.1805-0.56467-2.3987-2.8193-8.4548-5.251-14.104-0.67715-1.5732-1.563-2.8604-1.9686-2.8604-0.88627 0-3.871 6.552-5.9822 13.132-0.84195 2.6241-2.2552 5.4955-3.1405 6.3808-2.7318 2.7318-8.6132 1.7497-9.9203-1.6566-0.32817-0.85522-1.1486-5.2316-1.8232-9.7252-0.67457-4.4936-2.2504-10.452-3.5018-13.24-1.2514-2.7885-2.3588-6.7842-2.4609-8.8793-0.1538-3.1567 0.13183-3.9304 1.6674-4.5162 4.638-1.7696 7.7829 2.5207 10.984 14.984 1.0567 4.1145 2.2273 7.8203 2.6013 8.2351 1.4324 1.5886 3.643-4.0366 4.777-12.156 1.3117-9.3918 2.1771-11.041 5.793-11.041 3.2785 0 4.7421 1.6281 6.067 6.7493 0.60508 2.3386 1.8538 6.1077 2.7748 8.3757 0.92104 2.268 1.6746 4.8621 1.6746 5.7647 0 1.6867 1.5573 3.7533 2.8283 3.7533 1.412 0 5.0929-9.6206 5.1137-13.365 0.029-5.2502 1.3829-10.601 2.9775-11.767 1.516-1.1086 6.4258-0.63869 7.2493 0.69378 0.89895 1.4546-2.1703 14.67-5.369 23.118-1.0997 2.9044-2.7216 7.794-3.604 10.866-1.2281 4.2747-2.0956 5.7718-3.6972 6.3808-2.9442 1.1194-3.5123 1.0216-5.4761-0.94221zm28.529 0.48089c-1.8672-1.3738-2.0001-0.74934 2.7288-12.825 0.66342-1.6942 1.2237-5.527 1.2449-8.5172 0.0335-4.7735 0.31596-5.6549 2.3115-7.2246 3.324-2.6147 5.2581-2.9882 8.0244-1.5497 1.995 1.0374 3.2612 3.3 6.6494 11.882 4.3465 11.009 5.4285 17.279 3.2231 18.675-2.0711 1.3109-3.3333 0.94115-6.2266-1.8238-1.8006-1.7207-3.6731-2.6403-5.3765-2.6403-1.6491 0-3.7235 0.97445-5.6208 2.6403-3.3798 2.9675-4.5019 3.1906-6.9582 1.3834zm15.031-11.972c0.30848-0.49921-0.21818-2.1381-1.1704-3.642l-1.7313-2.7344-0.6078 2.1019c-0.33427 1.156-0.80108 2.795-1.0373 3.6421-0.32678 1.1717 0.0987 1.5402 1.7781 1.5402 1.2142 0 2.4601-0.40845 2.7686-0.90768zm77.217 11.919c-1.571-0.68279-3.8636-2.2488-5.0948-3.4801-1.8649-1.8649-2.0764-2.5419-1.2669-4.0545 1.4702-2.747 3.0867-2.9522 7.2772-0.92353 5.5125 2.6686 7.8743 2.3995 11.09-1.2635 3.0895-3.5188 3.388-6.014 1.2545-10.488-1.1302-2.3698-2.4222-3.4328-5.5007-4.5256-2.213-0.78555-5.0373-1.7982-6.2762-2.2505-1.239-0.45222-2.9157-1.9447-3.7261-3.3165-1.4106-2.388-1.3889-2.6209 0.51-5.4634 3.0245-4.5277 7.031-6.1793 13.39-5.5195 6.3212 0.65594 9.2412 2.2684 9.2412 5.1033 0 3.2905-1.8507 4.2378-6.2829 3.2158-7.4866-1.7262-8.0867-0.7512-1.7038 2.7684 4.6567 2.5678 8.2982 6.7574 9.2041 10.59 1.5974 6.757-2.9513 15.373-9.9977 18.938-4.4664 2.2596-8.0101 2.4555-12.118 0.66992zm469.54 0.058c-6.0785-2.1694-7.4996-3.6207-8.5634-8.7456-1.5409-7.4225 0.827-13.976 6.7153-18.585 4.0539-3.1735 8.0193-3.3273 13.788-0.53463 4.6271 2.2399 5.3658 3.5527 3.499 6.218-1.402 2.0015-1.3978 2.0014-9.1417 0.34617-5.3934-1.1528-9.6186 10.034-5.0092 13.263 2.7412 1.92 7.3434 1.7049 10.301-0.48136 3.0562-2.2595 5.9866-1.6077 6.768 1.5055 1.5013 5.982-9.4859 10.181-18.357 7.0146zm119.91 0.40099c-0.7261-0.51109-2.9857-1.3633-5.0214-1.8938-6.4261-1.6746-7.9718-6.5296-5.6193-17.65 0.8633-4.0812 1.6318-5.432 4.2078-7.3969 4.4956-3.429 9.7917-4.2306 15.409-2.3324 3.033 1.025 4.7299 2.158 5.2052 3.4757 1.0369 2.8746-1.3593 4.9657-4.8621 4.243-7.4223-1.5314-8.0088-1.5092-10.43 0.39486-2.0856 1.6406-2.4101 2.5244-2.4101 6.5648 0 6.0116 1.2537 7.0848 8.2762 7.0848 4.2104 0 5.9382-0.43016 8.0262-1.9982 2.0583-1.5458 3.3143-1.8675 5.5475-1.4208 2.6022 0.52045 2.8606 0.8476 2.6199 3.3183-0.2306 2.3698-0.9648 3.0898-5.4214 5.3167-5.4925 2.7446-13.258 3.8916-15.528 2.2937zm-27.178-3.3519c-0.5309-0.99188-0.5257-2.1182 0.014-3.0828 0.558-0.99713 0.4884-3.8859-0.2025-8.3989-1.128-7.3684-0.6299-12.552 1.3652-14.208 1.7503-1.4526 6.6534-1.4188 7.6113 0.0524 0.4428 0.68005 0.504 2.2266 0.1362 3.4367-0.3679 1.2102-0.6689 6.6684-0.6689 12.129 0 10.782-0.3515 11.594-5.0296 11.62-1.3985 8e-3 -2.7363-0.63466-3.2258-1.5494zm-450.48-64.463c-2.5262-1.0165-3.2064-3.9044-2.0754-8.8122 1.2442-5.4 1.0585-19.983-0.3025-23.734-1.0948-3.0181-1.2166-3.0804-6.0202-3.0804-2.6965 0-5.1834-0.28054-5.5264-0.62341-0.9318-0.93149-0.7522-5.1008 0.2635-6.1165 0.5014-0.50141 7.4146-1.0176 15.9-1.1873 16.414-0.32815 17.256-0.0978 16.721 4.5735l-0.2837 2.4735-13.902-0.51544 0.5534 5.9784c0.3044 3.2881 0.8193 10.052 1.1444 15.031 0.325 4.9787 0.9265 9.2596 1.3367 9.5131 1.3664 0.84449 0.7699 3.0532-1.4144 5.2376-2.3065 2.3064-3.3086 2.5042-6.3946 1.2625zm-128.3-8.855c-10.925-3.6191-15.006-11.219-12.844-23.914 1.3411-7.8747 3.9666-13.24 7.9928-16.335 9.1757-7.052 11.609-7.6803 18.911-4.8819 4.3972 1.6853 6.9244 4.6494 6.0057 7.0437-0.5599 1.459-4.0248 1.5415-7.7755 0.1852-3.8872-1.4056-6.9208-0.40112-11.48 3.8012-2.9206 2.6921-4.2714 4.8235-5.3006 8.3637-4.1039 14.117 6.8191 23.892 20.009 17.907 2.1102-0.95749 4.7277-1.7496 5.8168-1.7602 1.0892-0.0107 2.0306-0.31637 2.0922-0.67941 0.062-0.36305 0.3587-5.0086 0.6601-10.323 0.5425-9.5648 0.573-9.672 2.9823-10.516 1.8675-0.65422 2.7484-0.53843 3.7843 0.49741 1.4464 1.4465 1.5232 2.3983 0.7195 8.9217-0.3364 2.73-0.1401 4.6566 0.5604 5.5007 1.3082 1.5762 7.9836 1.7471 9.4878 0.24298 0.6231-0.6231 1.0561-3.6182 1.0561-7.3049 0-3.6867 0.433-6.6818 1.0561-7.3049 1.2689-1.2688 4.7901-1.397 5.5293-0.20115 0.2906 0.47024 0.6303 6.6377 0.755 13.705 0.1916 10.865 0.016 12.961-1.1366 13.563-1.7432 0.91093-4.9189-0.27574-5.6188-2.0996-0.7715-2.0106-4.7065-3.2729-8.1745-2.6223-2.3811 0.44668-2.9718 0.97138-2.9718 2.6396 0 1.251-0.8804 2.6589-2.2055 3.5271-1.8303 1.1993-2.6372 1.2662-4.7444 0.3934-2.154-0.89222-3.0638-0.78392-6.0005 0.71423-5.2351 2.6707-12.814 3.0412-19.166 0.93678zm210.34-0.91572c-1.4522-0.46977-5.7386-1.6634-9.5254-2.6526-6.3347-1.6548-7.1084-1.69-9.6812-0.44147-2.3454 1.1383-3.0799 1.1697-4.5564 0.19519-1.4458-0.95431-1.8936-2.6368-2.5065-9.4192-1.2018-13.298-1.0801-16.36 0.7298-18.36 3.9388-4.3523 15.561-4.5372 19.966-0.31765 2.2548 2.1603 2.4936 2.9567 2.4936 8.3176 0 5.1014-0.3195 6.3082-2.2894 8.6494-1.2592 1.4965-2.085 3.2538-1.8351 3.9051 0.5871 1.5299 8.0698 2.3773 11.238 1.2727 3.7833-1.3189 7.2231-0.57312 8.4117 1.8236 1.3226 2.6672 0.7142 4.2475-2.2106 5.7412-3.4549 1.7645-7.2732 2.2444-10.235 1.2865zm-13.838-16.225c2.8661-2.0075 2.7344-7.1141-0.2181-8.4594-3.1465-1.4336-4.8667 0.31596-4.8667 4.95 0 5.2167 1.3335 6.137 5.0848 3.5094zm-133.37 15.699c-5.7555-0.53592-6.3644-2.0867-6.7712-17.247-0.268-9.9852-0.083-13.035 0.8384-13.799 0.844-0.70047 3.7648-0.74747 10.206-0.16424 9.551 0.8649 11.652 1.941 10.724 5.491-0.6077 2.324-3.3753 2.8812-8.5506 1.7214-4.533-1.0159-6.4176-0.32093-5.5143 2.0332 0.3869 1.0082 1.7011 1.1861 6.1322 0.83045 3.3023-0.26508 6.384-0.0544 7.4355 0.50835 2.5352 1.3568 3.0289 4.1778 1.1397 6.5109l-1.593 1.9672-3.506-1.9704c-3.4481-1.938-9.3368-2.6604-10.207-1.2522-0.4525 0.7321 1.1021 5.8695 2.3794 7.8628 0.8567 1.3371 10.776 1.4507 16.258 0.18623 4.5213-1.0429 7.2323 0.0565 7.2125 2.9251-0.028 4.0648-0.9701 4.4248-12.008 4.5901-5.7318 0.0858-12.111-8.8e-4 -14.175-0.1935zm36.619-0.22474c-3.6276-1.0959-7.7367-3.7723-8.2436-5.3694-1.3001-4.0964 2.3727-5.8547 7.023-3.3622 5.5357 2.967 9.2802 1.8251 9.2802-2.8299 0-3.0916-4.0097-6.5103-8.4994-7.2468-1.8602-0.30514-4.528-1.4786-5.9286-2.6076-2.2581-1.8204-2.45-2.3446-1.6952-4.6314 0.9845-2.9823 4.2808-4.8507 9.6193-5.4524 3.1762-0.358 4.0786-0.0715 6.0811 1.9311 1.752 1.7519 2.2148 2.8964 1.8152 4.4887-0.3992 1.5904 0.2763 3.2684 2.64 6.5586 5.621 7.8241 4.8282 13.873-2.2758 17.363-4.2107 2.0686-6.0755 2.2887-9.8162 1.1587zm-193.22-1.2336c-4.5945-1.2301-8.7364-5.1066-9.435-8.8302-0.70224-3.7434 0.82282-11.508 2.7665-14.085 3.0058-3.9849 6.8888-5.7977 12.419-5.7977 6.0656 0 10.407 1.3193 11.585 3.5206 1.3723 2.5642-0.93301 3.5578-8.8044 3.795-6.6891 0.20156-7.3942 0.40251-9.3368 2.661-1.1558 1.3437-2.1014 3.4307-2.1014 4.6379 0 2.8284 2.1712 7.0198 3.9999 7.7216 3.1905 1.2243 8.4674 0.51107 11.509-1.5555 5.1409-3.4934 8.734-1.32 6.133 3.7097-2.0887 4.0391-11.498 6.1596-18.734 4.2221zm258.75 0.39214c-5.5943-0.31206-9.4112-0.93305-10.121-1.6467-0.6285-0.63158-1.1969-3.3963-1.2667-6.1608-0.07-2.7583-0.5156-7.8563-0.9909-11.329-1.0614-7.754-0.5862-10.556 2.087-12.308 2.7369-1.7933 10.395-0.81788 12.849 1.6368 1.6413 1.6414 1.7024 2.7376 0.3356 6.029-0.4362 1.0504 0.3023 1.5581 3.2006 2.2003 2.8404 0.62933 3.8332 1.2951 4.0344 2.7053 0.4413 3.0932-2.1729 4.9347-6.0704 4.2762-4.8536-0.82001-6.958 0.0805-6.958 2.9777 0 3.7408 1.4773 4.5173 8.5949 4.5173 3.5655 0 7.2487 0.40998 8.185 0.91107 3.3652 1.801 1.0232 7.1831-2.981 6.8508-1.0546-0.0875-5.959-0.38454-10.899-0.66008zm-342.39-2.0412c-2.0988-2.265-3.2008-6.0641-4.6589-16.062-1.164-7.9811-2.2694-10.171-3.8976-7.7202-1.6056 2.4166-3.9926 9.2859-5.7964 16.681-0.90255 3.7002-2.1541 7.0635-2.7813 7.4741-0.62714 0.41058-2.5042 0.64314-4.1713 0.5168-2.7825-0.21086-3.2634-0.69891-5.8639-5.9504-1.9215-3.8804-3.1648-8.1272-3.865-13.202-0.56768-4.1145-1.7904-9.1085-2.7172-11.098-0.92677-1.9893-1.685-4.4363-1.685-5.4378 0-2.5446 2.3185-4.587 5.2071-4.587 4.2321 0 5.1241 1.7359 8.4996 16.541 0.88411 3.8776 1.8579 6.2884 2.4595 6.0885 1.0933-0.3633 4.5646-10.548 5.4047-15.857 0.83018-5.2466 4.7834-8.1723 8.153-6.0338 1.2329 0.78244 5.5078 12.281 7.2212 19.423 1.4964 6.2376 2.8654 4.7979 5.3397-5.6153 2.4691-10.391 4.863-14.886 8.13-15.265 3.9662-0.46034 4.4721 2.7275 1.4023 8.8351-1.392 2.7696-2.5349 5.9379-2.5396 7.0409-4e-3 1.1029-0.92943 3.9856-2.0549 6.4059-1.1666 2.5088-2.2887 7.049-2.6101 10.561-0.4384 4.7906-0.98178 6.5033-2.4432 7.701-2.5257 2.0699-4.5284 1.939-6.7329-0.44006zm42.189 0.92412c-0.58087-0.58087-1.0561-1.9569-1.0561-3.0578 0-1.3264-0.87595-2.4546-2.5966-3.3444-4.2048-2.1744-6.9592-1.7009-10.109 1.7376-5.8558 6.3931-10.672 2.7732-7.838-5.8912 1.2632-3.8622 1.3107-5.202 0.35467-10.012-1.205-6.0624-0.99799-6.9677 1.758-7.6884 3.3834-0.88479 5.2291 2.1747 5.2291 8.6681v5.7593l12.762-0.51717 0.44005-6.6008 0.44006-6.6008h3.0685c4.2732 0 5.7675 3.0548 4.3154 8.8218-0.60482 2.402-0.81236 6.636-0.50498 10.302 0.29534 3.5229 0.14381 6.9308-0.34916 7.852-0.98464 1.8398-4.3227 2.1623-5.9137 0.57134zm67.747-0.43266c-1.2366-2.336-1.2859-23.991-0.0581-25.471 0.54954-0.66215 2.3496-1.2039 4.0002-1.2039h3.001l-0.24837 6.8098-0.24845 6.8098 5.5342 0.75244c8.1734 1.1113 8.3724 0.93408 7.6467-6.8093-0.59266-6.3247-0.54426-6.5602 1.6422-7.9928 2.8429-1.8628 5.6766-1.0448 6.4027 1.8482 0.30109 1.1995 0.31983 7.0148 0.0423 12.923-0.45194 9.6013-0.70717 10.906-2.403 12.282-3.4827 2.8269-6.4998 1.6146-7.1189-2.8604-0.28613-2.0687-0.62022-2.2003-5.585-2.2003h-5.2807l-0.44006 3.0804c-0.38672 2.707-0.77969 3.1133-3.242 3.3518-1.9949 0.19326-3.0446-0.18696-3.6444-1.3202zm-50.27-1.53c-0.68214-0.82193-1.0648-5.2827-1.1029-12.859-0.0619-12.284 0.20904-13.124 4.2445-13.153 3.0411-0.0219 3.6426 1.7279 3.6258 10.548-9e-3 4.5986 0.25646 9.5992 0.58932 11.113 0.43653 1.9844 0.20682 3.1499-0.82378 4.1805-1.766 1.766-5.1357 1.854-6.5329 0.17052zm-26.715-78.535c-6.3397-2.0846-6.9808-2.1482-8.4304-0.8364-1.6847 1.5246-5.1103 1.8498-6.982 0.66277-0.85574-0.54272-1.1989-4.3222-1.3372-14.728-0.18028-13.562-0.12341-14.057 1.8237-15.871 3.9164-3.6493 12.175-4.0118 16.486-0.72375 6.6537 5.075 7.0784 13.432 0.99912 19.658-1.7482 1.7904-3.1786 3.4875-3.1786 3.7714 0 2.3218 14.526 3.2907 16.683 1.1127 0.72605-0.73314 3.9393-15.038 4.6175-20.557 0.17636-1.435 1.0694-2.399 2.7332-2.9507 3.1915-1.0581 5.5124 0.91245 6.9316 5.8854 1.7503 6.1328 2.6011 6.4533 4.4705 1.684 2.8987-7.3951 5.7086-9.1294 10.284-6.3473 3.3758 2.053 4.3094 4.4179 4.9327 12.495 0.30346 3.9331 1.2117 7.7399 2.4008 10.063l1.9127 3.7366-1.9783 1.9783c-1.837 1.837-2.1446 1.8844-4.3054 0.66401-2.8165-1.5907-4.5149-5.9535-4.6231-11.876-0.1072-5.8653-1.1617-7.5414-2.9802-4.7367-1.2114 1.8684-1.9907 4.5284-3.6157 12.34-0.31411 1.5103-1.2311 2.5107-2.6211 2.8596-3.1619 0.79357-4.5224-0.0568-6.2618-3.9142-0.86026-1.9077-1.999-3.4671-2.5306-3.4653-0.53156 2e-3 -1.6586 1.6869-2.5046 3.7447-1.2528 3.0473-2.3372 4.1079-5.8455 5.7174-5.4587 2.5042-8.5487 2.4378-17.08-0.36755zm26.664-11.19c0-0.66682-0.59407-1.7054-1.3202-2.308-1.3996-1.1615-1.7177-0.29991-0.78595 2.1283 0.65719 1.7126 2.1061 1.8363 2.1061 0.17975zm-30.324-3.5882c3.0864-3.0864 3.0421-8.6628-0.0852-10.712-2.873-1.8825-3.6689-1.067-4.9582 5.0798-1.6088 7.67 0.57116 10.104 5.0434 5.6321zm92.49 15.705c-5.8014-1.4799-7.7987-3.032-10.431-8.1059-2.1023-4.052-2.2676-5.128-1.9414-12.635 0.19618-4.5131 0.73339-9.5096 1.1938-11.103 1.1709-4.0534 7.7382-11.609 11.464-13.19 3.0851-1.3086 16.848-1.7238 20.345-0.61372 1.9805 0.62858 3.0003 5.018 1.7211 7.4081-1.1736 2.1929-3.2543 2.2718-9.3375 0.35427-3.9575-1.2475-5.0299-1.2894-7.4409-0.29077-4.0126 1.6621-7.4641 6.9356-9.2147 14.079-1.6664 6.7997-1.3483 10.371 1.312 14.733 1.6624 2.7254 1.9988 2.8604 7.1313 2.8604 4.4618 0 5.8356-0.37778 8.0018-2.2005 4.1801-3.5173 6.8093-3.7796 9.2653-0.92438 2.511 2.9191 2.0793 3.6019-4.2955 6.7933-6.3477 3.1778-12.551 4.1675-17.773 2.8353zm-121.84-0.51892c-0.58087-0.58087-1.0561-2.3146-1.0561-3.8527s-0.49506-3.1964-1.1001-3.6852c-0.60508-0.4887-5.042-1.0322-9.8598-1.2079l-8.7596-0.31935-0.59777 2.8964c-1.1289 5.4698-5.2585 7.7916-9.6643 5.4337-2.5562-1.368-2.118-3.3873 2.5946-11.957 2.3634-4.2978 4.5826-9.5964 4.9317-11.775 0.34907-2.1783 1.1484-5.1486 1.7763-6.6008 0.62789-1.4522 1.3483-3.4324 1.601-4.4006 2.4692-9.4617 5.9213-13.604 10.401-12.48 1.7492 0.43901 2.8708 2.0925 5.4545 8.0415 1.7889 4.1188 3.476 9.3767 3.749 11.684 0.49923 4.2186 2.8163 10.402 7.4445 19.866 3.2877 6.7227 2.3932 9.3715-3.174 9.3995-1.4764 7e-3 -3.1596-0.46179-3.7405-1.0427zm-5.8414-18.086c-0.32448-1.3312-0.94343-4.0045-1.3755-5.9407-1.6201-7.2609-1.9854-8.3324-3.1778-9.322-0.96013-0.79683-1.2227-0.70057-1.2227 0.44824 0 0.80465-0.74463 2.9324-1.6547 4.7284-1.8672 3.6846-3.1774 10.216-2.3257 11.594 0.31014 0.50183 2.765 0.91241 5.4552 0.91241h4.8913zm260.02 17.718c-3.1464-0.70619-7.1597-1.0735-8.9183-0.81617-2.1361 0.31251-3.534 0.0626-4.2108-0.75291-1.1913-1.4353-1.421-7.1243-0.545-13.494 0.4005-2.9114 0.2355-5.6064-0.4609-7.5323-2.2333-6.176 0.8254-9.8072 9.4421-11.21 4.0826-0.66448 5.4087-0.52657 8.0885 0.84113 3.7476 1.9128 5.8313 4.0342 7.0117 7.1388 1.1571 3.0433-2.4876 11.871-6.2743 15.197-2.7243 2.393-2.7591 2.5107-1.1044 3.7405 2.2307 1.6579 7.0927 1.6127 12.157-0.11304 6.3069-2.149 9.8132 0.53151 6.1567 4.7066-3.3106 3.78-11.025 4.6089-21.343 2.2931zm-0.352-14.77c2.0575-2.0575 2.9923-3.8077 2.9923-5.602 0-3.0998-2.997-7.2476-5.2367-7.2476-2.7583 0-3.8691 2.5026-4.1287 9.3008-0.233 6.1012-0.1276 6.5411 1.5655 6.5411 0.9984 0 3.1618-1.3466 4.8076-2.9924zm-81.45 14.214c-0.49585-0.60507-1.9328-2.3873-3.1933-3.9605-1.84-2.2964-2.9271-2.8577-5.514-2.8469-3.8518 0.0161-4.9823 0.65659-5.8034 3.2879-1.0093 3.234-3.4603 3.9927-6.1257 1.8961-2.3067-1.8144-3.101-5.4751-1.4142-6.5176 1.4153-0.87472 1.0669-13.368-0.45493-16.311-1.2396-2.3972-1.2082-2.7086 0.44005-4.3568 2.0115-2.0115 2.9318-2.16 5.3534-0.86404 1.465 0.78404 1.7024 1.8915 1.7024 7.9428 0 6.7382 0.0942 7.0675 2.2576 7.89 1.2417 0.47208 4.0001 0.85832 6.1298 0.85832 4.8617 0 5.7784-1.475 5.0859-8.184-0.39103-3.789-0.16713-5.4861 0.94867-7.189 1.5631-2.3855 4.7409-2.9568 6.5247-1.173 2.1001 2.1001 0.68051 28.334-1.6116 29.783-1.7872 1.1302-3.2608 1.0431-4.3251-0.25565zm13.568-0.3712c-1.8729-1.8729-1.245-6.4023 1.7073-12.315 1.1689-2.3409 2.4035-6.1421 2.7435-8.4471 0.8271-5.6064 3.2286-8.5708 6.9436-8.5708 3.7734 0 5.5975 2.131 7.254 8.4744 0.7351 2.815 1.9334 6.2724 2.6629 7.683 2.064 3.9914 4.3105 11.402 3.9732 13.106-0.4909 2.4796-5.1063 2.0128-6.8811-0.69582-2.0185-3.0808-4.2533-4.0951-7.6273-3.4622-1.9195 0.36011-3.3557 1.3901-4.3473 3.118-1.6664 2.9034-4.1976 3.34-6.4288 1.1089zm13.251-13.269c-0.738-2.9404-0.9663-3.1995-2.1656-2.4583-0.5163 0.31907-0.9387 1.5469-0.9387 2.7285 0 1.5984 0.475 2.1483 1.8557 2.1483 1.5845 0 1.7669-0.35335 1.2486-2.4185zm111.22 12.879c-3.5373-1.2982-4.3668-4.0723-3.2438-10.849 0.7145-4.3122 0.7015-6.3814-0.051-8.0322-1.5824-3.4731-1.2029-6.4317 1.1235-8.7581 1.8663-1.8662 2.4732-2.0194 4.7956-1.2098 3.6257 1.2639 4.9641 5.4433 4.0282 12.579-0.3873 2.9531-0.6252 7.4944-0.5285 10.092 0.2469 6.6362-1.1199 8.015-6.1243 6.1784zm16.438-0.40248c-1.6318-1.6318-1.7956-6.7173-0.3874-12.026 0.8056-3.0368 0.7219-4.8148-0.4378-9.3159-0.9791-3.8-1.1651-6.0641-0.5867-7.1446 0.8841-1.652 5.3659-2.9898 7.2802-2.1731 2.4737 1.0554 12.255 14.058 14.724 19.573 1.3863 3.0965 3.0056 1.8363 3.8106-2.9655 0.5559-3.3155 0.3827-5.0407-0.7606-7.576-2.352-5.216-0.6804-9.339 4.0897-10.087 3.9267-0.61546 6.3601 1.1701 6.2277 4.5697-0.055 1.4108-0.3085 7.894-0.5634 14.407-0.2549 6.513-0.8411 12.219-1.3025 12.681-1.4276 1.4275-6.4738 1.3994-9.9058-0.0551-2.4994-1.0592-4.1487-2.8368-6.9801-7.5229-4.0827-6.7572-5.8156-8.8197-6.8651-8.171-0.3816 0.23584-0.9709 3.6047-1.3094 7.4864-0.7793 8.9331-3.3633 11.99-7.0332 8.3201zm-106.5-1.4404c-1.0882-1.5537-1.2482-3.4118-0.7981-9.2683 0.3888-5.0579 0.2062-8.4063-0.59-10.819-1.6499-4.9991-0.2358-7.8934 3.8566-7.8934 1.9793 0 3.1951 0.49513 3.5616 1.4505 0.3062 0.79776 0.8088 6.9939 1.1171 13.769 0.5161 11.348 0.4318 12.413-1.0708 13.511-2.3688 1.7321-4.5238 1.4659-6.0764-0.75062z" style="stroke-width:.88011"/>
</svg>
