<?xml version="1.0" encoding="utf-8"?>
<svg xmlns="http://www.w3.org/2000/svg" version="1.1" viewBox="0 0 1920 2048">
	<title>A plan of a bedroom. The bed faces the door to the hall, and beside the door is an armoire standing in front of the light switch. Two other doors lead to a bathroom and a closet.</title>
	<path d="m1878.7 2005.7c-0.7785-0.7078-52.677-1.7251-96.138-1.8846-25.002-0.092-46.122-0.4551-46.934-0.8075-1.7331-0.7521-4.5829-6.3305-3.8443-7.5255 0.6596-1.0672 0.6373-50.901-0.027-61.828-0.8197-13.468-0.8634-20.53-0.2743-44.254 0.3057-12.314 0.3057-22.666 0-23.006-0.3058-0.3398-3.7336 2.8357-7.6174 7.0565s-8.8475 9.2652-11.03 11.21c-2.1831 1.9445-5.7822 5.4475-7.9982 7.7845-2.2159 2.3369-4.8659 4.7201-5.8888 5.2961-1.0228 0.5758-4.7723 3.4303-8.3323 6.3432-3.5598 2.9128-8.2595 6.4692-10.444 7.9031-2.1842 1.4339-5.6243 3.9143-7.6446 5.5119-4.0387 3.1937-17.613 11.234-20.527 12.159-1.0122 0.3213-2.2339 1.3194-2.7147 2.2179-0.481 0.8987-2.0894 1.9007-3.5743 2.2268-3.7463 0.8229-13.366 4.7753-14.968 6.1498-0.7282 0.6249-2.3171 1.4283-3.5307 1.7854-1.2137 0.3571-4.3038 1.5957-6.8669 2.7524-2.5631 1.1568-5.0128 2.1032-5.4436 2.1032s-2.703 0.8241-5.0493 1.8314c-2.3462 1.0073-6.2519 2.3758-8.6793 3.0409-2.4273 0.6652-7.3924 2.2847-11.033 3.5987-3.6411 1.3142-8.0103 2.6947-9.7095 3.0679-1.6991 0.3732-6.4656 1.4685-10.592 2.4339-16.673 3.9012-21.823 4.9107-26.039 5.1042-2.4274 0.1114-6.0431 0.5671-8.0349 1.0126-4.5943 1.0277-22.981 0.6373-26.096-0.5541-1.6554-0.6331-3.1558-0.5984-5.0502 0.1168-2.0956 0.7909-4.1246 0.7396-9.1198-0.2309-5.9516-1.1562-10.7-1.3572-19.665-0.8326-5.4112 0.3167-21.819-2.5302-41.927-7.2746-9.8862-2.3325-30.337-9.4962-41.058-14.382-3.7549-1.7112-7.1746-3.1112-7.5994-3.1112-0.425 0-0.7726 1.5417-0.7726 3.426 0 2.9011-0.4906 3.8001-3.2023 5.8685-3.2901 2.5095-7.6692 3.1367-9.452 1.3539-0.5157-0.5157-1.3549-2.1979-1.8651-3.7383-0.7376-2.2273-2.1925-3.4562-7.1062-6.0022-8.7862-4.5525-20.618-12.064-24.438-15.516-1.7934-1.6202-4.5753-3.6189-6.1822-4.4415-3.6209-1.8537-10.762-6.7548-11.163-7.662-0.1637-0.3699-2.9442-2.5182-6.1787-4.7742-3.2347-2.2559-8.2644-6.3843-11.177-9.1741-2.9129-2.7898-6.4877-6.2163-7.9441-7.6146-14.636-14.051-38.173-44.725-48.547-63.267-1.4565-2.6031-3.1405-5.3191-3.7425-6.0357-1.903-2.2652-6.5831-11.526-8.2002-16.226-0.856-2.4881-2.6333-6.2297-3.9493-8.3146-1.3162-2.0849-3.5597-7.158-4.9858-11.274-1.426-4.1155-3.3587-8.9843-4.295-10.82-0.9362-1.8351-1.9642-4.9751-2.2844-6.9777s-1.8643-7.5007-3.4313-12.218c-2.0937-6.3027-3.3595-8.8107-4.774-9.4594-2.3711-1.0872-3.3234-4.4051-1.7935-6.2484 1.9476-2.3467 6.236-4.1 8.7824-3.5907 1.3293 0.2658 3.1046-0.019 3.9449-0.6339 1.4362-1.0502 1.3952-1.5375-0.6828-8.121-2.1185-6.7111-3.4699-14.484-4.6705-26.864-0.5962-6.1481-3.1457-13.194-5.5275-15.276-0.8046-0.7034-3.2755-1.5394-5.4909-1.8576-2.2153-0.3183-30.579-0.7604-63.03-0.9825-32.451-0.2221-59.13-0.5314-59.285-0.6873-0.1559-0.1558-3.3703 0.059-7.1431 0.4774-3.7729 0.4184-31.022 0.8402-60.554 0.9372-49.999 0.1644-53.772 0.2828-54.823 1.7212-1.3698 1.8735-2.2589 1.9838-2.2589 0.2802 0-2.0728-2.9853-2.4327-14.661-1.7675-11.726 0.668-13.288 1.3594-11.076 4.9023 1.625 2.6022 1.2066 4.684-1.4537 7.2327-2.7092 2.5956-4.9198 2.9298-8.721 1.3186-1.8813-0.7974-37.105-1.118-145.04-1.3201-78.404-0.1469-149.5-0.2887-158-0.3152-8.4958-0.027-28.691 0.2274-44.879 0.5642-29.207 0.6077-29.451 0.6283-31.904 2.6923-1.3596 1.1441-2.858 2.0801-3.3298 2.0801s-2.2761-1.8204-4.0095-4.0453c-3.3338-4.2791-3.3905-5.8806-0.29704-8.3899 0.95044-0.771 1.4482-1.8545 1.1062-2.4079-0.59339-0.9601-64.797-0.8699-236.22 0.3318-25.002 0.1752-47.841 0.2626-50.754 0.194-2.9128-0.069-10.261-0.092-16.33-0.052-22.593 0.1488-40.732 0.1106-97.51-0.2053-41.396-0.2304-58.568-0.044-59.398 0.6442-0.73046 0.6063-1.4779 0.6573-1.9988 0.1363-0.52088-0.5208-3.1514-0.5114-7.0346 0.026-5.6279 0.7779-6.4266 0.6911-8.6194-0.9368-1.3292-0.9869-2.8614-2.6715-3.4049-3.7436-0.70594-1.3925-0.92872-18.638-0.78-60.378 0.1145-32.136-0.09584-59.025-0.46744-59.753-0.37159-0.7282-0.88097-38.264-1.132-83.413-0.70668-127.12-1.3607-212.85-1.926-252.45-0.67998-47.634-0.69357-50.696-0.48777-109.89 0.15067-43.339-0.54025-112.16-1.2584-125.34-0.25714-4.72-0.3296-34.945-0.15024-62.67 0.12559-19.414 0.08768-19.866-1.6856-20.12-0.99773-0.14273-2.5488 0.55238-3.4468 1.5447-2.1816 2.4106-3.436 2.282-7.9347-0.81321-6.003-4.1301-6.4344-7.1531-1.7591-12.328 2.6317-2.913 3.0655-3.9495 2.6793-6.402-0.25373-1.6095-0.72384-12.658-1.0449-24.552-0.32111-11.894-0.75553-27.782-0.96539-35.307-0.20986-7.5248-0.38291-14.476-0.38457-15.447-0.0017-0.97094 0.0293-11.298 0.06878-22.95 0.03949-11.651 0.05892-28.913 0.04317-38.36l-0.02862-17.176-2.3057-2.4067c-3.0351-3.168-3.0307-6.7087 0.01129-8.9246 3.1861-2.3209 3.2368-7.8951 0.11034-12.133-2.7313-3.702-2.7299-3.9781 0.03653-7.2658 2.2014-2.6162 2.2342-2.8654 1.7608-13.368-0.68165-15.12-2.2323-119.98-2.1656-146.44 0.01236-4.9104-0.09114-5.1426-2.6967-6.0509-6.0622-2.1133-5.1895-5.7534 2.4531-10.232 3.6994-2.168 3.9022-2.1903 7.405-0.81437 1.9808 0.77806 3.9569 1.1949 4.3915 0.92635 0.46207-0.28558 0.55144-28.953 0.21525-69.046-0.31618-37.707-0.49691-76.701-0.40162-86.653 0.09529-9.9522 0.06822-24.252-0.06015-31.776-0.12837-7.5248-0.19528-15.668-0.14868-18.095 0.33138-17.263 0.15944-98.047-0.27992-131.52-0.29313-22.332-0.61329-62.986-0.71148-90.343l-0.17852-49.74 2.848-2.1723c4.1999-3.2034 6.0152-6.2697 4.6708-7.8896-1.4989-1.8061 0.57091-5.5178 3.4848-6.2491 2.935-0.73665 6.6615 1.4352 7.0437 4.1051 0.167 1.1667 1.4579 3.1995 2.8687 4.5174 1.4108 1.3179 2.5651 3.0473 2.5651 3.8431 0 0.79583 0.88514 2.6442 1.967 4.1075l1.967 2.6605-2.4857 4.7477c-2.4341 4.6491-2.4746 4.9642-1.9509 15.178 0.85638 16.702 0.86678 17.15 0.57078 24.553-0.4546 11.37-0.48058 18.961-0.27565 80.528 0.16307 48.989-0.01677 59.358-1.1099 63.994-1.6793 7.1227-1.693 19.439-0.02776 25.046 0.71655 2.4129 1.4117 8.741 1.5447 14.062l0.24186 9.6753 125.78 0.10989c69.18 0.0605 136.55-0.14892 149.7-0.46523l23.923-0.57512 4.7713-3.2862c5.2656-3.6265 6.5693-3.9048 9.3076-1.9869 1.5741 1.1025 1.951 2.5803 2.4893 9.76 1.0078 13.443-1.3213 16.47-9.7225 12.638-4.2671-1.9464-5.2532-2.0052-38.363-2.2871-18.691-0.15914-43.715-0.21354-55.609-0.12088-11.894 0.0926-23.314 0.10218-25.377 0.0212-2.0633-0.081-6.0353-0.17174-8.8268-0.20162-2.7915-0.0298-8.0544-0.0906-11.695-0.13485-6.8579-0.0834-70.423 4e-3 -82.089 0.11297-3.641 0.034-23.339-0.0296-43.774-0.14116-29.161-0.1593-37.448 0.0405-38.521 0.92878-2.0488 1.6962-2.3272 5.7883-1.1152 16.391 0.60224 5.2684 0.81525 10.829 0.47337 12.358-0.90839 4.0606-0.24847 83.069 0.72323 86.589 0.47749 1.7293 0.56357 9.0539 0.20454 17.403-0.34098 7.9296-0.51637 23.156-0.38977 33.836 0.1266 10.68 0.24818 27.618 0.27017 37.64 0.04357 19.855 0.34182 20.951 4.7569 17.478 3.178-2.4998 6.1224-2.1517 9.3012 1.0996 3.2499 3.324 3.363 4.3742 0.90023 8.3589-1.7559 2.8412-1.8442 4.0665-1.6932 23.495 0.08765 11.274 0.33621 24.867 0.55235 30.207 0.21614 5.3402 0.55761 15.668 0.75881 22.95 0.2012 7.2821 0.83625 17.782 1.4112 23.332 0.72792 7.0274 0.7667 10.539 0.12767 11.562-0.57852 0.92636-0.69008 4.1185-0.30182 8.6365 0.33875 3.9418 0.30641 8.0036-0.07186 9.0262-0.38416 1.0385-0.28103 2.6192 0.23363 3.5809 0.60686 1.1339 0.65648 3.748 0.14535 7.6577-0.6918 5.2916-0.42725 10.36 1.1851 22.707 0.69423 5.316 0.64781 6.4745-0.5611 14.003-0.85416 5.3195-0.87352 7.328-0.08282 8.5941 1.3893 2.2246 1.3034 6.1894-0.18024 8.3206-1.2626 1.8137-1.274 5.7194-0.09132 31.311 0.87139 18.855 0.99946 42.568 0.24533 45.422-0.37961 1.4368-0.36654 2.9361 0.02904 3.3317 0.39558 0.39558 0.58167 19.309 0.41353 42.029-0.29998 40.536-0.27227 41.34 1.4789 42.925 2.541 2.2996 2.213 5.1009-1.0258 8.7592-3.2076 3.6231-4.8434 3.9098-8.0256 1.4067-2.2454-1.7662-4.96-1.599-5.1547 0.31749-0.60697 5.9736 0.38822 72.275 1.1193 74.572 0.54366 1.7082 0.70926 5.6084 0.39354 9.2681-0.29981 3.4754-0.70161 14.404-0.89289 24.285l-0.34778 17.967 13.817-0.5844c7.5995-0.3215 17.789-0.7589 22.644-0.9722 12.932-0.5681 14.654-0.5488 39.279 0.4399 12.38 0.4971 38.198 0.9812 57.374 1.0758 54.427 0.2686 159.21 0.2467 267.43-0.056 36.641-0.1024 69.112 0.08 72.157 0.4069 6.9443 0.7436 9.1777-0.5328 12.131-6.9334 2.2082-4.7855 6.1961-11.402 12.649-20.988 2.7789-4.1279 3.7224-6.3465 3.5307-8.3018-0.25699-2.6207-0.37217-2.6797-6.4404-3.3013-3.7544-0.38458-7.3186-0.26648-9.0839 0.30108-3.7445 1.204-5.4803 0.49333-5.4803-2.2436 0-1.4642 1.0215-2.9686 3.0836-4.5415 2.976-2.2699 3.4104-2.3398 12.453-2.0051 9.2704 0.34319 9.3964 0.37699 11.922 3.2036 3.3702 3.772 3.5022 8.9658 0.34585 13.611-1.2137 1.7861-2.2067 3.6089-2.2067 4.0506 0 0.4418-2.0294 3.518-4.5097 6.8361-4.8324 6.4646-11.078 18.647-10.075 19.65 0.33507 0.3349 8.6194 0.5633 18.41 0.5073 13.959-0.079 18.712-0.4131 22.024-1.5447 2.323-0.7936 5.1587-1.443 6.3016-1.443 3.0561 0 6.0093 2.7374 5.7459 5.3261-0.309 3.0368 3e-3 103.63 0.61151 197.25 0.28091 43.207 0.42859 81.935 0.32819 86.061-0.33696 13.85-0.37206 19.746-0.26266 44.134 0.0599 13.35 0.0763 26.458 0.0365 29.128-0.0949 6.3721 0.98001 11.496 2.8705 13.682 2.8998 3.3531 2.6816 5.2978-1.0802 9.6263-1.9748 2.2721-4.2947 4.0552-5.2761 4.0552-1.6792 0-6.7095-3.0009-7.882-4.7021-0.56044-0.8132-14.839-0.4418-42.248 1.099-7.5248 0.4229-60.949 0.8535-118.72 0.9568s-116.56 0.3359-130.64 0.5171c-59.299 0.7629-110.2 0.7463-163.3-0.053-71.627-1.0787-68.171-1.1134-72.214 0.7235l-3.3655 1.5292 0.54376 40.789c0.59679 44.767 1.3168 122.07 1.2473 133.91-0.02424 4.1265-0.02847 8.6944-0.0094 10.151 0.01908 1.4564 0.02743 13.038 0.01855 25.736-0.01778 25.448 0.53129 28.847 4.8348 29.927 2.4926 0.6256 27.152 0.9474 45.995 0.6003 6.7966-0.1253 75.712-0.063 153.14 0.1385 77.433 0.2016 142.46 0.06 144.51-0.3151 2.0479-0.3748 3.9491-0.4558 4.225-0.1799 0.27583 0.2758 11.311 0.3295 24.522 0.1193 29.084-0.4627 65.168-0.2346 73.017 0.4615 4.2236 0.3747 6.1986 0.1779 7.4577-0.7428 1.5824-1.1571 1.6207-1.5313 0.50362-4.9161-1.1071-3.3545-1.0623-3.8602 0.53068-5.9939 2.9064-3.8928 4.1938-4.3055 8.0321-2.5746 3.167 1.4281 5.9886 1.5035 35.162 0.9385 17.445-0.3378 32.414-0.568 33.264-0.5115 0.84958 0.056 3.5307 0.065 5.9581 0.019 11.515-0.2194 69.306-0.2497 74.145-0.039 15.005 0.6537 226.58 0.7012 230 0.052 5.3146-1.0108 11.211 0.4886 11.69 2.9726 0.16498 0.8568-0.72335 2.7741-1.974 4.2604-1.2507 1.4864-2.274 3.1884-2.274 3.7822 0 3.1177 5.4036 4.1578 11.481 2.2098 2.5824-0.8278 87.086-2.0205 114.74-1.6196 3.1556 0.046 6.9291 0.034 8.3855-0.025 4.7221-0.1931 65.814 0.183 79.441 0.4891 7.2821 0.1635 29.765 0.4843 49.961 0.7127 39.861 0.451 41.448 0.6431 44.561 5.3942 1.2955 1.9771 1.4049 3.1308 0.6971 7.3558-0.9446 5.6384-0.2857 22.813 1.2588 32.815 0.5622 3.641 1.4904 10.331 2.0626 14.866 1.205 9.5499 2.2668 10.655 6.1974 6.4493 3.1657-3.3873 5.0625-3.4865 8.6674-0.4531 2.6399 2.2212 2.7381 2.5365 2.1806 6.999-0.5055 4.0455-0.081 6.1924 3.159 15.99 2.0586 6.2242 4.0383 11.714 4.3993 12.199 0.361 0.4854 0.9525 1.8757 1.3143 3.0893 0.3619 1.2137 1.7602 4.4497 3.1073 7.191 1.3471 2.7414 2.7127 6.1837 3.0347 7.6498 0.322 1.4659 1.1068 2.8654 1.744 3.1099 0.6373 0.2446 1.4307 1.7673 1.7631 3.3839 0.8192 3.984 4.4196 10.758 9.99 18.795 2.5487 3.6775 4.634 7.0003 4.634 7.3841 0 0.3837 1.7874 2.7918 3.9721 5.3511 2.1846 2.5594 3.972 5.0128 3.972 5.4521s2.0854 3.2866 4.6341 6.3273 5.8087 7.1175 7.2444 9.0594 5.5441 6.565 9.1299 10.274c3.5858 3.7085 7.2455 7.9366 8.1328 9.3955 0.8873 1.459 3.1201 3.787 4.9617 5.1733 1.8416 1.3864 5.5472 4.7706 8.2344 7.5205 4.8294 4.9421 9.6241 8.4677 15.822 11.634 1.7531 0.8956 4.379 2.722 5.8354 4.0585 4.1121 3.7737 18.434 12.974 22.058 14.17 1.791 0.591 4.3131 0.8664 5.6046 0.612 4.5779-0.9019 7.1113 0.2108 7.7068 3.385 0.7097 3.7829-0.056 6.027-3.3296 9.7551-3.3675 3.8354-2.6299 4.9014 4.827 6.9765 3.0259 0.8421 5.8989 1.8518 6.3843 2.2437 1.0379 0.8379 8.7865 3.4095 18.095 6.0053 6.326 1.7641 11.598 2.6951 18.701 3.3029 1.7898 0.1531 4.3716 0.8501 5.7374 1.5488 2.529 1.294 15.507 3.6082 25.874 4.6141 3.1556 0.3061 7.5248 0.9602 9.7095 1.4536 4.9664 1.1217 38.478 1.0049 48.547-0.1692 4.1265-0.4811 11.078-1.2332 15.447-1.6713 4.3693-0.4382 10.526-1.4573 13.682-2.2648 12.74-3.2599 19.116-5.1061 21.795-6.3106 1.5496-0.6966 4.5286-1.6187 6.62-2.049 5.8601-1.2054 13.942-3.5182 16.963-4.854 14.337-6.3395 21.566-9.8676 23.166-11.306 1.0461-0.9405 3.6053-2.0926 5.687-2.5604 2.1465-0.4823 6.2907-2.7053 9.5729-5.135 3.1832-2.3564 7.3765-5.0062 9.3184-5.8881 4.148-1.884 15.961-10.473 21.626-15.724 2.1847-2.025 5.0426-4.2125 6.3509-4.8611 6.111-3.0296 38.588-37.958 38.644-41.562 0.012-0.7423 2.6184-3.9199 5.7926-7.0615l5.7713-5.7119-0.4577-17.654c-0.2518-9.7095-0.4461-24.406-0.4317-32.659 0.014-8.2531-0.093-24.737-0.2377-36.631-0.145-11.894-0.1933-25.399-0.1071-30.011 0.1679-9.003 0.1706-15.419 0.019-47.665-0.088-18.734-0.044-28.902 0.2215-52.078 0.048-4.1265 0-16.837-0.1031-28.246-0.3061-33.527-0.089-73.882 0.5224-97.095 0.8276-31.423 1.4473-81.09 1.2279-98.419-0.1045-8.2531-0.1483-16.793-0.097-18.978 0.051-2.1846 0.2715-44.288 0.4899-93.564 0.2185-49.276 0.7-90.7 1.07-92.055 0.9463-3.4637-1.6183-6.2564-5.1051-5.559-2.9499 0.59-5.4739-0.5548-6.8364-3.1006-0.7455-1.393-0.6454-2.4997 0.4314-4.7689 0.938-1.9767 1.447-5.762 1.5377-11.434 0.1342-8.4007 0.1095-8.5061-2.6584-11.362-1.5365-1.5854-2.7937-3.4795-2.7937-4.2092 0-0.7298 1.8467-2.224 4.1037-3.3206 3.5348-1.7173 4.4596-1.8464 6.6693-0.9311 1.8114 0.7503 2.841 0.7869 3.5036 0.1244 0.8003-0.8004 1.3124-39.602 0.832-63.044l-0.1031-5.0292-8.3855-8.5924c-4.6119-4.7258-8.3854-8.8563-8.3854-9.1788s-3.3712-3.2978-7.4916-6.6115c-4.1204-3.3138-7.6934-6.6609-7.94-7.4379s-5.9118-6.5662-12.589-12.865-14.524-14.035-17.437-17.192c-13.125-14.225-51.417-52.855-59.366-59.89-6.0142-5.323-18.752-18.052-18.752-18.74 0-1.0919-13.189-11.711-17.317-13.943-2.3576-1.2746-4.4169-2.9969-4.5762-3.8272-0.5225-2.7232 2.4824-7.5611 5.6217-9.0507 3.7753-1.7916 5.88-0.8359 8.257 3.7492 1.4133 2.7263 20.786 23 31.95 33.435 1.6425 1.5354 3.9793 4.0661 5.193 5.6237 3.234 4.1505 9.7397 10.562 10.717 10.562 1.0163 0 0.041-10.265-1.2044-12.671-1.4516-2.8052-0.06-7.0982 2.8605-8.8233 1.4597-0.8622 3.4144-3.0584 4.344-4.8802 2.095-4.1067 5.347-13.259 5.3584-15.081 0.01-0.74507 1.3949-3.0986 3.0894-5.2302s3.0808-4.2031 3.0808-4.6033c0-0.4003 1.1382-2.0325 2.5293-3.6272s3.4305-4.6868 4.532-6.8715c1.1015-2.1846 2.2967-4.1707 2.6561-4.4134 0.8689-0.58673 4.4055-7.2522 4.4055-8.3029 0-0.45443 0.6346-1.5275 1.4102-2.3846 1.3867-1.5322 4.7685-12.832 4.7685-15.934 0-3.2894-3.7781-4.5256-11.691-3.8252-12.858 1.138-13.07 1.1165-15.059-1.5293-1.7838-2.373-1.7854-2.4314-0.1174-4.2745 2.9665-3.278 4.8861-3.7306 15.103-3.5614 7.7383 0.12821 10.82 0.55329 13.906 1.9183 4.4803 1.9819 4.8564 2.42 5.9091 6.8828 0.7509 3.1832-1.0375 14.491-2.8435 17.979-0.4364 0.84299-0.7936 2.1013-0.7936 2.7962 0 1.7753-4.1968 10.078-6.9566 13.763-7.1044 9.4847-12.451 19.009-16.001 28.504-2.6638 7.1249-2.8101 8.0309-1.7942 11.109 0.9933 3.0095 0.8714 4.0022-1.194 9.728-1.2651 3.507-2.3001 7.1629-2.3001 8.1242 0 2.1738-2.9284 8.023-4.7902 9.5682-1.8439 1.5303-1.7643 4.2017 0.1562 5.2398 0.8495 0.45926 3.1335 2.4977 5.0754 4.5299 1.9419 2.0323 4.3014 4.3516 5.2434 5.1542 1.3061 1.1128 47.4 47.136 56.392 56.305 23.2 23.658 27.237 26.826 34.546 27.105 2.5637 0.098 5.3074 0.7142 6.0971 1.3695 1.9422 1.6119 1.8081 5.0344-0.3141 8.0149-1.6731 2.3497-1.7491 3.9604-1.734 36.767 0.01 18.87-0.016 36.892-0.056 40.048-0.039 3.1556-0.1896 37.712-0.3345 76.793s-0.4838 83.965-0.7532 99.743c-0.2694 15.778-0.1117 34.447 0.3505 41.486 1.1485 17.492 1.1635 21.268 0.1211 30.452-0.4959 4.3693-0.6368 10.227-0.313 13.017 0.3238 2.7902 0.2252 5.4368-0.2192 5.8811-0.4444 0.4444-0.4958 1.313-0.1143 1.9303 0.5557 0.899 1.6061 23.671 1.3397 29.042-0.036 0.7283-0.2202 82.155-0.4092 180.95-0.2276 119.03-0.043 180.63 0.5454 182.61 0.6236 2.0913 0.5662 4.8682-0.1923 9.3023-0.7526 4.3999-0.8154 7.2837-0.2067 9.4884 0.6231 2.2566 0.5519 4.4108-0.2476 7.493-0.7918 3.0524-0.8863 5.7475-0.3211 9.156 0.4405 2.6567 0.5365 6.2205 0.2135 7.9196-0.7632 4.0135-0.4327 64.453 0.3592 65.695 0.3325 0.5212 0.6601 1.2456 0.7282 1.6097 0.068 0.3641 0.2067 0.7613 0.3077 0.8826 0.4779 0.5735 0.5696 4.3049 0.1128 4.5871-0.2845 0.1756-0.4397 9.1953-0.3448 20.044 0.095 10.848-0.2098 21.949-0.677 24.668-1.0186 5.928 0.2235 16.338 2.1832 18.297 1.1849 1.1849 2.7763 1.1571 14.586-0.2548 11.308-1.352 14.481-1.4308 21.588-0.5363 16.892 2.1263 62.743 0.9793 90.195-2.2563 6.4051-0.7549 13.054 2.6396 15.433 7.8786 0.9248 2.0372 1.6903 4.4567 1.7009 5.3767 0.028 2.4385-4.4372 9.097-6.8327 10.188-1.9343 0.8814-10.073 1.3328-10.875 0.6031zm-502.28-69.434c1.3046-1.7645 1.8907-3.6348 1.7107-5.4586-0.2399-2.4299-1.0108-3.1652-6.2079-5.9218-8.6797-4.6038-15.577-8.9733-25.894-16.405-5.0422-3.6317-9.6243-6.6031-10.182-6.6031s-4.2431-3.1118-8.189-6.915c-3.9458-3.8033-8.5958-7.7658-10.333-8.8056-1.7375-1.0398-5.1578-4.1884-7.6006-6.9968-2.4427-2.8085-6.7805-7.582-9.6396-10.608-10.517-11.13-19.964-22.879-22.788-28.338-0.6994-1.3525-1.934-3.0088-2.7434-3.6806-1.7535-1.4552-7.4714-10.23-7.4714-11.466 0-0.476-0.6951-1.5627-1.5447-2.4146-0.8496-0.8521-3.4081-5.1997-5.6856-9.6615-2.2775-4.4617-4.7585-9.0549-5.5135-10.207-4.8241-7.3625-14.417-32.241-18.365-47.628-2.8899-11.262-3.1568-11.577-8.9567-10.558-5.487 0.9642-5.7831 2.4086-2.4246 11.828 1.6068 4.5068 3.4408 10.251 4.0754 12.765 0.6347 2.514 1.7922 5.4821 2.5723 6.5958 0.78 1.1137 1.4183 2.7395 1.4183 3.6129 0 2.0999 5.6835 17.045 7.9739 20.969 0.992 1.6991 2.82 5.274 4.0622 7.9441s2.5385 5.0533 2.8806 5.296c0.3423 0.2428 1.3586 2.0302 2.2586 3.9721 0.9001 1.9419 2.6518 5.1195 3.8927 7.0614 1.241 1.9419 2.8672 4.6219 3.6137 5.9555 3.6551 6.5296 9.4919 15.562 11.904 18.422 1.4813 1.756 4.4807 5.4849 6.6653 8.2864 2.1847 2.8016 5.9581 7.3907 8.3855 10.198 14.676 16.974 18.178 20.774 22.95 24.909 2.9129 2.5239 8.1124 7.2341 11.554 10.467 3.4421 3.2331 7.838 6.6842 9.7685 7.6691 1.9306 0.9849 4.0423 2.4319 4.6927 3.2157 1.1177 1.3467 11.82 8.6522 18.56 12.67 1.6991 1.0128 5.6712 3.4011 8.8268 5.3074 6.5688 3.9685 12.538 7.2074 13.282 7.2074 0.28 0 1.4021-1.208 2.4937-2.6844zm9.3582-17.573c0.7407-1.4323 1.3467-3.2117 1.3467-3.9541 0-1.289-3.9156-3.7607-10.592-6.686-7.4922-3.2828-29.8-18.99-39.623-27.9-3.2721-2.9678-7.6121-6.4964-9.6443-7.8412-2.0323-1.3449-4.4977-3.7441-5.4788-5.3315s-3.4632-4.3959-5.5159-6.2411c-2.0526-1.8451-5.7391-5.7562-8.1922-8.6913-2.453-2.9351-5.9656-6.9254-7.8055-8.8673-1.84-1.9419-3.7025-4.3252-4.1389-5.2961-0.4363-0.971-2.4846-4.2057-4.5519-7.1883-4.2752-6.1684-13.288-20.419-13.826-21.863-0.1968-0.5279-1.3031-2.207-2.4581-3.7315-3.4774-4.5894-11.748-20.626-11.748-22.78 0-2.4542-4.8432-14.412-6.6425-16.4-0.7159-0.7909-1.3016-2.086-1.3016-2.878 0-2.0559-4.4246-19.296-5.4399-21.196-0.7104-1.3293-1.5292-1.4936-4.987-1.0002-2.2755 0.3246-4.4901 0.9164-4.9213 1.3152-1.546 1.4297 5.7472 25.348 9.5397 31.286 0.6201 0.9709 1.6391 3.3542 2.2644 5.296 0.6254 1.9419 2.6138 6.7084 4.4189 10.592 1.805 3.8838 3.9548 8.9131 4.7775 11.176 0.8226 2.2632 2.0721 4.3361 2.7764 4.6063 0.7045 0.2704 1.2808 1.0381 1.2808 1.706s0.9679 2.3408 2.151 3.7176 2.3922 3.4645 2.6871 4.6392c0.2949 1.1749 1.2629 3.1885 2.1511 4.4749 0.8884 1.2863 2.3603 3.6053 3.2711 5.1534 11.131 18.92 36.027 47.385 54.521 62.337 4.3169 3.4901 10.275 8.3445 13.24 10.788 6.5962 5.4348 16.922 12.322 23.464 15.651 2.6822 1.3645 6.8628 3.6485 9.2901 5.0755 5.7133 3.3589 7.9625 3.3662 9.6868 0.032zm-752.46-228.64c14.321-0.037 84.582 0.1539 156.14 0.4235 147.81 0.5568 133.38 1.3357 133.38-7.2021 0-2.5948-0.2979-4.7667-0.66201-4.8263-2.4461-0.4003-339.79-0.437-340.48-0.037-1.3043 0.7566-3.057 0.8459-20.481 1.0425-13.195 0.1489-16.141 0.4122-16.55 1.4796-0.71463 1.8622-0.5896 6.705 0.20542 7.9558 0.88623 1.3944 9.9687 1.733 39.017 1.4547 12.865-0.1233 35.109-0.2542 49.43-0.2908zm16.33-18.461c7.7676 0.086 71.677 0.1696 142.02 0.1857l127.9 0.029 1.6352-2.0193c1.8846-2.3273 2.1978-8.2021 0.51195-9.6012-1.2862-1.0675-13.48-1.1818-124.22-1.1644-41.993 0.01-100.98-0.064-131.08-0.1572-30.099-0.093-64.06 0.1035-75.469 0.4367-11.409 0.3331-25.311 0.6664-30.894 0.7407-12.618 0.1678-14.786 0.5429-15.463 2.6763-0.46654 1.47 0.93742 5.0058 3.3714 8.4906 0.54605 0.7818 11.459 0.9381 44.143 0.6324 23.88-0.2233 49.773-0.3356 57.54-0.2496zm-329.68-260.04c27.429-0.2496 52.057-0.6791 54.728-0.9545 2.6712-0.2754 5.8488-0.1329 7.0614 0.3165 1.3358 0.4952 14.554 0.5318 33.54 0.093 17.234-0.3985 67.561-0.8085 111.84-0.9111l80.502-0.1866 1.0056-2.4278c0.5531-1.3353 0.71908-3.3307 0.36884-4.4342-0.35024-1.1036-0.60318-9.1746-0.56209-17.936 0.061-12.996-0.17733-16.314-1.2943-18.018-0.91926-1.403-1.1764-2.999-0.78274-4.8585 0.56702-2.6784 0.99122-209.74 0.55268-269.78-0.11878-16.263 0.0565-30.27 0.38956-31.126 0.33304-0.8557 0.22479-2.0473-0.24056-2.648-0.46535-0.6006-0.93462-3.4754-1.0428-6.3882-0.1082-2.9128-0.77798-6.1958-1.4884-7.2954l-1.2917-1.9994-18.728 0.4779c-24.942 0.6363-25.337 0.697-27.775 4.2595-1.3531 1.9766-1.986 4.1986-1.986 6.9721 0 6.0797-1.8276 12.842-4.1475 15.345-4.076 4.3981-8.1713 1.0691-8.197-6.6632-7e-3 -2.1502-0.48851-5.2244-1.0697-6.8315-0.98132-2.7139-0.87293-3.1139 1.5202-5.6119 1.4173-1.4793 3.4816-2.9167 4.5874-3.1943 1.186-0.2977 2.0105-1.1744 2.0105-2.1379 0-1.5826-3.5086-1.6219-113.2-1.2679-62.262 0.201-117.37 0.3075-122.47 0.2368-7.9669-0.1106-29.869-0.059-51.637 0.1213-13.176 0.1093-111.16 0.2594-143.46 0.2197-18.703-0.023-34.456 0.2368-35.006 0.577-1.3394 0.8279-1.4667 7.3429-1.4265 72.993 0.02941 47.967-0.24036 101.08-0.54252 106.8-0.05121 0.9709 0.01021 43.031 0.1365 93.468 0.21213 84.722 0.34234 91.774 1.7106 92.637 1.0396 0.6557 5.5112 0.6596 15.006 0.013 7.9799-0.5435 30.713-0.7492 55.452-0.5017 51.07 0.5109 50.419 0.5092 70.614 0.1909 15.279-0.2407 36.969 0.6196 37.95 1.5052 0.23967 0.2164 2.0271 0.1691 3.972-0.1052 1.945-0.2744 25.978-0.703 53.408-0.9525zm-245.38-218.91c0-1.2137-0.3972-2.2067-0.88268-2.2067s-0.88268 0.993-0.88268 2.2067c0 1.2136 0.3972 2.2067 0.88268 2.2067s0.88268-0.9931 0.88268-2.2067zm0-9.7095c0-1.6992-0.3972-3.0894-0.88268-3.0894s-0.88268 1.3902-0.88268 3.0894 0.3972 3.0894 0.88268 3.0894 0.88268-1.3902 0.88268-3.0894zm1661.9-16.506c0.6694-0.6694 1.0592-4.0299 1.0592-9.1313 0-6.8059-0.2628-8.3099-1.675-9.5879-1.6194-1.4656-1.6954-1.3668-2.2935 2.981-0.6637 4.8267 0.2152 16.797 1.2335 16.797 0.3391 0 1.0932-0.4766 1.6758-1.0592zm-1661.9-47.929c0-1.2137-0.3972-2.2067-0.88268-2.2067s-0.88268 0.993-0.88268 2.2067 0.3972 2.2067 0.88268 2.2067 0.88268-0.993 0.88268-2.2067zm-1.1624-70.338c-0.28177-0.7042-0.49093-0.4951-0.53328 0.5333-0.03833 0.9304 0.17029 1.4518 0.4636 1.1585 0.29331-0.2933 0.32466-1.0546 0.06969-1.6918zm-17.169-152.1c0.36678-1.9419 0.44516-11.872 0.17417-22.067-0.27099-10.195-0.68529-38.794-0.92068-63.553-0.23539-24.759-0.70635-51.57-1.0466-59.581l-0.6186-14.564-4.3159-0.27407c-2.3737-0.15073-4.744 0.1541-5.2673 0.67741-0.557 0.55699-0.86248 3.7812-0.73682 7.7768 0.44297 14.086 1.2309 70.568 1.0495 75.233-0.10383 2.6701-0.21063 7.238-0.23733 10.151-0.04352 4.7488 0.91875 66.087 1.0632 67.774 0.10206 1.1916 3.9022 2.3372 7.1103 2.1435 2.8474-0.17185 3.1293-0.45166 3.746-3.7166zm20.482-15.447c-0.03081-10.438-0.33281-32.681-0.67111-49.43-0.3383-16.749-0.84738-44.553-1.1313-61.787-0.41252-25.042-0.76303-31.592-1.7454-32.617-1.4587-1.5209-9.241-1.3266-10.342 0.25834-0.391 0.5628-0.48518 4.2009-0.20928 8.0847 0.41566 5.8511 0.51412 20.19 0.22426 32.659-0.09139 3.9314 0.97061 62.667 1.6279 90.033 0.31482 13.108 0.56572 24.627 0.55755 25.598-0.04701 5.584 1.2771 6.5458 8.6561 6.2871l3.0894-0.10831zm-2.8747-154.75c0.74076-1.1692-0.13225-9.5255-1.1285-10.802-0.4913-0.62963-2.6715-0.67994-6.7194-0.15508-3.2957 0.42732-6.9852 0.7212-8.1989 0.65306-5.1998-0.29192-11.655-0.1269-12.841 0.32826-0.85586 0.32843-1.2814 1.8033-1.2814 4.4414 0 3.0809 0.43153 4.252 1.9618 5.3238 2.1831 1.5291 6.5388 1.79 9.7162 0.58195 1.365-0.51896 3.5916-0.38054 6.4569 0.4014 4.5885 1.2522 11.013 0.8398 12.035-0.77249zm-18.893-23.218c0.6451-2.1019 0.71676-4.7466 0.20927-7.7234-0.73476-4.31-1.8127-64.416-2.1946-122.37-0.12472-18.926-0.49183-27.519-1.2349-28.908-1.1496-2.148-4.5006-2.6129-8.3324-1.1561l-2.156 0.81971 0.3119 37.797c0.80854 97.981 1.1446 122.99 1.6636 123.83 0.30821 0.4987 2.8535 0.90672 5.6563 0.90672 5.0873 0 5.0975-5e-3 6.0769-3.1964zm18.329 2.2548c0.6754-1.0928 0.56527-53.437-0.21438-101.89-0.29684-18.448-0.44568-37.087-0.33074-41.42 0.11493-4.3328-0.25975-10.362-0.83264-13.398-1.0319-5.4686-1.0732-5.5256-4.4181-6.0908-2.0237-0.34191-4.1625-0.1498-5.3384 0.47948l-1.9618 1.05 0.60338 34.103c0.33186 18.757 0.85612 46.218 1.165 61.025 0.75952 36.407 0.71441 55.224-0.14436 60.23-0.96638 5.6333 0.13634 6.8531 6.1955 6.8531 2.582 0 4.9564-0.42374 5.2765-0.94164zm1487.1 748.13c-3.7447-1.5811-4.8365-3.9352-4.6215-9.965 0.5051-14.165-0.9849-85.337-1.896-90.569-0.7503-4.3082-0.7695-6.9188-0.072-9.692 0.651-2.5855 0.6916-6.1625 0.1273-11.221-0.4555-4.084-0.6473-14.178-0.4261-22.431 0.4482-16.724 0.4405-27.055-0.02-27.801-0.1683-0.2722 0-10.215 0.3642-22.096 0.3686-11.88 0.3913-22.15 0.051-22.822-0.3407-0.6718-0.2764-2.6579 0.1426-4.4134 0.4191-1.7557 0.9623-18.683 1.2072-37.617 0.4701-36.347 1.0091-52.63 1.8445-55.715 0.3543-1.3085-0.3123-2.8052-2.2142-4.9714-4.134-4.7083-3.7116-6.9004 1.9633-10.188 3.8771-2.2459 6.5081-2.4656 8.4862-0.7089 1.6832 1.4949 9.924 1.6388 86.242 1.507 46.837-0.081 54.1-0.2679 55.055-1.4189 1.6166-1.9478 6.3873-1.6451 8.749 0.5552 1.6841 1.569 1.8952 2.3377 1.2726 4.6341-0.4104 1.5142-0.6955 17.847-0.6335 36.295 0.3074 91.331 0.258 118.05-0.2701 146.08-0.3156 16.749-0.4899 32.438-0.3876 34.866 0.1024 2.4274 0.1438 17.622 0.092 33.766-0.052 16.144 0.2188 29.848 0.6013 30.452 0.3824 0.6049 0.5852 8.0059 0.4508 16.447-0.2332 14.634-0.157 15.44 1.6412 17.354 2.568 2.7336 1.9506 4.7019-2.4437 7.7904-3.5905 2.5235-3.8798 2.5786-8.3808 1.5979-7.63-1.6627-25.506-2.1485-83.22-2.2616-54.712-0.1073-54.727-0.1068-57.816 1.8085-2.7836 1.7262-3.3664 1.7988-5.8886 0.7338zm50.177-12.017c17.805-0.048 32.79 0.1717 33.301 0.4874s2.4471 0.1651 4.303-0.3346c2.1858-0.5886 8.4884-0.6634 17.895-0.2123 7.9861 0.383 18.095 0.4762 22.464 0.207 4.3693-0.269 9.6471-0.1209 11.728 0.3291 3.0875 0.6676 4.0511 0.5515 5.233-0.6304 1.2728-1.2728 1.3298-2.2828 0.4687-8.321-0.5412-3.7954-0.7734-11.615-0.5187-17.464 0.5929-13.621 1.5484-61.941 1.3614-68.849-0.079-2.9129-0.1793-17.187-0.2231-31.72-0.064-21.373-0.327-26.903-1.3737-28.927-1.154-2.2317-1.1339-2.8399 0.1865-5.6221 1.3338-2.8108 1.5146-9.6038 1.8269-68.609 0.1906-36.019 0.3337-67.873 0.3179-70.786-0.05-9.1518 5.1977-8.4425-61.844-8.3603-31.917 0.039-58.267 0.3069-58.555 0.5949-0.2881 0.2879-4.9647 0.5642-10.392 0.6138l-9.8689 0.09-0.078 34.866c-0.043 19.176-0.036 43.803 0.014 54.726 0.05 10.923 0.071 28.003 0.044 37.955-0.2242 85.032 0.2763 179.25 0.9581 180.39 0.2525 0.4197 2.6914 0.516 5.42 0.214 2.7284-0.302 19.528-0.588 37.333-0.6354zm37.36-41.789c-4.4128-1.9536-12.043-3.8815-17.894-4.5209-3.045-0.3328-5.7496-0.95-6.0101-1.3716-0.2605-0.4215-1.8666-0.7664-3.5691-0.7664-3.4259 0-5.9453-1.0698-8.9372-3.7949-2.6656-2.4279-2.5018-5.0901 0.4896-7.9561 2.0791-1.992 3.2606-2.3719 7.3766-2.3719 4.8611 0 21.773-4.2865 26.514-6.7206 3.1382-1.6108 5.5526-1.5468 7.2929 0.1936 1.7861 1.7861 1.1182 3.9821-2.2292 7.3295-3.7231 3.7231-3.0702 9.0933 1.4059 11.563 3.2305 1.7824 4.1739 6.7062 1.6399 8.5591-1.8943 1.3851-2.6691 1.3669-6.0796-0.1429zm-8.5475-13.941c0.3324-2.8886-1.7511-3.2852-5.065-0.9641-2.0195 1.4145-2.0336 1.504-0.4235 2.6814 2.6026 1.9031 5.1642 1.1016 5.4885-1.7173zm-14.509-20.929c-2.0316-0.8426-2.5406-2.2947-3.4414-9.8187-0.5259-4.392-0.3647-5.1757 1.4793-7.1919 1.1382-1.2445 3.9504-2.8731 6.2493-3.619 4.9202-1.5965 8.2276-0.9358 12.248 2.447 3.5085 2.9521 4.9276 2.8521 5.6414-0.3976 0.3209-1.4613 1.2008-3.2743 1.9552-4.0288 0.7747-0.7746 1.0314-1.68 0.5899-2.0803-1.3969-1.2661-9.4059-3.5912-12.37-3.5912-4.5246 0-11.579-1.7564-12.757-3.1763-1.9634-2.3657 0.4125-5.3015 6.7308-8.3169 3.2322-1.5427 5.5389-3.1187 5.1258-3.5023-0.413-0.3837-3.2271-1.5868-6.2535-2.6735-6.1596-2.2121-7.6886-3.5367-6.9109-5.9871 0.6722-2.1181 4.0288-3.6554 10.162-4.6539 2.6453-0.4306 6.8556-1.784 9.3562-3.0074 5.7757-2.8258 8.5851-2.8632 10.046-0.1337 1.6443 3.0724 0.8702 5.1317-2.3369 6.2166-1.5621 0.5285-3.528 1.65-4.3687 2.4924-1.45 1.4529-1.382 1.5608 1.3225 2.1017 3.2363 0.6473 6.5347 4.2702 6.1465 6.7513-0.1705 1.0894-1.9274 2.3238-5.1033 3.5857-5.1903 2.0623-7.1771 5.0032-3.3862 5.0123 6.9501 0.017 11.299 3.6642 8.309 6.9685-1.7391 1.9218-1.7504 2.5152-0.079 4.1861 1.517 1.5169 1.7941 8.6731 0.4708 12.154-0.6439 1.6937-0.4816 2.9091 0.662 4.956 1.4397 2.5767 1.4363 2.7711-0.068 3.8966-1.1036 0.8261-4.4437 1.1717-11.034 1.1417-5.1979-0.024-11.04 0.202-12.982 0.5013s-4.3734 0.1947-5.4034-0.2324zm13.275-7.632c1.9148-0.7348 1.7498-2.2998-0.4401-4.1749-2.1532-1.8437-5.1024-1.6393-6.4078 0.444-1.8454 2.9447 2.5939 5.3633 6.8479 3.7309zm-1.6932-57.634c-7.8092-2.0829-14.937-7.8589-15.925-12.905-0.4196-2.1435 0.026-3.2153 2.409-5.7974 1.608-1.7424 3.5762-4.3814 4.3736-5.8645 3.554-6.6101 18.325-3.5809 23.944 4.9104 5.8135 8.7847 1.597 19.482-7.9195 20.091-2.3288 0.1492-5.4257-0.047-6.8821-0.435zm6.9424-8.9783c1.2791-1.0061 2.3257-2.4343 2.3257-3.1737 0-2.4244-3.5003-6.3247-6.5917-7.345-3.3238-1.097-5.1141-0.5197-7.8853 2.5425-1.628 1.7988-1.6199 1.889 0.4398 4.895 3.4895 5.0926 7.7346 6.2095 11.712 3.0812zm-17.093-23.672c-3.2015-0.8812-3.4973-4.7951-0.5104-6.7522 1.8143-1.1888 3.4048-1.3539 8.3033-0.862 3.9986 0.4016 7.3166 0.2318 9.7565-0.4992 3.3388-1.0003 3.9296-0.9344 6.0934 0.6796 2.7656 2.0628 3.4436 4.2197 1.908 6.0701-0.8373 1.0088-3.2467 1.2736-10.886 1.1963-5.3956-0.055-10.406 0.097-11.134 0.3378-0.7282 0.2403-2.317 0.1637-3.5307-0.1704zm-0.6889-15.696c-1.8548-0.7449-5.4898-8.8196-5.4898-12.195 0-3.7988 3.6945-9.7441 7.1731-11.543 4.873-2.52 9.3332-1.3835 14.188 3.6148 5.2176 5.3718 7.6346 2.7661 4.5605-4.9169-1.6056-4.0129-0.6669-7.9083 1.9058-7.9083 2.095 0 5.2832 3.9075 6.4989 7.965 1.2237 4.0844-0.098 12.433-2.2515 14.22-1.5966 1.3251-1.4896 2.3003 0.5348 4.874 3.1286 3.9773 1.8893 4.5179-11.267 4.9142-6.6409 0.2001-12.67 0.6033-13.398 0.896s-1.8326 0.3279-2.4543 0.079zm12.533-7.8861c2.0085-0.7708 1.7241-2.8398-0.8554-6.2217-2.4989-3.2762-4.3102-3.6777-6.7264-1.4912-1.981 1.7928-2.0872 5.0015-0.2271 6.8616 1.4072 1.4071 5.2645 1.8276 7.8089 0.8513zm-13.746-28.68c-2.4208-0.9159-2.8569-1.9177-3.8577-8.8612-0.6358-4.4109 0.8584-7.9098 4.1243-9.6577 2.0253-1.0839 8.3262 0.5378 10.903 2.8063 0.971 0.8547 3.3542 1.6809 5.2961 1.8361l3.5307 0.2821-0.2509-4.8609c-0.138-2.6735-0.7953-6.4444-1.4607-8.3798-2.4206-7.041 3.9135-11.595 8.3257-5.9854 1.7773 2.2594 1.8713 3.2108 1.6088 16.288-0.1989 9.9086-0.6078 14.216-1.4269 15.033-0.7725 0.7706-3.9484 1.1662-9.7094 1.2097-4.7088 0.035-9.9516 0.3147-11.651 0.6205-1.6991 0.3057-4.1437 0.1569-5.4324-0.3308zm7.0297-8.519c-0.3583-1.8605-1.9248-1.7432-2.324 0.174-0.1665 0.7997 0.3201 1.3706 1.1681 1.3706 0.9091 0 1.342-0.5785 1.1559-1.5446zm90.135-77.066c-4.0132-4.3978-4.0159-4.405-2.8168-7.6918 4.2915-11.763 4.5432-13.98 1.9599-17.264-1.7171-2.1828-2.2713-2.3086-11.222-2.5463-9.2366-0.2454-9.442-0.2964-10.772-2.67-1.0325-1.8428-1.1222-2.7898-0.3761-3.972 0.8414-1.333 2.3995-1.5523 11.034-1.5523 9.6614 0 10.203 0.101 13.868 2.5865 4.7986 3.2537 7.2188 7.8642 7.2188 13.752 0 2.4708 0.6079 5.6679 1.3509 7.1046 1.0858 2.0998 1.1436 2.9992 0.2948 4.5852-0.5807 1.0851-1.5028 3.7251-2.0491 5.8666s-1.7762 4.4134-2.7331 5.0487c-1.5702 1.0427-2.1313 0.7262-5.7569-3.2466zm-299.74-4.2957c-3.5145-2.1494-4.4262-5.7707-2.5706-10.212 1.4456-3.4597 2.2226-18.676 1.0505-20.572-0.3599-0.5823-2.2934-1.0587-4.2967-1.0587-2.523 0-4.2692-0.5889-5.6818-1.916-1.1217-1.0537-2.2992-1.6562-2.6166-1.3387-0.3175 0.3175-0.6566 5.2599-0.7534 10.983-0.1824 10.776-1.0506 13.852-4.1909 14.849-2.5757 0.8175-4.7003-0.3777-6.0262-3.3897-1.8848-4.2819-5.431-4.3891-9.1964-0.2782-1.5906 1.7365-3.6834 3.1572-4.6509 3.1572-3.3338 0-4.14-2.3324-4.2342-12.25-0.049-5.1563-0.3939-10.429-0.7667-11.716-1.5702-5.4244 6.7219-8.1907 10.181-3.3965 1.3744 1.905 1.4593 2.7679 0.6208 6.3108-1.419 5.9961-0.7192 7.0826 4.3521 6.7574 4.1369-0.2652 4.2059-0.3189 4.4696-3.4782 0.2148-2.5714-0.1798-3.561-1.986-4.9817-2.3333-1.8355-2.9817-3.7256-1.2781-3.7256 0.5368 0 2.1562-0.993 3.5985-2.2067 3.1616-2.6603 4.6056-2.7513 7.5019-0.4731 2.1981 1.729 2.2109 1.7285 4.8035-0.1883 2.1237-1.5701 3.523-1.8629 7.6448-1.5995 6.9103 0.4416 8.9596 0.4162 12.548-0.1553 10.481-1.6694 11.533-1.7241 12.807-0.6666 2.04 1.6931 1.609 5.9594-0.8505 8.419-2.5579 2.5578-3.3717 2.6448-6.6463 0.7103-1.3882-0.8199-3.143-1.1961-4.0164-0.861-1.397 0.5361-1.4863 1.4486-0.8983 9.1797 0.3591 4.7215 0.5925 11.131 0.5188 14.244-0.1285 5.4281-1.8542 10.67-3.5127 10.67-0.4333 0-1.3168 0.1994-1.9633 0.4431-0.6466 0.2437-2.4286-0.3233-3.9601-1.2599zm-57.465-0.096c-1.0963-0.4405-2.4388-1.7787-2.9832-2.9737-0.5445-1.1951-2.1302-2.6451-3.5236-3.2223-1.3934-0.5771-2.5335-1.3984-2.5335-1.825s-0.5215-0.7756-1.1589-0.7756c-1.8361 0-5.5904-4.5444-6.7486-8.1689-1.1995-3.7541-0.4599-13.911 1.166-16.013 2.3698-3.0635 9.5443-5.8293 15.122-5.8293 6.4716 0 8.8753 1.7343 7.8831 5.6878-0.4835 1.926-0.2513 2.454 1.2519 2.847 2.9769 0.7786 3.2113 3.5044 0.5711 6.642-1.7425 2.071-2.2052 3.37-1.8016 5.059 0.2986 1.2499 0.7836 4.974 1.0778 8.2758 0.5099 5.7234 0.4185 6.1247-1.9589 8.6061-2.6636 2.7804-3.2574 2.938-6.3632 1.69zm-1.5052-18.873c1.3084-1.9969 1.2527-2.417-0.8772-6.6201-2.5028-4.9389-4.4769-5.6963-5.7971-2.2238-1.2535 3.2971-1.0555 6.7745 0.5133 9.0142 1.7974 2.5663 4.4154 2.4938 6.161-0.1703zm-63.77 10.125c-7.5477-0.9043-8.4683-1.8373-7.835-7.9404 0.2801-2.6992 0.7521-10.733 1.049-17.852 0.5222-12.522 0.6159-13.017 2.8728-15.163 3.6851-3.5044 6.6593-3.8357 9.4428-1.0523 1.8447 1.8447 2.2169 2.8498 1.7474 4.7186-1.0853 4.3201-3.0529 19.952-3.0866 24.521-0.029 3.9728 0.2267 4.6108 2.215 5.5167 3.8537 1.7559 8.2652 1.199 13.294-1.6783 4.6451-2.6577 4.7602-2.676 6.9204-1.1034 2.6757 1.948 2.7773 3.2375 0.5063 6.4268-1.6003 2.2475-2.3547 2.4959-9.0474 2.979-4.0159 0.2898-8.4932 0.6975-9.9496 0.9059s-5.1146 0.083-8.1292-0.2777zm210.74-0.2029c-7.94-2.2781-11.459-8.6765-7.3185-13.307 2.26-2.5276 5.9003-1.9263 9.1415 1.51 5.3404 5.6618 10.197 4.7644 14.567-2.6915 1.7791-3.0357 2.0364-4.1557 1.2794-5.57-1.1996-2.2417-8.376-5.8795-13.21-6.6961-6.322-1.0681-9.1588-5.736-6.8475-11.268 1.0782-2.5806 2.1626-3.441 6.276-4.9801 10.577-3.9573 19.705-1.0087 16.34 5.2785-0.9093 1.6991-1.5229 1.8514-5.5656 1.3815-4.7247-0.5491-7.414 0.2839-6.3701 1.973 0.3336 0.5397 1.874 1.008 3.4231 1.0405 4.0283 0.085 12.969 6.6728 14.39 10.603 2.4536 6.788 0.8037 11.616-5.8575 17.142-7.0623 5.8582-13.298 7.5778-20.248 5.5837zm-179.21-2.0449c-0.6872-0.8281-0.8724-2.3824-0.4994-4.1927 1.644-7.9796 1.6048-9.6357-0.2889-12.197-2.3482-3.1761-2.6579-10.93-0.4702-11.77 2.5202-0.9672 5.4384-0.5625 7.2755 1.0089 1.518 1.2983 1.956 3.2583 2.7459 12.289 0.517 5.9092 0.9399 11.157 0.9399 11.661 0 1.7221-3.8591 4.5165-6.2371 4.5165-1.3055 0-2.865-0.5922-3.4657-1.3159zm236.8-1.5528c-1.3127-1.4316-1.9263-3.5334-2.1982-7.5295-0.2433-3.5775-0.8968-6.0632-1.8425-7.0089-1.9608-1.9609-2.3722-1.36-3.8298 5.5935-1.3547 6.4625-2.2841 8.0645-5.3571 9.2328-4.0432 1.5371-5.3546-0.2714-7.7292-10.659-0.7214-3.1556-2.092-7.2611-3.0458-9.1233-2.2519-4.3968-1.3908-7.1002 2.3823-7.4785 3.2929-0.3302 4.3511 1.2799 5.5063 8.3776 0.4417 2.7139 1.0204 5.1515 1.2858 5.4171 0.9778 0.9777 2.7061-1.8132 4.4254-7.1461 2.1158-6.5631 4.9125-8.6151 9.0433-6.6353 1.9033 0.9123 2.6236 2.1056 3.3568 5.5618 1.3126 6.1876 3.3389 6.3283 5.4186 0.3763 1.9112-5.4698 4.5174-7.6298 7.3664-6.1052 1.5102 0.8083 1.7899 1.5179 1.3297 3.3728-0.3206 1.2921-0.813 3.5409-1.0943 4.9973s-1.2502 3.5953-2.1532 4.7531c-0.9624 1.2341-1.6417 3.5348-1.6417 5.5606 0 8.31-6.7136 13.361-11.223 8.4432zm43.672 1.0164c-1.3603-0.7728-1.4713-1.8964-0.9798-9.9289 0.6811-11.131 0-12.934-4.9119-12.934-3.8096 0-5.7918-1.7036-4.9754-4.2761 0.8386-2.642 4.4081-3.5094 16.128-3.9191 9.3482-0.3267 11.145-0.16 13.461 1.2481 1.4697 0.8938 2.6723 2.3767 2.6723 3.2954 0 2.9478-2.1806 3.876-7.7009 3.2781-6.8244-0.7392-7.7273-0.037-6.8895 5.3578 0.7814 5.0324 0.6131 16.4-0.2546 17.19-1.2378 1.127-5.0688 1.53-6.5493 0.689zm27.573-0.8725c-7.26-1.4001-10.135-7.7602-7.4163-16.405 1.2083-3.8413 2.338-5.462 5.4792-7.8605 4.9266-3.7617 9.3791-5.0601 13.398-3.9073 6.6583 1.9095 5.7956 7.304-1.2058 7.5404-2.8379 0.096-4.9004 0.8261-7.1248 2.5228-2.6488 2.0203-3.1308 2.9214-3.1308 5.8533 0 3.7429 1.6704 5.4687 6.4252 6.638 1.8721 0.4604 3.2663 0.04 5.8856-1.7755 2.839-1.9673 3.7503-2.2085 5.2703-1.395 3.0769 1.6467 2.2374 4.2376-2.307 7.1196-4.4119 2.7979-7.6094 3.1473-15.274 1.6691zm43.434 0.2088c-0.6274-0.3981-1.4504-1.8816-1.8288-3.2966-1.0949-4.0939-7.2447-4.0126-9.1279 0.1208-1.2056 2.6459-4.2237 3.5828-6.91 2.145-1.7187-0.9197-1.9004-1.5534-1.4765-5.1504 0.2659-2.2558 0.1349-7.1992-0.2911-10.985-0.4634-4.119-0.4477-7.7426 0.039-9.0227 1.1139-2.9297 4.8172-3.7697 7.1922-1.6313 1.6337 1.4711 1.772 2.2975 1.2785 7.647-0.3318 3.5981-0.1836 6.6881 0.3704 7.7234 1.1773 2.1998 4.4728 2.2171 7.1631 0.038 1.7516-1.419 2.0883-2.5098 2.1117-6.8408 0.015-2.8339 0.3263-6.0034 0.6912-7.0433 1.0089-2.8752 3.965-3.215 6.4396-0.7403 2.467 2.467 2.5146 2.9978 0.7811 8.7119-0.9172 3.0235-1.1412 6.1226-0.7482 10.351 0.3982 4.2839 0.2372 6.4259-0.5547 7.38-1.2232 1.4738-3.3534 1.7203-5.1296 0.5935zm-93.836-2.4452c-0.7264-0.8752-0.8887-3.508-0.5258-8.5241 0.2889-3.9916 0.2087-8.9051-0.178-10.919-0.8648-4.5036 0.1381-6.494 3.2635-6.4762 4.8097 0.027 5.046 0.6742 4.8665 13.32-0.091 6.3929-0.5594 12.018-1.0413 12.5-1.413 1.413-5.2452 1.4725-6.3849 0.099zm249.62-7.9614c-0.3108-0.3108-7.8963-0.5022-16.857-0.4254-15.95 0.1367-16.321 0.098-17.677-1.838-1.5598-2.2269-1.7347-4.0793-0.5603-5.9351 0.6454-1.0197 3.3976-1.2191 14.392-1.0425 16.242 0.2608 15.987 0.406 16.065-9.1457 0.081-9.928-0.3047-10.177-15.804-10.177-14.319 0-15.787-0.5095-15.328-5.3191 0.4248-4.4427 2.6944-4.9369 16.823-3.6626 13.408 1.2092 19.149 1.3365 23.856 0.5292 8.1644-1.4004 11.091 7.2383 3.1741 9.3701-4.3927 1.1829-5.0623 2.9314-4.3762 11.428l0.5336 6.608 3.4021 0.55c5.0065 0.8095 6.7711 5.0854 3.3692 8.1641-1.6021 1.4499-9.7938 2.1161-11.014 0.8957zm-491.99-48.164c-1.064-0.5087-2.1892-1.5698-2.5003-2.3579-0.5508-1.3948-2.0083-15.507-2.5182-24.382-0.1395-2.4273-0.547-6.4327-0.9056-8.901-0.6357-4.3744-0.572-4.558 2.5306-7.2821 2.9939-2.6286 3.5929-2.7944 10.094-2.7944 8.4428 0 11.563 1.7902 11.563 6.6341 0 5.331-5.5127 6.9969-9.0585 2.7374-1.5517-1.8638-1.5594-1.8641-2.918-0.1034-0.9481 1.2287-1.1887 2.7026-0.7915 4.848 0.7636 4.1244 1.0133 4.4179 3.7726 4.4336 4.0866 0.023 4.7985 1.0293 4.0868 5.7751-0.3865 2.578-1.4649 5.1599-2.7207 6.5141-2.4928 2.6884-2.6651 5.4307-0.466 7.4207 2.0645 1.8684 6.6592 1.8591 12.493-0.025 5.4556-1.762 7.3835-1.0045 7.7902 3.061 0.1958 1.9565-0.1998 2.9736-1.4079 3.6202-2.3963 1.2825-26.64 1.952-29.044 0.8021zm39.448-0.042c-1.6991-0.4384-3.4739-1.1704-3.944-1.6266-0.47-0.4564-0.8976-4.7147-0.9501-9.463-0.068-6.1468-0.521-9.486-1.5728-11.594-2.5086-5.0286-1.9915-7.4859 1.9491-9.2628 2.568-1.1581 3.8576-1.3142 5.148-0.6236 3.6527 1.9548 4.0598 3.381 4.1435 14.517l0.081 10.775 3.3058 0.2738c1.9713 0.1632 4.0993-0.2822 5.2718-1.1034 2.4971-1.749 7.2031-1.778 8.6346-0.053 3.3811 4.074 5.0705-1.933 3.7364-13.285-1.0435-8.8787-0.2573-11.426 3.9555-12.816 3.9428-1.3012 12.402-0.3991 14.558 1.5526 0.916 0.8288 1.5819 2.6658 1.5819 4.3637 0 3.6232-3.0297 6.0019-6.5266 5.1242-1.8635-0.4677-2.3002-0.2643-2.3002 1.0714 0 0.9068 0.8091 2.154 1.7979 2.7716 1.5473 0.9663 1.7627 1.8879 1.5447 6.6117l-0.2532 5.4889 2.8037 0.2718c1.5852 0.1536 4.3512-0.5177 6.3643-1.5447 1.9582-0.9991 4.3708-1.8165 5.361-1.8165 1.6364 0 1.8005-0.5492 1.8005-6.0274 0-5.2429 0.3506-6.5566 2.6937-10.094 4.4922-6.782 13.164-9.5978 19.487-6.3277 2.4281 1.2556 3.0485 1.2556 6.7335 0 2.9839-1.0168 7.6097-1.3831 17.464-1.3831 12.226 0 13.61 0.1609 15.732 1.83l2.3264 1.83 4.8718-2.3836c4.4393-2.1719 5.4309-2.3286 11.166-1.7635 10.27 1.012 13.627 4.5619 12.259 12.964-0.424 2.6045-1.2432 5.7716-1.8203 7.0379-0.93 2.0405-0.7887 2.5632 1.2421 4.5939 2.7444 2.7445 2.8811 4.4301 0.5485 6.7628-2.2979 2.2978-5.5529 3.0441-9.5592 2.1917-3.3746-0.718-8.7031-0.8413-14.619-0.3384-3.8714 0.3292-6.2954-1.8563-5.4573-4.9203 0.7448-2.7236 1.7029-19.86 1.1103-19.86-0.2887 0-1.8813 0.8003-3.539 1.7784-2.7716 1.6352-3.2192 1.6711-5.5672 0.4467-5.1968-2.7102-8.4363-0.6836-6.7652 4.2324 1.716 5.0483 0.5195 16.894-1.8651 18.465-1.792 1.1806-4.6603 0.7003-6.2394-1.0447-1.3192-1.4575-1.4741-2.771-1.0154-8.6061 0.2977-3.7872 0.2224-8.2761-0.1673-9.9753l-0.7086-3.0894h-5.3782c-3.7868 0-5.8638-0.4372-7.019-1.4773-1.4362-1.2931-1.8543-1.3207-3.3541-0.2207-0.9424 0.6912-3.3633 1.2567-5.3799 1.2567-5.0483 0-6.8164 2.1413-7.3011 8.8419-0.3636 5.0266-0.2808 5.2825 1.9896 6.1456 4.2849 1.6292 7.2003 1.0533 11.081-2.1887 2.0337-1.6991 4.447-3.0893 5.3628-3.0893 3.7396 0 2.7351 8.4703-1.3055 11.009-1.0178 0.6394-4.5401 1.6148-7.8272 2.1673-6.3334 1.0648-11.024 0.3902-14.352-2.0643-1.5849-1.1686-1.9558-1.0446-4.2078 1.4069l-2.4698 2.6886-7.681-0.5608c-15.331-1.1192-17.986-1.56-19.695-3.2698-2.1144-2.1144-3.1734-2.1093-3.8487 0.018-0.2943 0.9271-1.1362 2.1847-1.8712 2.7946-1.6138 1.3395-17.008 1.7625-21.545 0.5919zm136.63-14.381c2.2782-1.1365 2.8381-2.0484 3.3487-5.4526 0.5373-3.5831 0.3676-4.2865-1.3738-5.6967-4.5352-3.6724-8.6478-1.3976-9.4308 5.2162-0.8258 6.9754 1.5603 8.8742 7.4559 5.9331zm43.631 12.425c-4.8554-1.5162-9.096-4.7729-11.106-8.5292-1.5808-2.9537-1.573-3.0214 1.2283-10.739 2.6241-7.2296 3.1319-7.9774 7.3422-10.813 7.2526-4.8842 15.58-3.7126 15.58 2.192 0 3.3079-2.0584 4.8513-6.1479 4.6101-2.7494-0.1622-3.7435 0.264-5.5092 2.3624-1.1849 1.4083-2.6924 3.8593-3.35 5.4469-1.0228 2.4691-1.0065 3.2199 0.112 5.1926 1.169 2.062 1.8327 2.3043 6.2642 2.2874 3.5132-0.013 5.4675-0.4812 6.7112-1.6067 1.1391-1.031 2.7841-1.4888 4.6899-1.3052 2.3132 0.2228 3.1218 0.8161 3.8151 2.7994 0.7846 2.2446 0.5767 2.7874-1.9231 5.0209-4.6896 4.1902-10.768 5.248-17.707 3.0814zm-24.57-2.4275c-1.2781-2.4717-1.3385-3.7084-0.463-9.4888 0.7109-4.6932 0.7373-7.6108 0.09-9.9269-1.8377-6.5737 4.3351-13.465 8.0509-8.9874 0.7249 0.8735 1.1354 3.4883 1.074 6.8408-0.055 2.9847-0.1275 8.8929-0.1618 13.129-0.053 6.5047-0.34 7.9803-1.8485 9.4888-2.6275 2.6274-5.0316 2.2509-6.7415-1.0557zm298-37.427c-4.1265-1.7405-9.8668-3.9317-12.756-4.8695-6.5554-2.1276-11.076-5.4558-11.076-8.1544 0-3.5455 6.7584-8.0742 16.248-10.887 2.4723-0.73289 5.9687-2.0831 7.7699-3.0005s4.3017-1.668 5.5568-1.668c2.2014 0 6.6152 3.4511 6.6152 5.1724 0 0.46164-1.3902 2.5033-3.0894 4.537-5.0999 6.1042-4.0248 12.046 2.4586 13.588 1.5621 0.3714 2.7902 1.4567 3.368 2.9764 0.7708 2.0276 0.6168 2.6287-1.0118 3.9474-2.7811 2.2521-5.643 1.9185-14.083-1.6412zm-2.8042-12.158c0.2656-2.2545 0.085-2.4008-2.6408-2.1386-3.5295 0.33939-4.3451 2.6411-1.4314 4.0394 2.8056 1.3465 3.7409 0.9099 4.0722-1.9008zm-1684.2 7.0974c-2.3139-0.6524-4.3323-1.3453-4.4854-1.5397-3.5842-4.5509-4.0916-7.68-1.6096-9.9262 2.9011-2.6254 7.9115-1.2952 13.392 3.5559 2.0924 1.852 2.3559 1.8822 5.0485 0.57816l2.8409-1.3759-0.3496-10.716c-0.40831-12.515-0.74704-13.937-4.1254-17.315-5.1872-5.1872-2.6823-7.569 7.1021-6.753 11.059 0.92231 14.792 2.9619 11.045 6.0358-5.041 4.1357-4.829 3.3773-4.4523 15.929 0.43282 14.42-0.28195 17.077-5.3427 19.866-4.6269 2.5496-13.249 3.3009-19.064 1.6611zm348.68-1.4573c-4.5064-2.447-8.5598-9.2294-8.6027-14.395-0.0257-3.0951 4.2932-11.001 7.1024-13.002 3.4394-2.4491 10.046-3.2235 15.197-1.7815 3.1363 0.87809 4.4676 0.81471 7.9874-0.38026 2.8015-0.95108 6.6593-1.3714 11.456-1.2481 3.9778 0.1023 9.7545-0.13179 12.837-0.51999 6.0208-0.7584 7.1529-0.18907 7.1807 3.611 0.0233 3.1843-3.1844 5.2122-8.2445 5.2122h-4.5408l0.13475 6.6201c0.0741 3.641 0.41755 8.1274 0.76318 9.9695 1.0841 5.7783-3.2443 8.6749-7.6409 5.1135-2.0084-1.627-2.073-2.0582-1.7847-11.916l0.29912-10.228h-2.811c-1.546 0-3.9646 0.68143-5.3745 1.5143-2.3277 1.375-2.5636 1.9542-2.5636 6.2953 0 5.6598-1.9534 9.329-7.1631 13.455-4.5441 3.5989-9.5986 4.1954-14.232 1.6794zm9.9555-7.9739c3.9706-3.9707 4.1253-9.711 0.35699-13.251-4.2462-3.989-10.763 1.4215-9.6241 7.9903 1.1636 6.7112 5.4075 9.1204 9.2671 5.2608zm-195.67 7.8296c-1.9905-0.9638-3.8505-4.2126-3.8544-6.7326-4e-3 -2.1714-5.0933-21.988-6.1591-23.979-1.5519-2.8997-0.99088-6.0815 1.5795-8.9581 4.288-4.7991 8.1127-1.7563 8.1127 6.4541 0 4.6777 1.825 15.022 2.8499 16.153 1.0643 1.1748 3.3289-1.9089 3.3289-4.5329 0-2.5848 3.3409-6.2863 6.2993-6.9792 3.0205-0.70756 5.7265 2.0816 6.5081 6.7082 0.31391 1.8581 1.0615 3.7856 1.6612 4.2834 0.84436 0.70076 1.34-1.2303 2.196-8.5553 0.60801-5.2032 1.6637-10.741 2.3459-12.306 1.5799-3.6243 5.1463-4.7414 7.4888-2.3457 1.4176 1.4498 1.5147 2.2766 0.76499 6.5152-0.47228 2.6701-1.4062 6.6422-2.0754 8.8268-1.6851 5.5011-3.1219 13.955-3.1219 18.369 0 6.5109-5.5044 9.4983-9.5556 5.186-1.0556-1.1236-1.9192-2.4744-1.9192-3.0018 0-0.52728-0.93054-2.9673-2.0679-5.4221-1.5659-3.3799-2.3158-4.2153-3.0894-3.4418-0.56181 0.56183-1.0215 2.1257-1.0215 3.4752 0 3.9284-2.5346 9.2157-4.9441 10.314-2.5772 1.1743-2.843 1.1728-5.3266-0.03zm72.181 0.01c-2.1172-0.3765-5.2218-1.4943-6.8991-2.4838-2.7155-1.6023-3.1951-1.6538-4.3783-0.4707-2.1231 2.1231-6.767 1.6691-8.9817-0.878-1.0553-1.2137-2.4866-2.2067-3.1808-2.2067-0.69417 0-2.4423 0.99301-3.8846 2.2067-5.7971 4.878-8.5785 1.4245-5.9062-7.3331 0.84323-2.7634 1.8421-7.5877 2.2198-10.721 0.69093-5.7317 2.7479-8.868 5.8161-8.868 2.6803 0 6.6171 4.7883 7.2572 8.8268 0.71399 4.5045 4.9124 13.086 6.7463 13.79 0.66925 0.25677 2.2796-0.22949 3.5786-1.0806 2.2896-1.5002 2.4812-1.4824 6.2619 0.58292 3.0462 1.6641 4.2356 1.9191 5.4329 1.1652 4.1309-2.6015 0.84638-7.4551-6.4878-9.5872-5.4486-1.584-7.4262-3.2634-7.4262-6.3064 0-1.7904 0.86032-2.5863 4.6923-4.3407 6.4138-2.9363 12.695-3.2525 14.41-0.72539 1.1229 1.6545 1.1125 2.0491-0.0853 3.2469-1.9286 1.9286-1.7036 3.1749 0.95009 5.2623 2.4756 1.9473 4.7478 6.4828 4.7478 9.477 0 2.0631-7.1967 10.197-9.5212 10.761-0.83175 0.2019-3.2446 0.059-5.3618-0.3176zm-201.33-2.9045-2.9504-3.0441 0.15068-8.9701c0.16168-9.6245 0.81213-11.849 3.736-12.777 3.5479-1.126 4.6962 1.4009 4.7282 10.405 0.016 4.4893 0.35037 8.6588 0.74312 9.2656 0.39276 0.60684 2.0669 1.1034 3.7203 1.1034 4.4655 0 5.3568-2.259 3.9122-9.9155-1.5098-8.0016-0.6436-10.717 3.5466-11.118 3.952-0.37787 5.3191 1.4998 5.3191 7.3054 0 2.4591 0.38744 5.8222 0.86097 7.4732 0.7079 2.4683 0.53247 3.5865-0.98674 6.2895-2.6798 4.768-7.2325 7.0264-14.165 7.0264-5.2991 0-5.8552-0.1965-8.6152-3.0441zm37.938 2.4278c-5.0127-0.2307-7.9598-0.7817-8.9438-1.6722-1.141-1.0327-1.6076-3.7561-2.097-12.24-0.34616-6.0017-0.37416-11.716-0.0622-12.699 0.67827-2.137 2.8456-2.7623 5.5426-1.5992 2.5592 1.1037 3.1721 3.234 2.4471 8.5051-0.45376 3.2993-0.18939 5.1963 1.1443 8.2114 2.0796 4.7012 3.9766 5.2983 12.302 3.872 5.2397-0.89751 5.8096-0.83925 6.9422 0.70967 1.5817 2.1631 1.5562 2.5218-0.34563 4.8704-1.7925 2.2137-4.9435 2.5937-16.93 2.0421zm21.227-1.7023c-1.0453-1.3289-1.6872-2.9722-1.4264-3.6517 0.26076-0.67958 0.47411-5.7071 0.47411-11.172 0-9.6843 0.0549-9.9619 2.1591-10.921 1.7461-0.79555 2.5183-0.69281 4.0369 0.53685 1.5973 1.2935 1.8733 2.4411 1.8475 7.6828-0.0167 3.3892 0.38497 8.024 0.89255 10.3 0.71087 3.1869 0.65074 4.7076-0.26175 6.62-1.6727 3.5058-5.2218 3.7841-7.722 0.6056zm197.97 1.6877c-3.627-0.4563-10.033-5.9276-10.033-8.5688 0-1.1006 0.78297-2.7097 1.7399-3.5757 1.6826-1.5228 1.843-1.4841 4.8709 1.1744 5.5232 4.8494 11.029 4.8495 12.72 1.8e-4 1.314-3.7693 1.2207-7.0043-0.30761-10.662-1.0068-2.4097-2.179-3.3955-5.5167-4.6392-8.7817-3.2724-10.607-7.9498-5.2092-13.348 2.8459-2.8458 5.5453-3.647 10.239-3.0387 3.8086 0.49359 6.08 5.9247 3.5938 8.5933-1.6989 1.8235-1.6954 1.8536 0.43638 3.8563 1.1817 1.1102 2.1486 2.3626 2.1486 2.7831s0.84136 1.9025 1.8697 3.2934c1.5854 2.1444 1.8169 3.4621 1.5228 8.6677-0.28439 5.033-0.78797 6.7173-2.7954 9.3492-2.3419 3.0704-8.9337 6.9023-11.361 6.6046-0.63347-0.078-2.3966-0.2981-3.918-0.4896zm-181.29-1.5961c-0.9077-1.0937-0.8404-1.9575 0.361-4.6341 2.0367-4.5373 4.0462-12.413 4.0587-15.908 0.0216-5.9926 7.4346-9.5274 11.485-5.4766 0.97094 0.97095 1.7654 2.8767 1.7654 4.2352 0 1.3584 1.1838 5.8269 2.6306 9.9301 3.1186 8.8441 3.2732 11.045 0.86676 12.333-2.0964 1.1219-4.6882 0.4597-8.1139-2.0729l-2.4439-1.807-2.4762 2.3724c-2.7482 2.633-6.417 3.0966-8.1338 1.028zm205.62-0.055c-0.77172-0.9299-1.2018-4.4099-1.2816-10.372-0.0661-4.9346-0.40619-9.9713-0.75574-11.192-0.50651-1.7696-0.11714-2.7171 1.918-4.6668l2.5536-2.4465 2.1242 1.7213c1.8389 1.4901 2.1244 2.4726 2.1257 7.3148 7.9e-4 3.0764 0.32214 6.09 0.7141 6.6969s2.0794 1.1034 3.7499 1.1034h3.0373v-7.041c0-6.593 0.14481-7.136 2.2751-8.5318 1.7182-1.1259 2.8504-1.2884 4.6255-0.66413 2.7929 0.98216 3.3526 3.0384 1.9966 7.336-0.54901 1.7399-1.0873 7.3342-1.1963 12.432l-0.19809 9.2681-2.7536 0.268c-2.3456 0.2283-3.0278-0.1967-4.6043-2.8687-2.5699-4.3556-5.8959-4.3761-7.7045-0.048-1.432 3.4274-4.5284 4.2171-6.6258 1.69zm-79.388-60.72c-3.7418-1.2135-4.7366-3.1696-6.5646-12.908-2.5418-13.541-3.2673-17.165-4.1762-20.863-1.1539-4.6938 0.81874-8.2657 4.565-8.2657 2.9656 0 4.2568 1.4206 4.8903 5.3802 1.8678 11.674 3.947 15.564 5.1376 9.6108 0.67172-3.3586 4.1651-4.9523 7.6717-3.4998 1.6415 0.67993 2.6858 2.0566 3.4207 4.5094 1.597 5.3304 3.0619 3.7679 3.8954-4.1553 0.60328-5.7342 1.1485-7.4268 3.0338-9.4179 1.2641-1.335 3.2031-2.4274 4.3089-2.4274 3.3418 0 3.93 2.5246 2.0707 8.8879-0.91221 3.1219-1.9144 9.847-2.2272 14.944-0.75297 12.274-2.8561 17.085-7.6433 17.483-3.6685 0.30506-4.4896-0.64567-5.5312-6.4042-0.67037-3.7063-2.6606-7.2793-3.38-6.068-0.23742 0.39976-0.70512 2.5142-1.0393 4.6988-0.91199 5.9616-1.2554 6.7889-3.4016 8.1952-1.5818 1.0365-2.576 1.0957-5.0306 0.29967zm86.512-0.48874c-7.8522-1.5701-10.227-5.5786-9.2817-15.667 0.73084-7.7992 2.8491-11.385 8.4062-14.229 4.483-2.2948 8.2047-2.067 10.942 0.66987 1.5966 1.5967 1.6075 1.8076 0.20338 3.9506-0.98616 1.5051-2.2901 2.2684-3.8904 2.2774-2.8475 0.0159-3.5985 0.48397-6.1888 3.857-3.4458 4.4867-1.8357 12.9 2.4686 12.9 0.92186 0 3.1394-0.99301 4.9279-2.2067 3.9338-2.6696 4.9065-2.7297 6.9858-0.43207 1.5598 1.7236 1.5447 1.8411-0.5252 4.0885-2.0796 2.2579-8.3127 5.6548-10.075 5.4908-0.48547-0.045-2.2729-0.36004-3.972-0.69979zm-301.97-1.9194c-1.3864-1.3864-1.6914-2.429-1.2247-4.1871 1.2163-4.5821 1.5174-20.469 0.43732-23.076-0.94162-2.2733-1.3511-2.4695-4.192-2.0084l-3.1485 0.5109 0.57128-2.8564c1.0675-5.3375 3.2496-8.7632 6.1847-9.7092 8.3779-2.7005 16.234-1.7278 19.491 2.4132 1.0083 1.2818 1.8829 2.6382 1.9436 3.0143 0.0606 0.37593 0.20023 0.98145 0.3101 1.3456 0.10987 0.36411 0.13641 1.8678 0.059 3.3417-0.11325 2.1556 0.56191 3.2444 3.4518 5.5667 1.9759 1.5879 4.6097 4.8944 5.8529 7.3477 2.0307 4.0074 2.1866 5.0061 1.5342 9.8299-0.71515 5.288-0.79005 5.4021-4.9462 7.5389-3.6087 1.8552-5.6873 2.2133-14.349 2.4719-9.3212 0.27822-10.276 0.15508-11.975-1.5437zm18.646-4.7718c3.7791-1.9542 4.6052-4.037 3.3953-8.5606-0.69321-2.5918-2.0046-4.571-4.1223-6.2216-3.1534-2.458-7.5296-3.2034-8.6036-1.4655-0.32469 0.52528-0.31073 3.939 0.031 7.5858 0.87072 9.2919 3.4449 11.69 9.2996 8.662zm-7.0791-25.175c0-2.0819-2.3343-3.2872-3.7072-1.9142-1.373 1.373-0.16769 3.7072 1.9142 3.7072 1.2138 0 1.793-0.57921 1.793-1.7931zm27.457 30.955c-5.1447-0.83272-6.5242-2.7812-5.6344-7.9588 0.87574-5.0961 0.88086-13.004 0.0104-16.115-0.51755-1.8496-0.25961-2.8298 1.1034-4.1927 1.4885-1.4885 2.9378-1.7788 8.8803-1.7788 6.363 0 7.3269 0.22535 9.2681 2.1665 1.1916 1.1916 2.1666 2.7521 2.1666 3.4677 0 1.9162-2.2658 3.851-5.287 4.5146-2.8472 0.62538-3.1739 1.6172-1.7589 5.3391 0.67739 1.7817 0.56888 3.0227-0.44134 5.0478-0.73677 1.4769-1.3396 3.0214-1.3396 3.4323 0 1.0723 3.8729 0.92055 6.7833-0.26568 1.3667-0.55706 4.0592-1.2522 5.9833-1.5447 3.2094-0.48794 3.567-0.82204 4.3279-4.0427 0.5562-2.3544 0.49412-5.1338-0.18846-8.4386-1.3371-6.4736-1.3152-6.7309 0.74753-8.7936 3.6923-3.6922 17.48-1.1178 22.081 4.1231 2.2917 2.6101 2.6338 3.6816 2.6338 8.248 0 4.4827-0.44753 5.9478-3.0683 10.045-2.2978 3.5921-3.8816 5.0649-6.3074 5.8655-4.239 1.399-13.58 0.59192-14.958-1.2924-1.3581-1.8574-1.8813-1.7713-4.9556 0.81559-2.3327 1.9628-3.371 2.1945-9.3956 2.0962-3.7252-0.0609-8.5182-0.39297-10.651-0.73818zm38.238-8.4811c3.3778-3.3778 2.5623-8.7009-1.7678-11.538-2.2558-1.478-2.4046-1.4729-3.5709 0.12208-1.2385 1.6938-1.7236 11.118-0.62856 12.213 1.0746 1.0746 4.5613 0.6087 5.9673-0.79723zm185.75 6.5545c-2.782-2.9781-2.4492-2.9999-8.6997 0.57021-1.804 1.0304-2.5037 1.053-3.9 0.12587-1.5168-1.0071-1.7281-2.4131-1.9461-12.954-0.25749-12.449 0.15966-14.095 3.5705-14.095 3.9892 0 5.1593 1.892 5.0242 8.1236-0.1327 6.12 0.96787 8.1966 4.0314 7.6067 2.2127-0.42616 2.4694-3.0119 0.69061-6.9566-1.8429-4.0868-1.217-7.3264 1.7969-9.3012 2.769-1.8143 6.118-1.0478 8.0049 1.832 1.1949 1.8236 1.2476 2.6654 0.33932 5.4175-0.68484 2.0752-0.91913 6.2458-0.64514 11.484 0.36392 6.9574 0.20056 8.4335-1.0597 9.5739-2.2614 2.0466-4.3485 1.6334-7.2072-1.4269zm-139.4 0.5034c-0.80286-0.96733-1.0883-3.8487-0.94005-9.4888 0.15587-5.929-0.17785-9.0325-1.2453-11.581-1.3832-3.3023-1.3744-3.5427 0.16996-4.6724 2.7028-1.9768 5.7724-2.3507 8.1871-0.9969 2.2382 1.2547 2.2712 1.4267 2.5206 13.155 0.23916 11.245 0.15092 11.967-1.6425 13.429-2.3548 1.9193-5.5279 1.9893-7.0498 0.15544zm155.4 0.0618c-0.73201-0.88197-1.1695-5.2331-1.3038-12.967-0.193-11.117-0.11055-11.731 1.8362-13.678 2.2447-2.2447 4.9376-2.6419 6.3386-0.93493 1.0716 1.3057 1.5512 20.234 0.60943 24.053-0.35916 1.4564-1.0456 3.1445-1.5253 3.7514-1.1983 1.5157-4.618 1.387-5.9551-0.22411zm57.289-1.3045c-4.7512-3.2194-6.408-3.2969-9.7826-0.4574-3.073 2.5858-3.66 2.673-5.5134 0.81965-1.0328-1.0329-1.3871-3.2145-1.3871-8.5434 0-3.936-0.46991-8.4559-1.0442-10.044-2.0087-5.555 3.1358-10.878 7.6529-7.9184 1.6735 1.0966 2.0284 2.3243 2.4501 8.4772 0.27123 3.9572 0.69881 7.4006 0.95016 7.652 0.25135 0.2513 1.7316 0.17706 3.2895-0.16515l2.8325-0.62211-0.54291-6.4227c-0.51787-6.1264-0.43406-6.5316 1.8167-8.7823 1.7854-1.7854 2.9084-2.2304 4.6143-1.8284 2.6126 0.61567 5.344 3.5155 5.344 5.6734 0 0.82009 0.36887 1.8684 0.8197 2.3296 0.50455 0.51619 0.49335 2.5353-0.0291 5.2519-0.46686 2.4274-0.79364 5.4064-0.72617 6.6201 0.0674 1.2137 0.0806 2.9324 0.0291 3.8193-0.0978 1.687-4.6571 6.7729-6.0716 6.7729-0.44976 0-2.5656-1.1844-4.702-2.632zm-196.42 0.1911c-0.65779-0.42969-0.95566-4.3602-0.88267-11.647l0.11017-10.999 2.9992-2.021c3.9913-2.6895 5.0177-2.566 8.6213 1.0376l3.0585 3.0585 3.1103-2.8378c4.121-3.7601 5.3165-4.3714 7.311-3.7383 2.4015 0.76219 3.5365 4.7658 2.6563 9.3699-0.40879 2.1385-0.50911 6.5601-0.22292 9.8259 0.59679 6.8102-0.29813 8.6263-4.2509 8.6263-2.6326 0-3.2067-0.49263-9.16-7.8605-4.6712-5.781-5.7374-5.7263-5.7374 0.29473 0 3.1791-0.46678 5.2585-1.3871 6.1788-1.4573 1.4572-4.544 1.81-6.2259 0.71152zm1503-2.0069c-2.3098-2.1518-2.5401-6.2926-0.4656-8.3671 1.1309-1.1309 2.2916-1.3245 5.0754-0.84666 4.3255 0.74259 14.926 0.76316 17.829 0.0344 3.4074-0.85514 4.8906-4.8287 3.8676-10.361-0.4778-2.5842-1.3249-5.5742-1.8824-6.6445-2.2689-4.3552 5.2206-9.3741 8.9509-5.9983 0.9056 0.81957 1.465 1.9631 1.2432 2.5411-0.2218 0.57807 0.2022 4.215 0.9421 8.0819 0.74 3.8669 1.3454 8.3749 1.3455 10.018 2e-4 4.2865-1.7805 9.6233-3.4358 10.297-1.8217 0.74154-22.236 2.9805-27.512 3.0174-2.8599 0.0203-4.5859-0.49333-5.9581-1.7717zm-409.73-59.931c-2.1846-0.32465-5.3184-1.3034-6.9638-2.1751-2.2998-1.2182-4.0459-1.4531-7.5489-1.0154-7.0878 0.88557-7.4527 0.12227-7.3654-15.407 0.07-12.326 0.1495-12.867 2.1937-14.78 1.7952-1.6803 3.1029-1.986 8.4954-1.986 5.8082 0 6.6643 0.23974 9.653 2.7033 5.668 4.6721 5.9136 12.067 0.6194 18.655-2.8053 3.4908-2.8457 3.6532-1.2133 4.8804 2.0369 1.5313 9.7528 0.90928 13.637-1.0993 5.7819-2.9899 10.028-0.25215 7.9763 5.1434-1.7622 4.6349-9.284 6.5963-19.483 5.0806zm-8.4639-17.778c1.2569-1.4937 2.2852-3.6112 2.2852-4.7056 0-2.2415-3.2381-4.4084-5.8421-3.9093-2.9418 0.56382-2.3949 11.331 0.5757 11.331 0.3828 0 1.7244-1.2221 2.9812-2.7158zm85.257 16.253c-4.958-1.916-7.2663-3.5097-8.891-6.1384-1.7293-2.7981-1.7853-3.4323-0.8123-9.2007 1.3837-8.2034 1.0828-8.7903-4.5042-8.7903h-4.5534l0.4037 4.201c0.222 2.3105 0.9867 5.3889 1.6993 6.8408 1.1955 2.4355 1.1355 2.9636-0.7749 6.824-2.2576 4.5622-4.6364 6.365-7.2881 5.5234-2.3625-0.74985-3.5141-5.5859-3.5199-14.783v-7.7234h-4.7918c-5.4791 0-7.5657-1.4403-7.5657-5.2223 0-1.3465 0.7944-3.1671 1.7653-4.0458 0.971-0.8787 1.7654-1.2888 1.7654-0.9114s0.4965 0.30154 1.1033-0.16862c1.7394-1.3476 26.654-0.86526 28.358 0.54906 0.9467 0.78572 2.4955 0.9729 4.7299 0.57162 8.7826-1.5773 12.968-1.4754 15.96 0.38869 5.1371 3.2001 8.6268 14.728 6.4464 21.295-1.4007 4.2182-5.7354 8.5114-9.6612 9.5685-5.115 1.3773-8.407 1.785-9.8647 1.2216zm7.1194-9.155c0.9391-0.50255 1.7073-1.4469 1.7073-2.0986 0-0.65168 0.5958-1.6794 1.3241-2.2837 3.2995-2.7384 0.2573-9.7095-4.2374-9.7095-4.1432 0-6.7961 3.0114-6.7961 7.7147 0 2.1319 0.4111 4.6445 0.9137 5.5835 1.0059 1.8796 4.358 2.2549 7.0884 0.79359zm-203.52 6.7267c-2.1009-2.1009-2.1236-2.2989-1.5971-13.948 0.4886-10.809 0.3667-12.264-1.4288-17.067-2.9465-7.8812-2.9432-7.8526-1.0916-9.5284 2.3159-2.0958 14.899-3.4097 19.406-2.0263 1.9714 0.60504 5.3817 3.1545 8.7572 6.5467 5.2531 5.279 5.5285 5.7681 5.5285 9.8195 0 3.0021 0.5514 4.9648 1.8635 6.6328l1.8634 2.369 2.0482-4.0456c3.2552-6.4298 9.7005-11.072 13.102-9.4364 1.0262 0.49343 4.0786 1.8673 6.7831 3.053 3.8853 1.7034 5.2732 2.876 6.6132 5.5871 0.9327 1.8872 1.7525 3.8285 1.8216 4.3139 0.069 0.48547 0.2039 1.0813 0.2993 1.324 0.864 2.1974 0.2159 6.4685-1.5066 9.9297-2.8597 5.7459-7.2387 8.6065-13.175 8.6065-8.7665 0-14.12-3.9613-15.157-11.216-0.6213-4.3432-2.95-6.0647-3.2214-2.3814-0.1626 2.2081-3.5289 7.1675-6.5336 9.6257-3.2827 2.6857-7.7835 3.8295-15.363 3.9042-6.1461 0.0606-7.1084-0.15971-9.0119-2.0633zm17.636-6.064c3.0007-1.6995 3.6103-2.5605 4.2083-5.9436 0.8222-4.6513 0.3018-7.3718-2.0386-10.659-0.9386-1.3182-1.7067-3.0017-1.7067-3.741 0-1.5205-5.5573-6.4003-8.0232-7.0452-3.0444-0.7961-3.6319 1.3412-2.5445 9.2557 0.5554 4.0427 0.7493 9.7976 0.4309 12.789-0.5002 4.6985-0.3605 5.5654 1.0275 6.3726 2.4569 1.4288 4.7998 1.1501 8.6463-1.0285zm35.706-1.192c3.4476-4.3829 1.8444-12.596-2.8391-14.546-2.1567-0.89775-2.7342-0.76911-4.657 1.0372-5.0003 4.6976-6.0657 10.233-2.6308 13.668 3.0374 3.0373 7.6698 2.9645 10.127-0.15916zm20.612 7.8588c-1.9335-0.9627-3.6731-3.0376-5.4382-6.4863-2.1808-4.261-2.5656-5.9808-2.4096-10.768 0.1506-4.6202 0.6017-6.1919 2.3861-8.3125 4.4977-5.3453 13.571-6.3042 19.707-2.0825 3.7443 2.5762 3.7814 2.6541 4.3253 9.0889 0.6005 7.1043 0.019 12.777-1.507 14.713-1.4376 1.8229-9.4538 5.3667-12.014 5.3112-1.2136-0.0263-3.4859-0.6848-5.0496-1.4633zm10.177-8.4233c0.9478-1.9865 0.9637-3.3635 0.085-7.2925-1.2564-5.6142-2.5352-7.0082-5.6998-6.2139-2.8468 0.71451-5.1972 5.8448-4.4316 9.6729 1.2738 6.369 7.6725 8.8105 10.047 3.8335zm154.83 8.5776c-1.8776-1.3152-1.9617-1.9368-1.9617-14.497 0-7.2175-0.4534-15.087-1.0075-17.487-1.6302-7.0626 0.4775-11.658 5.3471-11.658 4.8308 0 5.7793 2.4082 6.0993 15.485 0.2013 8.2295 0.6305 12.058 1.4254 12.718 0.7465 0.61953 3.2258 0.71181 7.2147 0.26853l6.0773-0.67537-0.1256-3.5264c-0.069-1.9396-0.2552-6.5055-0.4136-10.147-0.4564-10.492 2.3763-15.954 7.5946-14.645 2.9488 0.74009 4.263 5.0737 2.9414 9.6985-0.6101 2.1346-1.0032 9.2404-0.9574 17.304 0.086 15.076-0.5969 17.654-4.6762 17.654-1.5942 0-2.7242-0.86115-4.0266-3.0686-1.2572-2.1307-2.7992-3.3432-5.0456-3.9671-4.9951-1.3874-5.4997-1.2079-9.8552 3.505-4.3865 4.7464-5.5887 5.1698-8.6304 3.0393zm37.215-1.8096c-0.6203-2.4713 1.0639-11.494 2.2865-12.249 0.407-0.25156 1.0033-2.5423 1.3251-5.0905 1.0827-8.5728 3.4929-13.901 6.288-13.901 0.6259 0 2.1728 0.89371 3.4375 1.986 1.8604 1.6068 2.4827 3.2501 3.2589 8.6061 0.5278 3.641 1.9557 8.6061 3.1732 11.033 1.8748 3.7375 2.7943 8.727 1.7929 9.7284-0.1534 0.15342-1.2882 0.53226-2.5218 0.84187-1.6831 0.42243-2.8506-2.8e-4 -4.6777-1.6936-3.0911-2.8647-3.6697-2.8319-6.8931 0.3915-3.381 3.381-6.6696 3.5338-7.4695 0.34704zm30.919 1.528c-4.9846-1.2999-5.0678-1.4793-4.5115-9.7266 0.3681-5.4592 0.1582-8.5882-0.7463-11.126-2.5075-7.0342-0.8276-11.033 4.6343-11.033 3.4917 0 4.6995 1.571 5.2156 6.7842 0.6834 6.9039 0.681 7.5876-0.042 11.941l-0.6916 4.1614 3.2547 1.552c3.0852 1.4712 3.3928 1.4728 5.9045 0.0312 1.4574-0.83643 4.3626-1.5208 6.4559-1.5208 4.5072 0 5.0412-0.87792 3.8709-6.3645-0.4671-2.1902-0.7296-6.4995-0.5832-9.5764 0.2493-5.2452 0.4421-5.6968 3.0898-7.2392 3.4078-1.9852 5.6658-1.1317 7.2734 2.7493 1.1322 2.7334 0.8986 15.724-0.3475 19.325-0.6843 1.9776-0.6591 1.9831 7.9806 1.7654l8.6672-0.21848 1.3654 2.4809c1.2949 2.3528 1.2578 2.5693-0.7184 4.1927-1.7981 1.4771-3.496 1.7118-12.382 1.7118-7.8421 0-10.761-0.32403-12.238-1.3587-1.7521-1.2272-2.1506-1.2207-4.1167 0.0677-2.4878 1.63-16.842 2.5725-21.335 1.4007zm223.08-12.534c-1.8982-2.0375-2.4301-4.9017-1.2174-6.5551 2.3317-3.1787 10.218-3.7417 23.819-1.7003 4.2773 0.64201 4.0196 1.2197 3.7683-8.4491-0.1231-4.7374-0.652-7.4028-1.8599-9.3723-2.2449-3.6607-2.2108-7.0559 0.077-7.6541 0.9705-0.25378 1.9656-0.13607 2.2113 0.26159 0.2458 0.39765 2.0108 0.98722 3.9222 1.3102 1.9114 0.32292 3.8766 1.0708 4.3671 1.6618 0.5374 0.64751 0.8208 6.7886 0.7129 15.449-0.165 13.239-0.3186 14.477-1.9445 15.674-1.3252 0.97532-2.8656 1.1359-6.1787 0.64395-5.4027-0.80216-15.221-0.74777-21.277 0.11785-4.0183 0.57434-4.7115 0.42404-6.3994-1.3877zm-80.166-21.833c-3.4217-0.48722-4.2297-2.3746-3.0169-7.0468 1.7297-6.6639 1.7036-5.1486 2.9433-170.54 0.012-1.6992-0.068-4.4796-0.1789-6.1788-0.1111-1.6992 0.03-10.438 0.3142-19.419 0.9156-28.967 0.8139-103.46-0.1468-107.48-0.5807-2.4284-0.6261-7.1242-0.1279-13.24 0.4576-5.6173 0.4257-17.925-0.079-30.22-0.4677-11.409-0.7793-29.68-0.6924-40.603 0.086-10.923-0.2157-37.139-0.6721-58.257-0.4565-21.118-0.6485-43.362-0.4268-49.43 0.2218-6.0684 0.4191-15.403 0.4385-20.743l0.035-9.7095-3.5307 0.12393c-6.7984 0.23864-14.218 0.33178-25.598 0.3213-28.955-0.0267-35.274 0.0918-42.968 0.80553-6.6334 0.61528-8.7149 0.51182-10.745-0.53404-2.0359-1.0488-3.0045-1.0956-5.0595-0.24442-1.5302 0.63383-5.0942 0.89797-8.9568 0.6638-4.7134-0.28575-7.6813 0.0388-11.188 1.2235-5.8899 1.99-8.6878 2.0279-12.416 0.16805-1.5925-0.79441-4.3346-1.3776-6.0937-1.2959-3.6889 0.17122-8.3928 0.66777-8.7151 0.91999-0.4751 0.37172-9.1303 0.26638-9.5125-0.11577-0.2233-0.22337-5.8702-0.30941-12.549-0.19118-6.6785 0.11823-13.718-0.12631-15.644-0.54342-2.2064-0.47789-3.8995-0.42806-4.5776 0.13473-0.7308 0.60649-1.6745 0.57292-2.9404-0.10458-1.3152-0.70391-3.2163-0.74488-6.4558-0.13913-2.5254 0.47222-10.351 0.69861-17.39 0.50312-7.0393-0.19551-15.381-0.34909-18.536-0.34131-3.1556 8e-3 -10.901 2.3e-4 -17.212-0.0168-6.3111-0.017-12.666 0.0126-14.123 0.0659-20.067 0.73371-40.71 0.95293-63.112 0.67024-11.361-0.14339-37.392-0.0818-56.05 0.13253-5.8256 0.0669-14.167 0.12582-18.536 0.13087-4.3693 5e-3 -9.9301 0.0451-12.358 0.089-5.3963 0.0976-12.383 0.0788-19.419-0.0523-2.9129-0.0543-18.602-0.0755-34.866-0.0471-25.037 0.0437-47.148-0.38105-54.285-1.0428-0.971-0.09-4.8496 0.23624-8.6193 0.72507-4.522 0.58638-7.9756 0.59315-10.151 0.0199-6.2118-1.6371-8.6013-1.7082-14.729-0.43829-6.255 1.2963-11.662 1.0256-24.845-1.2436-3.5791-0.61611-6.9814-0.64136-10.151-0.0753-2.7335 0.48823-6.8381 0.5453-9.6219 0.13379-2.6701-0.3947-9.8645-0.74664-15.988-0.78208l-11.133-0.0644-8.22 7.7234c-4.521 4.2479-12.619 12.258-17.996 17.801-12.084 12.458-13.335 13.671-19.18 18.61-6.021 5.0872-14.02 13.146-24.575 24.76-8.787 9.6689-15.901 16.726-16.862 16.726-0.3122 0-1.5124 1.3908-2.6673 3.0907-1.1549 1.6999-2.7726 3.3084-3.5948 3.5744-1.7243 0.55792-8.4244 7.3996-14.401 14.706-2.2683 2.7727-4.8182 5.2616-5.6665 5.5309-0.8483 0.26925-5.8765 4.6538-11.174 9.7435-7.5463 7.2504-10.166 9.254-12.101 9.254-3.1773 0-6.7988-3.8156-6.7988-7.1632 0-2.0682 0.86114-3.0429 5.0633-5.731 4.1395-2.648 14.563-12.13 24.155-21.972 0.9462-0.97094 3.6486-3.7514 6.0052-6.1788 4.7836-4.9272 14.54-14.661 15.676-15.64 0.4051-0.34915 16.357-16.039 35.449-34.866 19.092-18.827 37.31-36.644 40.485-39.594 5.3584-4.9779 5.7931-5.6636 6.0528-9.5479 0.1538-2.3017 0.7521-4.7541 1.3296-5.4498 1.3409-1.6158 4.3202-1.5759 6.519 0.0872 1.4479 1.0951 7.9016 1.296 41.649 1.296 22.512 0 40.879-0.35851 42.097-0.8217l2.1613-0.82169-0.4104-25.438c-0.2257-13.991-0.3506-35.964-0.2776-48.829 0.2377-41.897 0.242-57.483 0.021-78.451-0.1194-11.349 0.075-34.846 0.4318-52.215 0.357-17.368 0.3381-32.082-0.042-32.697-0.38-0.61491-0.6712-2.9158-0.6471-5.1132 0.034-3.0963 0.5104-4.3731 2.1179-5.6747 2.6313-2.1308 8.1699-1.5652 10.837 1.1067 2.0664 2.0701 2.1833 3.6352 2.1109 28.284-0.022 7.5248 0.032 37.315 0.12 66.201 0.2848 93.378 0.2731 99.818-0.2269 125.71-0.3332 17.249-0.1889 26.093 0.4451 27.277 0.904 1.6891 1.4891 1.7264 16.061 1.0255 8.3175-0.40008 34.387-0.65817 57.933-0.57354 23.545 0.0847 62.67 0.13806 86.944 0.11872 24.274-0.0193 49.842-0.0384 56.82-0.0424 6.9771-4e-3 12.856 0.16286 13.064 0.37074 0.2079 0.20788 1.676 0.0852 3.2624-0.27257 1.5864-0.3578 13.781-0.74569 27.098-0.862 23.482-0.20508 61.627-0.77828 67.906-1.0204 1.6992-0.0655 14.807 0.20219 29.128 0.59492s27.628 0.57118 29.57 0.39654c6.2946-0.56607 22.068-0.47099 70.614 0.42566 66.428 1.2269 63.604 1.2664 63.318-0.88499-0.2543-1.9109-1.4487-75.117-1.3322-81.648 0.394-22.079 0.6379-52.307 0.5058-62.67-0.09-7.0394 0.018-30.272 0.2414-51.628 0.2226-21.356 0.1556-39.429-0.1487-40.162-0.7642-1.8396-0.7627-7.4624 0-8.7 0.346-0.55996 0.3846-1.0181 0.086-1.0181-0.2989 0 0.1605-1.1916 1.0209-2.648 1.0891-1.8438 2.2436-2.6439 3.8012-2.6345 2.5534 0.01543 3.1829 0.39872 6.1307 3.7331 2.0218 2.2869 2.1181 2.9269 1.925 12.791-0.1118 5.7111-0.5182 12.966-0.9031 16.121-0.4135 3.3894-0.3526 6.6405 0.1487 7.9441 0.8886 2.3107 1.7554 76.135 1.3576 115.63-0.1247 12.38-0.1655 34.424-0.091 48.989 0.1921 37.464 0.1949 39.907 0.064 55.167-0.1081 12.594 0.8743 94.321 1.1459 95.329 0.065 0.24274 0.068 2.2288 0.01 4.4134-0.062 2.1846 0.2507 5.8702 0.695 8.1901 0.4917 2.5668 0.4772 15.007-0.037 31.776-0.4646 15.157-0.8412 31.729-0.837 36.826 0 5.0975-0.044 15.822-0.1081 23.832-0.1733 21.785-0.1832 20.808 0.7224 71.056 0.8496 47.147 0.891 74.218 0.146 95.329-0.2227 6.3112-0.4795 45.178-0.5707 86.372-0.1542 69.696-0.06 75.013 1.3507 76.572 0.8339 0.92156 2.0042 1.6756 2.6006 1.6756 1.7341 0 2.2372 3.7423 0.7983 5.9383-0.7228 1.1032-2.1987 2.0261-3.2799 2.0509-1.0811 0.0248-4.5475 0.12407-7.7031 0.22067s-6.6022 0.0525-7.6593-0.098zm-1118.2-187.3c-0.30004-0.48547-0.12488-0.88268 0.38924-0.88268 0.51413 0 0.93478 0.39721 0.93478 0.88268s-0.17516 0.88268-0.38925 0.88268c-0.21408 0-0.63473-0.39721-0.93477-0.88268zm885.92-42.741c0.1587-1.2817 0.6858-2.318 1.1713-2.3029 1.3203 0.041 1.0652 3.7916-0.2886 4.2428-0.8182 0.27274-1.0843-0.31197-0.8827-1.9399zm-591.6-297.59c-3.4027-4.1-4.0266-4.1529-47.713-4.0404-22.671 0.0583-42.152 0.42195-43.291 0.80791-2.7214 0.92247-24.99 0.61634-37.8-0.51965-5.5729-0.49416-10.339-0.77397-10.592-0.6218-0.25281 0.15218-5.0275 0.52604-10.61 0.83082-9.9426 0.54278-21.312 0.60311-88.268 0.46838-18.205-0.0366-41.74 0.0834-52.299 0.2667-10.559 0.18331-19.198-0.0122-19.198-0.43449 0-0.71555-10.912-12.358-29.169-31.124-4.251-4.3692-13.948-13.902-21.549-21.184-16.066-15.392-34.627-33.754-49.025-48.499-5.5829-5.7175-12.335-12.249-15.006-14.514-2.6701-2.2652-10.141-9.6686-16.602-16.452-6.4609-6.7834-16.093-16.834-21.405-22.335-11.168-11.566-11.769-13.22-6.6568-18.332 4.7291-4.7291 10.135-3.5592 10.211 2.21 0.02 1.5133 3.4994 5.6898 12.133 14.564 6.6579 6.8434 13.165 13.147 14.461 14.008 1.2956 0.86132 3.3956 3.1374 4.6665 5.058s3.8158 4.2597 5.6551 5.198c3.5409 1.8064 8.3279 6.2423 13.425 12.44 1.6992 2.0662 5.5719 6.4214 8.6061 9.6783 3.0342 3.2569 5.5244 6.287 5.5338 6.7336 9e-3 0.44661 2.0016 2.5994 4.4271 4.7841 6.0072 5.4107 13.311 12.703 18.565 18.536 8.87 9.8475 15.472 16.513 18.639 18.818 1.7884 1.3018 5.7605 5.0033 8.8268 8.2256 24.262 25.496 32.983 33.861 35.301 33.861 1.3149 0 3.7044 0.7203 5.3099 1.6007 2.6455 1.4506 5.195 1.5828 27.193 1.4103 13.351-0.10469 25.568-0.4734 27.15-0.81935 1.913-0.41829 3.3486-0.23749 4.2849 0.53963 1.1333 0.94053 13.409 1.2098 62.883 1.3792 33.811 0.11584 62.865-0.0944 64.564-0.46723 1.6992-0.37281 4.4623-0.31073 6.1404 0.13796 6.2227 1.6638 5.9194 5.6069 5.4932-71.412-0.20919-37.808-0.23121-80.857-0.0489-95.664 0.57934-47.056 0.23734-74.87-0.938-76.286-0.82715-0.99666-0.81101-1.7252 0.0735-3.3194 0.62333-1.1233 1.1474-2.4066 1.1646-2.8516 0.10896-2.8184 11.147-2.6017 14.717 0.28889 1.7057 1.3812 1.8382 1.9247 1.0102 4.1443-0.59383 1.5918-1.0332 13.533-1.1658 31.683-0.11701 16.021-0.23484 31.313-0.26185 33.983-0.027 2.6701 0.0363 17.962 0.14066 33.983 0.10437 16.021-0.20241 41.542-0.68173 56.714-0.47932 15.172-0.67642 28.094-0.43799 28.716 0.23842 0.62133 0.52795 14.11 0.64341 29.975 0.15308 21.035 0.49705 29.132 1.2705 29.906 0.77982 0.77982 6.6189 0.99869 22.057 0.82681 11.548-0.12858 30.34-0.29256 41.759-0.3644 20.095-0.12642 20.844-0.19447 23.289-2.1166 2.8736-2.2588 7.7156-2.6314 9.3052-0.71606 1.1675 1.4068 1.5112 12.599 0.52475 17.091-0.90324 4.1123-4.5202 5.8417-6.7069 3.2068zm-781.02-62.148c-4.0218-0.9827-4.647-2.2636-3.8881-7.9665 0.35529-2.6701 0.59537-6.0463 0.53351-7.5028-0.42804-10.078-1.1441-18.038-1.8263-20.302-1.0693-3.5486-0.20342-6.56 2.4473-8.5112 1.8895-1.3909 3.0706-1.5124 8.7165-0.89625 7.7306 0.84362 9.4452 2.346 10.335 9.0559 0.48668 3.6688 1.111 4.7811 3.9422 7.0234 5.6338 4.4621 8.5817 15.438 6.0764 22.624-1.441 4.1338-6.0893 6.1621-15.41 6.7243-4.3693 0.26356-9.2864 0.15123-10.927-0.24963zm15.866-8.0266c2.9266-2.0839 3.1456-3.7459 1.1505-8.7319-1.552-3.8788-5.812-7.0962-9.3958-7.0962-3.5125 0-4.1802 1.6185-3.587 8.6944 0.42727 5.0964 0.90789 6.6557 2.3664 7.6772 2.5881 1.8128 6.4698 1.5899 9.4659-0.54353zm115.11 6.1371c-1.4564-0.45799-4.2749-0.6073-6.2634-0.33179-5.4555 0.75588-5.9081-0.28172-6.0403-13.849-0.12865-13.204 0.53761-14.909 6.5272-16.704 4.896-1.4669 10.173 1.5308 13.459 7.6457 2.1531 4.0069 2.2823 4.7418 1.3236 7.5306-0.58433 1.6997-1.7573 4.1509-2.6066 5.4471-2.2489 3.4323-1.9332 4.1826 1.7658 4.1978 4.591 0.0187 5.9739 1.0136 4.705 3.3847-1.9033 3.5564-6.8228 4.5803-12.87 2.6788zm-0.58964-13.884c0.43746-3.0898-1.5542-7.1983-3.4895-7.1983-1.424 0-1.6583 0.69422-1.6583 4.9134 0 4.8393 0.0366 4.9092 2.4274 4.6341 1.7714-0.20381 2.5066-0.83869 2.7204-2.3491zm18.519 11.651c-3.566-3.0099-4.1018-3.9387-4.6466-8.0555-1.424-10.759 3.8736-19.651 12.404-20.82 5.9006-0.80876 8.6781 0.99338 15.574 10.105 1.5149 2.0017 1.5628 2.0069 2.8794 0.31643 0.73639-0.9455 1.5831-2.8151 1.8815-4.1547 0.7894-3.5434 7.0262-6.1747 12.815-5.4067 2.3508 0.31184 4.2742 0.86669 4.2742 1.233 0 0.36632 0.75396 0.86318 1.6755 1.1042 2.2419 0.58626 4.4415 4.1046 5.7342 9.172 0.58346 2.2872 1.4778 4.2975 1.9875 4.4674 0.53116 0.17705 1.3718-2.3861 1.9694-6.0052 1.4166-8.5782 2.0902-9.6387 6.0973-9.6005 1.8034 0.0172 4.2466 0.56722 5.4292 1.2223 1.8578 1.029 2.6592 0.97283 5.8935-0.41356 7.1719-3.0742 10.942 0.19406 12.266 10.634 0.33856 2.6696 1.1704 5.9268 1.8486 7.2383 1.8704 3.617 1.5625 7.4373-0.72871 9.0422-2.6815 1.8782-3.6415 1.7444-6.8493-0.95483l-2.7677-2.3289-1.3173 1.8807c-2.073 2.9597-4.3189 3.8217-6.8968 2.6472-1.2321-0.56138-2.4732-1.7548-2.758-2.6521-0.6742-2.1242-2.3744-2.0722-4.3709 0.13396-2.0121 2.2233-7.0672 2.4081-7.8808 0.28809-0.31178-0.81249-0.30918-3.1957 6e-3 -5.2961 0.47379-3.1621 0.32735-3.8188-0.85197-3.8188-0.87006 0-1.4242 0.74036-1.4242 1.9027 0 2.5001-3.8404 7.4651-7.0632 9.1317-3.5597 1.8408-10.431 1.6827-13.708-0.31536-1.4718-0.89752-3.4188-3.2793-4.3268-5.2928-0.90797-2.0135-1.9828-3.6609-2.3884-3.6609s-1.688 1.4895-2.8497 3.31c-3.8956 6.105-6.2117 7.6063-12.335 7.9963-5.3588 0.34122-5.6745 0.24066-9.5723-3.0494zm13.465-6.1216c0.92717-1.1172 0.95386-2.3687 0.13389-6.2779-1.6498-7.8657-4.4289-9.5113-7.9712-4.72-3.7838 5.1179-1.5044 12.311 3.9186 12.366 1.5183 0.0153 3.2817-0.60016 3.9186-1.3676zm28.187-0.37003c2.6396-2.6396 2.3561-7.6723-0.60648-10.765-2.8631-2.9885-4.1525-3.0996-5.9636-0.51391-1.9159 2.7353-1.7132 7.4402 0.4514 10.48 2.1469 3.015 3.6994 3.2176 6.1186 0.79827zm-145.48 8.1431c-1.122-0.18478-2.2568-0.90096-2.5218-1.5915-0.61628-1.606-2.902-1.5627-5.0957 0.0965-4.1888 3.1682-7.6614 0.48233-5.7787-4.4695 0.51606-1.3574 1.1877-6.2652 1.4926-10.906 0.60521-9.2136 1.8926-11.515 6.4408-11.515 3.957 0 6.1788 2.7596 6.1788 7.6745 0 4.8579 1.0362 8.7187 3.6802 13.712 0.97568 1.8426 1.5622 3.9019 1.3034 4.5763-0.65545 1.7081-3.2763 2.8224-5.6996 2.4233zm17.518-1.0237c-0.50256-0.93903-0.91373-5.4929-0.91373-10.12 0-9.3615-0.0607-9.4596-6.5896-10.641-4.9404-0.89373-8.46-2.8706-7.8662-4.4182 0.85129-2.2184 5.7372-3.0691 17.184-2.9919 6.1126 0.0412 12-0.20629 13.083-0.55002 1.3231-0.41991 2.52-0.12629 3.6486 0.89506 1.2433 1.1251 2.5453 1.3824 5.0122 0.99021 5.0624-0.80475 5.9181 0.20067 6.4219 7.5453l0.44134 6.4332 4.2613 0.27183c6.047 0.38575 7.0473-0.71871 6.3208-6.9785-0.51141-4.4063-0.35035-5.2905 1.2564-6.8972 2.2638-2.2638 3.1511-2.3003 5.236-0.21543 1.312 1.312 1.7488 3.6552 2.2528 12.085 0.56725 9.4881 0.46906 10.667-1.0591 12.716-2.3678 3.1746-3.96 3.1959-7.4862 0.0998-2.4533-2.154-3.8714-2.6963-7.0514-2.6963-3.5032 0-4.0465 0.26299-4.531 2.1932-0.56544 2.2529-3.3741 3.5407-6.4118 2.9398-1.2763-0.25245-1.5795-1.0547-1.4475-3.8296 0.41899-8.808 0.49788-11.623 0.39008-13.917l-0.11572-2.4631-14.564 0.51273 0.31367 9.0656c0.21729 6.28-0.0193 9.4669-0.77009 10.371-1.5809 1.9049-5.9137 1.6569-7.0153-0.40148zm645.23-2.025c-5.1359-2.6082-7.8495-7.7522-8.5599-16.226-0.43207-5.1537-0.21806-6.7344 1.32-9.7492 4.5039-8.8284 11.934-13.859 20.559-13.92 5.4982-0.0389 7.8414 1.2606 7.8414 4.3488 0 3.0406-2.0077 4.1702-6.3443 3.5693-4.6003-0.63742-7.0761 0.52134-10.687 5.0022-3.0211 3.7484-4.4939 10.552-3.2347 14.942 2.0773 7.2433 7.983 8.936 14.97 4.291 2.1846-1.4523 4.8171-2.6422 5.85-2.6443 3.2051-6e-3 4.0071-1.8774 2.8863-6.7332-1.2823-5.5553 0.49271-10.548 4.069-11.446 3.6764-0.92273 4.2786 0.55286 4.3906 10.76 0.0891 8.1175 0.32885 9.5516 1.7731 10.608 2.319 1.6957 4.8011 1.5216 8.2457-0.57854 2.7243-1.6609 2.8993-2.04 2.3749-5.1439-0.37716-2.2324-0.0778-4.5712 0.89691-7.0073 1.2001-2.9993 2.2803-4.0379 6.0105-5.779 4.7185-2.2024 5.6928-2.2407 33.9-1.3322 1.0942 0.0352 2.683-0.22376 3.5307-0.57557 2.0801-0.8632 6.7125-0.88355 8.0847-0.0355 0.61231 0.37844 1.5554 0.24604 2.0956-0.29423 1.409-1.409 5.2068-1.2105 7.4943 0.39176 2.1556 1.5099 2.4639 3.9835 1.0146 8.1411-1.2366 3.5472 0.23497 6.5986 2.993 6.2059 1.7353-0.24705 1.9264-0.7993 1.9272-5.5703 0-6.3447 1.5582-10.455 4.4616-11.778 2.3209-1.0574 4.7123-0.5469 4.963 1.0596 0.0865 0.55489 0.18589 6.04 0.22067 12.189 0.0344 6.1492 0.38273 11.5 0.77323 11.891 1.4481 1.4487 2.1214-1.7933 1.9083-9.1888-0.27522-9.548 1.1203-13.047 5.712-14.323 5.2414-1.456 7.7093-1.0891 9.7005 1.4423 2.3152 2.9433 2.3218 5.637 0.0212 8.5618-0.9946 1.2644-2.3283 4.3036-2.964 6.7538-1.129 4.3527-1.1089 4.4666 0.8788 4.9655 1.1189 0.28082 3.3463 0.0824 4.9499-0.44077 1.6036-0.52324 6.2903-1.0778 10.415-1.2324 6.3015-0.23615 7.5468-0.52733 7.7963-1.823 0.4466-2.3193-1.2392-3.8012-5.5629-4.89-6.6294-1.6693-8.5733-6.7455-4.191-10.944 4.0881-3.9167 7.3431-4.5945 12.055-2.5102 3.8702 1.712 4.029 1.9298 4.029 5.5264 0 2.6676 0.571 4.3523 1.986 5.8594 1.5328 1.6327 1.9712 3.1108 1.921 6.4786-0.083 5.5762-2.3343 8.6831-7.7576 10.705-3.8016 1.4175-4.4154 1.4274-8.2302 0.13223-3.7691-1.2797-4.3759-1.2786-7.0841 0.0129-2.0745 0.98923-5.4859 1.4124-11.385 1.4124-8.2253 0-8.487-0.0637-11.134-2.7102-2.0708-2.0707-2.8847-2.4352-3.4493-1.5447-0.40647 0.64107-0.74516 1.3997-0.75257 1.6859-0.0203 0.77241-4.272 2.569-6.0799 2.569-0.86352 0-2.5029-0.99301-3.6431-2.2067-2.7243-2.8999-4.3966-2.7837-7.2831 0.50576-2.9415 3.3522-5.9777 3.2421-7.2047-0.26114-0.60305-1.7218-0.5011-3.0399 0.35943-4.6478 1.2977-2.4249 1.7071-9.6425 0.68884-12.147-0.46879-1.1532-1.6472-1.5447-4.6496-1.5447-3.5047 0-4.1322 0.291-4.8824 2.2642-0.47338 1.2453-0.86079 4.4042-0.86079 7.0199 0 7.2168-2.2466 10.911-5.805 9.5454-2.083-0.79934-3.0218-4.1439-3.0218-10.766 0-6.3297-0.86909-8.0632-4.0427-8.0632-1.7546 0-1.9141 0.42168-1.8095 4.7858 0.1384 5.7726-1.7111 8.7354-7.4662 11.96-3.305 1.8521-5.3622 2.2418-13.603 2.5769-18.657 0.75868-23.324 0.47741-26.097-1.5727-2.9569-2.1862-4.2136-2.3049-6.6124-0.6248-1.9928 1.3958-6.8621 2.7538-12.749 3.5556-3.1243 0.42553-4.8147 0.11307-7.9202-1.464zm63.326-8.229c3.18-2.2274 3.9814-4.4744 2.8347-7.9488-1.7836-5.4046-6.4502-6.374-10.056-2.089-5.5767 6.6274 0.34266 14.856 7.2211 10.038zm129.36 7.612c-1.5395-0.94529-3.8661-3.5393-5.1701-5.7645-2.0546-3.506-2.3827-5.074-2.4587-11.751-0.071-6.2751 0.2927-8.5622 1.9622-12.324 1.7525-3.9485 2.7082-4.9361 6.5819-6.802 5.8621-2.8236 12.286-4.3754 15.144-3.6582 2.6261 0.65909 3.9484 3.4883 3.1048 6.6427-0.6507 2.4332-2.8918 3.357-8.4765 3.494-5.4864 0.13461-8.2316 3.4693-8.8479 10.748-0.6502 7.6788 1.3031 11.728 5.8416 12.11 2.406 0.20258 3.5988-0.25041 5.2293-1.986 1.5708-1.672 3.0044-2.2485 5.592-2.2485h3.4797l-0.5975-5.5789c-0.7036-6.5706 0.5112-10.084 3.7691-10.902 4.6137-1.158 6.0177 1.6378 6.5422 13.028 0.1769 3.8422 0.7335 7.3976 1.2367 7.9008 0.6315 0.63149 2.4551 0.4407 5.8861-0.61582 4.4352-1.3657 4.9173-1.7454 4.4716-3.5216-0.9096-3.6241 2.1299-10.605 5.9269-13.612 5.7893-4.5852 11.041-4.2906 18.468 1.0362 1.0362 0.74319 2.4065 0.23379 6.1529-2.2873 5.1865-3.4903 7.8312-3.6627 12.207-0.79583 1.8641 1.2214 2.0603 1.8409 1.5646 4.9406-0.6006 3.7563 0.4461 5.9948 2.8032 5.9948 1.0791 0 1.2293-0.77775 0.7812-4.0466-0.5014-3.6582-0.3077-4.2936 2.0188-6.6201 2.3355-2.3354 3.1256-2.5735 8.5426-2.5735 4.8652 0 6.3371 0.34575 7.9592 1.8696l1.9901 1.8696 4.0314-1.9515c3.6502-1.7671 4.8238-1.8921 12.415-1.323 5.8378 0.43768 9.1617 0.3061 10.947-0.43336 3.5277-1.4612 6.2545 0.0308 6.2545 3.4223 0 3.0497-1.0842 4.0177-5.9605 5.3214-4.9063 1.3118-6.5706 3.8983-6.3883 9.9283 0.233 7.7029 0.072 8.5548-1.8173 9.5654-1.3192 0.706-2.6329 0.69587-4.8548-0.0374-3.4581-1.1413-3.569-1.6932-2.0697-10.302 1.1066-6.3548 0.3401-8.2197-3.3784-8.2197-1.2022 0-3.5224-0.63422-5.156-1.4094-2.9554-1.4024-2.9898-1.3932-6.9741 1.8717-3.1882 2.6125-4.0066 3.844-4.0162 6.0434-0.01 1.5193-0.2665 3.7135-0.5776 4.8759l-0.5656 2.1135 6.3099-0.62176c6.1958-0.61053 6.3287-0.58036 7.3543 1.6705 2.1458 4.7098-3.467 6.7962-15.72 5.8434-6.9024-0.53671-7.8592-0.83133-9.3995-2.8944l-1.7149-2.2969-4.8802 2.2342c-7.0167 3.2124-12.025 3.607-15.276 1.2035-2.5031-1.8506-2.6759-1.8629-5.4566-0.3887-1.5795 0.83733-3.2689 1.5822-3.7544 1.6551-0.4855 0.073-1.1806 0.2293-1.5447 0.34737-1.5766 0.51132-5.6995 0.31816-6.724-0.31503-0.6143-0.37962-1.3422-0.46485-1.6176-0.1894-0.2755 0.27545-1.4942-0.28058-2.7085-1.2356-2.7962-2.1996-2.9937-2.1861-6.9081 0.47024-2.7446 1.8626-4.2714 2.2067-9.7908 2.2067-5.8705 0-6.7517-0.22946-8.6192-2.2445l-2.0801-2.2445-5.1599 1.7026c-8.444 2.7863-12.664 3.0742-15.903 1.0851zm59.79-7.1565c2.6703-1.4292 2.3659-7.8694-0.4994-10.561l-2.2066-2.0731-2.1225 1.994c-2.494 2.343-3.6479 7.253-2.2976 9.7762 1.0435 1.9498 4.3486 2.3505 7.1261 0.86399zm20.93-0.46034c1.079-0.75574 1.9617-2.0154 1.9617-2.7992 0-2.0691-2.6267-4.6485-4.7709-4.6848-1.017-0.0172-2.8422-0.59894-4.0559-1.2927-3.1927-1.8251-3.5307-1.6594-3.5307 1.731 0 3.1547 2.2341 6.1018 5.7374 7.5687 2.4396 1.0215 2.456 1.0196 4.6584-0.52298z" style="stroke-width:.88268"/>
</svg>
